<svg xmlns="http://www.w3.org/2000/svg">
<defs>
<font id="UtmFace" horiz-adv-x="1048" >
  <font-face 
    font-family="UtmFace"
    font-weight="400"
    font-stretch="normal"
    units-per-em="2048"
    panose-1="2 4 4 3 5 5 6 2 2 4"
    ascent="1638"
    descent="-410"
    x-height="1090"
    cap-height="1536"
    bbox="-1712 -496 3175 2489"
    underline-thickness="109"
    underline-position="-359"
    unicode-range="U+0020-FB02"
  />
<missing-glyph horiz-adv-x="3298" 
d="M2158 1244h7q23 -6 23 -33q0 -8 -20 -37h-18q0 16 18 35l1 6q-3 9 -6 10h-6q-5 0 -6 -12h-20q4 31 27 31zM1307 1225l18 -19q0 -11 -25 -20h-12l-38 8l-7 -8l-18 16q7 19 27 19h8l26 -7h2q6 0 19 11zM315 1202h91v-38h-60v-48h57v-38h-57v-82l-3 -3h-31v206zM755 1202h27
l4 -3v-50h19v-33h-19v-120l-4 -3h-31v123h-16v33h16v50zM1052 1202h27l3 -3v-60h2q14 16 34 16h2q37 0 53 -46l1 -25v-91h-33v73q0 51 -27 51h-5q-27 0 -27 -55v-69h-33v206zM1423 1202h31l3 -3v-142q6 -32 29 -32q28 4 28 37v137l3 3h31v-138q0 -54 -42 -71q-9 -5 -22 -5
q-30 0 -53 35q-8 15 -8 36v143zM1573 1202h101v-38h-35v-171h-34v171h-35v35zM1692 1202h45q4 -2 53 -160h1l51 160h47v-209h-34v154h-2l-47 -154h-28q-3 0 -37 116l-12 38h-2v-154h-35v209zM2420 1202h33v-209h-29l-3 3v7l2 1l-2 9q-19 -25 -50 -25q-43 0 -64 58l-3 25v2
q0 60 59 80l15 2q22 0 40 -21h2v68zM1331 1169h23l3 -4v-31h-29v-141h-31v14q-14 -19 -37 -19q-57 9 -57 62v99h32v-66q0 -51 17 -55l11 -3h4q17 0 25 23l2 16v85h34v16zM2238 1169v-35h-20v-141h-30v16h-1q-10 -21 -36 -21q-44 0 -55 50l-2 18v93h33v-76q0 -32 12 -44
l14 -4h5q27 0 27 44v80h17q3 0 3 18l2 2h31zM501 1155q43 0 66 -50q5 -11 7 -34q0 -56 -57 -81l-21 -2q-40 0 -64 46q-8 14 -8 34v6q0 60 65 81h12zM662 1155h2q48 0 53 -65v-97h-32v76q0 48 -27 48h-3q-28 0 -28 -48v-76h-34v156h30v-13q19 19 39 19zM953 1155h5
q46 0 67 -57h-38q-11 19 -27 19h-11q-34 -9 -34 -39l-2 -9q8 -44 39 -44h6q14 0 30 17h25l2 2h2l1 -2l1 2l2 -2l1 2l2 -5q-21 -51 -71 -51q-48 0 -70 60l-3 23v2q0 54 50 76q9 6 23 6zM2024 1155h1q32 0 45 -39v-9h-33q0 10 -10 10h-3q-9 0 -12 -8v-8q0 -6 43 -23

<glyph glyph-name=".notdef" horiz-adv-x="3298" 
d="M2158 1244h7q23 -6 23 -33q0 -8 -20 -37h-18q0 16 18 35l1 6q-3 9 -6 10h-6q-5 0 -6 -12h-20q4 31 27 31zM1307 1225l18 -19q0 -11 -25 -20h-12l-38 8l-7 -8l-18 16q7 19 27 19h8l26 -7h2q6 0 19 11zM315 1202h91v-38h-60v-48h57v-38h-57v-82l-3 -3h-31v206zM755 1202h27
l4 -3v-50h19v-33h-19v-120l-4 -3h-31v123h-16v33h16v50zM1052 1202h27l3 -3v-60h2q14 16 34 16h2q37 0 53 -46l1 -25v-91h-33v73q0 51 -27 51h-5q-27 0 -27 -55v-69h-33v206zM1423 1202h31l3 -3v-142q6 -32 29 -32q28 4 28 37v137l3 3h31v-138q0 -54 -42 -71q-9 -5 -22 -5
q-30 0 -53 35q-8 15 -8 36v143zM1573 1202h101v-38h-35v-171h-34v171h-35v35zM1692 1202h45q4 -2 53 -160h1l51 160h47v-209h-34v154h-2l-47 -154h-28q-3 0 -37 116l-12 38h-2v-154h-35v209zM2420 1202h33v-209h-29l-3 3v7l2 1l-2 9q-19 -25 -50 -25q-43 0 -64 58l-3 25v2
q0 60 59 80l15 2q22 0 40 -21h2v68zM1331 1169h23l3 -4v-31h-29v-141h-31v14q-14 -19 -37 -19q-57 9 -57 62v99h32v-66q0 -51 17 -55l11 -3h4q17 0 25 23l2 16v85h34v16zM2238 1169v-35h-20v-141h-30v16h-1q-10 -21 -36 -21q-44 0 -55 50l-2 18v93h33v-76q0 -32 12 -44
l14 -4h5q27 0 27 44v80h17q3 0 3 18l2 2h31zM501 1155q43 0 66 -50q5 -11 7 -34q0 -56 -57 -81l-21 -2q-40 0 -64 46q-8 14 -8 34v6q0 60 65 81h12zM662 1155h2q48 0 53 -65v-97h-32v76q0 48 -27 48h-3q-28 0 -28 -48v-76h-34v156h30v-13q19 19 39 19zM953 1155h5
q46 0 67 -57h-38q-11 19 -27 19h-11q-34 -9 -34 -39l-2 -9q8 -44 39 -44h6q14 0 30 17h25l2 2h2l1 -2l1 2l2 -2l1 2l2 -5q-21 -51 -71 -51q-48 0 -70 60l-3 23v2q0 54 50 76q9 6 23 6zM2024 1155h1q32 0 45 -39v-9h-33q0 10 -10 10h-3q-9 0 -12 -8v-8q0 -6 43 -23
q20 -12 20 -37q0 -37 -39 -51l-15 -2q-49 7 -49 53h35q0 -13 17 -16h3q12 0 15 14q0 15 -44 29q-21 17 -21 37q0 42 47 50zM2703 1155q35 0 49 -41q5 -11 5 -41v-80h-34v71q0 53 -25 53h-7q-21 0 -26 -34v-90h-33v3h-1l1 1v152h30v-13q16 19 41 19zM2849 1155h3q26 0 45 -26
v11l-2 2l2 7h30v-133q0 -62 -55 -84l-21 -2h-4q-45 0 -67 51h38q15 -14 29 -15h8q14 0 28 14q9 8 14 33h-2q-21 -25 -47 -25q-36 0 -61 44q-7 12 -9 41q0 56 55 80zM2478 1149h34v-87q4 -37 25 -37h5q29 0 29 59v65h33v-156h-30l-2 6h2l-2 2v3l2 2v1h-3q0 -14 -36 -19h-2
q-38 0 -54 48l-1 54v59zM457 1069q7 -44 41 -44h4q38 9 38 41v10q-9 41 -38 41h-3q-37 0 -42 -48zM2337 1071q8 -46 39 -46h3q37 0 42 48q0 31 -33 44h-14q-23 0 -35 -36zM2812 1071q5 -46 42 -46h3q38 7 38 46t-38 46h-9q-36 -10 -36 -39v-7zM2527 972h33v-36h-33v36z
M690 833q27 -7 27 -31v-3q0 -11 -20 -38h-18q0 16 20 36v5q0 7 -5 9h-7q-7 -2 -7 -12h-18v4q0 20 22 28zM2157 793q59 0 88 -64h-38q-24 27 -51 27q-35 0 -56 -43q-6 -14 -6 -30q0 -50 51 -71h12q23 0 48 25h39q-28 -62 -88 -62t-90 71q-7 20 -7 40q0 62 58 97q18 10 40 10z
M2358 793q37 0 66 -30q30 -33 30 -74v-13q0 -57 -59 -93q-21 -8 -40 -8q-57 0 -88 64q-8 21 -8 39v11q0 63 62 97q19 7 37 7zM1462 791h1l30 -7h2q7 0 16 7l12 -23q-12 -12 -22 -12h-2l-35 7l-13 -5l-12 23q11 10 23 10zM474 790h12q75 0 83 -17q16 -17 16 -40
q-7 -36 -20 -36v-4q30 -15 30 -42v-12q0 -40 -44 -56l-34 -3h-43v210zM1646 790h34v-139q4 -39 29 -39q18 0 28 25l2 19v130l2 4h29l3 -4v-110q0 -75 -25 -85q-15 -16 -41 -16q-35 0 -58 48l-3 35v132zM1809 790h38q3 0 78 -152h3v152h31l3 -4v-206h-37q-19 31 -80 152h-2
v-152h-34v210zM1998 790h35v-210h-35v210zM2483 790h5q99 0 111 -26q15 -7 30 -48l3 -23v-7l2 -1q0 -60 -53 -96q-22 -9 -63 -9h-35v210zM2663 790h98v-39h-66v-48h65v-36h-65v-48l3 -3h63v-36h-100v206zM2294 688v-7q0 -48 50 -69h12q44 0 62 55l2 13v9q0 39 -39 60
q-7 5 -25 7q-42 0 -61 -53zM508 751v-43h6q35 0 35 18l2 9q-7 16 -19 16h-24zM2517 751v-132l1 -1v-2q67 0 78 49l1 9v19q0 22 -20 43q-16 15 -50 15h-10zM682 742h3q24 0 45 -26v20h32v-156h-32v20q-23 -25 -51 -25q-48 0 -64 62l-4 23q0 57 55 80zM856 742h2q47 0 53 -66
v-96h-32v82q0 42 -27 42h-7q-21 0 -25 -39v-85h-33v156h30v-13q18 19 39 19zM1003 742h3q29 0 45 -26v20h30v-140q0 -60 -66 -80h-11q-47 0 -69 52h38q17 -16 28 -16h9q33 0 41 50q-21 -27 -48 -27q-39 0 -65 52l-4 28v10q0 50 54 75zM1238 742h2q27 0 39 -24h1q20 24 44 24
h3q36 0 50 -36q5 -16 5 -28v-98h-33v88q0 28 -15 35l-7 1h-10q-20 0 -23 -41v-83h-33v87q0 37 -28 37h-5q-20 0 -23 -36v-88h-34v156h32v-13h1q4 15 34 19zM1475 742q30 0 48 -27v21h30v-156h-30v20q-23 -25 -50 -25q-47 0 -65 59l-4 26q0 57 54 80zM646 651q0 -31 39 -39h2
q29 0 40 29l2 10v14q-8 39 -36 39h-9q-27 0 -38 -36v-17zM967 658q0 -31 27 -44l12 -2h3q30 0 40 36v15q-7 41 -37 41h-8q-31 0 -37 -46zM1439 660v-9q9 -39 36 -39h9q37 7 37 41v7q0 29 -24 41l-11 3h-7q-40 -5 -40 -44zM508 672v-53q0 -3 5 -3q49 0 49 29q0 22 -30 27h-24
zM1912 418l16 -18l-33 -35q-12 8 -17 17zM990 402l55 -35q0 -10 -14 -27l-55 35q11 26 14 27zM1838 380h24l35 -39h-34l-13 17l-15 -17h-35q35 39 38 39zM2204 380h25l36 -39h-34l-16 17v0q0 -3 -13 -17h-34zM414 375h33q5 -3 30 -88l22 -70q6 5 22 64l30 94h35v-2l-72 -208
h-28zM757 375h33v-35h-33v35zM882 375h29l4 -4v-206h-33v210zM1497 375h29l3 -4v-49h19v-34h-19v-123h-34v123h-17v34h17v49zM1566 375h34v-63h1q15 15 34 15h2q37 0 52 -46l2 -24v-92h-33v74q0 51 -25 51h-7q-26 0 -26 -55v-70h-34v210zM1719 375h33v-35h-33v35zM1952 375
h28l4 -4v-49h18v-34h-18v-123h-35v123h-17v34h17v49zM2083 375h34v-210h-34v210zM2546 375h33v-210h-33v210zM2775 375h33v-35h-33v35zM1010 327h3q53 0 71 -65l2 -15v-7q0 -53 -55 -77l-22 -3q-49 0 -71 62l-3 20q0 62 60 83zM1174 327h2q34 0 50 -39q5 -16 5 -51v-72h-35
v93q-4 32 -23 32h-7q-24 0 -27 -36v-89h-34v157h31v-14q17 19 38 19zM1324 327h3q28 0 40 -25h2v20h31v-132q0 -65 -57 -86l-18 -2h-3q-46 0 -68 51h34l23 -12l10 -2h9q32 0 39 46q-21 -25 -47 -25q-39 0 -62 48q-8 15 -8 39q0 54 55 78zM1848 327h2q52 0 70 -67l2 -16
l-2 -17h-109q9 -29 28 -29l9 -2q19 0 32 14h36v-2q-22 -48 -69 -48q-49 0 -71 62l-1 18v5q0 31 21 57q22 25 52 25zM2208 327h3q27 0 45 -25h1v20h30v-157h-30v20h-1q-22 -25 -49 -25q-46 0 -65 57l-3 23v9q0 55 54 76zM2388 327h5q56 0 68 -82l-1 -1v-9q0 -42 -42 -68
q-14 -7 -30 -7q-21 0 -41 20v-63l-3 -3h-31v208h31v-18q20 23 44 23zM2670 327q28 0 48 -25v20h31v-157h-31v20q-23 -25 -50 -25q-58 0 -69 84q0 54 47 78q10 5 24 5zM606 322h32v-87q1 -39 26 -39h4q28 0 28 56v70h33v-157h-30v15h-3q0 -14 -36 -20h-2q-35 0 -52 43
q-3 23 -3 64v51zM757 322h33v-157h-33v157zM1719 322h33v-157h-33v157zM2775 322h33v-157h-33v157zM970 249v-10q8 -43 38 -43h2q38 0 42 49q-8 45 -37 45h-7q-38 -10 -38 -41zM1286 239q10 -43 38 -43h7q31 0 38 48v1q-8 45 -38 45h-9q-25 0 -36 -36v-15zM1809 260h78v2
q-10 28 -37 28h-5q-22 0 -36 -30zM2172 240q9 -44 39 -44h4q33 0 41 41v7q-6 46 -36 46h-11q-35 -9 -35 -40zM2344 242q8 -46 39 -46h2q32 0 42 39v14q0 27 -32 41h-14q-30 0 -37 -46v-2zM2634 239q6 -43 42 -43q28 0 39 31l1 10v10q0 34 -33 43h-11q-27 0 -38 -38v-13z
M2200 142h32v-33h-32v33zM2661 142h32v-33h-32v33zM1763 22h3q22 0 27 -32v-1q0 -11 -15 -27l-6 -11h-18q0 16 18 36l1 2v1q-1 12 -5 12h-7q-5 0 -5 -12h-20q4 32 27 32zM1004 11l34 -38l-17 -13l-33 34zM241 -13h3q48 -30 54 -38l-13 -24q-56 32 -56 37zM2247 -13l55 -37
l-11 -25q-7 0 -59 35q10 23 15 27zM2943 -15l12 -26l-58 -34l-13 25l59 37v-2zM786 -29h32v-12l4 -4h9v-23h-9l-4 -3v-178h-29v20q-22 -26 -52 -26q-46 0 -65 67l-2 17q0 65 65 84h9q21 0 42 -22v38l-4 3h-27v23h31v16zM962 -34h26l36 -39h-34l-15 17l-15 -17h-34zM1704 -34
h22q7 0 40 -39h-35l-14 17q-13 -14 -13 -17h-37v2zM48 -40h102v-38h-36v-171h-32l-2 3v157l1 2v1l-1 1l1 2l-1 1l1 2l-1 2h-35v35zM463 -40h30v-46l1 -1l-1 -2v-2l1 -2l-1 -2v-1l1 -2v-1l-1 -2l1 -2h2q11 16 33 16h2q34 0 49 -38q5 -10 5 -26v-98h-34v81q0 43 -25 43h-5
q-28 0 -28 -55v-69h-33v206zM845 -40h30l4 -3v-32h-34v35zM1286 -40h34v-126l44 73h40l-50 -75l58 -80v-1h-45q-6 14 -47 73v-73h-34v209zM1468 -40v-63q15 16 34 16q36 0 51 -36q6 -12 6 -50v-76h-34v85q0 39 -26 39h-7q-20 0 -24 -35v-89h-34v200l-1 2v2l1 2l-1 2l1 1h34z
M1587 -40h33v-35h-33v35zM2029 -40h32v-69q17 22 44 22h1q48 0 68 -61l3 -23q0 -48 -41 -77q-19 -7 -31 -7q-27 0 -46 26v-20h-30v209zM2749 -40h33v-63h1q15 16 35 16h2q38 0 52 -48l2 -26v-88h-34v71q0 52 -20 52l-7 1h-7q-24 0 -24 -51v-73h-33v209zM227 -87h1v-38h-3
q-27 0 -27 -36v-88h-33v156h30v-13q11 19 32 19zM377 -87q45 0 55 -56v-106h-33v87q-4 37 -26 37h-4q-29 0 -29 -53v-71h-33v156h32v-13q16 19 38 19zM978 -87q46 0 67 -61l3 -25q-1 -15 -5 -15h-108q11 -30 40 -30q15 0 31 14h36q-21 -51 -69 -51q-52 0 -72 67v24
q0 52 57 75zM1715 -87h3q49 0 68 -63l2 -16v-14l-2 -8h-108q11 -30 33 -30h8q14 0 27 14h38q-22 -51 -67 -51q-54 0 -74 65l-1 19q0 59 58 82zM1880 -87h2q35 0 50 -39q4 -16 4 -52v-71h-34v88q0 31 -22 36h-7q-25 0 -28 -36v-88h-34v156h31v-13q16 19 38 19zM2259 -87h3
q26 0 45 -26h1v20h31v-156h-31v20h-1q-22 -26 -50 -26q-45 0 -64 58l-3 23v8q0 52 49 75q7 4 20 4zM2433 -87h3q39 0 52 -50l2 -54v-58h-34v88q0 31 -25 36h-6q-24 0 -26 -33v-91h-35v156h31v-13q17 19 38 19zM2658 -87h1q47 0 66 -60l3 -26q0 -56 -54 -80l-16 -2
q-26 0 -43 22v-68h-34v208h30v-18q20 24 47 24zM3030 -87h3q21 0 40 -24q17 24 44 24h4q36 0 50 -43l4 -32v-87h-33v78q0 46 -25 46h-4q-23 0 -27 -32v-89l-3 -3h-30v89q0 27 -20 35h-11q-26 0 -26 -49v-75h-32v156h30v-13q14 19 36 19zM246 -93h31l3 -3v-150l-3 -3h-31v156
zM845 -93h34v-156h-34v156zM1070 -93h34v-87q2 -38 27 -38h3q28 0 28 52v73h33v-156h-30v15h-3q-8 -21 -38 -21q-33 0 -50 40q-4 8 -4 22v100zM1587 -93h33v-156h-33v156zM2902 -93h33v-156h-33v156zM705 -171q0 -34 32 -47h8q34 0 42 42v7q0 34 -34 44h-11q-25 0 -37 -36
v-10zM935 -155h78q-11 30 -33 30h-5q-27 0 -40 -28v-2zM1678 -155h78q-14 30 -35 30h-4q-30 0 -39 -30zM2059 -164v-7q7 -47 39 -47h3q41 5 41 45v4q0 28 -24 41l-12 3h-8q-39 -9 -39 -39zM2223 -174q9 -44 39 -44h7q27 0 38 38v9q-5 46 -36 46h-10q-30 0 -38 -46v-3z
M2613 -164v-14q0 -30 37 -40h6q32 0 39 49q-8 44 -37 44h-9q-36 -10 -36 -39zM1910 2156h-149v105h149v-105zM1338 2489h149v-488l95 113h169l-139 -148l149 -225v373h149v-391h-137h-12h-168l-79 142l-27 -29v-113h-149v766zM1761 2114zM2083 1885q6 -76 76 -76q45 0 63 28
h139q-23 -64 -79 -94t-122 -30q-94 0 -156.5 53t-62.5 151q0 85 56.5 146t149.5 61q223 0 223 -239h-287zM2395 2114h144v-50h1q43 60 127 60q52 0 93 -33t41 -100v-268h-149v205q0 77 -49 77q-19 0 -39 -14.5t-20 -61.5v-206h-149v391zM2281 2168l-33 -33l-99 63l-98 -63
l-33 33l101 93h61zM358 1532v6h16v18q0 18 19 18q3 0 4.5 -0.5t3.5 -0.5v-6q-3 1 -8 1q-12 0 -12 -12v-18h18v-6h-18v-82h-7v82h-16zM660 1494q0 -46 -42 -46q-41 0 -41 46q0 47 41 47q42 0 42 -47zM847 1538h14v-13v0q9 16 29 16q30 0 30 -33v-58h-15v60q0 18 -17 18
q-27 0 -27 -28v-50h-14v88zM1133 1538h18v-12h-18v-55q0 -8 11 -8h7v-13h-11q-21 0 -21 19v57h-15v12h15v27h14v-27zM1397 1509q-2 17 -20 17q-24 0 -24 -33q0 -30 23 -30q17 0 21 20h20q-7 -35 -41 -35q-43 0 -43 45q0 48 44 48q37 0 40 -32h-20zM1604 1572h19v-45v0
q8 14 27 14q31 0 31 -30v-61h-19v56q-2 20 -17 20q-22 0 -22 -24v-52h-19v122zM1955 1450h-23v12h-1q-9 -14 -27 -14q-32 0 -32 36v54h24v-49q0 -22 16 -22q19 0 19 25v46h24v-88zM2237 1450h-33v10v0q-8 -12 -26 -12q-37 0 -37 47q0 46 37 46q17 0 25 -12v0v43h34v-122z
M2455 1487q1 -17 18 -17q9 0 14 6h31q-11 -28 -45 -28q-50 0 -50 46q0 47 47 47q50 0 50 -54h-65zM2706 1539h32v-10h1q8 12 26 12q37 0 37 -47q0 -46 -38 -46q-17 0 -24 12v0v-39h-34v118zM374 2084h119q97 0 132 -55.5t35 -124.5q0 -77 -40.5 -129t-127.5 -52h-118v184
h-34v17h34v160zM674 2084h23v-361h-23v361zM723 2084h26l229 -331h1v331h22v-361h-26l-230 334h-1v-334h-21v361zM1049 1901v-178h-22v361h22v-163h232v163h22v-361h-22v178h-232zM530 1924v0v-17h-133v-165h97q51 0 97.5 34t46.5 128q0 111 -54 136t-95 25h-92v-141h133z
M2753 1473v0q15 0 15 21q0 22 -15 22t-15 -22q0 -21 15 -21zM2488 1504v0q0 15 -15 15t-18 -15h33zM2190 1516v0q-15 0 -15 -22q0 -21 15 -21q14 0 14 21q0 22 -14 22zM587 1494v0q0 -37 31 -37t31 37q0 38 -31 38t-31 -38zM2226 1962v0q0 66 -65 66q-67 0 -77 -66h142z" />
    <glyph glyph-name=".null" horiz-adv-x="0" 
 />
    <glyph glyph-name="nonmarkingreturn" horiz-adv-x="571" 
 />
    <glyph glyph-name="space" unicode=" " horiz-adv-x="827" 
 />
    <glyph glyph-name="exclam" unicode="!" horiz-adv-x="524" 
d="M436 96q-10 -39 -36 -57q-20 -21 -65 -30q-34 -7 -74 -7q-36 0 -69 7q-46 10 -66 30q-23 18 -33 57q-6 27 -6 68q0 35 6 62q10 39 33 57q21 20 63 30q32 6 72 6q103 0 139 -36q26 -18 36 -57q5 -25 5 -62q0 -43 -5 -68zM83 1436h360l-36 -1026h-283z" />
    <glyph glyph-name="quotedbl" unicode="&#x22;" horiz-adv-x="913" 
d="M257 1024l-98 -4l72 194l-31 5l-31 7q-35 9 -55 29q-41 33 -41 121q0 93 41 125q20 18 66 27q34 6 69 6q40 0 70 -6q44 -8 67 -27q26 -20 34 -56q5 -22 5 -69q0 -26 -5 -49l-9 -35l-12 -28zM675 1024l-98 -4l71 194l-30 5l-31 7q-35 9 -55 29q-41 33 -41 121q0 93 41 125
q20 18 66 27q33 6 69 6q39 0 70 -6q44 -8 67 -27q26 -20 34 -56q5 -22 5 -69q0 -26 -5 -49l-9 -35l-13 -28z" />
    <glyph glyph-name="numbersign" unicode="#" horiz-adv-x="1280" 
d="M911 729h227l-27 -199h-254l-67 -249h-178l67 249h-264l-70 -254l-172 5l66 249h-162l29 199h184l76 258h-228l25 199h254l68 246h176l-70 -246h268l68 246h176l-68 -246h160l-28 -199h-185zM538 987l-68 -258h264l74 258h-270z" />
    <glyph glyph-name="dollar" unicode="$" horiz-adv-x="1292" 
d="M1209 562q7 -38 7 -83q0 -29 -3 -73q-24 -253 -215 -349q-54 -29 -123 -46q-48 -12 -123 -21v-201h-229v197q-107 5 -218 19q-93 12 -165 26l-35 346l84 -17q62 -12 115 -20q70 -11 131 -17q73 -8 133 -8q215 0 252 99q16 43 -2 82q-21 42 -89 73q-29 13 -73 26
q-17 6 -41 13l-145 44q-60 19 -104 38q-119 49 -185 115q-66 68 -85 166q-13 69 -3 157q33 246 217 349q91 45 213 59v209h229v-199q99 -1 202 -12q87 -9 163 -23l29 -333l-38 6q-6 1 -10 1q-11 2 -20 4q-52 8 -96 14q-60 8 -112 12q-64 6 -118 6q-229 0 -270 -99
q-14 -42 2 -82q24 -44 97 -78q52 -24 171 -59l105 -33q59 -19 102 -37q112 -47 168 -106q65 -65 82 -165z" />
    <glyph glyph-name="percent" unicode="%" horiz-adv-x="1363" 
d="M-579 1425h262l-887 -1421h-260zM-1129 1337q70 -94 70 -268q0 -382 -327 -371q-173 -7 -255 99q-71 92 -71 270q0 180 73 272q83 105 261 101q169 4 249 -103zM-1243 1067q9 225 -141 225q-144 0 -144 -225q0 -223 144 -223q150 0 141 223zM-139 630q67 -90 67 -268
q0 -374 -327 -374q-174 0 -252 102q-70 90 -70 268q-10 373 328 373q176 4 254 -101zM-254 360q3 226 -139 226q-148 0 -148 -228q0 -223 148 -223q142 0 139 225z" />
    <glyph glyph-name="ampersand" unicode="&#x26;" horiz-adv-x="1484" 
d="M296 0q-92 37 -147 106q-45 55 -64 128q-14 52 -14 108q0 259 285 399l16 11l-10 8q-121 127 -121 272q0 142 115 244q53 50 129 80q98 39 221 39q174 0 289 -92q112 -89 125 -230q5 -102 -41 -186q-36 -67 -103 -119q-71 -55 -155 -84l200 -225q13 10 29 33q7 9 13 18
l14 22q15 27 26 56l223 -53q-30 -91 -79 -183q-22 -43 -50 -80l260 -272h-382l-86 84q-52 -39 -121 -68t-137 -45q-88 -20 -173 -16q-154 0 -262 45zM556 557q-137 -52 -168 -129q-23 -62 11 -111q4 -12 16 -25q14 -17 36 -31q57 -36 148 -36q78 0 156 33q32 15 59 33
l-254 268zM542 1059q0 -12 3 -26l13 -41q26 -58 84 -109l7 -2q111 26 157 83q37 45 31 101q-15 121 -150 121q-145 0 -145 -127z" />
    <glyph glyph-name="quotesingle" unicode="'" horiz-adv-x="514" 
d="M261 1024l-98 -4l72 194l-31 5l-31 7q-35 9 -55 29q-41 33 -41 121q0 93 41 125q20 18 66 27q34 6 69 6q40 0 70 -6q44 -8 67 -27q26 -20 34 -56q5 -22 5 -69q0 -26 -5 -49l-9 -35l-12 -28z" />
    <glyph glyph-name="parenleft" unicode="(" horiz-adv-x="661" 
d="M554 -258q-84 0 -162 36q-90 42 -157 124q-76 95 -118 235q-46 157 -46 367v92q0 208 46 365q42 140 118 235q67 83 157 125q78 37 162 37h11l14 -174q-89 -19 -155 -152q-77 -153 -77 -385v-194q0 -231 77 -386q66 -135 155 -157l-14 -168h-11z" />
    <glyph glyph-name="parenright" unicode=")" horiz-adv-x="675" 
d="M115 1360q84 0 162 -37q90 -41 157 -124q76 -94 117 -234q47 -158 47 -367v-92q0 -208 -47 -365q-41 -141 -117 -235q-67 -83 -157 -125q-78 -37 -162 -37h-11l-14 174q89 19 155 152q76 153 76 385v194q0 231 -76 386q-66 134 -155 157l14 168h11z" />
    <glyph glyph-name="asterisk" unicode="*" horiz-adv-x="944" 
d="M861 1100l-108 -187l-195 138l19 -240h-213l18 240l-194 -138l-109 187l213 102l-213 103l109 188l194 -137l-18 237h213l-19 -237l195 137l108 -188l-217 -103z" />
    <glyph glyph-name="plus" unicode="+" horiz-adv-x="1218" 
d="M743 408v-390h-281v390h-391v280h391v393h281v-393h393v-280h-393z" />
    <glyph glyph-name="comma" unicode="," horiz-adv-x="503" 
d="M257 -205l-98 -4l72 195l-31 4l-31 7q-35 10 -55 30q-41 32 -41 120q0 93 41 125q20 18 66 27q34 6 69 6q40 0 70 -5q44 -9 67 -28q26 -20 34 -56q5 -21 5 -69q0 -25 -5 -49l-9 -35l-12 -28z" />
    <glyph glyph-name="hyphen" unicode="-" horiz-adv-x="1083" 
d="M81 408v280h924v-280h-924z" />
    <glyph glyph-name="hyphen" unicode="&#x2010;" horiz-adv-x="1083" 
d="M81 408v280h924v-280h-924z" />
    <glyph glyph-name="period" unicode="." horiz-adv-x="499" 
d="M324 300q40 -8 62 -30q26 -20 36 -59q7 -25 7 -61q0 -42 -7 -68q-10 -40 -36 -57q-22 -21 -65 -30q-32 -7 -70 -7t-69 7q-43 9 -64 30q-26 17 -37 57q-8 28 -8 68q0 34 8 61q11 39 37 59q21 22 60 30q27 5 73 5q47 0 73 -5z" />
    <glyph glyph-name="slash" unicode="/" horiz-adv-x="1150" 
d="M885 1421h260l-885 -1421h-258z" />
    <glyph glyph-name="zero" unicode="0" horiz-adv-x="1398" 
d="M1221 1340q72 -101 106 -251q32 -136 32 -315q0 -394 -153 -592q-163 -212 -505 -205q-346 -7 -509 214q-144 197 -144 575q-5 380 148 579q165 217 511 209q353 12 514 -214zM988 768q0 479 -283 479q-293 0 -293 -481q0 -479 293 -479q283 0 283 481z" />
    <glyph glyph-name="one" unicode="1" horiz-adv-x="722" 
d="M670 0h-367v1214h-260l37 320h590v-1534z" />
    <glyph glyph-name="two" unicode="2" horiz-adv-x="1208" 
d="M1122 0h-1077v319l433 367q110 92 158 139q123 118 130 226q12 214 -275 176q-65 -8 -173 -49q-97 -38 -185 -86l41 364q92 44 190 68q110 26 226 26q267 0 417 -134q142 -127 142 -341q0 -93 -41 -186q-36 -83 -106 -169q-60 -73 -151 -157q-38 -34 -85 -75
q-33 -29 -88 -74l-131 -105h610z" />
    <glyph glyph-name="three" unicode="3" horiz-adv-x="1148" 
d="M759 817q342 -64 342 -373q0 -206 -174 -334q-179 -133 -479 -133q-120 0 -236 25q-98 21 -180 57l35 320q66 -35 151 -59q106 -29 205 -29q293 0 293 172q0 102 -99 152q-41 21 -102 35q-50 11 -121 18l-153 14v258l153 12q62 8 102 16q55 12 93 29q94 44 94 131
q0 145 -248 125q-83 -12 -148 -26q-76 -18 -126 -39l39 323q132 45 319 45q246 0 391 -111q138 -106 138 -271q0 -258 -289 -353v-4z" />
    <glyph glyph-name="four" unicode="4" horiz-adv-x="1339" 
d="M1265 326h-156v-326h-315v326h-756v274l606 934h465v-897h195zM433 637h361v549z" />
    <glyph glyph-name="five" unicode="5" horiz-adv-x="1206" 
d="M1052 1223h-555l-35 -219q35 6 76 6q124 0 227 -26q114 -28 195 -85q196 -128 196 -383q0 -226 -183 -379q-194 -162 -507 -162q-119 0 -244 25q-108 21 -190 53l37 320q75 -30 172 -54q120 -28 209 -28q138 0 218 38q103 50 103 160q0 256 -454 256q-113 0 -205 -14
l92 803h887z" />
    <glyph glyph-name="six" unicode="6" horiz-adv-x="1705" 
d="M1091 1255q-135 14 -256 -13q-105 -24 -194 -77q-77 -45 -133 -106q-48 -53 -68 -103q31 20 81 39q51 17 104 27q71 12 148 12q225 0 346 -104q143 -123 150 -398q5 -244 -138 -392q-157 -165 -456 -165q-346 0 -506 199q-70 88 -104 215q-31 116 -31 262q0 431 291 682
q229 206 616 228h115zM399 592q-18 -111 47 -204q76 -108 223 -101q262 12 262 233q0 126 -81 177q-66 41 -198 36q-214 -15 -253 -141z" />
    <glyph glyph-name="seven" unicode="7" horiz-adv-x="1218" 
d="M1171 1309q-127 -164 -254 -375q-56 -93 -108 -191q-58 -110 -107 -223q-55 -125 -97 -249q-47 -137 -79 -271h-415q58 194 147 399q42 97 89 189q52 105 110 205q64 110 134 213q77 113 161 217h-707l35 311h1091v-225z" />
    <glyph glyph-name="eight" unicode="8" horiz-adv-x="1288" 
d="M321 791q-232 118 -232 335q0 193 163 313q159 117 402 117q261 0 405 -125q124 -108 124 -266q0 -221 -234 -340l-4 -2q129 -45 210 -138q91 -105 91 -243q0 -209 -170 -338t-446 -129q-286 0 -450 137q-144 120 -144 291q0 263 285 383v5zM793 578q-63 58 -179 90
q-195 -50 -195 -230q-4 -192 225 -192q219 0 219 168q0 98 -70 164zM669 932q162 41 162 192q0 174 -193 174q-192 0 -192 -159q0 -147 223 -207z" />
    <glyph glyph-name="nine" unicode="9" horiz-adv-x="1705" 
d="M1274 1359q71 -87 106 -213q31 -115 31 -259q0 -431 -289 -686q-230 -204 -618 -226l-164 -4l33 305q162 0 286 32q108 27 186 78q64 42 106 100q33 43 52 96q-39 -25 -82 -41q-100 -41 -247 -41q-224 0 -347 104q-146 124 -153 397q-5 244 140 392q158 163 456 163
q343 0 504 -197zM1003 1142q-79 103 -227 103q-260 0 -260 -233q0 -124 80 -175q68 -43 196 -34q101 4 176 51q64 40 78 88q30 105 -43 200z" />
    <glyph glyph-name="colon" unicode=":" horiz-adv-x="489" 
d="M384 78q-23 -21 -66 -29q-29 -6 -69 -6q-41 0 -73 6q-45 8 -68 29q-22 20 -32 61q-7 29 -7 64q0 84 39 121q42 36 141 36q94 0 135 -36q41 -39 41 -121q0 -87 -41 -125zM384 743q-23 -20 -66 -31q-33 -7 -69 -7q-38 0 -73 7q-45 11 -68 31q-22 21 -32 60q-7 28 -7 65
q0 32 7 59q10 38 32 58q44 39 141 39q91 0 135 -39q41 -38 41 -117q0 -86 -41 -125z" />
    <glyph glyph-name="semicolon" unicode=";" horiz-adv-x="489" 
d="M407 119l-12 -29l-146 -246h-98l78 199q-93 0 -123 35q-39 36 -39 125q0 84 39 121q23 20 68 30q33 6 71 6q35 0 68 -6q46 -10 69 -30q37 -35 37 -121q0 -47 -12 -84zM413 927q6 -25 6 -59q0 -38 -6 -65q-9 -39 -31 -60q-23 -20 -67 -31q-33 -7 -70 -7q-38 0 -72 7
q-43 11 -67 31q-22 21 -32 60q-7 28 -7 65q0 32 7 59q10 38 32 58q44 39 139 39q93 0 137 -39q22 -20 31 -58z" />
    <glyph glyph-name="less" unicode="&#x3c;" horiz-adv-x="849" 
d="M71 717l717 448v-336l-447 -282l447 -283v-336l-717 453v336z" />
    <glyph glyph-name="equal" unicode="=" horiz-adv-x="1046" 
d="M63 647v281h920v-281h-920zM63 446v-278h920v278h-920z" />
    <glyph glyph-name="greater" unicode="&#x3e;" horiz-adv-x="843" 
d="M782 377l-717 -449v336l446 283l-446 282v336l717 -452v-336z" />
    <glyph glyph-name="question" unicode="?" horiz-adv-x="1062" 
d="M525 96q-10 -39 -36 -57q-21 -21 -64 -30q-31 -7 -69 -7q-39 0 -71 7q-44 9 -64 30q-26 18 -37 57q-7 27 -7 68q0 35 7 62q11 39 37 57q36 36 135 36q96 0 133 -36q25 -18 36 -57q7 -27 7 -62q0 -41 -7 -68zM999 1004l-1 -8l-1 -5l2 -2h-2q0 -140 -37 -207
q-102 -224 -438 -227v-147h-338v423q199 -26 262 -26h20q131 0 166 41q29 19 29 143q0 137 -35 156q-39 33 -164 33q-63 4 -183 -12l-106 -16l-102 -17l29 251q217 48 403 48q312 0 432 -183q56 -70 62 -245h2z" />
    <glyph glyph-name="at" unicode="@" horiz-adv-x="1607" 
d="M890 618q0 28 -8 46l-16 24q-27 21 -99 21h-233l22 209h250q241 0 299 -117q35 -70 35 -172v-303q62 -23 105 18q35 33 55 105q20 67 20 169q-5 117 -27 192q-27 90 -83 134q-72 63 -186 87q-49 10 -111 14q-50 4 -119 4q-289 0 -418 -146v-4q-59 -73 -81 -179
q-19 -87 -19 -228q0 -277 129 -386h2q68 -60 186 -87q45 -11 95 -15q40 -4 79 -4h398l-23 -193h-379q-53 0 -106 6q-67 6 -128 21q-158 38 -253 125q-207 161 -207 500q0 105 4 172q6 85 21 150q34 148 133 255q180 203 561 203q184 0 310 -31q146 -35 245 -116
q85 -66 130 -161q56 -119 56 -290q0 -232 -75 -366q-87 -156 -267 -156q-50 0 -101 5q-39 4 -81 11l-72 19l-12 28q-112 -63 -227 -63h-23q-106 0 -174 90q-45 59 -45 149v7q0 148 104 194q41 33 213 33h121v26zM804 420q-78 0 -90 -12q-16 -14 -16 -43q0 -68 71 -68
q45 0 121 35v88h-86z" />
    <glyph glyph-name="A" unicode="A" horiz-adv-x="1548" 
d="M1116 0l-72 236h-536l-70 -236h-434l559 1536h430l555 -1536h-432zM776 1178l-197 -658h394z" />
    <glyph glyph-name="B" unicode="B" horiz-adv-x="1320" 
d="M1267 457v-37q0 -212 -164 -332q-140 -102 -336 -102l-694 18v1532l531 12h124q219 -8 343 -101q151 -111 151 -337v-39q0 -163 -141 -276q186 -118 186 -338zM759 915q69 14 94 41q33 34 33 121q0 175 -219 164l-203 -4v-322h295zM704 295q219 -9 219 164
q0 155 -141 178h-318v-332l6 -2z" />
    <glyph glyph-name="C" unicode="C" horiz-adv-x="1208" 
d="M825 295q103 0 321 35v-305l-159 -23q-105 -16 -232 -16q-488 0 -633 354q-25 65 -38 152q-15 99 -15 227v100q0 159 24 274q21 104 62 171q163 286 602 286q164 0 389 -43v-303q-223 33 -352 33q-205 0 -272 -68q-70 -57 -70 -303v-233q0 -111 19 -179q15 -54 42 -81
q66 -78 275 -78h37z" />
    <glyph glyph-name="D" unicode="D" horiz-adv-x="1411" 
d="M1322 1087q23 -110 23 -268v-100q0 -261 -51 -379q-133 -348 -635 -348q-114 0 -232 1q-95 1 -188 3l-90 2q-53 1 -80 2v1538l586 6q248 0 405 -84q131 -70 197 -196q44 -78 65 -177zM960 868q0 232 -70 301q-63 70 -272 70q-63 0 -162 -10v-926q32 -4 73 -5l97 -1
q210 0 272 76q25 30 40 82q22 72 22 176v237z" />
    <glyph glyph-name="E" unicode="E" horiz-adv-x="1038" 
d="M466 913h400l-25 -280h-375v-330h502v-303h-897v1536h897v-297h-502v-326z" />
    <glyph glyph-name="F" unicode="F" horiz-adv-x="1034" 
d="M462 913h402l-31 -278h-371v-635h-393v1536h893v-297h-500v-326z" />
    <glyph glyph-name="G" unicode="G" horiz-adv-x="1300" 
d="M1228 43q-81 -19 -137 -29q-74 -12 -151 -18q-91 -8 -187 -8q-485 0 -635 352q-49 121 -49 381v100q0 318 86 443q172 282 600 282q175 0 389 -41l33 -303q-224 37 -383 37q-206 0 -270 -68q-74 -46 -74 -303v-239q0 -214 68 -256q51 -76 266 -76h71v338h-227l31 278h569
v-870z" />
    <glyph glyph-name="H" unicode="H" horiz-adv-x="1339" 
d="M1271 0h-395v635h-414v-635h-391v1536h391v-623h414v623h395v-1536z" />
    <glyph glyph-name="I" unicode="I" horiz-adv-x="538" 
d="M466 0h-391v1536h391v-1536z" />
    <glyph glyph-name="J" unicode="J" horiz-adv-x="870" 
d="M805 588q0 -222 -74 -345q-57 -97 -187 -167q-180 -90 -428 -90h-61l35 309q65 0 110 6q62 9 105 31q108 55 108 203v1001h392v-948z" />
    <glyph glyph-name="K" unicode="K" horiz-adv-x="1374" 
d="M921 0q-11 16 -38 59l-135 215q-45 72 -81 127l-209 330v-731h-393v1536h393v-664l430 664h410l-498 -729q0 -2 20 -33l53 -82q31 -47 77 -116l379 -576h-408z" />
    <glyph glyph-name="L" unicode="L" horiz-adv-x="1034" 
d="M981 0h-920v1536h389v-1237h500z" />
    <glyph glyph-name="M" unicode="M" horiz-adv-x="2154" 
d="M1671 0l-131 1085l-313 -1085h-289l-314 1085l-131 -1085l-444 4l229 1532h598l205 -729l207 729h584l233 -1536h-434z" />
    <glyph glyph-name="N" unicode="N" horiz-adv-x="1378" 
d="M1312 0h-393l-463 819v-819h-391v1534h391l463 -809v809h393v-1534z" />
    <glyph glyph-name="O" unicode="O" horiz-adv-x="1435" 
d="M1400 817v-100q0 -270 -49 -377q-78 -183 -240 -268q-155 -84 -391 -84t-391 84q-164 89 -240 268q-51 111 -51 377v100q0 326 88 445q75 128 203 196q156 86 391 86q234 0 391 -86q123 -66 203 -196q86 -123 86 -445zM720 297q186 3 236 74q57 46 57 266v233
q0 257 -64 297q-61 62 -229 68q-168 -6 -229 -68q-72 -45 -72 -288v-236q0 -221 63 -272q50 -71 238 -74z" />
    <glyph glyph-name="P" unicode="P" horiz-adv-x="1292" 
d="M1212 1213q18 -82 18 -191v-72q0 -202 -35 -272q-107 -248 -461 -248q-45 -3 -161 8q-47 6 -115 13v-451h-383v1534l519 10h140q323 0 435 -203q29 -60 43 -128zM882 1051q0 120 -37 163q-37 38 -115 47q-87 11 -272 -6v-524q201 -23 284 -14q65 6 93 39q47 50 47 157
v138z" />
    <glyph glyph-name="Q" unicode="Q" horiz-adv-x="1576" 
d="M1179 0l-55 61l-10 5q-139 -78 -377 -78q-233 0 -391 84q-161 86 -238 268q-51 111 -51 377v100q0 317 86 445q77 126 203 196q160 86 391 86q238 0 391 -86q129 -69 205 -196q84 -125 84 -445v-100q0 -276 -49 -377q-19 -44 -43 -88l252 -252h-398zM868 311l-119 125
l199 195l82 -82l1 42l1 279q0 256 -66 297q-58 62 -229 68q-166 -6 -227 -68q-72 -45 -72 -288v-236q0 -222 65 -272q50 -71 234 -74q70 0 131 14z" />
    <glyph glyph-name="R" unicode="R" horiz-adv-x="1363" 
d="M562 450l-79 2q-13 0 -23 -1v-451h-383v1534l522 10h142q311 0 432 -203q28 -62 43 -128q18 -84 18 -191v-72q0 -90 -19 -160q-15 -55 -44 -104q-56 -96 -179 -149q77 -29 139 -101q23 -27 42 -58q15 -25 24 -46q5 -10 14 -30l121 -302h-405q-15 46 -37 92l-37 89
q-23 54 -43 95q-30 66 -63 101q-47 48 -119 63q-32 7 -66 10zM460 731q11 -1 24 -1l201 -7q25 -3 56 4q13 3 24 6q14 4 26 10q30 13 52 35q47 47 47 152v112q0 125 -35 168q-38 39 -121 50q-91 12 -274 -5v-524z" />
    <glyph glyph-name="S" unicode="S" horiz-adv-x="1292" 
d="M591 -12q-118 0 -259 15q-54 6 -111 14l-89 14l-31 344l80 -16l115 -20q70 -11 132 -17q74 -7 134 -7q218 0 252 99q19 41 -2 80q-21 43 -89 74q-29 13 -73 27l-86 26q-57 14 -102 28q-58 18 -106 38q-119 50 -185 116q-63 67 -81 164q-13 69 -3 157q27 254 217 349
q71 38 171 55q39 6 89 10l86 6h58q99 0 218 -12l97 -11l82 -12l33 -335q-65 16 -164 29q-127 18 -230 18q-228 0 -268 -103q-15 -43 2 -82q22 -45 96 -79q31 -14 78 -30l198 -59q57 -18 102 -37q109 -46 165 -106q66 -66 85 -165q13 -71 3 -154q-27 -252 -217 -349
q-70 -38 -171 -54q-39 -6 -89 -10l-77 -5h-60z" />
    <glyph glyph-name="T" unicode="T" horiz-adv-x="1288" 
d="M835 1237v-1237h-394v1237h-362v297h1122v-297h-366z" />
    <glyph glyph-name="U" unicode="U" horiz-adv-x="1507" 
d="M1437 719q0 -265 -53 -381q-78 -183 -238 -266q-162 -86 -391 -86t-391 86q-167 89 -240 266q-51 105 -51 381v815h381v-893q0 -219 63 -270q53 -72 238 -78q186 6 236 78q59 51 59 264v899h387v-815z" />
    <glyph glyph-name="V" unicode="V" horiz-adv-x="1503" 
d="M1020 0h-535l-485 1534h432l320 -1085l319 1085h432z" />
    <glyph glyph-name="W" unicode="W" horiz-adv-x="2091" 
d="M1681 0h-456l-181 719l-176 -719h-458l-410 1534h432l232 -969l210 969h345l211 -969l229 969h430z" />
    <glyph glyph-name="X" unicode="X" horiz-adv-x="1466" 
d="M729 573l-215 -573h-459l362 788l-344 746h445l211 -535l211 535h446l-346 -746l361 -788h-459z" />
    <glyph glyph-name="Y" unicode="Y" horiz-adv-x="1280" 
d="M231 0l191 477l-416 1057h430l205 -633l205 633h428l-613 -1534h-430z" />
    <glyph glyph-name="Z" unicode="Z" horiz-adv-x="1310" 
d="M24 0l674 1237h-580l31 297h1141l-664 -1227h615l-43 -307h-1174z" />
    <glyph glyph-name="bracketleft" unicode="[" horiz-adv-x="638" 
d="M71 1591h498v-131h-217v-1460h217v-133h-498v1724z" />
    <glyph glyph-name="backslash" unicode="\" horiz-adv-x="1153" 
d="M2 1421h262l885 -1421h-264z" />
    <glyph glyph-name="bracketright" unicode="]" horiz-adv-x="649" 
d="M569 -131h-498v131h217v1460h-217v133h498v-1724z" />
    <glyph glyph-name="asciicircum" unicode="^" horiz-adv-x="1329" 
d="M61 811l461 862h280l465 -862h-315l-289 571h-8l-289 -571h-305z" />
    <glyph glyph-name="underscore" unicode="_" horiz-adv-x="1222" 
d="M77 0v285h1071v-285h-1071z" />
    <glyph glyph-name="grave" unicode="`" horiz-adv-x="495" 
d="M239 1532l98 4l-71 -195l61 -11q35 -10 55 -30q41 -32 41 -120q0 -93 -41 -125q-23 -19 -67 -27q-31 -6 -68 -6q-39 0 -70 6q-44 8 -67 27q-26 20 -34 56q-5 22 -5 69t12 84l7 15z" />
    <glyph glyph-name="a" unicode="a" 
d="M985 672v-672h-279l-3 10q-2 7 -3 10q-4 10 -7 23l-3 25q-154 -80 -301 -80h-29q-151 0 -240 116q-59 91 -59 203v8q0 198 139 263q57 38 289 38h158v37q0 114 -33 131q-36 27 -127 27h-315l30 279h338q323 0 400 -160q45 -93 45 -258zM534 393q-98 0 -119 -20
q-16 -17 -16 -58q0 -90 92 -90q55 0 156 45v123h-113z" />
    <glyph glyph-name="b" unicode="b" horiz-adv-x="1110" 
d="M1044 639v-109q0 -266 -39 -329q-13 -42 -72 -101q-124 -114 -420 -114q-209 0 -446 45v1503l336 59v-526q63 21 135 32q58 9 107 9q289 0 360 -152q39 -62 39 -317zM706 700q0 102 -94 123h-51q-83 0 -158 -45v-510l125 -6q145 0 170 94q8 25 8 66v278z" />
    <glyph glyph-name="c" unicode="c" horiz-adv-x="980" 
d="M909 1061v-273q-198 37 -308 37q-118 0 -159 -41q-35 -22 -35 -172v-139q0 -137 31 -162q37 -47 157 -47h25q76 0 287 39h2v-270q0 -10 -181 -37q-78 -10 -165 -10q-348 0 -455 252q-37 79 -37 272v74q0 233 61 319q120 203 431 203q168 0 346 -45z" />
    <glyph glyph-name="d" unicode="d" horiz-adv-x="1116" 
d="M67 639q0 245 41 317q68 152 360 152q121 -3 240 -41l1 33l1 289q1 76 2 145l334 59v-1564q-130 -21 -234 -32q-115 -11 -215 -11q-295 0 -419 114q-58 61 -70 101q-41 66 -41 329v109zM405 424q0 -38 8 -68q27 -94 174 -94l121 4v510q-75 47 -156 47l-49 -2
q-98 -18 -98 -123v-274z" />
    <glyph glyph-name="e" unicode="e" horiz-adv-x="1097" 
d="M1025 643v-194h-612v-33q0 -111 68 -135q53 -15 120 -15h27q180 0 369 39h2v-274q0 -5 -172 -33q-108 -12 -248 -12q-360 0 -465 243q-39 96 -39 201v262q0 288 242 383q107 35 229 35q339 0 440 -221q39 -87 39 -246zM687 694q0 114 -49 135q-37 25 -90 25
q-135 0 -135 -127v-51h274v18z" />
    <glyph glyph-name="f" unicode="f" horiz-adv-x="854" 
d="M815 1616v-279h-152q-66 0 -88 -37q-14 -22 -14 -83v-127h258l-31 -281h-227v-809h-334v809h-164v281h164v167q0 259 176 330q73 29 158 29h254z" />
    <glyph glyph-name="g" unicode="g" horiz-adv-x="1126" 
d="M1052 27l-2 -14v-52q-9 -75 -37 -145q-107 -246 -469 -246q-139 0 -244 12q-172 28 -172 33v270l2 2q185 -37 367 -37h27q78 0 120 17q72 28 72 133v37q-24 -10 -67 -21q-78 -18 -177 -18q-289 0 -360 152q-41 59 -41 315v108q0 240 41 330l22 45q17 29 37 52
q54 62 136 87q124 34 253 10q103 -18 199 -71q0 28 8 47l6 23h279v-1069zM716 776q-13 5 -28 10l-101 23q-140 19 -168 -80q-10 -34 -10 -63v-260q0 -105 98 -123l27 -4h20q79 0 162 49v448z" />
    <glyph glyph-name="h" unicode="h" horiz-adv-x="1118" 
d="M1048 637v-639h-340v698q0 105 -92 123l-53 2q-71 0 -156 -47v-776h-338v1536l338 57v-528q62 21 133 32q58 9 107 9q291 0 362 -152q39 -57 39 -315z" />
    <glyph glyph-name="i" unicode="i" horiz-adv-x="466" 
d="M404 1431q7 -26 7 -65q0 -87 -43 -121q-20 -20 -63 -29q-30 -6 -70 -6t-70 6q-43 9 -69 29q-22 21 -31 58q-6 25 -6 63q0 36 6 63q9 40 31 60q44 35 139 35q98 0 133 -35q26 -21 36 -58zM65 0h338v1090h-338v-1090z" />
    <glyph glyph-name="j" unicode="j" horiz-adv-x="743" 
d="M679 1366q0 -85 -41 -121q-20 -20 -64 -29q-31 -6 -71 -6q-41 0 -70 6q-42 9 -63 29q-26 21 -36 58q-7 25 -7 63q0 37 7 63q10 40 36 60q35 35 133 35q45 0 74 -6q41 -8 61 -29q41 -36 41 -123zM335 0q0 -115 -69 -133l-52 -12q-33 -7 -69 -7l-119 5v-281l141 -4
q358 0 465 248q15 33 24 72l11 73q4 37 4 51v1078h-336v-1090z" />
    <glyph glyph-name="k" unicode="k" horiz-adv-x="1136" 
d="M407 610h2l305 482h363l-334 -529l334 -563h-363l-305 508h-2v-508h-336v1534l336 59v-983z" />
    <glyph glyph-name="l" unicode="l" horiz-adv-x="688" 
d="M409 428q0 -110 72 -135q37 -10 105 -13q12 -1 24 -1h47v-283q-31 -2 -82 -2q-357 0 -467 252q-29 74 -35 141q-2 19 -2 53v1096l338 59v-1167z" />
    <glyph glyph-name="m" unicode="m" horiz-adv-x="1771" 
d="M1697 639v-639h-340v700q0 102 -94 123q-52 10 -113 -5q-50 -13 -98 -40v-778h-340v700q0 102 -94 123q-42 4 -66 2q-40 -6 -65 -13q-41 -12 -78 -34h-2v-778h-336v1096h276l23 -43q6 -15 10 -29l12 6q11 6 20 11q31 15 63 27q44 16 90 26q56 12 112 14h19q75 2 130 -12
q67 -16 117 -58q5 0 7 -2q43 16 76 26q44 15 84 24q98 24 186 24q294 0 358 -154q43 -64 43 -317z" />
    <glyph glyph-name="n" unicode="n" horiz-adv-x="1118" 
d="M1046 639v-639h-338v700q0 102 -96 123q-42 4 -66 2q-40 -6 -65 -13q-42 -12 -78 -34v-778h-336v1094h279l20 -43q6 -15 10 -29q3 1 13 6l20 11q31 15 62 26q44 17 89 27q56 12 113 14q115 5 184 -20q90 -34 148 -130q41 -76 41 -317z" />
    <glyph glyph-name="o" unicode="o" horiz-adv-x="1034" 
d="M1003 647v-201q0 -314 -225 -413q-113 -47 -267 -47q-336 0 -438 219q-47 91 -47 223v240q0 320 276 409q106 31 197 31h33q344 0 444 -262q27 -80 27 -199zM667 659q0 131 -74 152q-22 12 -65 12h-27q-90 0 -127 -73q-10 -31 -10 -70v-274q0 -142 147 -142h9
q117 0 145 103l1 26v4z" />
    <glyph glyph-name="p" unicode="p" horiz-adv-x="1118" 
d="M69 1096h279l6 -23q4 -12 6 -26q1 -5 2 -12l2 -11q46 24 90 41q54 21 107 31q130 27 251 -11q78 -25 134 -88q21 -23 38 -52l13 -23q5 -10 10 -21q21 -57 30 -126q11 -78 11 -204v-106q0 -245 -41 -318q-65 -153 -358 -153q-50 0 -98 6l-76 14q-44 11 -68 21v-467
l-338 -62v1590zM407 326q85 -47 158 -47l49 2q94 21 94 122v254q0 46 -8 68q-30 102 -166 80l-37 -6l-64 -18l-26 -9v-446z" />
    <glyph glyph-name="q" unicode="q" horiz-adv-x="1134" 
d="M1056 -434l-340 -62v531q-21 -10 -65 -21l-77 -14q-49 -6 -100 -6q-290 0 -358 151q-43 71 -43 320v104q0 238 43 332l23 44q16 29 37 53q54 63 135 87q122 38 253 11q53 -10 107 -31q44 -17 90 -41l2 11q1 7 2 12q2 14 6 26l7 23h278v-1530zM716 774q-12 5 -25 9l-33 9
l-63 13q-149 22 -172 -80q-8 -25 -8 -68v-256q0 -99 96 -120l49 -2q75 0 156 45v450z" />
    <glyph glyph-name="r" unicode="r" horiz-adv-x="817" 
d="M745 1110l33 -289q-82 4 -144 -10l-22 -4q-63 -13 -207 -66v-741h-334v1100h276l11 -25q9 -21 18 -55l78 29q70 24 162 45q54 12 129 16z" />
    <glyph glyph-name="s" unicode="s" horiz-adv-x="1007" 
d="M903 131q-44 -58 -118 -93q-61 -28 -143 -41q-55 -8 -134 -11q-112 0 -238 12q-108 10 -180 25l-31 292l44 -9l68 -12q97 -16 177 -23q105 -9 170 -1q79 10 94 45q21 55 -166 103l-82 22q-49 14 -86 28q-96 36 -149 87q-55 48 -72 119q-12 49 -6 119q12 100 64 168
q44 58 120 93q60 28 143 40q54 9 134 12q99 4 212 -6q84 -7 165 -21l30 -288q-50 10 -118 20q-88 13 -161 16q-92 5 -149 -5q-68 -12 -82 -44q-24 -58 170 -110l84 -22q50 -14 86 -28q96 -34 144 -79q52 -53 68 -122q11 -49 5 -120q-11 -99 -63 -166z" />
    <glyph glyph-name="t" unicode="t" horiz-adv-x="905" 
d="M825 -4h-171q-52 0 -89 3q-99 7 -162 37q-77 37 -117 113q-45 86 -45 230l-2 432h-164v281h164v272l336 57v-329h256l-35 -281h-221v-413q0 -14 1 -24q2 -26 8 -43q15 -41 64 -57q38 -16 107 -26q12 -2 25 -3q11 -1 21 -2l24 -1v-246z" />
    <glyph glyph-name="u" unicode="u" horiz-adv-x="1142" 
d="M73 461v631h342v-693q0 -103 98 -125q42 -4 66 -2q79 5 147 47l2 773h340v-1092h-280l-17 29q-3 6 -5 11q-5 13 -9 28l-99 -43q-45 -16 -90 -25q-57 -12 -114 -14q-117 -6 -188 21q-91 35 -152 132q-41 85 -41 322z" />
    <glyph glyph-name="v" unicode="v" horiz-adv-x="1191" 
d="M817 0h-430l-387 1092h367l233 -734l227 734h365z" />
    <glyph glyph-name="w" unicode="w" horiz-adv-x="1714" 
d="M1365 0h-368l-142 483l-145 -483h-367l-319 1090h344l176 -687l160 687h301l160 -687l174 687h346z" />
    <glyph glyph-name="x" unicode="x" horiz-adv-x="1165" 
d="M750 0l-162 385l-162 -385h-381l299 563l-285 527h369l160 -367l155 367h369l-283 -527l297 -563h-376z" />
    <glyph glyph-name="y" unicode="y" horiz-adv-x="1282" 
d="M1250 1090q-22 -65 -46 -134l-378 -1059q-25 -61 -52 -107q-73 -123 -187 -177q-108 -45 -266 -45q-33 0 -72 1l-68 3v281l117 -5q37 0 71 7l27 6q10 2 21 6q72 19 72 133l-453 1090h375l254 -674l217 674h368z" />
    <glyph glyph-name="z" unicode="z" horiz-adv-x="1062" 
d="M997 279l-31 -279h-938l494 807h-428l38 283h908l-465 -811h422z" />
    <glyph glyph-name="braceleft" unicode="{" horiz-adv-x="870" 
d="M63 571q55 10 94 31q42 22 65 50q29 36 29 85q0 356 47 557q40 173 119 243q59 53 157 54q18 0 41 -1l82 -7q23 -2 40 -2h6l20 -209l-72 10q-47 1 -77 -35q-40 -48 -61 -172q-25 -146 -25 -403q0 -98 -40 -159q-16 -24 -37 -42q-16 -14 -36 -24q43 -17 73 -62
q40 -62 40 -163q0 -255 25 -400q21 -123 61 -172q30 -37 77 -37q9 0 20 2l52 6l-20 -202h-6q-17 0 -40 -2l-82 -7q-23 -2 -41 -1q-98 0 -157 53q-79 69 -119 242q-47 201 -47 556q0 49 -29 85q-22 26 -65 49q-39 21 -94 30v47z" />
    <glyph glyph-name="bar" unicode="|" horiz-adv-x="430" 
d="M94 -121v1655h246v-1655h-246z" />
    <glyph glyph-name="braceright" unicode="}" horiz-adv-x="851" 
d="M792 526q-55 -9 -94 -30q-42 -22 -65 -50q-29 -37 -29 -86q0 -355 -47 -556q-40 -174 -118 -243q-60 -54 -157 -54q-19 0 -42 1l-82 7q-22 2 -39 2h-7l-20 209l53 -10q10 -2 19 -2q47 -2 77 36q40 50 62 174q25 146 25 402q0 98 39 159q28 43 73 66q-45 15 -74 62
q-38 61 -38 163q0 254 -25 400q-22 123 -62 172q-30 37 -77 36q-8 0 -19 -1l-53 -7l20 203h7q17 0 39 2l82 7q23 1 42 1q97 0 157 -53q78 -69 118 -242q47 -201 47 -557q0 -90 94 -135q42 -22 94 -29v-47z" />
    <glyph glyph-name="asciitilde" unicode="~" horiz-adv-x="1327" 
d="M71 352q-8 210 87 327q91 114 255 114q74 0 144 -20q57 -15 128 -48l97 -42q50 -19 81 -19q89 0 107 149h295q7 -223 -87 -330q-87 -100 -260 -100q-76 0 -152 21q-30 8 -67 21q-14 6 -32 13l-33 13q-108 55 -160 55q-89 0 -104 -154h-299z" />
    <glyph glyph-name="exclamdown" unicode="&#xa1;" horiz-adv-x="530" 
d="M98 1331q9 37 35 58q23 20 64 28q29 6 67 6q42 0 73 -6q45 -8 66 -28q24 -21 33 -59q6 -27 6 -62q0 -36 -6 -62q-9 -39 -33 -59q-22 -23 -64 -33q-29 -6 -75 -6q-40 0 -68 6q-40 10 -63 33q-26 20 -35 57q-6 24 -6 64t6 63zM86 8h365l-43 1014h-283z" />
    <glyph glyph-name="cent" unicode="&#xa2;" horiz-adv-x="1024" 
d="M387 614v-139q0 -141 28 -164q18 -21 81 -34q56 -11 128 -11h25q106 0 307 39h2v-274q0 -11 -191 -35l-55 -6q-12 -2 -22 -2v-199h-236v207q-257 37 -352 246q-37 76 -37 274v68q0 233 66 323q100 159 323 193v205h236v-199l129 -13q72 -10 139 -26v-276q-195 38 -328 38
q-163 0 -211 -41q-32 -20 -32 -174z" />
    <glyph glyph-name="sterling" unicode="&#xa3;" horiz-adv-x="1259" 
d="M1132 1489l33 -291q-54 20 -148 41q-108 25 -170 25q-120 0 -179 -65q-50 -56 -50 -148q0 -77 26 -181h336v-239h-303q4 -96 -22 -168q-43 -103 -119 -166v-4h651v-293h-1118v188q107 44 185 135q87 103 87 214l1 47q-1 27 -5 47h-243v239h196q-10 44 -13 96q-3 40 -3 99
q0 217 152 350q153 133 403 133q176 0 303 -59z" />
    <glyph glyph-name="currency" unicode="&#xa4;" horiz-adv-x="1333" 
d="M1105 1180l154 -148l-199 -164l26 -45q15 -27 24 -54q24 -67 24 -142q0 -84 -25 -153q-20 -56 -57 -103l195 -172l-150 -148l-168 195q-114 -88 -266 -88q-158 0 -266 82l-170 -189l-148 148l191 170q-82 93 -82 249q0 81 24 148q20 54 56 102l-199 162l156 150l176 -181
q109 76 262 76q162 0 268 -74zM520 432q60 -59 143 -59q81 0 141 61q70 72 70 193q0 233 -211 233q-213 0 -213 -239q0 -120 70 -189z" />
    <glyph glyph-name="yen" unicode="&#xa5;" horiz-adv-x="1337" 
d="M1077 629v-154h-197v-78h197v-151h-197l-2 -246h-446l4 246h-197v151h197v78h-197v154h185l-418 905h442l215 -576l217 576h449l-432 -905h180z" />
    <glyph glyph-name="brokenbar" unicode="&#xa6;" horiz-adv-x="98" 
 />
    <glyph glyph-name="section" unicode="&#xa7;" horiz-adv-x="1425" 
d="M1307 212q7 -31 8 -69l-3 -61q-32 -208 -227 -289q-62 -24 -137 -38q-62 -12 -138 -17q-20 -4 -46 -4h-42q-14 -4 -28 -5l-45 1q-125 5 -223 12q-109 9 -181 20q-37 5 -53 13l-37 278q83 -16 204 -29q155 -18 275 -18q230 0 267 82q15 39 -5 68q-14 32 -102 63l-70 24
l-165 41q-47 11 -82 20q-96 27 -160 58q-69 26 -121 68q-106 95 -81 228q9 50 37 104q19 39 50 84q13 22 41 47l-5 4q-2 3 -5 4q-66 55 -86 137q-14 60 -4 131q24 213 223 289q57 27 133 40q55 10 141 15l93 5h65q112 0 229 -9q94 -8 185 -20v-4l24 -3q18 -2 25 -3l33 -287
q-80 17 -201 32q-72 9 -138 13q-76 6 -138 6q-232 0 -269 -80q-15 -40 6 -67q16 -40 99 -68q27 -8 76 -19l244 -59q97 -28 161 -61q56 -22 121 -70q105 -94 83 -227q-9 -51 -36 -105q-22 -43 -53 -81q-16 -28 -33 -46l2 -3q1 -3 4 -7q66 -55 85 -138zM993 629
q-51 47 -244 90q-98 21 -201 37q-27 -23 -38 -36q-19 -22 -23 -42q-15 -34 16 -66q41 -48 246 -86q43 -15 96 -26l97 -15q45 22 67 74q9 39 -16 70z" />
    <glyph glyph-name="dieresis" unicode="&#xa8;" horiz-adv-x="708" 
d="M-81 1143v258h258v-258h-258zM320 1143v258h258v-258h-258z" />
    <glyph glyph-name="copyright" unicode="&#xa9;" horiz-adv-x="1050" 
d="M538 371q-176 0 -213 110q-19 26 -19 119v39q0 58 8 94q7 29 19 43l2 2q52 86 203 86q88 0 151 -16v-84q-51 7 -76 10q-36 4 -57 4q-72 0 -100 -24q-29 -25 -29 -103v-69q0 -75 25 -97q22 -28 102 -28h12q27 0 53 2l70 10v-86l-55 -8q-8 -1 -14 -2q-15 -2 -38 -2h-44z
M833 303q-130 -131 -312 -131q-185 0 -315 131q-129 131 -129 315t129 313q130 130 315 130q182 0 312 -130q131 -130 131 -313q0 -184 -131 -315zM783 878q-108 107 -262 107q-153 0 -262 -107q-108 -107 -108 -260t108 -262q109 -108 262 -108q154 0 262 108
q107 109 107 262t-107 260z" />
    <glyph glyph-name="ordfeminine" unicode="&#xaa;" horiz-adv-x="466" 
 />
    <glyph glyph-name="guillemotleft" unicode="&#xab;" horiz-adv-x="1644" 
d="M1157 -74l-482 615l482 612h428l-488 -612l488 -615h-428zM544 -74l-481 615l481 612h428l-487 -612l487 -615h-428z" />
    <glyph glyph-name="registered" unicode="&#xae;" horiz-adv-x="1044" 
d="M721 1017l22 -76l10 -23h-111l-15 44q-12 38 -22 80q-17 67 -108 76h-58v-200h-108v520q64 12 168 12q124 0 182 -43q51 -38 51 -104q0 -122 -106 -152v-2q65 -26 80 -84q7 -21 15 -48zM507 1188q132 0 119 102q-9 86 -117 86l-70 -2v-186h68zM838 1486
q130 -130 130 -312q0 -185 -130 -316t-315 -131q-184 0 -314 131t-130 316q0 182 130 312t314 130q185 0 315 -130zM785 911q107 109 107 263q0 152 -107 259q-108 107 -262 107q-152 0 -261 -107q-109 -108 -109 -259q0 -154 109 -263q109 -108 261 -108q154 0 262 108z
" />
    <glyph glyph-name="degree" unicode="&#xb0;" horiz-adv-x="393" 
 />
    <glyph glyph-name="plusminus" unicode="&#xb1;" horiz-adv-x="1224" 
d="M758 653v-389h-283v389h-389v281h389v387h283v-387h389v-281h-389zM86 170v-281h1061v281h-1061z" />
    <glyph glyph-name="uni00B2" unicode="&#xb2;" horiz-adv-x="753" 
d="M32 594v147q178 152 289 273q129 141 129 198q0 37 -15 56q-20 26 -63 26q-45 0 -70.5 -30.5t-31.5 -75.5l-222 49q31 113 122 177.5t222 64.5q132 0 215 -56q101 -65 101 -190q0 -109 -103 -227q-73 -86 -188 -162l-66 -49l336 -4v-197h-655z" />
    <glyph glyph-name="uni00B3" unicode="&#xb3;" horiz-adv-x="753" 
d="M237 954v160h70q45 0 81 23q46 28 46 75q0 41 -23 68t-59 27q-48 0 -74.5 -22.5t-40.5 -63.5l-193 69q95 189 340 189q119 0 207 -62q101 -69 101 -184q0 -84 -62 -135q-45 -37 -123 -58q84 -4 139 -49q66 -53 66 -151q0 -123 -115 -195q-102 -63 -245 -63
q-228 0 -324 180l188 82q27 -47 52.5 -68.5t74.5 -21.5q111 0 111 98q0 59 -44 80.5t-116 21.5h-57z" />
    <glyph glyph-name="acute" unicode="&#xb4;" horiz-adv-x="344" 
d="M399 643h-41l213 217h133z" />
    <glyph glyph-name="mu" unicode="&#xb5;" horiz-adv-x="983" 
 />
    <glyph glyph-name="paragraph" unicode="&#xb6;" horiz-adv-x="1572" 
d="M642 700h-14q-177 0 -343 122q-91 66 -143 154q-59 100 -61 220q-4 114 35 210q45 111 145 190q113 91 293 139q200 53 477 53q307 0 463 -29v-1872h-315v1659h-229v-1659h-308v813z" />
    <glyph glyph-name="ch270" unicode="&#xb7;" horiz-adv-x="505" 
 />
    <glyph glyph-name="ch270" unicode="&#x2219;" horiz-adv-x="505" 
 />
    <glyph glyph-name="cedilla" unicode="&#xb8;" horiz-adv-x="407" 
d="M227 -164q-33 -18 -72 -18q-80 0 -143 32v25q23 -14 55 -14q27 0 51 11q29 14 29 38q0 25 -35 43l50 70h45l-37 -54q96 -9 96 -75q0 -36 -39 -58z" />
    <glyph glyph-name="uni00B9" unicode="&#xb9;" horiz-adv-x="518" 
 />
    <glyph glyph-name="ordmasculine" unicode="&#xba;" horiz-adv-x="407" 
d="M688 778q-87 -98 -177 -98q-92 0 -92 100q0 97 82 189q84 96 180 96q92 0 92 -100q0 -92 -85 -187zM646 1030q-59 0 -107 -101q-42 -86 -42 -153q0 -63 49 -63q57 0 105 101q42 89 42 153q0 63 -47 63z" />
    <glyph glyph-name="guillemotright" unicode="&#xbb;" horiz-adv-x="1662" 
d="M503 1155l481 -614l-481 -613h-428l487 613l-487 614h428zM1115 1155l482 -614l-482 -613h-428l488 613l-488 614h428z" />
    <glyph glyph-name="onequarter" unicode="&#xbc;" horiz-adv-x="1718" 
 />
    <glyph glyph-name="onehalf" unicode="&#xbd;" horiz-adv-x="1718" 
 />
    <glyph glyph-name="threequarters" unicode="&#xbe;" horiz-adv-x="1957" 
 />
    <glyph glyph-name="Agrave" unicode="&#xc0;" horiz-adv-x="1550" 
d="M682 1620l-256 315h288l148 -315h-180zM563 1534l-557 -1534h432l72 236h534l72 -236h432l-557 1534h-428zM776 1178l195 -660h-390z" />
    <glyph glyph-name="Aacute" unicode="&#xc1;" horiz-adv-x="1550" 
d="M664 1620l147 315h289l-256 -315h-180zM563 1534l-557 -1534h432l72 236h534l72 -236h432l-557 1534h-428zM776 1178l195 -660h-390z" />
    <glyph glyph-name="Acircumflex" unicode="&#xc2;" horiz-adv-x="1550" 
d="M1105 1620h-215l-115 139l-113 -139h-217l217 282h228zM1112 0l-72 236h-532l-72 -236h-432l555 1534h430l557 -1534h-434zM774 1178l-197 -660h392z" />
    <glyph glyph-name="Atilde" unicode="&#xc3;" horiz-adv-x="1550" 
d="M471 1604q-11 224 177 224q34 0 72 -10l67 -23q5 -2 12 -5l12 -6q14 -7 23 -11q26 -11 44 -11q49 0 57 76h149q8 -221 -177 -221q-39 0 -79 12q-15 5 -34 12q-7 2 -17 6l-43 17q-14 6 -20 8q-19 7 -37 7q-45 0 -51 -75h-155zM561 1534l-557 -1534h432l74 236h534l70 -236
h432l-555 1534h-430zM776 1178l195 -660h-392z" />
    <glyph glyph-name="Adieresis" unicode="&#xc4;" horiz-adv-x="1548" 
d="M1110 1696q-16 -18 -52 -26q-14 -3 -30 -4q-13 -1 -27 -1q-13 0 -26 1q-16 1 -29 4q-35 8 -53 26q-33 24 -33 98l1 25l4 26q8 30 28 45q31 29 108 29q80 0 109 -29q21 -15 29 -45q3 -12 5 -26q1 -11 1 -25q0 -73 -35 -98zM684 1794q0 -74 -33 -98q-16 -18 -53 -26
q-14 -3 -31 -4q-13 -1 -26 -1q-14 0 -26 1q-16 1 -30 4q-34 8 -55 26q-31 26 -31 98q0 13 1 25q2 14 5 26q7 30 25 45q36 29 111 29q82 0 110 -29q21 -15 28 -45l4 -26zM557 1534l-555 -1534h430l72 236h534l72 -236h434l-557 1534h-430zM772 1178l195 -660h-392z" />
    <glyph glyph-name="AE" unicode="&#xc6;" horiz-adv-x="2269" 
 />
    <glyph glyph-name="Ccedilla" unicode="&#xc7;" horiz-adv-x="1222" 
d="M456 864v-235q0 -107 20 -176q16 -55 43 -82q56 -78 273 -78h35q96 0 321 35v-303q-66 -14 -160 -25q-88 -14 -219 -14l-28 -54q133 -30 133 -141q0 -88 -70 -133q-57 -37 -147 -37q-94 0 -152 35l35 111q49 -27 100 -27q66 0 66 47t-141 68l61 137q-368 39 -502 346
q-51 97 -51 381v100q0 332 88 443q163 280 602 280q97 0 186 -9q100 -10 199 -32v-303q-227 37 -348 37q-212 0 -272 -72q-72 -41 -72 -299z" />
    <glyph glyph-name="Egrave" unicode="&#xc8;" horiz-adv-x="1038" 
d="M466 913h400l-25 -280h-375v-330h502v-303h-897v1536h897v-297h-502v-326zM444 1620l-256 315h289l147 -315h-180z" />
    <glyph glyph-name="Eacute" unicode="&#xc9;" horiz-adv-x="1038" 
d="M466 913h400l-25 -280h-375v-330h502v-303h-897v1536h897v-297h-502v-326zM388 1620l148 315h288l-256 -315h-180z" />
    <glyph glyph-name="Ecircumflex" unicode="&#xca;" horiz-adv-x="1038" 
d="M466 913h400l-25 -280h-375v-330h502v-303h-897v1536h897v-297h-502v-326zM850 1620h-216l-114 139l-113 -139h-218l218 282h227z" />
    <glyph glyph-name="Edieresis" unicode="&#xcb;" horiz-adv-x="1038" 
d="M964 1534h-891v-1534h891v297h-500v338h367l35 278h-402v322h500v299zM880 1740q-9 -29 -27 -44q-38 -33 -112 -33q-13 0 -26 1q-16 2 -30 5q-34 9 -51 27q-20 15 -29 44q-3 11 -5 25q-1 11 -1 25t1 25q2 15 5 27q9 31 29 46q29 29 107 29q76 0 112 -29q18 -15 27 -46
q3 -12 5 -27q1 -12 1 -25q0 -28 -6 -50zM424 1765q-1 -14 -5 -25q-8 -29 -29 -44q-17 -18 -51 -27q-14 -3 -29 -5q-13 -1 -26 -1q-80 0 -111 33q-20 15 -28 44l-4 25v50l4 27q8 31 28 46q29 29 111 29q75 0 106 -29q21 -15 29 -46q4 -12 5 -27q1 -11 1 -25t-1 -25z" />
    <glyph glyph-name="Igrave" unicode="&#xcc;" horiz-adv-x="538" 
d="M466 0h-391v1536h391v-1536zM177 1620l-256 315h289l147 -315h-180z" />
    <glyph glyph-name="Iacute" unicode="&#xcd;" horiz-adv-x="538" 
d="M466 0h-391v1536h391v-1536zM160 1620l148 315h288l-256 -315h-180z" />
    <glyph glyph-name="Icircumflex" unicode="&#xce;" horiz-adv-x="753" 
d="M573 0h-396v1534h396v-1534zM712 1622h-223l-113 141l-115 -141h-223l223 287h228z" />
    <glyph glyph-name="Idieresis" unicode="&#xcf;" horiz-adv-x="815" 
d="M774 1765q-2 -14 -5 -25q-7 -30 -25 -46q-17 -17 -52 -25q-14 -3 -30 -5q-14 -1 -27 -1q-77 0 -110 31q-21 16 -29 46q-4 11 -5 25q-1 11 -1 25t1 25q1 15 5 27q8 31 29 46q31 29 110 29q80 0 109 -29q18 -15 25 -46q3 -12 5 -27q1 -12 1 -25t-1 -25zM317 1765
q-2 -14 -5 -25q-9 -30 -31 -46q-17 -17 -51 -25q-14 -3 -29 -5q-14 -1 -26 -1q-78 0 -109 31q-20 16 -28 46l-4 25v50l4 27q8 31 28 46q29 29 109 29q77 0 106 -29q22 -15 31 -46q3 -12 5 -27q1 -11 1 -25t-1 -25zM207 0h391v1534h-391v-1534z" />
    <glyph glyph-name="Dslash" unicode="&#xd0;" horiz-adv-x="1574" 
d="M1479 1076q22 -109 22 -267v-96q0 -250 -51 -383q-132 -344 -631 -344q-117 0 -233 1q-93 1 -185 3l-88 2q-53 1 -80 2v672h-187v184h187v678l584 6q245 0 400 -83q129 -69 198 -198q43 -77 64 -177zM1120 858q0 226 -70 299q-64 68 -270 68q-87 0 -166 -8v-367h215v-184
h-215v-371q66 -8 135 -8h41q206 0 269 75q25 29 40 84q21 72 21 177v235z" />
    <glyph glyph-name="Dslash" unicode="&#x110;" horiz-adv-x="1574" 
d="M1479 1076q22 -109 22 -267v-96q0 -250 -51 -383q-132 -344 -631 -344q-117 0 -233 1q-93 1 -185 3l-88 2q-53 1 -80 2v672h-187v184h187v678l584 6q245 0 400 -83q129 -69 198 -198q43 -77 64 -177zM1120 858q0 226 -70 299q-64 68 -270 68q-87 0 -166 -8v-367h215v-184
h-215v-371q66 -8 135 -8h41q206 0 269 75q25 29 40 84q21 72 21 177v235z" />
    <glyph glyph-name="Ntilde" unicode="&#xd1;" horiz-adv-x="1378" 
d="M364 1604q-12 237 186 237q38 0 78 -11l70 -24l53 -23q26 -11 43 -11q49 0 60 79h159q9 -233 -188 -233q-42 0 -84 12q-16 5 -37 13q-6 3 -17 7l-44 18q-14 6 -21 8q-19 7 -39 7q-49 0 -55 -79h-164zM921 725l-465 809h-393v-1534h393v817l465 -817h393v1534h-393v-809z
" />
    <glyph glyph-name="Ograve" unicode="&#xd2;" horiz-adv-x="1435" 
d="M1400 817v-100q0 -270 -49 -377q-78 -183 -240 -268q-155 -84 -391 -84t-391 84q-164 89 -240 268q-51 111 -51 377v100q0 326 88 445q75 128 203 196q156 86 391 86q234 0 391 -86q123 -66 203 -196q86 -123 86 -445zM720 297q186 3 236 74q57 46 57 266v233
q0 257 -64 297q-61 62 -229 68q-168 -6 -229 -68q-72 -45 -72 -288v-236q0 -221 63 -272q50 -71 238 -74zM634 1620l-256 315h288l148 -315h-180z" />
    <glyph glyph-name="Oacute" unicode="&#xd3;" horiz-adv-x="1435" 
d="M1400 817v-100q0 -270 -49 -377q-78 -183 -240 -268q-155 -84 -391 -84t-391 84q-164 89 -240 268q-51 111 -51 377v100q0 326 88 445q75 128 203 196q156 86 391 86q234 0 391 -86q123 -66 203 -196q86 -123 86 -445zM720 297q186 3 236 74q57 46 57 266v233
q0 257 -64 297q-61 62 -229 68q-168 -6 -229 -68q-72 -45 -72 -288v-236q0 -221 63 -272q50 -71 238 -74zM568 1620l147 315h289l-256 -315h-180z" />
    <glyph glyph-name="Ocircumflex" unicode="&#xd4;" horiz-adv-x="1435" 
d="M1400 817v-100q0 -270 -49 -377q-78 -183 -240 -268q-155 -84 -391 -84t-391 84q-164 89 -240 268q-51 111 -51 377v100q0 326 88 445q75 128 203 196q156 86 391 86q234 0 391 -86q123 -66 203 -196q86 -123 86 -445zM720 297q186 3 236 74q57 46 57 266v233
q0 257 -64 297q-61 62 -229 68q-168 -6 -229 -68q-72 -45 -72 -288v-236q0 -221 63 -272q50 -71 238 -74zM1049 1620h-215l-115 139l-113 -139h-217l217 282h228z" />
    <glyph glyph-name="Otilde" unicode="&#xd5;" horiz-adv-x="1435" 
d="M1400 817v-100q0 -270 -49 -377q-78 -183 -240 -268q-155 -84 -391 -84t-391 84q-164 89 -240 268q-51 111 -51 377v100q0 326 88 445q75 128 203 196q156 86 391 86q234 0 391 -86q123 -66 203 -196q86 -123 86 -445zM720 297q186 3 236 74q57 46 57 266v233
q0 257 -64 297q-61 62 -229 68q-168 -6 -229 -68q-72 -45 -72 -288v-236q0 -221 63 -272q50 -71 238 -74zM405 1604q-12 224 176 224q34 0 73 -10l66 -23q5 -2 13 -5l11 -6q14 -7 23 -11q26 -11 44 -11q49 0 57 76h149q8 -221 -177 -221q-39 0 -79 12q-15 5 -34 12
q-7 2 -17 6l-43 17q-14 6 -20 8q-19 7 -37 7q-45 0 -50 -75h-155z" />
    <glyph glyph-name="Odieresis" unicode="&#xd6;" horiz-adv-x="1427" 
d="M1085 1790q0 -74 -33 -98q-16 -17 -51 -24q-14 -3 -29 -4q-13 -1 -27 -1q-32 0 -58 5q-36 7 -54 24q-18 15 -26 46q-3 12 -4 27q-1 12 -1 25t1 25q1 14 4 26q8 30 26 45q30 31 112 31q79 0 107 -31q20 -15 28 -45l4 -26zM593 1692q-18 -17 -54 -24q-14 -3 -30 -4
q-13 -1 -26 -1q-14 0 -27 1q-16 1 -29 4q-35 7 -53 24q-20 15 -28 46l-4 27v50l4 26q8 30 28 45q31 31 109 31q79 0 110 -31q21 -15 29 -45q3 -12 5 -26q1 -11 1 -25q0 -73 -35 -98zM714 1546q-233 -3 -393 -88q-129 -76 -201 -198q-88 -122 -88 -445v-96q0 -273 55 -383
q71 -177 234 -268q155 -82 393 -82q240 0 389 82q169 91 240 268q51 111 51 383v96q0 326 -88 445q-70 121 -203 198q-154 85 -389 88zM1007 635q0 -222 -55 -266q-52 -70 -238 -76q-186 6 -238 76q-63 47 -63 274v231q0 244 72 289q57 64 229 70q169 -6 229 -70
q64 -40 64 -297v-231z" />
    <glyph glyph-name="Ugrave" unicode="&#xd9;" horiz-adv-x="1507" 
d="M1437 719q0 -265 -53 -381q-78 -183 -238 -266q-162 -86 -391 -86t-391 86q-167 89 -240 266q-51 105 -51 381v815h381v-893q0 -219 63 -270q53 -72 238 -78q186 6 236 78q59 51 59 264v899h387v-815zM691 1620l-256 315h289l147 -315h-180z" />
    <glyph glyph-name="Uacute" unicode="&#xda;" horiz-adv-x="1507" 
d="M1437 719q0 -265 -53 -381q-78 -183 -238 -266q-162 -86 -391 -86t-391 86q-167 89 -240 266q-51 105 -51 381v815h381v-893q0 -219 63 -270q53 -72 238 -78q186 6 236 78q59 51 59 264v899h387v-815zM625 1620l148 315h288l-256 -315h-180z" />
    <glyph glyph-name="Udieresis" unicode="&#xdc;" horiz-adv-x="1523" 
d="M1054 635q0 -220 -59 -262q-54 -72 -238 -78q-189 6 -236 78q-63 51 -63 270v891h-381v-819q0 -276 51 -381q82 -184 240 -264q152 -84 389 -84q240 0 393 84q159 82 240 264q49 117 49 381v819h-385v-899zM1129 1769q-2 -14 -5 -26q-7 -30 -25 -45q-31 -29 -113 -29
q-13 0 -26 1q-16 1 -31 4q-36 7 -53 24q-20 15 -27 45l-4 26v50l4 28q7 31 27 47q31 29 110 29q82 0 113 -29q18 -16 25 -47q3 -13 5 -28q1 -12 1 -25t-1 -25zM665 1769q-1 -14 -5 -26q-8 -30 -26 -45q-18 -17 -53 -24q-13 -3 -29 -4q-13 -1 -26 -1q-12 0 -24 1q-16 1 -29 4
q-36 8 -56 24q-20 15 -28 45l-4 26v50l4 28q8 31 28 47q36 29 109 29q77 0 108 -29q18 -16 26 -47q4 -13 5 -28q2 -12 2 -25t-2 -25z" />
    <glyph glyph-name="Yacute" unicode="&#xdd;" horiz-adv-x="1280" 
d="M231 0l191 477l-416 1057h430l205 -633l205 633h428l-613 -1534h-430zM539 1620l148 315h289l-256 -315h-181z" />
    <glyph glyph-name="Thorn" unicode="&#xde;" horiz-adv-x="2299" 
 />
    <glyph glyph-name="germandbls" unicode="&#xdf;" horiz-adv-x="929" 
 />
    <glyph glyph-name="agrave" unicode="&#xe0;" 
d="M985 672v-672h-279l-3 10q-2 7 -3 10q-4 10 -7 23l-3 25q-154 -80 -301 -80h-29q-151 0 -240 116q-59 91 -59 203v8q0 198 139 263q57 38 289 38h158v37q0 114 -33 131q-36 27 -127 27h-315l30 279h338q323 0 400 -160q45 -93 45 -258zM534 393q-98 0 -119 -20
q-16 -17 -16 -58q0 -90 92 -90q55 0 156 45v123h-113zM510 1182l-256 315h289l148 -315h-181z" />
    <glyph glyph-name="aacute" unicode="&#xe1;" 
d="M985 672v-672h-279l-3 10q-2 7 -3 10q-4 10 -7 23l-3 25q-154 -80 -301 -80h-29q-151 0 -240 116q-59 91 -59 203v8q0 198 139 263q57 38 289 38h158v37q0 114 -33 131q-36 27 -127 27h-315l30 279h338q323 0 400 -160q45 -93 45 -258zM534 393q-98 0 -119 -20
q-16 -17 -16 -58q0 -90 92 -90q55 0 156 45v123h-113zM425 1182l148 315h289l-257 -315h-180z" />
    <glyph glyph-name="acircumflex" unicode="&#xe2;" 
d="M985 672v-672h-279l-3 10q-2 7 -3 10q-4 10 -7 23l-3 25q-154 -80 -301 -80h-29q-151 0 -240 116q-59 91 -59 203v8q0 198 139 263q57 38 289 38h158v37q0 114 -33 131q-36 27 -127 27h-315l30 279h338q323 0 400 -160q45 -93 45 -258zM534 393q-98 0 -119 -20
q-16 -17 -16 -58q0 -90 92 -90q55 0 156 45v123h-113zM878 1182h-215l-115 139l-112 -139h-218l218 282h227z" />
    <glyph glyph-name="atilde" unicode="&#xe3;" 
d="M985 672v-672h-279l-3 10q-2 7 -3 10q-4 10 -7 23l-3 25q-154 -80 -301 -80h-29q-151 0 -240 116q-59 91 -59 203v8q0 198 139 263q57 38 289 38h158v37q0 114 -33 131q-36 27 -127 27h-315l30 279h338q323 0 400 -160q45 -93 45 -258zM534 393q-98 0 -119 -20
q-16 -17 -16 -58q0 -90 92 -90q55 0 156 45v123h-113zM271 1176q-12 224 176 224q34 0 73 -10l67 -23q5 -2 12 -5l12 -6q14 -7 23 -11q25 -11 44 -11q49 0 56 76h149q8 -221 -176 -221q-39 0 -79 12q-16 5 -35 12q-6 2 -17 6l-42 17q-14 6 -20 8q-19 7 -38 7q-44 0 -50 -75
h-155z" />
    <glyph glyph-name="adieresis" unicode="&#xe4;" 
d="M540 1092h-342l-28 -283h317q92 0 127 -29q33 -12 33 -125v-37h-156q-227 0 -293 -40q-137 -64 -137 -263v-8q0 -117 57 -205q90 -114 238 -114h31q155 0 303 80l16 -68h273l2 672q0 163 -46 256q-77 164 -395 164zM647 268q-89 -43 -156 -43q-92 0 -92 90q0 41 16 58
q18 20 119 20h113v-125zM906 1302q-2 -14 -5 -26q-7 -31 -25 -47q-16 -17 -52 -24q-14 -3 -30 -4q-13 -1 -26 -1q-80 0 -109 29q-21 16 -29 47q-3 12 -5 26q-1 12 -1 25q0 14 1 25q2 14 5 27q8 30 29 46q29 29 109 29q79 0 108 -29q18 -16 25 -46q3 -13 5 -27q1 -12 1 -25
t-1 -25zM447 1302q-1 -14 -4 -26q-8 -31 -26 -47q-20 -17 -55 -24q-14 -3 -29 -4q-13 -1 -26 -1q-80 0 -111 29q-20 16 -28 47l-4 26v50l4 27q8 30 28 46q31 29 111 29q75 0 110 -29q18 -16 26 -46q3 -13 4 -27q1 -12 1 -25t-1 -25z" />
    <glyph glyph-name="aring" unicode="&#xe5;" 
d="M983 672v-674h-281l-12 42l-4 26q-147 -78 -299 -78h-31q-150 0 -236 112q-57 89 -57 207v8q0 203 135 260q58 43 285 43h162v33q0 119 -35 131q-33 27 -129 27h-312l31 283h336q321 0 404 -160q43 -98 43 -260zM530 393q-95 0 -117 -18q-18 -19 -18 -60q0 -90 92 -90
q65 0 158 45v123h-115zM780 1339q0 -196 -234 -196q-231 0 -231 196q0 203 233 203q232 0 232 -203zM634 1339q0 101 -90 101t-90 -101q0 -94 92 -94q88 0 88 94z" />
    <glyph glyph-name="ae" unicode="&#xe6;" horiz-adv-x="987" 
 />
    <glyph glyph-name="ccedilla" unicode="&#xe7;" horiz-adv-x="980" 
d="M407 659v-139q0 -139 31 -164q30 -45 157 -45h23q90 0 291 39h2v-274q0 -7 -183 -35q-41 -8 -106 -8l-27 -53q133 -33 133 -146q0 -88 -70 -132q-59 -38 -149 -38q-88 0 -151 35l35 113q45 -25 100 -25q63 0 63 45q0 54 -141 68l64 135q-277 24 -373 250q-37 76 -37 272
v72q0 230 61 319q121 207 433 207q171 0 348 -45v-274h-6q-198 34 -306 34q-129 0 -157 -39q-35 -22 -35 -172z" />
    <glyph glyph-name="egrave" unicode="&#xe8;" horiz-adv-x="1097" 
d="M1025 643v-194h-612v-33q0 -111 68 -135q53 -15 120 -15h27q180 0 369 39h2v-274q0 -5 -172 -33q-108 -12 -248 -12q-360 0 -465 243q-39 96 -39 201v262q0 288 242 383q107 35 229 35q339 0 440 -221q39 -87 39 -246zM687 694q0 114 -49 135q-37 25 -90 25
q-135 0 -135 -127v-51h274v18zM510 1182l-257 315h289l148 -315h-180z" />
    <glyph glyph-name="eacute" unicode="&#xe9;" horiz-adv-x="1097" 
d="M1025 643v-194h-612v-33q0 -111 68 -135q53 -15 120 -15h27q180 0 369 39h2v-274q0 -5 -172 -33q-108 -12 -248 -12q-360 0 -465 243q-39 96 -39 201v262q0 288 242 383q107 35 229 35q339 0 440 -221q39 -87 39 -246zM687 694q0 114 -49 135q-37 25 -90 25
q-135 0 -135 -127v-51h274v18zM410 1182l148 315h289l-256 -315h-181z" />
    <glyph glyph-name="ecircumflex" unicode="&#xea;" horiz-adv-x="1097" 
d="M1025 643v-194h-612v-33q0 -111 68 -135q53 -15 120 -15h27q180 0 369 39h2v-274q0 -5 -172 -33q-108 -12 -248 -12q-360 0 -465 243q-39 96 -39 201v262q0 288 242 383q107 35 229 35q339 0 440 -221q39 -87 39 -246zM687 694q0 114 -49 135q-37 25 -90 25
q-135 0 -135 -127v-51h274v18zM896 1182h-216l-114 139l-113 -139h-217l217 282h227z" />
    <glyph glyph-name="edieresis" unicode="&#xeb;" horiz-adv-x="1097" 
d="M916 1304l-3 -26q-7 -30 -27 -45q-16 -18 -52 -25q-14 -3 -30 -5q-13 -1 -26 -1q-14 0 -27 1q-16 2 -29 5q-35 7 -53 25q-20 15 -28 45l-4 26v50l4 25q8 29 28 44q31 31 109 31q80 0 108 -31q20 -14 27 -44l3 -25v-50zM461 1304q-1 -14 -5 -26q-8 -30 -29 -45
q-17 -18 -51 -25q-14 -3 -29 -5q-13 -1 -26 -1q-80 0 -111 31q-20 15 -29 45q-3 12 -4 26q-2 12 -2 25q0 14 2 25q1 14 4 25q9 29 29 44q31 31 111 31q76 0 106 -31q21 -15 29 -44q4 -11 5 -25q1 -11 1 -25q0 -13 -1 -25zM544 1106q-128 0 -229 -33q-242 -97 -242 -381v-260
q0 -97 41 -201q107 -245 465 -245q145 0 246 14q168 27 168 37v264l-2 2q-186 -35 -365 -35h-25q-85 0 -116 15q-78 21 -78 135v31h610l6 6v188q0 145 -41 244q-98 219 -438 219zM407 674v53q0 127 141 127q48 0 90 -23q47 -28 47 -139v-18h-278z" />
    <glyph glyph-name="igrave" unicode="&#xec;" horiz-adv-x="466" 
d="M65 0h338v1090h-338v-1090zM166 1182l-256 315h289l147 -315h-180z" />
    <glyph glyph-name="iacute" unicode="&#xed;" horiz-adv-x="466" 
d="M66 0h338v1090h-338v-1090zM135 1182l148 315h288l-256 -315h-180z" />
    <glyph glyph-name="icircumflex" unicode="&#xee;" horiz-adv-x="761" 
d="M544 0h-334v1092h334v-1092zM712 1192h-219l-117 143l-115 -143h-221l221 291h232z" />
    <glyph glyph-name="idieresis" unicode="&#xef;" horiz-adv-x="806" 
d="M491 1313q0 11 1 22q2 14 5 25q8 30 26 45q36 31 111 31q76 0 106 -31q18 -15 26 -45q3 -11 4 -25q1 -10 1 -22q0 -70 -31 -96q-17 -18 -51 -26q-14 -3 -29 -4q-13 -1 -26 -1q-75 0 -111 31q-32 27 -32 96zM38 1313q0 12 1 22q2 14 5 25q8 30 29 45q28 31 102 31
q82 0 111 -31q20 -15 29 -45q3 -11 5 -25q1 -10 1 -22q0 -71 -35 -96q-29 -31 -111 -31q-12 0 -24 1q-15 1 -28 4q-34 8 -50 26q-35 25 -35 96zM573 0h-332v1092h332v-1092z" />
    <glyph glyph-name="eth" unicode="&#xf0;" horiz-adv-x="1380" 
d="M1298 635q0 -163 -53 -292q-49 -118 -139 -202q-170 -155 -425 -155q-264 0 -435 162q-177 167 -177 440q0 249 167 409q157 150 392 158q62 4 105 -2q17 -2 32 -7l21 -7q-96 117 -191 180l-348 -152l-65 146l254 112q-91 63 -226 121l160 203q99 -37 191 -83
q101 -50 188 -107l334 143l73 -139l-253 -113q186 -153 296 -367q99 -190 99 -448zM964 578q0 173 -70 237q-73 74 -207 74q-149 0 -226 -108q-62 -86 -62 -212q0 -137 72 -225q78 -94 212 -94q281 0 281 328z" />
    <glyph glyph-name="ntilde" unicode="&#xf1;" horiz-adv-x="1118" 
d="M237 1174q-10 239 184 239q39 0 80 -11l61 -22l61 -26q28 -11 44 -11q50 0 57 80h160q11 -233 -186 -233q-41 0 -85 12l-73 25q-61 28 -86 28q-49 0 -55 -81h-162zM862 1084q-72 27 -185 22q-56 -2 -112 -14q-46 -10 -90 -27q-32 -11 -63 -26q-9 -5 -20 -11l-12 -6
q-5 14 -11 28l-10 22q-9 20 -12 20h-276v-1092h336v778q69 41 143 45q24 2 66 -2q94 -18 94 -123v-698h340v641q0 240 -41 313q-57 95 -147 130z" />
    <glyph glyph-name="ograve" unicode="&#xf2;" horiz-adv-x="1034" 
d="M1003 647v-201q0 -314 -225 -413q-113 -47 -267 -47q-336 0 -438 219q-47 91 -47 223v240q0 320 276 409q106 31 197 31h33q344 0 444 -262q27 -80 27 -199zM667 659q0 131 -74 152q-22 12 -65 12h-27q-90 0 -127 -73q-10 -31 -10 -70v-274q0 -142 147 -142h9
q117 0 145 103l1 26v4zM489 1182l-256 315h289l147 -315h-180z" />
    <glyph glyph-name="oacute" unicode="&#xf3;" horiz-adv-x="1034" 
d="M1003 647v-201q0 -314 -225 -413q-113 -47 -267 -47q-336 0 -438 219q-47 91 -47 223v240q0 320 276 409q106 31 197 31h33q344 0 444 -262q27 -80 27 -199zM667 659q0 131 -74 152q-22 12 -65 12h-27q-90 0 -127 -73q-10 -31 -10 -70v-274q0 -142 147 -142h9
q117 0 145 103l1 26v4zM357 1182l147 315h289l-256 -315h-180z" />
    <glyph glyph-name="ocircumflex" unicode="&#xf4;" horiz-adv-x="1034" 
d="M1003 647v-201q0 -314 -225 -413q-113 -47 -267 -47q-336 0 -438 219q-47 91 -47 223v240q0 320 276 409q106 31 197 31h33q344 0 444 -262q27 -80 27 -199zM667 659q0 131 -74 152q-22 12 -65 12h-27q-90 0 -127 -73q-10 -31 -10 -70v-274q0 -142 147 -142h9
q117 0 145 103l1 26v4zM844 1182h-215l-115 139l-112 -139h-218l218 282h227z" />
    <glyph glyph-name="otilde" unicode="&#xf5;" horiz-adv-x="1034" 
d="M1003 647v-201q0 -314 -225 -413q-113 -47 -267 -47q-336 0 -438 219q-47 91 -47 223v240q0 320 276 409q106 31 197 31h33q344 0 444 -262q27 -80 27 -199zM667 659q0 131 -74 152q-22 12 -65 12h-27q-90 0 -127 -73q-10 -31 -10 -70v-274q0 -142 147 -142h9
q117 0 145 103l1 26v4zM221 1176q-12 224 176 224q34 0 73 -10l66 -23q6 -2 13 -5l11 -6q15 -7 23 -11q26 -11 44 -11q49 0 57 76h149q8 -221 -176 -221q-40 0 -80 12q-15 5 -34 12q-7 2 -17 6l-43 17q-14 6 -20 8q-19 7 -37 7q-45 0 -50 -75h-155z" />
    <glyph glyph-name="odieresis" unicode="&#xf6;" horiz-adv-x="1042" 
d="M610 1273q-4 13 -5 27q-2 12 -2 25t2 25q1 14 5 26q8 30 26 45q18 21 51 27q19 4 60 4q38 0 57 -4q34 -6 51 -27q21 -15 27 -45l4 -26v-50l-4 -27q-6 -31 -27 -48q-17 -15 -52 -22l-30 -4h-53l-30 4q-36 7 -54 22q-18 18 -26 48zM149 1273q-4 13 -5 27q-1 12 -1 25
q0 14 1 25q1 14 5 26q8 30 28 45q18 21 52 27q19 4 57 4q82 0 109 -31q17 -15 25 -45q3 -12 4 -26q1 -12 1 -25t-1 -25q-1 -14 -4 -27q-8 -30 -25 -48q-18 -15 -53 -22l-30 -4h-52l-30 4q-35 7 -53 22q-20 18 -28 48zM1007 647v-198q0 -322 -229 -414q-110 -47 -263 -47
q-336 0 -438 213q-47 100 -47 227v242q0 317 272 403q96 29 195 29h39q341 0 440 -256q31 -86 31 -199zM667 662q0 125 -74 147q-31 12 -61 12h-31q-93 0 -127 -73q-10 -24 -10 -66v-279q0 -139 151 -139h7q113 0 141 101q4 36 4 71v226z" />
    <glyph glyph-name="divide" unicode="&#xf7;" horiz-adv-x="1824" 
d="M742 931q-5 22 -5 64l1 29l4 34q9 41 34 62q20 22 64 30q28 5 73 5q47 0 75 -5q41 -8 65 -30q20 -22 29 -60q5 -27 5 -65t-5 -64q-9 -38 -29 -59q-23 -20 -68 -27q-29 -5 -72 -5t-71 5q-46 7 -66 27q-25 21 -34 59zM1087 94q0 -85 -34 -125q-24 -20 -68 -30
q-33 -7 -72 -7q-38 0 -71 7q-45 10 -66 30q-26 23 -34 60q-5 22 -5 65q0 42 5 64q8 37 34 57q21 21 64 31q34 8 73 8q96 0 140 -39q34 -35 34 -121zM1741 422h-1653v242h1653v-242z" />
    <glyph glyph-name="glyph239" unicode="&#xf9;" horiz-adv-x="1142" 
d="M73 461v631h342v-693q0 -103 98 -125q42 -4 66 -2q79 5 147 47l2 773h340v-1092h-280l-17 29q-3 6 -5 11q-5 13 -9 28l-99 -43q-45 -16 -90 -25q-57 -12 -114 -14q-117 -6 -188 21q-91 35 -152 132q-41 85 -41 322zM536 1182l-256 315h288l148 -315h-180z" />
    <glyph glyph-name="glyph240" unicode="&#xfa;" horiz-adv-x="1142" 
d="M73 461v631h342v-693q0 -103 98 -125q42 -4 66 -2q79 5 147 47l2 773h340v-1092h-280l-17 29q-3 6 -5 11q-5 13 -9 28l-99 -43q-45 -16 -90 -25q-57 -12 -114 -14q-117 -6 -188 21q-91 35 -152 132q-41 85 -41 322zM480 1182l147 315h289l-256 -315h-180z" />
    <glyph glyph-name="ucircumflex" unicode="&#xfb;" horiz-adv-x="1142" 
d="M269 6q70 -26 185 -20q57 2 112 14q45 10 87 26q30 11 62 27l34 17q4 -14 10 -29l20 -43h283v1096h-340v-781q-73 -43 -143 -47q-39 -3 -64 2q-98 25 -98 125v701h-338v-641q0 -238 43 -318q55 -95 147 -129zM906 1196h-221l-117 139l-114 -139h-221l221 283h231z" />
    <glyph glyph-name="udieresis" unicode="&#xfc;" horiz-adv-x="1142" 
d="M1060 -2h-276l-11 20q-10 24 -18 52l-35 -17q-32 -16 -61 -27q-42 -16 -87 -26q-55 -12 -114 -14q-116 -6 -188 20q-95 34 -150 129q-41 77 -41 318v641h340v-701q0 -100 96 -125q28 -5 66 -2q72 4 145 47v781h334v-1096zM667 1278q-3 12 -5 26q-1 12 -1 25q0 28 6 50
q8 29 26 44q33 33 109 33q84 0 111 -33q18 -15 26 -44q6 -22 6 -50q0 -13 -1 -25q-2 -14 -5 -26q-8 -30 -26 -47q-17 -16 -53 -23q-23 -4 -58 -4l-26 1l-28 3q-34 7 -55 23q-18 17 -26 47zM201 1278q-3 12 -4 26q-1 12 -1 25t1 25q1 14 4 25q8 29 25 44q27 33 113 33
q78 0 111 -33q18 -15 26 -44q6 -22 6 -50q0 -13 -1 -25q-2 -14 -5 -26q-8 -30 -26 -47q-21 -16 -56 -23l-29 -3h-53l-32 3q-37 7 -54 23t-25 47z" />
    <glyph glyph-name="glyph257" unicode="&#xfd;" horiz-adv-x="1282" 
d="M1250 1090q-22 -65 -46 -134l-378 -1059q-25 -61 -52 -107q-73 -123 -187 -177q-108 -45 -266 -45q-33 0 -72 1l-68 3v281l117 -5q37 0 71 7l27 6q10 2 21 6q72 19 72 133l-453 1090h375l254 -674l217 674h368zM552 1182l147 315h289l-256 -315h-180z" />
    <glyph glyph-name="thorn" unicode="&#xfe;" horiz-adv-x="696" 
 />
    <glyph glyph-name="ydieresis" unicode="&#xff;" horiz-adv-x="1284" 
d="M735 1276l-4 26v50l4 25q8 29 28 44q31 31 109 31q80 0 110 -31q18 -15 26 -44q3 -11 4 -25q1 -12 1 -25t-1 -25q-1 -14 -4 -26q-8 -30 -26 -45q-17 -18 -54 -25q-14 -3 -30 -5q-13 -1 -26 -1q-14 0 -27 1q-15 2 -29 5q-35 7 -53 25q-20 15 -28 45zM277 1276q-3 12 -4 26
q-1 12 -1 25t1 25q1 14 4 25q7 29 25 44q31 31 113 31q78 0 106 -31q19 -15 27 -44q6 -22 6 -50q0 -13 -1 -25q-2 -14 -5 -26q-9 -30 -27 -45q-16 -18 -51 -25q-13 -3 -29 -5q-12 -1 -26 -1q-33 0 -59 6q-36 7 -54 25q-18 15 -25 45zM1251 1092q-96 -274 -179 -498
l-132 -369l-87 -249q-5 -15 -9 -25q-10 -29 -19 -52q-24 -62 -51 -108q-74 -125 -191 -174q-105 -45 -264 -45q-32 0 -70 1l-68 3v279q21 -2 46 -2h71q91 0 119 16q72 22 72 131l-455 1092h373l258 -674l211 674h375z" />
    <glyph glyph-name="Abreve" unicode="&#x102;" horiz-adv-x="1548" 
d="M557 1534l-555 -1534h430l72 236h534l72 -236h434l-557 1534h-430zM772 1178l195 -660h-392zM646 1871q13 -90 125 -90q116 0 135 90h168q-11 -247 -303 -247q-149 0 -226 70q-68 64 -73 177h174z" />
    <glyph glyph-name="abreve" unicode="&#x103;" 
d="M985 672v-672h-279l-3 10q-2 7 -3 10q-4 10 -7 23l-3 25q-154 -80 -301 -80h-29q-151 0 -240 116q-59 91 -59 203v8q0 198 139 263q57 38 289 38h158v37q0 114 -33 131q-36 27 -127 27h-315l30 279h338q323 0 400 -160q45 -93 45 -258zM534 393q-98 0 -119 -20
q-16 -17 -16 -58q0 -90 92 -90q55 0 156 45v123h-113zM399 1395q13 -90 125 -90q115 0 135 90h168q-11 -247 -303 -247q-149 0 -226 70q-68 64 -73 177h174z" />
    <glyph glyph-name="Ccaron" unicode="&#x10c;" horiz-adv-x="1479" 
 />
    <glyph glyph-name="ccaron" unicode="&#x10d;" horiz-adv-x="1024" 
 />
    <glyph glyph-name="dcroat" unicode="&#x111;" horiz-adv-x="1116" 
d="M405 424q0 -38 8 -68q27 -94 174 -94l121 4v510q-76 47 -156 47l-49 -2q-98 -18 -98 -123v-274zM1046 1217v-1188q-131 -21 -234 -32q-115 -11 -215 -11q-296 0 -420 114q-57 61 -69 101q-41 66 -41 329v109q0 245 41 317q68 152 360 152q120 -3 240 -41l1 33v117h-253
v148h254v24q0 76 2 145l334 59v-228h85v-148h-85z" />
    <glyph glyph-name="Itilde" unicode="&#x128;" horiz-adv-x="538" 
d="M466 0h-391v1536h391v-1536zM-33 1604q-12 224 176 224q34 0 73 -10l67 -23q5 -2 12 -5l12 -6q14 -7 23 -11q25 -11 44 -11q49 0 56 76h149q8 -221 -176 -221q-40 0 -80 12q-15 5 -34 12q-7 2 -17 6l-43 17q-14 6 -20 8q-18 7 -37 7q-44 0 -50 -75h-155z" />
    <glyph glyph-name="itilde" unicode="&#x129;" horiz-adv-x="466" 
d="M65 0h338v1090h-338v-1090zM-45 1176q-12 224 176 224q34 0 73 -10l67 -23q5 -2 12 -5l12 -6q14 -7 23 -11q25 -11 44 -11q49 0 56 76h149q8 -221 -176 -221q-40 0 -80 12q-15 5 -34 12q-7 2 -17 6l-43 17q-14 6 -20 8q-18 7 -37 7q-44 0 -50 -75h-155z" />
    <glyph glyph-name="dotlessi" unicode="&#x131;" horiz-adv-x="569" 
 />
    <glyph glyph-name="Lslash" unicode="&#x141;" horiz-adv-x="2002" 
 />
    <glyph glyph-name="lslash" unicode="&#x142;" horiz-adv-x="358" 
 />
    <glyph glyph-name="OE" unicode="&#x152;" horiz-adv-x="2215" 
 />
    <glyph glyph-name="oe" unicode="&#x153;" horiz-adv-x="874" 
 />
    <glyph glyph-name="Scaron" unicode="&#x160;" horiz-adv-x="1292" 
d="M319 1905h222l112 -142l115 142h223l-223 -287h-227zM600 -16q-121 0 -258 17q-110 13 -201 34l-30 340l79 -17q60 -11 115 -20q70 -11 132 -17q74 -8 134 -8q215 0 254 101q12 41 -4 80q-20 42 -89 72l-130 46q-4 1 -6 1l-125 38q-60 19 -105 38q-118 48 -184 114
q-64 64 -83 164q-13 71 -3 155q27 251 217 351q75 37 173 54q76 13 178 15l51 2q100 0 220 -13l179 -24l33 -336q-61 16 -164 29q-126 17 -227 17q-234 0 -271 -101q-15 -44 2 -80q23 -44 97 -78q31 -15 78 -30l94 -29q66 -19 103 -31q57 -18 101 -37q110 -45 164 -104
q66 -70 85 -166q13 -67 3 -153q-26 -249 -215 -351q-77 -39 -173 -56q-74 -14 -175 -15z" />
    <glyph glyph-name="scaron" unicode="&#x161;" horiz-adv-x="1007" 
d="M171 1475h221l113 -140l117 140h219l-219 -287h-230zM746 619q-36 13 -86 27l-85 23q-194 52 -168 107q12 34 79 45q56 10 150 5q70 -4 162 -17l119 -18l-31 284q-76 15 -165 23q-111 10 -212 6q-82 -3 -137 -12q-81 -12 -141 -40q-73 -34 -117 -92q-50 -66 -62 -165
q-9 -66 3 -120q17 -71 71 -122q55 -49 152 -85q37 -13 85 -27l83 -21q186 -48 163 -105q-17 -34 -95 -44q-65 -8 -169 1q-79 6 -174 22l-112 21l28 -292l180 -24q62 -7 116 -10q64 -3 120 -1q81 3 136 11q82 13 142 40q74 34 118 92q51 67 63 166q9 70 -2 122
q-16 70 -70 120q-48 45 -144 80z" />
    <glyph glyph-name="Utilde" unicode="&#x168;" horiz-adv-x="1507" 
d="M1437 719q0 -265 -53 -381q-78 -183 -238 -266q-162 -86 -391 -86t-391 86q-167 89 -240 266q-51 105 -51 381v815h381v-893q0 -219 63 -270q53 -72 238 -78q186 6 236 78q59 51 59 264v899h387v-815zM481 1604q-12 224 176 224q34 0 73 -10l67 -23q5 -2 12 -5l12 -6
q14 -7 23 -11q25 -11 44 -11q48 0 56 76h149q8 -221 -176 -221q-40 0 -80 12q-15 5 -34 12q-7 2 -17 6l-43 17q-14 6 -20 8q-18 7 -37 7q-44 0 -50 -75h-155z" />
    <glyph glyph-name="utilde" unicode="&#x169;" horiz-adv-x="1142" 
d="M73 461v631h342v-693q0 -103 98 -125q42 -4 66 -2q79 5 147 47l2 773h340v-1092h-280l-17 29q-3 6 -5 11q-5 13 -9 28l-99 -43q-45 -16 -90 -25q-57 -12 -114 -14q-117 -6 -188 21q-91 35 -152 132q-41 85 -41 322zM307 1176q-12 224 176 224q34 0 72 -10l67 -23
q5 -2 12 -5l12 -6q14 -7 23 -11q26 -11 44 -11q49 0 57 76h149q8 -221 -177 -221q-39 0 -79 12q-15 5 -34 12q-7 2 -17 6l-43 17q-14 6 -20 8q-19 7 -37 7q-45 0 -50 -75h-155z" />
    <glyph glyph-name="Ydieresis" unicode="&#x178;" horiz-adv-x="1280" 
d="M1009 1763q-2 -14 -5 -25q-7 -29 -25 -44q-18 -18 -54 -27q-14 -3 -30 -5q-14 -1 -27 -1q-76 0 -108 33q-21 15 -28 44l-4 25v50l4 27q7 31 28 46q31 29 108 29q80 0 111 -29q18 -15 25 -46q3 -12 5 -27q1 -12 1 -25t-1 -25zM544 1738q-8 -29 -26 -44q-18 -18 -53 -27
q-14 -3 -29 -5q-14 -1 -26 -1q-14 0 -27 1q-17 2 -31 5q-37 9 -53 27q-18 15 -25 44q-3 11 -5 25q-1 12 -1 25t1 25q2 15 5 27q7 31 25 46q29 29 111 29q77 0 108 -29q18 -15 26 -46q4 -12 5 -27q2 -12 2 -25q0 -28 -7 -50zM846 1534l-207 -633l-205 633h-430l418 -1057
l-191 -477h428l615 1534h-428z" />
    <glyph glyph-name="Zcaron" unicode="&#x17d;" horiz-adv-x="1310" 
d="M356 1905h221l113 -142l116 142h224l-224 -287h-229zM20 2l678 1235h-582l35 297h1133l-662 -1225h612l-40 -307h-1174z" />
    <glyph glyph-name="zcaron" unicode="&#x17e;" horiz-adv-x="1062" 
d="M235 1475h219l117 -140l114 140h222l-222 -287h-231zM126 1092l-35 -283h429l-492 -809h938l31 279h-424l463 813h-910z" />
    <glyph glyph-name="florin" unicode="&#x192;" horiz-adv-x="1202" 
d="M466 1024l2 72q8 66 29 129q29 86 77 150q60 80 147 124q103 51 239 51q120 0 180 -34l-51 -226q-50 21 -109 21q-156 0 -180 -191l-10 -96h227v-217h-256l-53 -373q-13 -104 -38 -179q-28 -86 -75 -144q-105 -131 -321 -131q-149 3 -209 34l49 217q32 -14 103 -18
q85 0 122 60t62 239l33 295h-172v217h204z" />
    <glyph glyph-name="Ohorn" unicode="&#x1a0;" horiz-adv-x="1435" 
d="M1400 817v-100q0 -270 -49 -377q-78 -183 -240 -268q-155 -84 -391 -84t-391 84q-164 89 -240 268q-51 111 -51 377v100q0 326 88 445q75 128 203 196q156 86 391 86q234 0 391 -86q123 -66 203 -196q86 -123 86 -445zM720 297q186 3 236 74q57 46 57 266v233
q0 257 -64 297q-61 62 -229 68q-168 -6 -229 -68q-72 -45 -72 -288v-236q0 -221 63 -272q50 -71 238 -74zM1113 1287l1 106q105 40 122 110l-10 3q-50 15 -66 34q-21 22 -21 84q6 57 35 80q14 12 47 18q23 5 37 5q19 0 40 -4q31 -6 47 -19q18 -15 24 -40q4 -15 4 -48
q0 -18 -4 -35l-7 -24q-55 -190 -249 -270z" />
    <glyph glyph-name="ohorn" unicode="&#x1a1;" horiz-adv-x="1034" 
d="M1003 647v-201q0 -314 -225 -413q-113 -47 -267 -47q-336 0 -438 219q-47 91 -47 223v240q0 320 276 409q106 31 197 31h33q344 0 444 -262q27 -80 27 -199zM667 659q0 131 -74 152q-22 12 -65 12h-27q-90 0 -127 -73q-10 -31 -10 -70v-274q0 -142 147 -142h9
q117 0 145 103l1 26v4zM779 859v106q106 40 122 110l-10 3q-50 15 -66 34q-21 22 -21 84q7 57 35 80q15 12 47 18q23 5 37 5q19 0 40 -4q31 -6 47 -19q19 -15 24 -40q4 -15 4 -48q0 -18 -4 -35l-6 -24q-56 -190 -249 -270z" />
    <glyph glyph-name="Uhorn" unicode="&#x1af;" horiz-adv-x="1507" 
d="M1437 719q0 -265 -53 -381q-78 -183 -238 -266q-162 -86 -391 -86t-391 86q-167 89 -240 266q-51 105 -51 381v815h381v-893q0 -219 63 -270q53 -72 238 -78q186 6 236 78q59 51 59 264v899h387v-815zM1390 1287v106q106 40 122 110l-10 3q-50 15 -66 34q-21 22 -21 84
q7 57 35 80q15 12 47 18q23 5 37 5q19 0 40 -4q31 -6 47 -19q19 -15 24 -40q4 -15 4 -48q0 -18 -4 -35l-6 -24q-56 -190 -249 -270z" />
    <glyph glyph-name="uhorn" unicode="&#x1b0;" horiz-adv-x="1142" 
d="M73 461v631h342v-693q0 -103 98 -125q42 -4 66 -2q79 5 147 47l2 773h340v-1092h-280l-17 29q-3 6 -5 11q-5 13 -9 28l-99 -43q-45 -16 -90 -25q-57 -12 -114 -14q-117 -6 -188 21q-91 35 -152 132q-41 85 -41 322zM1026 859v106q106 40 122 110l-10 3q-50 15 -66 34
q-21 22 -21 84q7 57 35 80q15 12 47 18q23 5 37 5q19 0 40 -4q31 -6 47 -19q19 -15 24 -40q4 -15 4 -48q0 -18 -4 -35l-6 -24q-56 -190 -249 -270z" />
    <glyph glyph-name="pi" unicode="&#x3c0;" horiz-adv-x="1124" 
 />
    <glyph glyph-name="uni1EA0" unicode="&#x1ea0;" horiz-adv-x="1548" 
d="M557 1534l-555 -1534h430l72 236h534l72 -236h434l-557 1534h-430zM772 1178l195 -660h-392zM857 -185.5q35 -34.5 35 -84.5q0 -49 -35 -83.5t-84 -34.5t-84 34.5t-35 83.5q0 50 35 84.5t84 34.5t84 -34.5z" />
    <glyph glyph-name="uni1EA1" unicode="&#x1ea1;" 
d="M985 672v-672h-279l-3 10q-2 7 -3 10q-4 10 -7 23l-3 25q-154 -80 -301 -80h-29q-151 0 -240 116q-59 91 -59 203v8q0 198 139 263q57 38 289 38h158v37q0 114 -33 131q-36 27 -127 27h-315l30 279h338q323 0 400 -160q45 -93 45 -258zM534 393q-98 0 -119 -20
q-16 -17 -16 -58q0 -90 92 -90q55 0 156 45v123h-113zM594.5 -185.5q34.5 -34.5 34.5 -84.5q0 -49 -34.5 -83.5t-84.5 -34.5q-49 0 -83.5 34.5t-34.5 83.5q0 50 34.5 84.5t83.5 34.5q50 0 84.5 -34.5z" />
    <glyph glyph-name="uni1EA2" unicode="&#x1ea2;" horiz-adv-x="1550" 
d="M561 1534l-557 -1534h432l74 236h534l70 -236h432l-555 1534h-430zM776 1178l195 -660h-392zM1049 1872q-2 -57 -15 -85q-43 -92 -206 -129l-15 -61l-106 20l-5 124q91 31 127 48t49 31q9 7 9 53t-10 52q-10 11 -51 11q-26 0 -71 -6q-17 -2 -40 -6q-13 -2 -60 -10l13 116
q92 23 174 23q124 0 182 -76q23 -33 25 -101v-4z" />
    <glyph glyph-name="uni1EA3" unicode="&#x1ea3;" 
d="M985 672v-672h-279l-3 10q-2 7 -3 10q-4 10 -7 23l-3 25q-154 -80 -301 -80h-29q-151 0 -240 116q-59 91 -59 203v8q0 198 139 263q57 38 289 38h158v37q0 114 -33 131q-36 27 -127 27h-315l30 279h338q323 0 400 -160q45 -93 45 -258zM534 393q-98 0 -119 -20
q-16 -17 -16 -58q0 -90 92 -90q55 0 156 45v123h-113zM819 1425q-1 -57 -14 -85q-43 -92 -207 -129l-15 -61l-106 20l-4 124q91 31 127 48t48 31q9 7 9 53t-10 52q-9 11 -51 11q-25 0 -70 -6q-17 -2 -41 -6q-13 -2 -59 -10l13 116q91 23 174 23q124 0 182 -76
q23 -33 24 -101v-4z" />
    <glyph glyph-name="uni1EA4" unicode="&#x1ea4;" horiz-adv-x="1550" 
d="M563 1534l-557 -1534h432l72 236h534l72 -236h432l-557 1534h-428zM776 1178l195 -660h-390zM1020 1829l137 285h268l-238 -285h-167zM1105 1620h-215l-115 139l-113 -139h-217l217 282h228z" />
    <glyph glyph-name="uni1EA5" unicode="&#x1ea5;" 
d="M985 672v-672h-279l-3 10q-2 7 -3 10q-4 10 -7 23l-3 25q-154 -80 -301 -80h-29q-151 0 -240 116q-59 91 -59 203v8q0 198 139 263q57 38 289 38h158v37q0 114 -33 131q-36 27 -127 27h-315l30 279h338q323 0 400 -160q45 -93 45 -258zM534 393q-98 0 -119 -20
q-16 -17 -16 -58q0 -90 92 -90q55 0 156 45v123h-113zM878 1182h-215l-115 139l-112 -139h-218l218 282h227zM761 1391l137 285h268l-238 -285h-167z" />
    <glyph glyph-name="uni1EA6" unicode="&#x1ea6;" horiz-adv-x="1550" 
d="M1039 1819l-237 285h268l137 -285h-168zM563 1534l-557 -1534h432l72 236h534l72 -236h432l-557 1534h-428zM776 1178l195 -660h-390zM1105 1620h-215l-115 139l-113 -139h-217l217 282h228z" />
    <glyph glyph-name="uni1EA7" unicode="&#x1ea7;" 
d="M985 672v-672h-279l-3 10q-2 7 -3 10q-4 10 -7 23l-3 25q-154 -80 -301 -80h-29q-151 0 -240 116q-59 91 -59 203v8q0 198 139 263q57 38 289 38h158v37q0 114 -33 131q-36 27 -127 27h-315l30 279h338q323 0 400 -160q45 -93 45 -258zM534 393q-98 0 -119 -20
q-16 -17 -16 -58q0 -90 92 -90q55 0 156 45v123h-113zM878 1182h-215l-115 139l-112 -139h-218l218 282h227zM810 1391l-238 285h268l137 -285h-167z" />
    <glyph glyph-name="uni1EA8" unicode="&#x1ea8;" horiz-adv-x="1550" 
d="M1112 0l-72 236h-532l-72 -236h-432l555 1534h430l557 -1534h-434zM774 1178l-197 -660h392zM1330 2040q-1 -53 -13 -78q-40 -85 -190 -119l-14 -56l-97 19l-5 113q84 29 117 44.5t45 28.5q8 6 8 49q0 41 -9 47q-9 10 -47 10q-24 1 -65 -5q-16 -2 -37 -6q-12 -1 -55 -9
l12 107q84 21 160 21q114 0 167 -70q22 -31 23 -93v-3zM1105 1620h-215l-115 139l-113 -139h-217l217 282h228z" />
    <glyph glyph-name="uni1EA9" unicode="&#x1ea9;" 
d="M985 672v-672h-279l-3 10q-2 7 -3 10q-4 10 -7 23l-3 25q-154 -80 -301 -80h-29q-151 0 -240 116q-59 91 -59 203v8q0 198 139 263q57 38 289 38h158v37q0 114 -33 131q-36 27 -127 27h-315l30 279h338q323 0 400 -160q45 -93 45 -258zM534 393q-98 0 -119 -20
q-16 -17 -16 -58q0 -90 92 -90q55 0 156 45v123h-113zM878 1182h-215l-115 139l-112 -139h-218l218 282h227zM1081 1603q-1 -53 -13 -78q-39 -85 -190 -119l-14 -56l-97 19l-4 113q84 29 117 44.5t44 28.5q9 6 9 49q0 41 -10 47q-9 10 -47 10q-23 1 -64 -5q-16 -2 -38 -6
q-12 -1 -54 -9l12 107q84 21 159 21q115 0 167 -70q22 -31 23 -93v-3z" />
    <glyph glyph-name="uni1EAA" unicode="&#x1eaa;" horiz-adv-x="1550" 
d="M537 1936q-11 214 168 214q33 0 70 -10l63 -22q5 -2 12 -5l11 -6q14 -6 22 -10q24 -10 42 -10q47 0 54 72h142q7 -210 -168 -210q-38 0 -76 11q-14 4 -33 11q-6 2 -16 6l-40 17q-14 5 -19 7q-18 7 -36 7q-42 0 -48 -72h-148zM561 1534l-557 -1534h432l74 236h534l70 -236
h432l-555 1534h-430zM776 1178l195 -660h-392zM1105 1620h-215l-115 139l-113 -139h-217l217 282h228z" />
    <glyph glyph-name="uni1EAB" unicode="&#x1eab;" 
d="M985 672v-672h-279l-3 10q-2 7 -3 10q-4 10 -7 23l-3 25q-154 -80 -301 -80h-29q-151 0 -240 116q-59 91 -59 203v8q0 198 139 263q57 38 289 38h158v37q0 114 -33 131q-36 27 -127 27h-315l30 279h338q323 0 400 -160q45 -93 45 -258zM534 393q-98 0 -119 -20
q-16 -17 -16 -58q0 -90 92 -90q55 0 156 45v123h-113zM878 1182h-215l-115 139l-112 -139h-218l218 282h227zM299 1508q-11 214 168 214q33 0 69 -10l64 -22q5 -2 12 -5l11 -6q13 -6 22 -10q24 -10 42 -10q46 0 53 72h142q8 -210 -168 -210q-37 0 -75 11q-15 4 -33 11
q-6 2 -16 6l-41 17q-13 5 -19 7q-18 7 -35 7q-43 0 -48 -72h-148z" />
    <glyph glyph-name="uni1EAC" unicode="&#x1eac;" horiz-adv-x="1548" 
d="M557 1534l-555 -1534h430l72 236h534l72 -236h434l-557 1534h-430zM772 1178l195 -660h-392zM857 -185.5q35 -34.5 35 -84.5q0 -49 -35 -83.5t-84 -34.5t-84 34.5t-35 83.5q0 50 35 84.5t84 34.5t84 -34.5zM1105 1620h-215l-115 139l-113 -139h-217l217 282h228z" />
    <glyph glyph-name="uni1EAD" unicode="&#x1ead;" 
d="M985 672v-672h-279l-3 10q-2 7 -3 10q-4 10 -7 23l-3 25q-154 -80 -301 -80h-29q-151 0 -240 116q-59 91 -59 203v8q0 198 139 263q57 38 289 38h158v37q0 114 -33 131q-36 27 -127 27h-315l30 279h338q323 0 400 -160q45 -93 45 -258zM534 393q-98 0 -119 -20
q-16 -17 -16 -58q0 -90 92 -90q55 0 156 45v123h-113zM878 1182h-215l-115 139l-112 -139h-218l218 282h227zM594.5 -185.5q34.5 -34.5 34.5 -84.5q0 -49 -34.5 -83.5t-84.5 -34.5q-49 0 -83.5 34.5t-34.5 83.5q0 50 34.5 84.5t83.5 34.5q50 0 84.5 -34.5z" />
    <glyph glyph-name="uni1EAE" unicode="&#x1eae;" horiz-adv-x="1550" 
d="M563 1534l-557 -1534h432l72 236h534l72 -236h432l-557 1534h-428zM776 1178l195 -660h-390zM706 1905l137 285h268l-238 -285h-167zM646 1871q13 -90 125 -90q116 0 135 90h168q-11 -247 -303 -247q-149 0 -226 70q-68 64 -73 177h174z" />
    <glyph glyph-name="uni1EAF" unicode="&#x1eaf;" 
d="M985 672v-672h-279l-3 10q-2 7 -3 10q-4 10 -7 23l-3 25q-154 -80 -301 -80h-29q-151 0 -240 116q-59 91 -59 203v8q0 198 139 263q57 38 289 38h158v37q0 114 -33 131q-36 27 -127 27h-315l30 279h338q323 0 400 -160q45 -93 45 -258zM534 393q-98 0 -119 -20
q-16 -17 -16 -58q0 -90 92 -90q55 0 156 45v123h-113zM448 1430l137 285h268l-238 -285h-167zM399 1395q13 -90 125 -90q115 0 135 90h168q-11 -247 -303 -247q-149 0 -226 70q-68 64 -73 177h174z" />
    <glyph glyph-name="uni1EB0" unicode="&#x1eb0;" horiz-adv-x="1550" 
d="M725 1904l-237 285h268l137 -285h-168zM563 1534l-557 -1534h432l72 236h534l72 -236h432l-557 1534h-428zM776 1178l195 -660h-390zM646 1871q13 -90 125 -90q116 0 135 90h168q-11 -247 -303 -247q-149 0 -226 70q-68 64 -73 177h174z" />
    <glyph glyph-name="uni1EB1" unicode="&#x1eb1;" 
d="M985 672v-672h-279l-3 10q-2 7 -3 10q-4 10 -7 23l-3 25q-154 -80 -301 -80h-29q-151 0 -240 116q-59 91 -59 203v8q0 198 139 263q57 38 289 38h158v37q0 114 -33 131q-36 27 -127 27h-315l30 279h338q323 0 400 -160q45 -93 45 -258zM534 393q-98 0 -119 -20
q-16 -17 -16 -58q0 -90 92 -90q55 0 156 45v123h-113zM477 1430l-238 285h268l137 -285h-167zM399 1395q13 -90 125 -90q115 0 135 90h168q-11 -247 -303 -247q-149 0 -226 70q-68 64 -73 177h174z" />
    <glyph glyph-name="uni1EB2" unicode="&#x1eb2;" horiz-adv-x="1550" 
d="M1112 0l-72 236h-532l-72 -236h-432l555 1534h430l557 -1534h-434zM774 1178l-197 -660h392zM1035 2135q-1 -53 -13 -78q-40 -85 -190 -119l-14 -56l-97 19l-5 113q84 29 117 44.5t45 28.5q8 6 8 49q0 41 -9 47q-9 10 -47 10q-24 1 -65 -5q-16 -2 -37 -6q-12 -1 -55 -9
l12 107q84 21 160 21q114 0 167 -70q22 -31 23 -93v-3zM646 1871q13 -90 125 -90q116 0 135 90h168q-11 -247 -303 -247q-149 0 -226 70q-68 64 -73 177h174z" />
    <glyph glyph-name="uni1EB3" unicode="&#x1eb3;" 
d="M985 672v-672h-279l-3 10q-2 7 -3 10q-4 10 -7 23l-3 25q-154 -80 -301 -80h-29q-151 0 -240 116q-59 91 -59 203v8q0 198 139 263q57 38 289 38h158v37q0 114 -33 131q-36 27 -127 27h-315l30 279h338q323 0 400 -160q45 -93 45 -258zM534 393q-98 0 -119 -20
q-16 -17 -16 -58q0 -90 92 -90q55 0 156 45v123h-113zM785 1655q-1 -53 -13 -78q-39 -85 -190 -119l-14 -56l-97 19l-4 113q84 29 117 44.5t44 28.5q9 6 9 49q0 41 -10 47q-9 10 -47 10q-23 1 -64 -5q-16 -2 -38 -6q-12 -1 -54 -9l12 107q84 21 159 21q115 0 167 -70
q22 -31 23 -93v-3zM399 1395q13 -90 125 -90q115 0 135 90h168q-11 -247 -303 -247q-149 0 -226 70q-68 64 -73 177h174z" />
    <glyph glyph-name="uni1EB4" unicode="&#x1eb4;" horiz-adv-x="1550" 
d="M537 1926q-11 214 168 214q33 0 70 -10l63 -22q5 -2 12 -5l11 -6q14 -6 22 -10q24 -10 42 -10q47 0 54 72h142q7 -210 -168 -210q-38 0 -76 11q-14 4 -33 11q-6 2 -16 6l-40 17q-14 5 -19 7q-18 7 -36 7q-42 0 -48 -72h-148zM561 1534l-557 -1534h432l74 236h534l70 -236
h432l-555 1534h-430zM776 1178l195 -660h-392zM646 1871q13 -90 125 -90q116 0 135 90h168q-11 -247 -303 -247q-149 0 -226 70q-68 64 -73 177h174z" />
    <glyph glyph-name="uni1EB5" unicode="&#x1eb5;" 
d="M985 672v-672h-279l-3 10q-2 7 -3 10q-4 10 -7 23l-3 25q-154 -80 -301 -80h-29q-151 0 -240 116q-59 91 -59 203v8q0 198 139 263q57 38 289 38h158v37q0 114 -33 131q-36 27 -127 27h-315l30 279h338q323 0 400 -160q45 -93 45 -258zM534 393q-98 0 -119 -20
q-16 -17 -16 -58q0 -90 92 -90q55 0 156 45v123h-113zM260 1456q-11 214 168 214q33 0 69 -10l64 -22q5 -2 12 -5l11 -6q13 -6 22 -10q24 -10 42 -10q46 0 53 72h142q8 -210 -168 -210q-37 0 -75 11q-15 4 -33 11q-6 2 -16 6l-41 17q-13 5 -19 7q-18 7 -35 7q-43 0 -48 -72
h-148zM399 1395q13 -90 125 -90q115 0 135 90h168q-11 -247 -303 -247q-149 0 -226 70q-68 64 -73 177h174z" />
    <glyph glyph-name="uni1EB6" unicode="&#x1eb6;" horiz-adv-x="1548" 
d="M557 1534l-555 -1534h430l72 236h534l72 -236h434l-557 1534h-430zM772 1178l195 -660h-392zM857 -185.5q35 -34.5 35 -84.5q0 -49 -35 -83.5t-84 -34.5t-84 34.5t-35 83.5q0 50 35 84.5t84 34.5t84 -34.5zM646 1871q13 -90 125 -90q116 0 135 90h168q-11 -247 -303 -247
q-149 0 -226 70q-68 64 -73 177h174z" />
    <glyph glyph-name="uni1EB7" unicode="&#x1eb7;" 
d="M985 672v-672h-279l-3 10q-2 7 -3 10q-4 10 -7 23l-3 25q-154 -80 -301 -80h-29q-151 0 -240 116q-59 91 -59 203v8q0 198 139 263q57 38 289 38h158v37q0 114 -33 131q-36 27 -127 27h-315l30 279h338q323 0 400 -160q45 -93 45 -258zM534 393q-98 0 -119 -20
q-16 -17 -16 -58q0 -90 92 -90q55 0 156 45v123h-113zM594.5 -185.5q34.5 -34.5 34.5 -84.5q0 -49 -34.5 -83.5t-84.5 -34.5q-49 0 -83.5 34.5t-34.5 83.5q0 50 34.5 84.5t83.5 34.5q50 0 84.5 -34.5zM399 1395q13 -90 125 -90q115 0 135 90h168q-11 -247 -303 -247
q-149 0 -226 70q-68 64 -73 177h174z" />
    <glyph glyph-name="uni1EB8" unicode="&#x1eb8;" horiz-adv-x="1038" 
d="M466 913h400l-25 -280h-375v-330h502v-303h-897v1536h897v-297h-502v-326zM609.5 -185.5q34.5 -34.5 34.5 -84.5q0 -49 -34.5 -83.5t-84.5 -34.5q-49 0 -83.5 34.5t-34.5 83.5q0 50 34.5 84.5t83.5 34.5q50 0 84.5 -34.5z" />
    <glyph glyph-name="uni1EB9" unicode="&#x1eb9;" horiz-adv-x="1097" 
d="M1025 643v-194h-612v-33q0 -111 68 -135q53 -15 120 -15h27q180 0 369 39h2v-274q0 -5 -172 -33q-108 -12 -248 -12q-360 0 -465 243q-39 96 -39 201v262q0 288 242 383q107 35 229 35q339 0 440 -221q39 -87 39 -246zM687 694q0 114 -49 135q-37 25 -90 25
q-135 0 -135 -127v-51h274v18zM650.5 -185.5q34.5 -34.5 34.5 -84.5q0 -49 -34.5 -83.5t-83.5 -34.5t-84 34.5t-35 83.5q0 50 35 84.5t84 34.5t83.5 -34.5z" />
    <glyph glyph-name="uni1EBA" unicode="&#x1eba;" horiz-adv-x="1038" 
d="M466 913h400l-25 -280h-375v-330h502v-303h-897v1536h897v-297h-502v-326zM790 1872q-1 -57 -14 -85q-43 -92 -207 -129l-15 -61l-106 20l-4 124q91 31 127 48t48 31q9 7 9 53t-10 52q-10 11 -51 11q-26 0 -71 -6q-17 -2 -40 -6q-13 -2 -59 -10l12 116q92 23 174 23
q125 0 182 -76q24 -33 25 -101v-4z" />
    <glyph glyph-name="uni1EBB" unicode="&#x1ebb;" horiz-adv-x="1097" 
d="M1025 643v-194h-612v-33q0 -111 68 -135q53 -15 120 -15h27q180 0 369 39h2v-274q0 -5 -172 -33q-108 -12 -248 -12q-360 0 -465 243q-39 96 -39 201v262q0 288 242 383q107 35 229 35q339 0 440 -221q39 -87 39 -246zM687 694q0 114 -49 135q-37 25 -90 25
q-135 0 -135 -127v-51h274v18zM818 1425q-1 -57 -14 -85q-43 -92 -206 -129l-16 -61l-106 20l-4 124q91 31 127 48t49 31q9 7 9 53t-11 52q-9 11 -50 11q-26 0 -71 -6q-17 -2 -41 -6q-13 -2 -59 -10l13 116q91 23 174 23q124 0 182 -76q23 -33 24 -101v-4z" />
    <glyph glyph-name="uni1EBC" unicode="&#x1ebc;" horiz-adv-x="1038" 
d="M466 913h400l-25 -280h-375v-330h502v-303h-897v1536h897v-297h-502v-326zM252 1604q-12 224 176 224q34 0 73 -10l67 -23q5 -2 12 -5l12 -6q14 -7 23 -11q25 -11 44 -11q49 0 56 76h149q8 -221 -176 -221q-40 0 -80 12q-15 5 -34 12q-7 2 -17 6l-43 17q-14 6 -20 8
q-18 7 -37 7q-44 0 -50 -75h-155z" />
    <glyph glyph-name="uni1EBD" unicode="&#x1ebd;" horiz-adv-x="1097" 
d="M1025 643v-194h-612v-33q0 -111 68 -135q53 -15 120 -15h27q180 0 369 39h2v-274q0 -5 -172 -33q-108 -12 -248 -12q-360 0 -465 243q-39 96 -39 201v262q0 288 242 383q107 35 229 35q339 0 440 -221q39 -87 39 -246zM687 694q0 114 -49 135q-37 25 -90 25
q-135 0 -135 -127v-51h274v18zM270 1176q-12 224 177 224q34 0 72 -10l67 -23q5 -2 12 -5l12 -6q14 -7 23 -11q25 -11 44 -11q49 0 56 76h149q8 -221 -176 -221q-39 0 -79 12q-15 5 -35 12q-6 2 -16 6l-43 17q-14 6 -20 8q-19 7 -37 7q-45 0 -51 -75h-155z" />
    <glyph glyph-name="uni1EBE" unicode="&#x1ebe;" horiz-adv-x="1038" 
d="M466 913h400l-25 -280h-375v-330h502v-303h-897v1536h897v-297h-502v-326zM850 1620h-216l-114 139l-113 -139h-218l218 282h227zM773 1819l137 285h268l-238 -285h-167z" />
    <glyph glyph-name="uni1EBF" unicode="&#x1ebf;" horiz-adv-x="1097" 
d="M1025 643v-194h-612v-33q0 -111 68 -135q53 -15 120 -15h27q180 0 369 39h2v-274q0 -5 -172 -33q-108 -12 -248 -12q-360 0 -465 243q-39 96 -39 201v262q0 288 242 383q107 35 229 35q339 0 440 -221q39 -87 39 -246zM687 694q0 114 -49 135q-37 25 -90 25
q-135 0 -135 -127v-51h274v18zM896 1182h-216l-114 139l-113 -139h-217l217 282h227zM772 1391l137 285h268l-238 -285h-167z" />
    <glyph glyph-name="uni1EC0" unicode="&#x1ec0;" horiz-adv-x="1038" 
d="M466 913h400l-25 -280h-375v-330h502v-303h-897v1536h897v-297h-502v-326zM850 1620h-216l-114 139l-113 -139h-218l218 282h227zM792 1819l-238 285h268l137 -285h-167z" />
    <glyph glyph-name="uni1EC1" unicode="&#x1ec1;" horiz-adv-x="1097" 
d="M1025 643v-194h-612v-33q0 -111 68 -135q53 -15 120 -15h27q180 0 369 39h2v-274q0 -5 -172 -33q-108 -12 -248 -12q-360 0 -465 243q-39 96 -39 201v262q0 288 242 383q107 35 229 35q339 0 440 -221q39 -87 39 -246zM687 694q0 114 -49 135q-37 25 -90 25
q-135 0 -135 -127v-51h274v18zM896 1182h-216l-114 139l-113 -139h-217l217 282h227zM810 1391l-238 285h268l137 -285h-167z" />
    <glyph glyph-name="uni1EC2" unicode="&#x1ec2;" horiz-adv-x="1038" 
d="M466 913h400l-25 -280h-375v-330h502v-303h-897v1536h897v-297h-502v-326zM850 1620h-216l-114 139l-113 -139h-218l218 282h227zM1063 2040q-1 -53 -13 -78q-40 -85 -190 -119l-14 -56l-97 19l-4 113q84 29 116.5 44.5t44.5 28.5q8 6 8 49q0 41 -9 47q-9 10 -47 10
q-23 1 -65 -5q-15 -2 -37 -6q-12 -1 -54 -9l11 107q85 21 160 21q114 0 167 -70q22 -31 23 -93v-3z" />
    <glyph glyph-name="uni1EC3" unicode="&#x1ec3;" horiz-adv-x="1097" 
d="M1025 643v-194h-612v-33q0 -111 68 -135q53 -15 120 -15h27q180 0 369 39h2v-274q0 -5 -172 -33q-108 -12 -248 -12q-360 0 -465 243q-39 96 -39 201v262q0 288 242 383q107 35 229 35q339 0 440 -221q39 -87 39 -246zM687 694q0 114 -49 135q-37 25 -90 25
q-135 0 -135 -127v-51h274v18zM896 1182h-216l-114 139l-113 -139h-217l217 282h227zM1081 1603q-1 -53 -13 -78q-39 -85 -190 -119l-14 -56l-97 19l-4 113q84 29 117 44.5t44 28.5q9 6 9 49q0 41 -10 47q-9 10 -47 10q-23 1 -64 -5q-16 -2 -38 -6q-12 -1 -54 -9l12 107
q84 21 159 21q115 0 167 -70q22 -31 23 -93v-3z" />
    <glyph glyph-name="uni1EC4" unicode="&#x1ec4;" horiz-adv-x="1038" 
d="M466 913h400l-25 -280h-375v-330h502v-303h-897v1536h897v-297h-502v-326zM850 1620h-216l-114 139l-113 -139h-218l218 282h227zM280 1936q-12 214 168 214q32 0 69 -10l64 -22q5 -2 11 -5l12 -6q13 -6 21 -10q25 -10 42 -10q47 0 54 72h142q8 -210 -168 -210
q-37 0 -76 11q-14 4 -32 11q-7 2 -16 6l-41 17q-13 5 -19 7q-18 7 -36 7q-42 0 -48 -72h-147z" />
    <glyph glyph-name="uni1EC5" unicode="&#x1ec5;" horiz-adv-x="1097" 
d="M1025 643v-194h-612v-33q0 -111 68 -135q53 -15 120 -15h27q180 0 369 39h2v-274q0 -5 -172 -33q-108 -12 -248 -12q-360 0 -465 243q-39 96 -39 201v262q0 288 242 383q107 35 229 35q339 0 440 -221q39 -87 39 -246zM687 694q0 114 -49 135q-37 25 -90 25
q-135 0 -135 -127v-51h274v18zM896 1182h-216l-114 139l-113 -139h-217l217 282h227zM337 1508q-11 214 168 214q33 0 69 -10l64 -22q5 -2 12 -5l11 -6q13 -6 22 -10q24 -10 42 -10q46 0 53 72h142q8 -210 -168 -210q-37 0 -75 11q-15 4 -33 11q-6 2 -16 6l-41 17
q-13 5 -19 7q-18 7 -35 7q-43 0 -48 -72h-148z" />
    <glyph glyph-name="uni1EC6" unicode="&#x1ec6;" horiz-adv-x="1038" 
d="M466 913h400l-25 -280h-375v-330h502v-303h-897v1536h897v-297h-502v-326zM850 1620h-216l-114 139l-113 -139h-218l218 282h227zM603.5 -185.5q34.5 -34.5 34.5 -84.5q0 -49 -34.5 -83.5t-83.5 -34.5q-50 0 -84.5 34.5t-34.5 83.5q0 50 34.5 84.5t84.5 34.5
q49 0 83.5 -34.5z" />
    <glyph glyph-name="uni1EC7" unicode="&#x1ec7;" horiz-adv-x="1097" 
d="M1025 643v-194h-612v-33q0 -111 68 -135q53 -15 120 -15h27q180 0 369 39h2v-274q0 -5 -172 -33q-108 -12 -248 -12q-360 0 -465 243q-39 96 -39 201v262q0 288 242 383q107 35 229 35q339 0 440 -221q39 -87 39 -246zM687 694q0 114 -49 135q-37 25 -90 25
q-135 0 -135 -127v-51h274v18zM896 1182h-216l-114 139l-113 -139h-217l217 282h227zM650.5 -185.5q34.5 -34.5 34.5 -84.5q0 -49 -34.5 -83.5t-83.5 -34.5t-84 34.5t-35 83.5q0 50 35 84.5t84 34.5t83.5 -34.5z" />
    <glyph glyph-name="uni1EC8" unicode="&#x1ec8;" horiz-adv-x="538" 
d="M466 0h-391v1536h391v-1536zM524 1872q-1 -57 -14 -85q-43 -92 -207 -129l-15 -61l-106 20l-5 124q92 31 127.5 48t48.5 31q9 7 9 53t-10 52q-10 11 -51 11q-26 0 -71 -6q-17 -2 -40 -6q-13 -2 -59 -10l12 116q92 23 174 23q125 0 182 -76q24 -33 25 -101v-4z" />
    <glyph glyph-name="uni1EC9" unicode="&#x1ec9;" horiz-adv-x="466" 
d="M66 0h338v1090h-338v-1090zM505 1425q-1 -57 -14 -85q-43 -92 -207 -129l-15 -61l-106 20l-5 124q92 31 127.5 48t48.5 31q9 7 9 53t-10 52q-10 11 -51 11q-26 0 -71 -6q-17 -2 -40 -6q-13 -2 -59 -10l12 116q92 23 174 23q125 0 182 -76q24 -33 25 -101v-4z" />
    <glyph glyph-name="uni1ECA" unicode="&#x1eca;" horiz-adv-x="538" 
d="M466 0h-391v1536h391v-1536zM354.5 -185.5q34.5 -34.5 34.5 -84.5q0 -49 -34.5 -83.5t-83.5 -34.5q-50 0 -84.5 34.5t-34.5 83.5q0 50 34.5 84.5t84.5 34.5q49 0 83.5 -34.5z" />
    <glyph glyph-name="uni1ECB" unicode="&#x1ecb;" horiz-adv-x="466" 
d="M404 1431q7 -26 7 -65q0 -87 -43 -121q-20 -20 -63 -29q-30 -6 -70 -6t-70 6q-43 9 -69 29q-22 21 -31 58q-6 25 -6 63q0 36 6 63q9 40 31 60q44 35 139 35q98 0 133 -35q26 -21 36 -58zM65 0h338v1090h-338v-1090zM318 -185.5q35 -34.5 35 -84.5q0 -49 -35 -83.5
t-84 -34.5t-83.5 34.5t-34.5 83.5q0 50 34.5 84.5t83.5 34.5t84 -34.5z" />
    <glyph glyph-name="uni1ECC" unicode="&#x1ecc;" horiz-adv-x="1435" 
d="M1400 817v-100q0 -270 -49 -377q-78 -183 -240 -268q-155 -84 -391 -84t-391 84q-164 89 -240 268q-51 111 -51 377v100q0 326 88 445q75 128 203 196q156 86 391 86q234 0 391 -86q123 -66 203 -196q86 -123 86 -445zM720 297q186 3 236 74q57 46 57 266v233
q0 257 -64 297q-61 62 -229 68q-168 -6 -229 -68q-72 -45 -72 -288v-236q0 -221 63 -272q50 -71 238 -74zM803 -185.5q35 -34.5 35 -84.5q0 -49 -35 -83.5t-84 -34.5t-84 34.5t-35 83.5q0 50 35 84.5t84 34.5t84 -34.5z" />
    <glyph glyph-name="uni1ECD" unicode="&#x1ecd;" horiz-adv-x="1034" 
d="M1003 647v-201q0 -314 -225 -413q-113 -47 -267 -47q-336 0 -438 219q-47 91 -47 223v240q0 320 276 409q106 31 197 31h33q344 0 444 -262q27 -80 27 -199zM667 659q0 131 -74 152q-22 12 -65 12h-27q-90 0 -127 -73q-10 -31 -10 -70v-274q0 -142 147 -142h9
q117 0 145 103l1 26v4zM598.5 -185.5q34.5 -34.5 34.5 -84.5q0 -49 -34.5 -83.5t-84.5 -34.5q-49 0 -83.5 34.5t-34.5 83.5q0 50 34.5 84.5t83.5 34.5q50 0 84.5 -34.5z" />
    <glyph glyph-name="uni1ECE" unicode="&#x1ece;" horiz-adv-x="1435" 
d="M1400 817v-100q0 -270 -49 -377q-78 -183 -240 -268q-155 -84 -391 -84t-391 84q-164 89 -240 268q-51 111 -51 377v100q0 326 88 445q75 128 203 196q156 86 391 86q234 0 391 -86q123 -66 203 -196q86 -123 86 -445zM720 297q186 3 236 74q57 46 57 266v233
q0 257 -64 297q-61 62 -229 68q-168 -6 -229 -68q-72 -45 -72 -288v-236q0 -221 63 -272q50 -71 238 -74zM981 1872q-1 -57 -15 -85q-43 -92 -206 -129l-15 -61l-106 20l-5 124q92 31 127.5 48t48.5 31q9 7 9 53t-10 52q-10 11 -51 11q-26 0 -71 -6q-17 -2 -40 -6
q-13 -2 -59 -10l12 116q92 23 174 23q124 0 182 -76q24 -33 25 -101v-4z" />
    <glyph glyph-name="uni1ECF" unicode="&#x1ecf;" horiz-adv-x="1034" 
d="M1003 647v-201q0 -314 -225 -413q-113 -47 -267 -47q-336 0 -438 219q-47 91 -47 223v240q0 320 276 409q106 31 197 31h33q344 0 444 -262q27 -80 27 -199zM667 659q0 131 -74 152q-22 12 -65 12h-27q-90 0 -127 -73q-10 -31 -10 -70v-274q0 -142 147 -142h9
q117 0 145 103l1 26v4zM789 1425q-1 -57 -14 -85q-43 -92 -207 -129l-15 -61l-106 20l-5 124q92 31 127.5 48t48.5 31q9 7 9 53t-10 52q-10 11 -51 11q-26 0 -71 -6q-17 -2 -40 -6q-13 -2 -59 -10l12 116q92 23 174 23q125 0 182 -76q24 -33 25 -101v-4z" />
    <glyph glyph-name="uni1ED0" unicode="&#x1ed0;" horiz-adv-x="1435" 
d="M1400 817v-100q0 -270 -49 -377q-78 -183 -240 -268q-155 -84 -391 -84t-391 84q-164 89 -240 268q-51 111 -51 377v100q0 326 88 445q75 128 203 196q156 86 391 86q234 0 391 -86q123 -66 203 -196q86 -123 86 -445zM720 297q186 3 236 74q57 46 57 266v233
q0 257 -64 297q-61 62 -229 68q-168 -6 -229 -68q-72 -45 -72 -288v-236q0 -221 63 -272q50 -71 238 -74zM1049 1620h-215l-115 139l-113 -139h-217l217 282h228zM962 1819l137 285h268l-238 -285h-167z" />
    <glyph glyph-name="uni1ED1" unicode="&#x1ed1;" horiz-adv-x="1034" 
d="M1003 647v-201q0 -314 -225 -413q-113 -47 -267 -47q-336 0 -438 219q-47 91 -47 223v240q0 320 276 409q106 31 197 31h33q344 0 444 -262q27 -80 27 -199zM667 659q0 131 -74 152q-22 12 -65 12h-27q-90 0 -127 -73q-10 -31 -10 -70v-274q0 -142 147 -142h9
q117 0 145 103l1 26v4zM844 1182h-215l-115 139l-112 -139h-218l218 282h227zM734 1391l137 285h268l-238 -285h-167z" />
    <glyph glyph-name="uni1ED2" unicode="&#x1ed2;" horiz-adv-x="1435" 
d="M1400 817v-100q0 -270 -49 -377q-78 -183 -240 -268q-155 -84 -391 -84t-391 84q-164 89 -240 268q-51 111 -51 377v100q0 326 88 445q75 128 203 196q156 86 391 86q234 0 391 -86q123 -66 203 -196q86 -123 86 -445zM720 297q186 3 236 74q57 46 57 266v233
q0 257 -64 297q-61 62 -229 68q-168 -6 -229 -68q-72 -45 -72 -288v-236q0 -221 63 -272q50 -71 238 -74zM1049 1620h-215l-115 139l-113 -139h-217l217 282h228zM982 1819l-238 285h268l137 -285h-167z" />
    <glyph glyph-name="uni1ED3" unicode="&#x1ed3;" horiz-adv-x="1034" 
d="M1003 647v-201q0 -314 -225 -413q-113 -47 -267 -47q-336 0 -438 219q-47 91 -47 223v240q0 320 276 409q106 31 197 31h33q344 0 444 -262q27 -80 27 -199zM667 659q0 131 -74 152q-22 12 -65 12h-27q-90 0 -127 -73q-10 -31 -10 -70v-274q0 -142 147 -142h9
q117 0 145 103l1 26v4zM844 1182h-215l-115 139l-112 -139h-218l218 282h227zM761 1391l-237 285h268l137 -285h-168z" />
    <glyph glyph-name="uni1ED4" unicode="&#x1ed4;" horiz-adv-x="1435" 
d="M1400 817v-100q0 -270 -49 -377q-78 -183 -240 -268q-155 -84 -391 -84t-391 84q-164 89 -240 268q-51 111 -51 377v100q0 326 88 445q75 128 203 196q156 86 391 86q234 0 391 -86q123 -66 203 -196q86 -123 86 -445zM720 297q186 3 236 74q57 46 57 266v233
q0 257 -64 297q-61 62 -229 68q-168 -6 -229 -68q-72 -45 -72 -288v-236q0 -221 63 -272q50 -71 238 -74zM1049 1620h-215l-115 139l-113 -139h-217l217 282h228zM1272 2040q-1 -53 -13 -78q-40 -85 -190 -119l-14 -56l-97 19l-5 113q84 29 117 44.5t45 28.5q8 6 8 49
q0 41 -9 47q-9 10 -47 10q-24 1 -65 -5q-16 -2 -37 -6q-12 -1 -54 -9l11 107q84 21 160 21q114 0 167 -70q22 -31 23 -93v-3z" />
    <glyph glyph-name="uni1ED5" unicode="&#x1ed5;" horiz-adv-x="1034" 
d="M1003 647v-201q0 -314 -225 -413q-113 -47 -267 -47q-336 0 -438 219q-47 91 -47 223v240q0 320 276 409q106 31 197 31h33q344 0 444 -262q27 -80 27 -199zM667 659q0 131 -74 152q-22 12 -65 12h-27q-90 0 -127 -73q-10 -31 -10 -70v-274q0 -142 147 -142h9
q117 0 145 103l1 26v4zM844 1182h-215l-115 139l-112 -139h-218l218 282h227zM1043 1603q-2 -53 -14 -78q-39 -85 -189 -119l-14 -56l-98 19l-4 113q84 29 117 44.5t45 28.5q8 6 8 49q0 41 -9 47q-9 10 -47 10q-24 1 -65 -5q-16 -2 -37 -6q-12 -1 -55 -9l12 107
q84 21 160 21q114 0 167 -70q21 -31 23 -93v-3z" />
    <glyph glyph-name="uni1ED6" unicode="&#x1ed6;" horiz-adv-x="1435" 
d="M1400 817v-100q0 -270 -49 -377q-78 -183 -240 -268q-155 -84 -391 -84t-391 84q-164 89 -240 268q-51 111 -51 377v100q0 326 88 445q75 128 203 196q156 86 391 86q234 0 391 -86q123 -66 203 -196q86 -123 86 -445zM720 297q186 3 236 74q57 46 57 266v233
q0 257 -64 297q-61 62 -229 68q-168 -6 -229 -68q-72 -45 -72 -288v-236q0 -221 63 -272q50 -71 238 -74zM1049 1620h-215l-115 139l-113 -139h-217l217 282h228zM461 1936q-12 214 168 214q32 0 69 -10l63 -22q5 -2 12 -5l11 -6q14 -6 22 -10q24 -10 42 -10q47 0 54 72h142
q8 -210 -168 -210q-38 0 -76 11q-14 4 -33 11q-6 2 -15 6l-41 17q-14 5 -19 7q-18 7 -36 7q-42 0 -48 -72h-147z" />
    <glyph glyph-name="uni1ED7" unicode="&#x1ed7;" horiz-adv-x="1034" 
d="M1003 647v-201q0 -314 -225 -413q-113 -47 -267 -47q-336 0 -438 219q-47 91 -47 223v240q0 320 276 409q106 31 197 31h33q344 0 444 -262q27 -80 27 -199zM667 659q0 131 -74 152q-22 12 -65 12h-27q-90 0 -127 -73q-10 -31 -10 -70v-274q0 -142 147 -142h9
q117 0 145 103l1 26v4zM844 1182h-215l-115 139l-112 -139h-218l218 282h227zM261 1498q-11 214 168 214q33 0 70 -10l63 -22q5 -2 12 -5l11 -6q14 -6 22 -10q24 -10 42 -10q47 0 54 72h142q7 -210 -168 -210q-38 0 -76 11q-14 4 -33 11q-6 2 -16 6l-40 17q-14 5 -19 7
q-18 7 -36 7q-42 0 -48 -72h-148z" />
    <glyph glyph-name="uni1ED8" unicode="&#x1ed8;" horiz-adv-x="1435" 
d="M1400 817v-100q0 -270 -49 -377q-78 -183 -240 -268q-155 -84 -391 -84t-391 84q-164 89 -240 268q-51 111 -51 377v100q0 326 88 445q75 128 203 196q156 86 391 86q234 0 391 -86q123 -66 203 -196q86 -123 86 -445zM720 297q186 3 236 74q57 46 57 266v233
q0 257 -64 297q-61 62 -229 68q-168 -6 -229 -68q-72 -45 -72 -288v-236q0 -221 63 -272q50 -71 238 -74zM1049 1620h-215l-115 139l-113 -139h-217l217 282h228zM803 -185.5q35 -34.5 35 -84.5q0 -49 -35 -83.5t-84 -34.5t-84 34.5t-35 83.5q0 50 35 84.5t84 34.5t84 -34.5
z" />
    <glyph glyph-name="uni1ED9" unicode="&#x1ed9;" horiz-adv-x="1034" 
d="M1003 647v-201q0 -314 -225 -413q-113 -47 -267 -47q-336 0 -438 219q-47 91 -47 223v240q0 320 276 409q106 31 197 31h33q344 0 444 -262q27 -80 27 -199zM667 659q0 131 -74 152q-22 12 -65 12h-27q-90 0 -127 -73q-10 -31 -10 -70v-274q0 -142 147 -142h9
q117 0 145 103l1 26v4zM844 1182h-215l-115 139l-112 -139h-218l218 282h227zM598.5 -185.5q34.5 -34.5 34.5 -84.5q0 -49 -34.5 -83.5t-84.5 -34.5q-49 0 -83.5 34.5t-34.5 83.5q0 50 34.5 84.5t83.5 34.5q50 0 84.5 -34.5z" />
    <glyph glyph-name="uni1EDA" unicode="&#x1eda;" horiz-adv-x="1435" 
d="M1400 817v-100q0 -270 -49 -377q-78 -183 -240 -268q-155 -84 -391 -84t-391 84q-164 89 -240 268q-51 111 -51 377v100q0 326 88 445q75 128 203 196q156 86 391 86q234 0 391 -86q123 -66 203 -196q86 -123 86 -445zM720 297q186 3 236 74q57 46 57 266v233
q0 257 -64 297q-61 62 -229 68q-168 -6 -229 -68q-72 -45 -72 -288v-236q0 -221 63 -272q50 -71 238 -74zM568 1620l147 315h289l-256 -315h-180zM1113 1287l1 106q105 40 122 110l-10 3q-50 15 -66 34q-21 22 -21 84q6 57 35 80q14 12 47 18q23 5 37 5q19 0 40 -4
q31 -6 47 -19q18 -15 24 -40q4 -15 4 -48q0 -18 -4 -35l-7 -24q-55 -190 -249 -270z" />
    <glyph glyph-name="uni1EDB" unicode="&#x1edb;" horiz-adv-x="1034" 
d="M1003 647v-201q0 -314 -225 -413q-113 -47 -267 -47q-336 0 -438 219q-47 91 -47 223v240q0 320 276 409q106 31 197 31h33q344 0 444 -262q27 -80 27 -199zM667 659q0 131 -74 152q-22 12 -65 12h-27q-90 0 -127 -73q-10 -31 -10 -70v-274q0 -142 147 -142h9
q117 0 145 103l1 26v4zM357 1182l147 315h289l-256 -315h-180zM778 859l1 106q105 40 122 110l-10 3q-50 15 -67 34q-20 22 -20 84q6 57 35 80q14 12 46 18q24 5 37 5q19 0 41 -4q31 -6 47 -19q18 -15 24 -40q3 -15 3 -48q0 -18 -3 -35l-7 -24q-55 -190 -249 -270z" />
    <glyph glyph-name="uni1EDC" unicode="&#x1edc;" horiz-adv-x="1435" 
d="M1400 817v-100q0 -270 -49 -377q-78 -183 -240 -268q-155 -84 -391 -84t-391 84q-164 89 -240 268q-51 111 -51 377v100q0 326 88 445q75 128 203 196q156 86 391 86q234 0 391 -86q123 -66 203 -196q86 -123 86 -445zM720 297q186 3 236 74q57 46 57 266v233
q0 257 -64 297q-61 62 -229 68q-168 -6 -229 -68q-72 -45 -72 -288v-236q0 -221 63 -272q50 -71 238 -74zM634 1620l-256 315h288l148 -315h-180zM1113 1287l1 106q105 40 122 110l-10 3q-50 15 -66 34q-21 22 -21 84q6 57 35 80q14 12 47 18q23 5 37 5q19 0 40 -4
q31 -6 47 -19q18 -15 24 -40q4 -15 4 -48q0 -18 -4 -35l-7 -24q-55 -190 -249 -270z" />
    <glyph glyph-name="uni1EDD" unicode="&#x1edd;" horiz-adv-x="1034" 
d="M1003 647v-201q0 -314 -225 -413q-113 -47 -267 -47q-336 0 -438 219q-47 91 -47 223v240q0 320 276 409q106 31 197 31h33q344 0 444 -262q27 -80 27 -199zM667 659q0 131 -74 152q-22 12 -65 12h-27q-90 0 -127 -73q-10 -31 -10 -70v-274q0 -142 147 -142h9
q117 0 145 103l1 26v4zM489 1182l-256 315h289l147 -315h-180zM778 859l1 106q105 40 122 110l-10 3q-50 15 -67 34q-20 22 -20 84q6 57 35 80q14 12 46 18q24 5 37 5q19 0 41 -4q31 -6 47 -19q18 -15 24 -40q3 -15 3 -48q0 -18 -3 -35l-7 -24q-55 -190 -249 -270z" />
    <glyph glyph-name="uni1EDE" unicode="&#x1ede;" horiz-adv-x="1435" 
d="M1400 817v-100q0 -270 -49 -377q-78 -183 -240 -268q-155 -84 -391 -84t-391 84q-164 89 -240 268q-51 111 -51 377v100q0 326 88 445q75 128 203 196q156 86 391 86q234 0 391 -86q123 -66 203 -196q86 -123 86 -445zM720 297q186 3 236 74q57 46 57 266v233
q0 257 -64 297q-61 62 -229 68q-168 -6 -229 -68q-72 -45 -72 -288v-236q0 -221 63 -272q50 -71 238 -74zM981 1872q-1 -57 -15 -85q-43 -92 -206 -129l-15 -61l-106 20l-5 124q92 31 127.5 48t48.5 31q9 7 9 53t-10 52q-10 11 -51 11q-26 0 -71 -6q-17 -2 -40 -6
q-13 -2 -59 -10l12 116q92 23 174 23q124 0 182 -76q24 -33 25 -101v-4zM1113 1287l1 106q105 40 122 110l-10 3q-50 15 -66 34q-21 22 -21 84q6 57 35 80q14 12 47 18q23 5 37 5q19 0 40 -4q31 -6 47 -19q18 -15 24 -40q4 -15 4 -48q0 -18 -4 -35l-7 -24
q-55 -190 -249 -270z" />
    <glyph glyph-name="uni1EDF" unicode="&#x1edf;" horiz-adv-x="1034" 
d="M1003 647v-201q0 -314 -225 -413q-113 -47 -267 -47q-336 0 -438 219q-47 91 -47 223v240q0 320 276 409q106 31 197 31h33q344 0 444 -262q27 -80 27 -199zM667 659q0 131 -74 152q-22 12 -65 12h-27q-90 0 -127 -73q-10 -31 -10 -70v-274q0 -142 147 -142h9
q117 0 145 103l1 26v4zM789 1425q-1 -57 -14 -85q-43 -92 -207 -129l-15 -61l-106 20l-5 124q92 31 127.5 48t48.5 31q9 7 9 53t-10 52q-10 11 -51 11q-26 0 -71 -6q-17 -2 -40 -6q-13 -2 -59 -10l12 116q92 23 174 23q125 0 182 -76q24 -33 25 -101v-4zM778 859l1 106
q105 40 122 110l-10 3q-50 15 -67 34q-20 22 -20 84q6 57 35 80q14 12 46 18q24 5 37 5q19 0 41 -4q31 -6 47 -19q18 -15 24 -40q3 -15 3 -48q0 -18 -3 -35l-7 -24q-55 -190 -249 -270z" />
    <glyph glyph-name="uni1EE0" unicode="&#x1ee0;" horiz-adv-x="1435" 
d="M1400 817v-100q0 -270 -49 -377q-78 -183 -240 -268q-155 -84 -391 -84t-391 84q-164 89 -240 268q-51 111 -51 377v100q0 326 88 445q75 128 203 196q156 86 391 86q234 0 391 -86q123 -66 203 -196q86 -123 86 -445zM720 297q186 3 236 74q57 46 57 266v233
q0 257 -64 297q-61 62 -229 68q-168 -6 -229 -68q-72 -45 -72 -288v-236q0 -221 63 -272q50 -71 238 -74zM405 1604q-12 224 176 224q34 0 73 -10l66 -23q5 -2 13 -5l11 -6q14 -7 23 -11q26 -11 44 -11q49 0 57 76h149q8 -221 -177 -221q-39 0 -79 12q-15 5 -34 12
q-7 2 -17 6l-43 17q-14 6 -20 8q-19 7 -37 7q-45 0 -50 -75h-155zM1113 1287l1 106q105 40 122 110l-10 3q-50 15 -66 34q-21 22 -21 84q6 57 35 80q14 12 47 18q23 5 37 5q19 0 40 -4q31 -6 47 -19q18 -15 24 -40q4 -15 4 -48q0 -18 -4 -35l-7 -24q-55 -190 -249 -270z" />
    <glyph glyph-name="uni1EE1" unicode="&#x1ee1;" horiz-adv-x="1034" 
d="M1003 647v-201q0 -314 -225 -413q-113 -47 -267 -47q-336 0 -438 219q-47 91 -47 223v240q0 320 276 409q106 31 197 31h33q344 0 444 -262q27 -80 27 -199zM667 659q0 131 -74 152q-22 12 -65 12h-27q-90 0 -127 -73q-10 -31 -10 -70v-274q0 -142 147 -142h9
q117 0 145 103l1 26v4zM221 1233q-12 224 176 224q34 0 73 -10l66 -23q6 -2 13 -5l11 -6q15 -7 23 -11q26 -11 44 -11q49 0 57 76h149q8 -221 -176 -221q-40 0 -80 12q-15 5 -34 12q-7 2 -17 6l-43 17q-14 6 -20 8q-19 7 -37 7q-45 0 -50 -75h-155zM778 859l1 106
q105 40 122 110l-10 3q-50 15 -67 34q-20 22 -20 84q6 57 35 80q14 12 46 18q24 5 37 5q19 0 41 -4q31 -6 47 -19q18 -15 24 -40q3 -15 3 -48q0 -18 -3 -35l-7 -24q-55 -190 -249 -270z" />
    <glyph glyph-name="uni1EE2" unicode="&#x1ee2;" horiz-adv-x="1435" 
d="M1400 817v-100q0 -270 -49 -377q-78 -183 -240 -268q-155 -84 -391 -84t-391 84q-164 89 -240 268q-51 111 -51 377v100q0 326 88 445q75 128 203 196q156 86 391 86q234 0 391 -86q123 -66 203 -196q86 -123 86 -445zM720 297q186 3 236 74q57 46 57 266v233
q0 257 -64 297q-61 62 -229 68q-168 -6 -229 -68q-72 -45 -72 -288v-236q0 -221 63 -272q50 -71 238 -74zM803 -185.5q35 -34.5 35 -84.5q0 -49 -35 -83.5t-84 -34.5t-84 34.5t-35 83.5q0 50 35 84.5t84 34.5t84 -34.5zM1113 1287l1 106q105 40 122 110l-10 3q-50 15 -66 34
q-21 22 -21 84q6 57 35 80q14 12 47 18q23 5 37 5q19 0 40 -4q31 -6 47 -19q18 -15 24 -40q4 -15 4 -48q0 -18 -4 -35l-7 -24q-55 -190 -249 -270z" />
    <glyph glyph-name="uni1EE3" unicode="&#x1ee3;" horiz-adv-x="1034" 
d="M1003 647v-201q0 -314 -225 -413q-113 -47 -267 -47q-336 0 -438 219q-47 91 -47 223v240q0 320 276 409q106 31 197 31h33q344 0 444 -262q27 -80 27 -199zM667 659q0 131 -74 152q-22 12 -65 12h-27q-90 0 -127 -73q-10 -31 -10 -70v-274q0 -142 147 -142h9
q117 0 145 103l1 26v4zM598.5 -185.5q34.5 -34.5 34.5 -84.5q0 -49 -34.5 -83.5t-84.5 -34.5q-49 0 -83.5 34.5t-34.5 83.5q0 50 34.5 84.5t83.5 34.5q50 0 84.5 -34.5zM778 859l1 106q105 40 122 110l-10 3q-50 15 -67 34q-20 22 -20 84q6 57 35 80q14 12 46 18q24 5 37 5
q19 0 41 -4q31 -6 47 -19q18 -15 24 -40q3 -15 3 -48q0 -18 -3 -35l-7 -24q-55 -190 -249 -270z" />
    <glyph glyph-name="uni1EE4" unicode="&#x1ee4;" horiz-adv-x="1507" 
d="M1437 719q0 -265 -53 -381q-78 -183 -238 -266q-162 -86 -391 -86t-391 86q-167 89 -240 266q-51 105 -51 381v815h381v-893q0 -219 63 -270q53 -72 238 -78q186 6 236 78q59 51 59 264v899h387v-815zM839 -185.5q35 -34.5 35 -84.5q0 -49 -35 -83.5t-84 -34.5t-84 34.5
t-35 83.5q0 50 35 84.5t84 34.5t84 -34.5z" />
    <glyph glyph-name="uni1EE5" unicode="&#x1ee5;" horiz-adv-x="1142" 
d="M73 461v631h342v-693q0 -103 98 -125q42 -4 66 -2q79 5 147 47l2 773h340v-1092h-280l-17 29q-3 6 -5 11q-5 13 -9 28l-99 -43q-45 -16 -90 -25q-57 -12 -114 -14q-117 -6 -188 21q-91 35 -152 132q-41 85 -41 322zM683 -185.5q35 -34.5 35 -84.5q0 -49 -35 -83.5
t-84 -34.5t-83.5 34.5t-34.5 83.5q0 50 34.5 84.5t83.5 34.5t84 -34.5z" />
    <glyph glyph-name="uni1EE6" unicode="&#x1ee6;" horiz-adv-x="1507" 
d="M1437 719q0 -265 -53 -381q-78 -183 -238 -266q-162 -86 -391 -86t-391 86q-167 89 -240 266q-51 105 -51 381v815h381v-893q0 -219 63 -270q53 -72 238 -78q186 6 236 78q59 51 59 264v899h387v-815zM1038 1872q-1 -57 -14 -85q-43 -92 -207 -129l-15 -61l-106 20
l-5 124q92 31 128 48t48 31q9 7 9 53t-10 52q-10 11 -51 11q-26 0 -71 -6q-17 -2 -40 -6q-13 -2 -59 -10l12 116q92 23 174 23q125 0 182 -76q24 -33 25 -101v-4z" />
    <glyph glyph-name="uni1EE7" unicode="&#x1ee7;" horiz-adv-x="1142" 
d="M73 461v631h342v-693q0 -103 98 -125q42 -4 66 -2q79 5 147 47l2 773h340v-1092h-280l-17 29q-3 6 -5 11q-5 13 -9 28l-99 -43q-45 -16 -90 -25q-57 -12 -114 -14q-117 -6 -188 21q-91 35 -152 132q-41 85 -41 322zM846 1425q-1 -57 -15 -85q-43 -92 -206 -129l-15 -61
l-106 20l-5 124q92 31 127.5 48t48.5 31q9 7 9 53t-10 52q-10 11 -51 11q-26 0 -71 -6q-17 -2 -40 -6q-13 -2 -59 -10l12 116q92 23 174 23q124 0 182 -76q23 -33 25 -101v-4z" />
    <glyph glyph-name="uni1EE8" unicode="&#x1ee8;" horiz-adv-x="1507" 
d="M1437 719q0 -265 -53 -381q-78 -183 -238 -266q-162 -86 -391 -86t-391 86q-167 89 -240 266q-51 105 -51 381v815h381v-893q0 -219 63 -270q53 -72 238 -78q186 6 236 78q59 51 59 264v899h387v-815zM625 1620l148 315h288l-256 -315h-180zM1390 1287v106
q106 40 122 110l-10 3q-50 15 -66 34q-21 22 -21 84q7 57 35 80q15 12 47 18q23 5 37 5q19 0 40 -4q31 -6 47 -19q19 -15 24 -40q4 -15 4 -48q0 -18 -4 -35l-6 -24q-56 -190 -249 -270z" />
    <glyph glyph-name="uni1EE9" unicode="&#x1ee9;" horiz-adv-x="1142" 
d="M73 461v631h342v-693q0 -103 98 -125q42 -4 66 -2q79 5 147 47l2 773h340v-1092h-280l-17 29q-3 6 -5 11q-5 13 -9 28l-99 -43q-45 -16 -90 -25q-57 -12 -114 -14q-117 -6 -188 21q-91 35 -152 132q-41 85 -41 322zM480 1182l147 315h289l-256 -315h-180zM1025 859l1 106
q105 40 121 110l-10 3q-49 15 -66 34q-21 22 -21 84q7 57 36 80q14 12 46 18q24 5 37 5q19 0 41 -4q30 -6 47 -19q18 -15 24 -40q3 -15 3 -48q0 -18 -3 -35l-7 -24q-56 -190 -249 -270z" />
    <glyph glyph-name="uni1EEA" unicode="&#x1eea;" horiz-adv-x="1507" 
d="M1437 719q0 -265 -53 -381q-78 -183 -238 -266q-162 -86 -391 -86t-391 86q-167 89 -240 266q-51 105 -51 381v815h381v-893q0 -219 63 -270q53 -72 238 -78q186 6 236 78q59 51 59 264v899h387v-815zM691 1620l-256 315h289l147 -315h-180zM1390 1287v106
q106 40 122 110l-10 3q-50 15 -66 34q-21 22 -21 84q7 57 35 80q15 12 47 18q23 5 37 5q19 0 40 -4q31 -6 47 -19q19 -15 24 -40q4 -15 4 -48q0 -18 -4 -35l-6 -24q-56 -190 -249 -270z" />
    <glyph glyph-name="uni1EEB" unicode="&#x1eeb;" horiz-adv-x="1142" 
d="M73 461v631h342v-693q0 -103 98 -125q42 -4 66 -2q79 5 147 47l2 773h340v-1092h-280l-17 29q-3 6 -5 11q-5 13 -9 28l-99 -43q-45 -16 -90 -25q-57 -12 -114 -14q-117 -6 -188 21q-91 35 -152 132q-41 85 -41 322zM536 1182l-256 315h288l148 -315h-180zM1025 859l1 106
q105 40 121 110l-10 3q-49 15 -66 34q-21 22 -21 84q7 57 36 80q14 12 46 18q24 5 37 5q19 0 41 -4q30 -6 47 -19q18 -15 24 -40q3 -15 3 -48q0 -18 -3 -35l-7 -24q-56 -190 -249 -270z" />
    <glyph glyph-name="uni1EEC" unicode="&#x1eec;" horiz-adv-x="1507" 
d="M1437 719q0 -265 -53 -381q-78 -183 -238 -266q-162 -86 -391 -86t-391 86q-167 89 -240 266q-51 105 -51 381v815h381v-893q0 -219 63 -270q53 -72 238 -78q186 6 236 78q59 51 59 264v899h387v-815zM1038 1872q-1 -57 -14 -85q-43 -92 -207 -129l-15 -61l-106 20
l-5 124q92 31 128 48t48 31q9 7 9 53t-10 52q-10 11 -51 11q-26 0 -71 -6q-17 -2 -40 -6q-13 -2 -59 -10l12 116q92 23 174 23q125 0 182 -76q24 -33 25 -101v-4zM1390 1287v106q106 40 122 110l-10 3q-50 15 -66 34q-21 22 -21 84q7 57 35 80q15 12 47 18q23 5 37 5
q19 0 40 -4q31 -6 47 -19q19 -15 24 -40q4 -15 4 -48q0 -18 -4 -35l-6 -24q-56 -190 -249 -270z" />
    <glyph glyph-name="uni1EED" unicode="&#x1eed;" horiz-adv-x="1142" 
d="M73 461v631h342v-693q0 -103 98 -125q42 -4 66 -2q79 5 147 47l2 773h340v-1092h-280l-17 29q-3 6 -5 11q-5 13 -9 28l-99 -43q-45 -16 -90 -25q-57 -12 -114 -14q-117 -6 -188 21q-91 35 -152 132q-41 85 -41 322zM846 1425q-1 -57 -15 -85q-43 -92 -206 -129l-15 -61
l-106 20l-5 124q92 31 127.5 48t48.5 31q9 7 9 53t-10 52q-10 11 -51 11q-26 0 -71 -6q-17 -2 -40 -6q-13 -2 -59 -10l12 116q92 23 174 23q124 0 182 -76q23 -33 25 -101v-4zM1025 859l1 106q105 40 121 110l-10 3q-49 15 -66 34q-21 22 -21 84q7 57 36 80q14 12 46 18
q24 5 37 5q19 0 41 -4q30 -6 47 -19q18 -15 24 -40q3 -15 3 -48q0 -18 -3 -35l-7 -24q-56 -190 -249 -270z" />
    <glyph glyph-name="uni1EEE" unicode="&#x1eee;" horiz-adv-x="1507" 
d="M1437 719q0 -265 -53 -381q-78 -183 -238 -266q-162 -86 -391 -86t-391 86q-167 89 -240 266q-51 105 -51 381v815h381v-893q0 -219 63 -270q53 -72 238 -78q186 6 236 78q59 51 59 264v899h387v-815zM481 1604q-12 224 176 224q34 0 73 -10l67 -23q5 -2 12 -5l12 -6
q14 -7 23 -11q25 -11 44 -11q48 0 56 76h149q8 -221 -176 -221q-40 0 -80 12q-15 5 -34 12q-7 2 -17 6l-43 17q-14 6 -20 8q-18 7 -37 7q-44 0 -50 -75h-155zM1390 1287v106q106 40 122 110l-10 3q-50 15 -66 34q-21 22 -21 84q7 57 35 80q15 12 47 18q23 5 37 5q19 0 40 -4
q31 -6 47 -19q19 -15 24 -40q4 -15 4 -48q0 -18 -4 -35l-6 -24q-56 -190 -249 -270z" />
    <glyph glyph-name="uni1EEF" unicode="&#x1eef;" horiz-adv-x="1142" 
d="M73 461v631h342v-693q0 -103 98 -125q42 -4 66 -2q79 5 147 47l2 773h340v-1092h-280l-17 29q-3 6 -5 11q-5 13 -9 28l-99 -43q-45 -16 -90 -25q-57 -12 -114 -14q-117 -6 -188 21q-91 35 -152 132q-41 85 -41 322zM307 1176q-12 224 176 224q34 0 72 -10l67 -23
q5 -2 12 -5l12 -6q14 -7 23 -11q26 -11 44 -11q49 0 57 76h149q8 -221 -177 -221q-39 0 -79 12q-15 5 -34 12q-7 2 -17 6l-43 17q-14 6 -20 8q-19 7 -37 7q-45 0 -50 -75h-155zM1025 859l1 106q105 40 121 110l-10 3q-49 15 -66 34q-21 22 -21 84q7 57 36 80q14 12 46 18
q24 5 37 5q19 0 41 -4q30 -6 47 -19q18 -15 24 -40q3 -15 3 -48q0 -18 -3 -35l-7 -24q-56 -190 -249 -270z" />
    <glyph glyph-name="uni1EF0" unicode="&#x1ef0;" horiz-adv-x="1507" 
d="M1437 719q0 -265 -53 -381q-78 -183 -238 -266q-162 -86 -391 -86t-391 86q-167 89 -240 266q-51 105 -51 381v815h381v-893q0 -219 63 -270q53 -72 238 -78q186 6 236 78q59 51 59 264v899h387v-815zM839 -185.5q35 -34.5 35 -84.5q0 -49 -35 -83.5t-84 -34.5t-84 34.5
t-35 83.5q0 50 35 84.5t84 34.5t84 -34.5zM1390 1287v106q106 40 122 110l-10 3q-50 15 -66 34q-21 22 -21 84q7 57 35 80q15 12 47 18q23 5 37 5q19 0 40 -4q31 -6 47 -19q19 -15 24 -40q4 -15 4 -48q0 -18 -4 -35l-6 -24q-56 -190 -249 -270z" />
    <glyph glyph-name="uni1EF1" unicode="&#x1ef1;" horiz-adv-x="1142" 
d="M73 461v631h342v-693q0 -103 98 -125q42 -4 66 -2q79 5 147 47l2 773h340v-1092h-280l-17 29q-3 6 -5 11q-5 13 -9 28l-99 -43q-45 -16 -90 -25q-57 -12 -114 -14q-117 -6 -188 21q-91 35 -152 132q-41 85 -41 322zM683 -185.5q35 -34.5 35 -84.5q0 -49 -35 -83.5
t-84 -34.5t-83.5 34.5t-34.5 83.5q0 50 34.5 84.5t83.5 34.5t84 -34.5zM1025 859l1 106q105 40 121 110l-10 3q-49 15 -66 34q-21 22 -21 84q7 57 36 80q14 12 46 18q24 5 37 5q19 0 41 -4q30 -6 47 -19q18 -15 24 -40q3 -15 3 -48q0 -18 -3 -35l-7 -24q-56 -190 -249 -270z
" />
    <glyph glyph-name="Ygrave" unicode="&#x1ef2;" horiz-adv-x="1280" 
d="M231 0l191 477l-416 1057h430l205 -633l205 633h428l-613 -1534h-430zM635 1620l-257 315h289l148 -315h-180z" />
    <glyph glyph-name="ygrave" unicode="&#x1ef3;" horiz-adv-x="1282" 
d="M1250 1090q-22 -65 -46 -134l-378 -1059q-25 -61 -52 -107q-73 -123 -187 -177q-108 -45 -266 -45q-33 0 -72 1l-68 3v281l117 -5q37 0 71 7l27 6q10 2 21 6q72 19 72 133l-453 1090h375l254 -674l217 674h368zM576 1182l-256 315h288l148 -315h-180z" />
    <glyph glyph-name="uni1EF4" unicode="&#x1ef4;" horiz-adv-x="1280" 
d="M231 0l191 477l-416 1057h430l205 -633l205 633h428l-613 -1534h-430zM499.5 -185.5q34.5 -34.5 34.5 -84.5q0 -49 -34.5 -83.5t-83.5 -34.5t-84 34.5t-35 83.5q0 50 35 84.5t84 34.5t83.5 -34.5z" />
    <glyph glyph-name="uni1EF5" unicode="&#x1ef5;" horiz-adv-x="1282" 
d="M1250 1090q-22 -65 -46 -134l-378 -1059q-25 -61 -52 -107q-73 -123 -187 -177q-108 -45 -266 -45q-33 0 -72 1l-68 3v281l117 -5q37 0 71 7l27 6q10 2 21 6q72 19 72 133l-453 1090h375l254 -674l217 674h368zM1051 -185.5q35 -34.5 35 -84.5q0 -49 -35 -83.5t-84 -34.5
t-83.5 34.5t-34.5 83.5q0 50 34.5 84.5t83.5 34.5t84 -34.5z" />
    <glyph glyph-name="uni1EF6" unicode="&#x1ef6;" horiz-adv-x="1280" 
d="M231 0l191 477l-416 1057h430l205 -633l205 633h428l-613 -1534h-430zM923 1872q-1 -57 -14 -85q-43 -92 -206 -129l-16 -61l-105 20l-5 124q91 31 127 48t49 31q9 7 9 53t-10 52q-10 11 -51 11q-26 0 -71 -6q-17 -2 -41 -6q-13 -2 -59 -10l13 116q92 23 174 23
q124 0 182 -76q23 -33 24 -101v-4z" />
    <glyph glyph-name="uni1EF7" unicode="&#x1ef7;" horiz-adv-x="1282" 
d="M1250 1090q-22 -65 -46 -134l-378 -1059q-25 -61 -52 -107q-73 -123 -187 -177q-108 -45 -266 -45q-33 0 -72 1l-68 3v281l117 -5q37 0 71 7l27 6q10 2 21 6q72 19 72 133l-453 1090h375l254 -674l217 674h368zM914 1425q-2 -57 -15 -85q-43 -92 -206 -129l-16 -61
l-105 20l-5 124q91 31 127 48t49 31q9 7 9 53t-10 52q-10 11 -51 11q-26 0 -71 -6q-17 -2 -41 -6q-13 -2 -59 -10l13 116q92 23 174 23q124 0 182 -76q23 -33 25 -101v-4z" />
    <glyph glyph-name="uni1EF8" unicode="&#x1ef8;" horiz-adv-x="1280" 
d="M231 0l191 477l-416 1057h430l205 -633l205 633h428l-613 -1534h-430zM367 1604q-12 224 177 224q34 0 72 -10l67 -23q5 -2 12 -5l12 -6q14 -7 23 -11q26 -11 44 -11q49 0 56 76h150q8 -221 -177 -221q-39 0 -79 12q-15 5 -35 12q-6 2 -16 6l-43 17q-14 6 -20 8
q-19 7 -37 7q-45 0 -51 -75h-155z" />
    <glyph glyph-name="uni1EF9" unicode="&#x1ef9;" horiz-adv-x="1282" 
d="M1250 1090q-22 -65 -46 -134l-378 -1059q-25 -61 -52 -107q-73 -123 -187 -177q-108 -45 -266 -45q-33 0 -72 1l-68 3v281l117 -5q37 0 71 7l27 6q10 2 21 6q72 19 72 133l-453 1090h375l254 -674l217 674h368zM375 1233q-11 224 177 224q34 0 72 -10l67 -23q5 -2 12 -5
l12 -6q14 -7 23 -11q26 -11 44 -11q49 0 56 76h150q8 -221 -177 -221q-39 0 -79 12q-15 5 -35 12q-6 2 -16 6l-43 17q-14 6 -20 8q-19 7 -37 7q-45 0 -51 -75h-155z" />
    <glyph glyph-name="endash" unicode="&#x2013;" horiz-adv-x="1028" 
 />
    <glyph glyph-name="emdash" unicode="&#x2014;" horiz-adv-x="2052" 
 />
    <glyph glyph-name="quoteleft" unicode="&#x2018;" horiz-adv-x="514" 
d="M231 1532l98 4l-71 -195l61 -11q35 -10 55 -30q41 -32 41 -120q0 -93 -41 -125q-23 -19 -67 -27q-31 -6 -68 -6q-39 0 -70 6q-44 8 -67 27q-26 20 -34 56q-5 22 -5 69t12 84l7 15z" />
    <glyph glyph-name="quoteright" unicode="&#x2019;" horiz-adv-x="547" 
d="M307 1024l-98 -4l72 194l-31 5l-31 7q-35 9 -55 29q-41 33 -41 121q0 93 41 125q20 18 66 27q34 6 69 6q40 0 70 -6q44 -8 67 -27q26 -20 34 -56q5 -22 5 -69q0 -26 -5 -49l-9 -35l-12 -28z" />
    <glyph glyph-name="quotesinglbase" unicode="&#x201a;" horiz-adv-x="491" 
d="M253 -207l-98 -4l72 195l-31 4l-31 7q-35 10 -55 30q-41 32 -41 120q0 93 41 125q20 18 66 27q34 6 69 6q40 0 70 -6q44 -8 67 -27q26 -20 34 -56q5 -21 5 -69q0 -25 -5 -49l-9 -35l-12 -28z" />
    <glyph glyph-name="quotedblleft" unicode="&#x201c;" horiz-adv-x="901" 
d="M649 1532l98 4l-72 -195l62 -11q35 -10 55 -30q41 -32 41 -120q0 -93 -41 -125q-23 -19 -67 -27q-31 -6 -68 -6q-40 0 -70 6q-44 8 -67 27q-26 20 -34 56q-5 22 -5 69t12 84l6 15zM231 1532l98 4l-71 -195l61 -11q35 -10 55 -30q41 -32 41 -120q0 -93 -41 -125
q-23 -19 -67 -27q-31 -6 -68 -6q-39 0 -70 6q-44 8 -67 27q-26 20 -34 56q-5 22 -5 69t12 84l7 15z" />
    <glyph glyph-name="quotedblright" unicode="&#x201d;" horiz-adv-x="917" 
d="M259 1024l-98 -4l72 194l-31 5l-31 7q-35 9 -55 29q-41 33 -41 121q0 93 41 125q20 18 66 27q34 6 69 6q40 0 70 -6q44 -8 67 -27q26 -20 34 -56q5 -22 5 -69q0 -26 -5 -49l-9 -35l-12 -28zM677 1024l-98 -4l71 194l-30 5l-31 7q-35 9 -55 29q-41 33 -41 121q0 93 41 125
q20 18 66 27q33 6 69 6q39 0 70 -6q44 -8 67 -27q26 -20 34 -56q5 -22 5 -69q0 -26 -5 -49l-9 -35l-13 -28z" />
    <glyph glyph-name="quotedblbase" unicode="&#x201e;" horiz-adv-x="897" 
d="M247 -207l-98 -4l72 195l-31 4l-31 7q-35 10 -55 30q-41 32 -41 120q0 93 41 125q20 18 66 27q34 6 69 6q40 0 70 -6q44 -8 67 -27q26 -20 34 -56q5 -21 5 -69q0 -25 -5 -49l-9 -35l-12 -28zM665 -207l-98 -4l71 195l-30 4l-31 7q-35 10 -55 30q-41 32 -41 120
q0 93 41 125q20 18 66 27q33 6 69 6q39 0 70 -6q44 -8 67 -27q26 -20 34 -56q5 -21 5 -69q0 -25 -5 -49l-9 -35l-13 -28z" />
    <glyph glyph-name="dagger" unicode="&#x2020;" horiz-adv-x="888" 
d="M299 598q94 172 94 377q-78 0 -202 -51q-66 -27 -89 -27q-43 0 -74.5 23.5t-31.5 62.5v8q0 47 31.5 75t79.5 28h12q35 -7 125 -43q74 -31 145 -31v61q0 25 -3 57.5t-6 59.5t-26 76q-28 67 -34 86l-5 24q0 41 31 72t72 31h29q34 -8 51.5 -37t17.5 -66q0 -36 -12 -61
q-43 -102 -52.5 -148.5t-9.5 -150.5l21 -4q51 0 100 18q144 54 154 56h16q45 0 76 -29t31 -74t-33 -71.5t-78 -26.5l-8 4q-39 0 -98 33q-41 22 -59.5 28.5t-59.5 10.5t-62 6q0 -119 19.5 -202t75.5 -175q-52 -221 -69 -424t-17 -461h-58q0 283 -16 447t-78 438z" />
    <glyph glyph-name="daggerdbl" unicode="&#x2021;" horiz-adv-x="888" 
d="M299 618q94 173 94 377q-78 0 -202 -51q-66 -26 -89 -26q-43 0 -74.5 23.5t-31.5 62.5v8q0 47 31.5 74.5t79.5 27.5h12q35 -6 125 -43q74 -31 145 -31v62q0 24 -3 57t-6 59.5t-26 75.5q-28 68 -34 86l-5 25q0 41 31 71.5t72 30.5h29q34 -8 51.5 -36.5t17.5 -65.5t-12 -62
q-43 -102 -52.5 -148t-9.5 -151l21 -4q51 0 100 19q144 53 154 55h16q45 0 76 -28.5t31 -73.5t-33 -72t-78 -27l-8 5q-39 0 -98 32q-41 23 -59.5 29t-59.5 10t-62 6q0 -116 19.5 -201t75.5 -180q-45 -82 -70 -167t-25 -177l5 -28q77 0 198 51q64 26 88 26q43 0 75 -25.5
t32 -68.5q0 -45 -31 -75.5t-76 -30.5l-16 4q-16 2 -150 49q-57 21 -108 21h-12l-5 -62q0 -20 4.5 -49t8.5 -60.5t26 -78.5q31 -70 35 -82v-29q0 -39 -23.5 -70.5t-58.5 -31.5h-16q-41 0 -74 30.5t-33 75.5l4 12l62 160q10 39 13 80t3 105h-16q-53 0 -105 -19
q-137 -49 -153 -51l-21 -4q-43 0 -72.5 29.5t-29.5 72.5t31.5 68.5t74.5 25.5l13 4q24 -2 104 -39.5t174 -37.5q0 118 -19.5 201t-74.5 175z" />
    <glyph glyph-name="bullet" unicode="&#x2022;" horiz-adv-x="614" 
 />
    <glyph glyph-name="ellipsis" unicode="&#x2026;" horiz-adv-x="1458" 
 />
    <glyph glyph-name="perthousand" unicode="&#x2030;" horiz-adv-x="2088" 
d="M1210 1300h272l-1155 -1067h-272zM671 1404q64 -84 64 -245q3 -359 -305 -350q-160 -4 -236 95q-67 87 -67 251q-2 164 68 250q78 96 241 94q161 4 235 -95zM567 1157q0 207 -135 207q-136 0 -133 -209q-3 -209 135 -209q133 0 133 211zM1304 606q64 -84 64 -250
q3 -354 -303 -346q-163 -4 -239 92q-66 85 -66 250q0 169 68 255q76 96 239 91q163 5 237 -92zM1198 354q0 211 -133 211q-136 0 -136 -213q0 -209 138 -209q131 0 131 211zM1951 606q64 -84 64 -250q3 -354 -305 -346q-163 -4 -239 92q-66 85 -66 250q0 168 69 255
q78 96 242 91q162 5 235 -92zM1845 354q0 211 -131 211q-137 0 -137 -213q0 -209 137 -209q131 0 131 211z" />
    <glyph glyph-name="guilsinglleft" unicode="&#x2039;" horiz-adv-x="1026" 
d="M540 -74l-481 615l481 612h428l-487 -612l487 -615h-428z" />
    <glyph glyph-name="guilsinglright" unicode="&#x203a;" horiz-adv-x="1050" 
d="M505 1155l481 -614l-481 -613h-428l487 613l-487 614h428z" />
    <glyph glyph-name="dong" unicode="&#x20ab;" horiz-adv-x="1051" 
d="M678 1293h-94v92h94v81h125v-81h102v-92h-102v-851h-116v93q-71 -111 -208 -111q-191 0 -278 187q-41 87 -41 201q0 244 148 340q74 49 166 49q130 0 204 -103v195zM289 812q0 -130 55.5 -207t146.5 -77t144.5 73.5t53.5 199.5q0 140 -54.5 218t-149.5 78q-92 0 -144 -75
t-52 -210zM905 246h-745v91h745v-91z" />
    <glyph glyph-name="trademark" unicode="&#x2122;" horiz-adv-x="2242" 
d="M229 827v-63h-33q-18 0 -18 -8q-4 -13 -4 -19v-32h55l-4 -64h-51v-188h-80v188h-37v64h37v38q0 62 41 78l18 4q4 2 21 2h55zM450 610v-157h-65q0 4 -2 4l-2 4q-2 4 -2 8l-4 -2l-11 -7q-9 -4 -18 -5q-9 -4 -19 -5l-22 1q-37 0 -58 26q-14 25 -14 49q0 42 35 64q15 6 65 6
h37v6q0 29 -6 35q-7 2 -14 3q-8 1 -17 1h-71l6 64h78q80 0 92 -37q12 -22 12 -58zM346 543q-23 0 -29 -6q-4 0 -4 -11q0 -20 20 -20q15 0 17 2l20 6v29h-24zM678 700v-63l-43 6q-10 1 -19 2h-12q-28 0 -39 -8q-6 -9 -6 -41v-35q0 -32 6 -35q9 -12 39 -12h2q22 0 29 2l43 6
v-63q0 1 -48 -8l-34 -2q-83 0 -105 59q-10 17 -10 65v17q0 51 14 72q25 47 101 47q41 0 82 -9zM915 648q1 -9 2 -14q2 -18 2 -34v-45h-143v-2q0 -28 18 -37l33 -2q51 0 86 8v-63l-41 -6q-33 -4 -55 -4q-85 0 -109 57q-8 16 -8 47v63q0 66 53 84q15 7 31 7q6 2 25 2
q76 0 104 -50zM843 616q0 26 -14 29l-20 6q-7 0 -13 -2l-10 -4q-10 -10 -10 -22v-13h67v6zM1178 649q1 -8 1 -21v-50q0 -70 -10 -78q0 -13 -16 -23q-29 -28 -97 -28q-14 0 -51 4l-53 6v350l80 14v-123l29 7q6 1 13 1l11 1q71 0 84 -35q7 -6 9 -25zM1101 616q0 20 -20 29h-16
q-18 0 -33 -12v-119h26q39 0 41 21q2 1 2 7v74zM1437 602v-47q0 -68 -53 -96q-31 -10 -63 -10q-77 0 -99 53q-14 20 -14 51v53q0 76 66 94q3 4 11 5l11 2q6 2 23 2h8q41 0 65 -13q26 -20 39 -49q6 -15 6 -45zM1357 604q0 34 -16 37q-4 4 -8 4h-12q-23 0 -29 -20q-2 0 -2 -4
v-72q0 -35 31 -35h4q26 0 32 23v67zM1685 602v-47q0 -74 -53 -96q-31 -10 -62 -10q-74 0 -102 53q-8 19 -8 51v53q0 76 63 94q4 4 11 5l12 2q6 2 22 2h9q40 0 67 -13q24 -20 33 -49q8 -13 8 -45zM1607 604q0 34 -18 37q-4 4 -6 4h-15q-19 0 -28 -20q-2 -2 -2 -4v-72
q0 -35 32 -35h3q28 0 34 23v67zM1798 594l71 111h84l-79 -121l79 -131h-84l-71 118v-118h-80v356l80 14v-229zM2130 819q18 -7 28 -20q10 -7 15 -15l8 -18q5 -13 7 -20q3 -10 3 -21q0 -17 -10 -41q-2 -3 -4 -8l-4 -8q-6 -10 -15 -17q-5 -5 -13 -11l-15 -9q-17 -8 -43 -8
t-39 8l-35 20q-4 8 -11 17l-12 16l-4 20q-2 11 -2 21t2 21l4 20q5 8 12 18l11 15q6 6 17 11l9 5q6 2 9 4q13 8 39 8t43 -8zM2121 645q13 3 29 19l18 30q4 4 5 14v17q0 20 -5 33l-18 28l-29 19q-15 6 -34 6q-20 0 -29 -6l-31 -19q-16 -15 -18 -28q-6 -16 -6 -33v-17
q2 -10 6 -14q1 -9 7 -17q2 -2 5 -6l13 -13q4 -4 7 -6q8 -6 17 -7q9 -6 29 -6q19 0 34 6zM2136 678q0 -9 6 -12h-27q0 6 -4 10q-4 12 -4 20q0 4 -6 11l-19 4h-14v-45h-24v120l38 5q26 0 43 -11q4 -3 7 -12q4 -4 4 -10q0 -8 -2 -15l-2 -8q-6 -14 -21 -14q9 -3 12 -6l5 -7
q3 -5 4 -8zM2085 727q15 0 22 10l4 15q-3 20 -26 20l-17 -2v-43h17z" />
    <glyph glyph-name="Omega" unicode="&#x2126;" horiz-adv-x="1573" 
 />
    <glyph glyph-name="partialdiff" unicode="&#x2202;" horiz-adv-x="1012" 
 />
    <glyph glyph-name="Delta" unicode="&#x2206;" horiz-adv-x="1253" 
 />
    <glyph glyph-name="product" unicode="&#x220f;" horiz-adv-x="1686" 
 />
    <glyph glyph-name="summation" unicode="&#x2211;" horiz-adv-x="1460" 
 />
    <glyph glyph-name="minus" unicode="&#x2212;" horiz-adv-x="698" 
 />
    <glyph glyph-name="uniFB01" unicode="&#xfb01;" horiz-adv-x="610" 
 />
    <glyph glyph-name="uniFB02" unicode="&#xfb02;" horiz-adv-x="659" 
 />
    <glyph glyph-name="ugrave" horiz-adv-x="582" 
 />
    <glyph glyph-name="uacute" horiz-adv-x="580" 
 />
    <glyph glyph-name="yacute" horiz-adv-x="629" 
 />
  </font>
</defs>
</svg>
