<?xml version="1.0" standalone="no"?>
<!DOCTYPE svg PUBLIC "-//W3C//DTD SVG 1.1//EN" "http://www.w3.org/Graphics/SVG/1.1/DTD/svg11.dtd" >
<svg xmlns="http://www.w3.org/2000/svg" xmlns:xlink="http://www.w3.org/1999/xlink" version="1.1">
<metadata>
Created by FontForge 20150824 at Wed Sep  7 18:48:43 2016
 By Everything Fonts
(c) Copyright 2005 by Tong Duc Thinh. All Rights Reserved
</metadata>
<defs>
<font id="SSalzburgM" horiz-adv-x="585" >
  <font-face 
    font-family="SSalzburgM"
    font-weight="500"
    font-stretch="normal"
    units-per-em="1000"
    panose-1="0 0 5 0 0 0 0 0 0 0"
    ascent="800"
    descent="-200"
    x-height="567"
    cap-height="719"
    bbox="-133 -211 979 1184"
    underline-thickness="69"
    underline-position="-187"
    unicode-range="U+0020-F002"
  />
<missing-glyph horiz-adv-x="500" 
d="M63 0v801h375v-801h-375zM125 63h250v676h-250v-676z" />
    <glyph glyph-name=".notdef" horiz-adv-x="500" 
d="M63 0v801h375v-801h-375zM125 63h250v676h-250v-676z" />
    <glyph glyph-name=".null" horiz-adv-x="0" 
 />
    <glyph glyph-name="nonmarkingreturn" horiz-adv-x="290" 
 />
    <glyph glyph-name="space" unicode=" " horiz-adv-x="290" 
 />
    <glyph glyph-name="exclam" unicode="!" horiz-adv-x="223" 
d="M42 720l151 -1l-3 -6q-3 -10 -4 -25l-19 -493h-99l-20 493q-1 18 -3 25l-1 3zM44 62q0 48 44 64q15 5 31 5q49 0 67 -41q6 -14 6 -29q0 -48 -44 -63q-14 -5 -30 -5q-33 0 -53.5 19.5t-20.5 49.5z" />
    <glyph glyph-name="quotedbl" unicode="&#x22;" horiz-adv-x="333" 
d="M43 486l20 234h90l-20 -234h-90zM180 486l20 234h90l-20 -234h-90z" />
    <glyph glyph-name="numbersign" unicode="#" 
d="M43 220l11 54h116l36 172h-115l11 54h116l44 209h54l-44 -209h100l45 209h54l-45 -209h116l-12 -54h-115l-37 -172h116l-12 -54h-115l-44 -209h-54l44 209h-101l-44 -209h-54l44 209h-115zM224 274h100l37 172h-101z" />
    <glyph glyph-name="dollar" unicode="$" horiz-adv-x="504" 
d="M21 45l26 93q13 -14 32 -28q70 -51 131 -51q15 0 30 3v244l-9 4l-34 15q-172 76 -172 199q0 98 77 158q61 48 139 42v74h33v-73h8q103 0 162 -32l-24 -84q-62 55 -146 53v-220l14 -6l32 -14q161 -70 161 -204q0 -33 -11 -69q-20 -66 -75 -109.5t-124 -48.5v-88h-33v86
h-13q-113 0 -204 56zM272 73q35 8 57 38t22 69q-1 61 -69 103q-4 2 -10 6v-216zM241 657q-33 -3 -56 -28q-29 -32 -29 -67q0 -57 70 -96q3 -1 7.5 -3.5t6.5 -3.5z" />
    <glyph glyph-name="percent" unicode="%" horiz-adv-x="780" 
d="M196 0l322 720h65l-321 -720h-66zM40 452q-17 40 -17 85q0 86 49.5 145.5t122.5 59.5q74 0 123 -60t49 -141q0 -90 -50 -146t-122 -56q-107 0 -155 113zM155 405.5q15 -14.5 40 -14.5q26 0 41 14.5t29 53.5t14 81q0 66 -33 121q-18 30 -51 30q-19 0 -35 -12
q-19 -14 -32 -51q-16 -42 -16 -94q0 -37 14 -75.5t29 -53zM429 92q-17 40 -17 85q0 84 49.5 144.5t122.5 60.5q74 0 123 -60t49 -141q0 -90 -50 -146t-121 -56q-108 0 -156 113zM534 58q17 -29 51 -29q19 0 35.5 13t31.5 51q16 43 16 87q0 67 -33 121q-18 30 -51 30
q-18 0 -34 -12q-19 -14 -33 -51q-15 -41 -15 -94q0 -63 32 -116z" />
    <glyph glyph-name="ampersand" unicode="&#x26;" horiz-adv-x="637" 
d="M222 406q-24 36 -38 68t-15 62q-3 73 45.5 119.5t126.5 44.5q61 -1 98.5 -37.5t37.5 -91.5q0 -98 -96 -152q-7 -6 -17 -9l128 -200q51 57 80 138l53 -71q-44 -69 -97 -126l74 -118q7 -10 18 -26l7 -7h-162l-40 64q-46 -43 -111.5 -63t-126.5 -9q-66 12 -109 67.5
t-43 126.5q0 37 13 73q37 101 174 147zM254 350q-3 -1 -8.5 -4.5t-8.5 -5.5q-78 -51 -78 -136q0 -58 36 -95.5t88 -37.5q67 1 112 50zM332 459q15 6 35 23q28 24 37 53q12 41 -7 71q-17 27 -49 27q-26 0 -43.5 -20t-17.5 -47q0 -38 34 -92q2 -2 5.5 -7t5.5 -8z" />
    <glyph glyph-name="quotesingle" unicode="'" horiz-adv-x="196" 
d="M43 486l20 234h90l-20 -234h-90z" />
    <glyph glyph-name="parenleft" unicode="(" horiz-adv-x="252" 
d="M206 804l40 -33q-82 -207 -82 -410q0 -152 47 -311q13 -46 35 -99l-40 -34q-44 53 -71 98q-100 169 -100 345q0 177 100 346q30 51 71 98z" />
    <glyph glyph-name="parenright" unicode=")" horiz-adv-x="253" 
d="M6 -49q19 46 36 101q47 157 47 309t-47 309q-17 55 -36 101l40 33q173 -198 173 -443q0 -176 -101 -345q-31 -52 -72 -99z" />
    <glyph glyph-name="asterisk" unicode="*" horiz-adv-x="368" 
d="M30 527l119 46l-119 44l40 63l93 -77l-14 122h72l-18 -123l97 79l38 -66l-119 -43l114 -52l-37 -59l-93 78l17 -124h-74l22 125l-99 -76z" />
    <glyph glyph-name="plus" unicode="+" horiz-adv-x="530" 
d="M32 279v75h195v195h75v-195h196v-75h-196v-195h-75v195h-195z" />
    <glyph glyph-name="comma" unicode="," horiz-adv-x="226" 
d="M-1 -98l96 233l101 -44l-121 -223z" />
    <glyph glyph-name="hyphen" unicode="-" horiz-adv-x="353" 
d="M17 244l27 100h292l-27 -100h-292z" />
    <glyph glyph-name="hyphen" unicode="&#x2010;" horiz-adv-x="353" 
d="M17 244l27 100h292l-27 -100h-292z" />
    <glyph glyph-name="period" unicode="." horiz-adv-x="208" 
d="M30 62q0 30 20.5 49.5t53.5 19.5t53.5 -19.5t20.5 -49.5t-20.5 -50t-51.5 -20q-16 0 -32 6q-44 15 -44 64z" />
    <glyph glyph-name="slash" unicode="/" horiz-adv-x="339" 
d="M6 -10l274 740h53l-274 -740h-53z" />
    <glyph glyph-name="zero" unicode="0" horiz-adv-x="529" 
d="M35 360q0 13 1 45q10 328 228 328q14 0 29 -1q191 -17 200 -327q1 -46 0 -90q-10 -328 -228 -328q-14 0 -29 1q-201 18 -201 372zM161 360q0 -9 1 -40q1 -35 4 -93q9 -109 39 -146q23 -29 60 -29q36 0 59 29q30 37 39 146q2 28 4 93q1 41 0 81q-2 64 -4 92
q-9 109 -39 147q-23 29 -59 29q-37 0 -60 -29q-30 -38 -39 -147q-2 -20 -4 -93q-1 -31 -1 -40z" />
    <glyph glyph-name="one" unicode="1" horiz-adv-x="530" 
d="M81 635l268 97l-1 -5l-2 -5q-2 -16 -2 -25v-665q0 -15 2 -25l1 -3l2 -4h-143l2 4l1 3q2 10 2 25v581l-125 -58v51q0 18 -2 24l-1 2z" />
    <glyph glyph-name="two" unicode="2" horiz-adv-x="530" 
d="M19 0l1 4l2 4q3 12 3 14v59l7 3l5 2q45 18 138 112q32 32 61 70q119 155 115 273q-2 55 -39 90t-95 35q-31 0 -65 -11q-52 -17 -91 -50l-14 87l16 7l14 5q85 30 175 33q109 3 172 -49q60 -51 60 -139q0 -38 -12 -81q-38 -131 -218 -289q-54 -48 -106 -83h321q8 0 17 3
l6 2l5 2v-103h-478z" />
    <glyph glyph-name="three" unicode="3" horiz-adv-x="529" 
d="M27 56l21 97q70 -98 174 -98q54 0 94.5 35t46.5 88q2 15 2 28q0 106 -117 141q-30 9 -71 2q-4 -1 -11 -3l-7 -1l-6 -2v87q18 -6 60 -4q56 3 93 34t42 77q6 57 -27.5 94t-93.5 37q-80 0 -148 -58q-5 -5 -17 -15l-6 97q19 8 62 22q79 25 150 25q103 0 159 -47.5t57 -127.5
q1 -76 -51 -122q-46 -42 -124 -53q7 0 20 -2q72 -11 113 -49q60 -55 60 -137q0 -21 -3 -44q-11 -77 -71 -123q-63 -48 -164 -48q-45 0 -96 10q-84 17 -141 60z" />
    <glyph glyph-name="four" unicode="4" horiz-adv-x="530" 
d="M13 191v88l7 7l14 21l259 381q12 17 14 24l1 3l1 4h131l-2 -4l-1 -3q-2 -10 -2 -24v-409h47q17 0 27 2l3 1l5 1v-95l-5 1l-6 1q-2 0 -11 1h-17h-43v-159q0 -16 3 -25l1 -3l2 -4h-142l2 4l1 3q2 6 2 25v159h-291zM85 279h222v322z" />
    <glyph glyph-name="five" unicode="5" horiz-adv-x="529" 
d="M19 56l26 90q27 -35 72 -60q52 -30 103 -30q52 0 90 31t51 85q15 62 5 126q-8 50 -37.5 78.5t-70.5 28.5q-30 0 -61 -16q-42 -22 -59 -55l-81 36l2 3l2 2q3 4 4 17l31 301q1 14 -5 27h375v-96l-6 3l-5 1q-11 4 -18 4h-282l-21 -218q3 4 11 12q56 55 129 61
q104 8 169.5 -61.5t60.5 -189.5q-5 -118 -73 -184t-183 -66q-26 0 -54 4q-99 13 -175 66z" />
    <glyph glyph-name="six" unicode="6" horiz-adv-x="530" 
d="M394 725l18 -72q-30 12 -61 12q-84 0 -132 -82q-40 -69 -40 -159q54 69 138 69q51 0 93.5 -29t63.5 -81q25 -62 25 -142q0 -97 -47 -165q-43 -64 -113 -81q-37 -9 -71 -9q-104 0 -163 78q-64 83 -64 237q0 59 10 128q22 150 109 230q83 78 202 70q16 -1 32 -4zM176 340
q-6 -58 0 -116q10 -109 38 -146q23 -31 62 -31q32 0 53 23q30 33 39 121q8 78 -9 150q-18 79 -80 79q-31 0 -62 -25q-27 -23 -41 -55z" />
    <glyph glyph-name="seven" unicode="7" horiz-adv-x="531" 
d="M21 613v107h489v-89l-4 -2l-2 -2q-5 -4 -11 -16l-298 -598q-1 -7 0 -13h-153l10 10q6 5 13 15l353 598l-366 -3q-19 0 -31 -7z" />
    <glyph glyph-name="eight" unicode="8" horiz-adv-x="529" 
d="M173 394q-54 10 -84 51t-30 99q0 28 7 57q26 104 135 123q37 7 71 7q159 0 191 -130q7 -30 7 -58q0 -58 -29 -97q-30 -42 -84 -52q66 -13 103 -64q34 -48 34 -117q0 -36 -8 -78q-29 -147 -213 -147q-39 0 -84 8q-58 10 -96 46.5t-49 92.5q-8 42 -8 77q0 129 108 173
q16 6 29 9zM182 544q0 -130 79 -130q14 0 30 5q46 15 54 90q3 24 3 45q0 117 -83 117t-83 -127zM169 205q-3 -130 63 -148q20 -6 37 -6q94 0 92 154q-2 145 -96 145q-93 0 -96 -145z" />
    <glyph glyph-name="nine" unicode="9" horiz-adv-x="530" 
d="M136 -4l-19 70q31 -12 66 -12q134 0 165 199q3 20 3 42q-27 -39 -77 -58q-32 -12 -63 -12q-78 0 -129 66q-54 69 -50 184q4 125 66 193q61 65 162 63q106 -3 165 -78q63 -82 63 -236q0 -62 -10 -134q-21 -143 -110 -224q-86 -77 -200 -68q-12 1 -32 5zM354 378
q6 65 0 120q-12 113 -41 147q-21 25 -58 25q-33 0 -53 -20q-30 -31 -40 -120q-3 -25 -3 -50q0 -86 23 -132q24 -49 70 -49q62 0 102 79z" />
    <glyph glyph-name="colon" unicode=":" horiz-adv-x="216" 
d="M38 411q0 30 20.5 49.5t53.5 19.5t53.5 -19.5t20.5 -49.5t-21 -50t-52 -20q-15 0 -31 6q-44 15 -44 64zM38 62q0 30 20.5 49.5t53.5 19.5t53.5 -19.5t20.5 -49.5t-20.5 -50t-51.5 -20q-16 0 -32 6q-44 15 -44 64z" />
    <glyph glyph-name="semicolon" unicode=";" horiz-adv-x="240" 
d="M62 411q0 30 20.5 50t51.5 20q16 0 32 -6q44 -16 44 -63q0 -50 -44 -65q-16 -5 -31 -5q-31 0 -52 19.5t-21 49.5zM6 -98l96 233l101 -44l-121 -223z" />
    <glyph glyph-name="less" unicode="&#x3c;" horiz-adv-x="507" 
d="M43 360l421 237v-103l-251 -134l251 -134v-103z" />
    <glyph glyph-name="equal" unicode="=" horiz-adv-x="530" 
d="M32 219v73h466v-73h-466zM32 348v74h466v-74h-466z" />
    <glyph glyph-name="greater" unicode="&#x3e;" horiz-adv-x="507" 
d="M43 123v103l251 134l-251 134v103l421 -237z" />
    <glyph glyph-name="question" unicode="?" horiz-adv-x="332" 
d="M26 609v83q59 37 127 40q70 3 113.5 -33.5t43.5 -94.5q0 -24 -9 -49q-10 -28 -44 -81q-16 -22 -47 -66q-26 -37 -36 -58q-11 -24 -11 -42q0 -36 41 -44q22 -4 63 23v-69q-57 -28 -103 -28q-56 0 -92.5 35.5t-36.5 85.5q0 21 7 42q9 27 41 73q17 23 49 69q20 30 28 44
q14 27 16 48q2 30 -14 49.5t-42 19.5q-33 0 -77 -32q-11 -8 -17 -15zM73 62q0 30 20.5 49.5t53.5 19.5t53.5 -19.5t20.5 -49.5t-20.5 -50t-51.5 -20q-16 0 -32 6q-44 15 -44 64z" />
    <glyph glyph-name="at" unicode="@" horiz-adv-x="782" 
d="M456 229q-5 -16 -20 -34q-37 -43 -82 -43q-24 0 -49 11q-86 37 -78 178q6 115 70 190q49 58 110 58q60 0 87 -52q3 -5 5 -10l9 54h49l-50 -298q-6 -39 1 -63q8 -29 40 -29q8 0 15 3q23 8 55 45q41 47 54 131q4 28 4 55q0 115 -70.5 186.5t-180.5 71.5q-23 0 -47 -3
q-110 -16 -183.5 -107t-73.5 -216q0 -19 2 -37q12 -128 97 -209q82 -78 194 -78q136 0 245 116q14 15 25 30l18 -43q-120 -150 -293 -150q-157 0 -259 114t-92 284q9 157 121 257q105 94 243 94q134 0 221 -87t87 -219q0 -34 -6 -69q-23 -127 -101 -185q-40 -30 -82 -30
q-65 0 -82 55q-3 10 -3 29zM286 291q2 -39 13 -61q17 -36 58 -36q27 0 47.5 20.5t43.5 84.5q10 29 19 73l1 10l7 42q6 33 2 58q-4 28 -22.5 44.5t-43.5 16.5q-13 0 -26 -5q-49 -20 -80 -111q-7 -21 -12 -48q-9 -52 -7 -88z" />
    <glyph glyph-name="A" unicode="A" 
d="M-26 0l3 4l3 3q5 9 11 25l233 656q6 17 6 24v3l-1 4h118v-7q1 -5 8 -24l239 -656q6 -15 12 -25l2 -3l3 -4h-156v7q0 5 -7 25l-66 188h-260l-67 -188q-7 -20 -7 -25v-3l1 -4h-75zM143 279h218l-110 311z" />
    <glyph glyph-name="B" unicode="B" horiz-adv-x="572" 
d="M60 0l2 4l1 3q2 12 2 25v656q0 14 -2 24l-1 3l-2 4l259 1q97 0 151.5 -47t54.5 -125q0 -26 -7 -55q-19 -79 -107 -110q-14 -5 -30 -8q67 -2 112.5 -52.5t45.5 -124.5q0 -33 -10 -67q-18 -60 -71.5 -95.5t-128.5 -35.5h-269zM200 397h49q122 0 138 95q4 26 4 48
q0 120 -124 120h-67v-263zM199 61h85q117 0 117 125q0 18 -3 38q-16 116 -146 116h-53v-279z" />
    <glyph glyph-name="C" unicode="C" horiz-adv-x="608" 
d="M581 698v-104q-73 73 -172 73q-70 0 -126 -41.5t-79.5 -112t-23.5 -152.5q0 -88 28 -160q26 -68 83 -107q54 -38 120 -38q76 0 141 50q13 10 30 27v-101q-60 -30 -126 -38q-36 -4 -69 -4q-163 0 -258.5 96t-95.5 265q0 55 11 116q22 120 116.5 192.5t241.5 72.5
q101 0 179 -34z" />
    <glyph glyph-name="D" unicode="D" horiz-adv-x="695" 
d="M60 0l2 4l1 3q2 10 2 25v656q0 21 -2 25l-1 2l-1 5h238q165 0 264.5 -94.5t99.5 -250.5q0 -67 -20 -140q-29 -107 -115 -171t-205 -64h-263zM201 68h83q109 0 168 72q63 75 64 221q1 138 -66 217q-65 76 -178 76h-71v-586z" />
    <glyph glyph-name="E" unicode="E" horiz-adv-x="481" 
d="M60 0l2 3l1 4q2 5 2 25l1 656q0 19 -3 25l-1 2l-2 5h385l-1 -64l-6 1l-7 1q-14 2 -28 2h-202v-266h203q15 0 27 2l6 1l7 1v-64l-7 2l-6 1q-12 2 -27 2h-203v-274h201q23 0 29 1l6 1l7 2v-69h-384z" />
    <glyph glyph-name="F" unicode="F" horiz-adv-x="427" 
d="M60 0l2 4l1 3q3 9 3 25l-1 656q0 16 -2 24l-1 4l-2 3l377 1v-64l-7 2l-6 1q-3 0 -12 1h-17h-195v-267h165q17 0 29 2l12 2v-63l-14 2q-14 2 -25 2h-167v-306q0 -15 2 -25l2 -4l1 -3h-145z" />
    <glyph glyph-name="G" unicode="G" horiz-adv-x="692" 
d="M611 691v-97q-16 13 -38 26q-79 46 -156 46q-90 0 -153.5 -61t-78.5 -165q-8 -53 -8 -100q0 -138 62 -214q58 -72 155 -72q62 0 108 27v282q0 14 -2 24l-1 3l-2 4h140l-2 -4l-1 -3q-2 -10 -2 -24v-270q0 -36 7 -54q-19 -8 -47 -16q-105 -31 -199 -31q-165 0 -263 93
t-98 254q0 54 12 112q26 131 120 204.5t240 73.5q112 0 207 -38z" />
    <glyph glyph-name="H" unicode="H" horiz-adv-x="698" 
d="M60 719h146l-2 -4l-1 -3q-2 -12 -2 -24v-287h296v287q0 18 -2 24l-1 3l-1 4h145l-2 -4l-1 -3q-3 -9 -3 -24v-656q0 -16 3 -25l1 -3l2 -4h-145l2 4l1 3q2 10 2 25v311h-298v-311q0 -15 2 -25l2 -4l1 -3h-145l2 4l1 3q3 9 3 25v656q0 15 -3 24l-1 3z" />
    <glyph glyph-name="I" unicode="I" horiz-adv-x="266" 
d="M60 719h146l-2 -4l-1 -3q-3 -9 -3 -24v-656q0 -19 3 -25l1 -4l1 -3h-144l1 4l1 3q3 9 3 25v656q0 15 -3 24l-1 3z" />
    <glyph glyph-name="J" unicode="J" horiz-adv-x="266" 
d="M-78 -151l39 79q16 -19 41 -27q10 -3 19 -3q42 0 44 43q1 22 1 34v713q0 15 -3 24l-1 3l-2 4h146l-2 -3l-1 -4q-2 -8 -2 -24v-727q0 -144 -151 -144q-71 0 -128 32z" />
    <glyph glyph-name="K" unicode="K" horiz-adv-x="553" 
d="M60 0l2 3l1 4q2 8 2 25v656q0 18 -2 24l-1 3l-2 4h145l-2 -4l-1 -3q-2 -6 -2 -24v-290l218 290q7 9 16 24l1 3l1 4h100l-5 -3l-3 -4q-7 -6 -21 -24l-209 -274l269 -382q14 -20 19 -25l7 -7h-168l-1 4l-1 3q-3 9 -14 25l-209 303v-303q0 -19 2 -25l1 -3l1 -4h-144z" />
    <glyph glyph-name="L" unicode="L" horiz-adv-x="422" 
d="M60 719l5 1l140 -1l-1 -3l-1 -4q-3 -6 -3 -24v-623h222q5 0 14 3v-68h-376l2 3l1 4q2 8 2 25v656q0 14 -2 24l-1 3z" />
    <glyph glyph-name="M" unicode="M" horiz-adv-x="869" 
d="M16 0l2 3l2 4q5 9 7 25l101 656q3 16 1 24l-1 3l-1 4h121v-7q0 -6 6 -24l183 -538l185 538q6 17 6 24v3l-1 4h123l-2 -4v-3q-1 -7 1 -24l94 -656q2 -12 6 -25l1 -3l3 -4h-147l1 4l1 3q1 7 -1 25l-70 513l-176 -513q-6 -17 -6 -25v-7h-112l1 4l-1 3q0 10 -5 25l-173 502
l-76 -502q-2 -16 -1 -25l1 -3l1 -4h-74z" />
    <glyph glyph-name="N" unicode="N" horiz-adv-x="707" 
d="M60 0l2 3l1 4q3 8 3 25v656q0 18 -2 24l-1 3l-2 4h123l2 -4l1 -3q1 -3 16 -24l378 -527v527q0 14 -2 24l-1 3l-2 4l70 1l-2 -5l-1 -2q-1 -5 -1 -25l-1 -656q0 -7 3 -25l2 -3l1 -4h-119l-1 5l-1 2q-2 5 -15 25l-386 535v-535q0 -20 2 -25v-3l2 -4h-69z" />
    <glyph glyph-name="O" unicode="O" horiz-adv-x="787" 
d="M35 360q0 178 93.5 274t264.5 96q172 0 265.5 -96t93.5 -273q0 -178 -93.5 -274t-265.5 -96q-171 0 -264.5 96t-93.5 273zM179 361q0 -153 57 -233q54 -77 152 -77q30 0 64 8q156 35 156 302q0 308 -215 308q-214 0 -214 -308z" />
    <glyph glyph-name="P" unicode="P" horiz-adv-x="535" 
d="M60 0l2 4l1 3q2 10 2 25v656q0 14 -2 24l-1 3l-1 4l249 1q26 0 49 -4q84 -15 131 -65.5t47 -126.5q0 -35 -10 -73q-18 -68 -84 -108q-69 -41 -179 -41h-64v-270q0 -15 2 -25l1 -3l2 -4h-145zM199 364h49q148 0 151 150q3 146 -146 146h-54v-296z" />
    <glyph glyph-name="Q" unicode="Q" horiz-adv-x="787" 
d="M458 -29q119 -62 257 -100l-120 -79q-62 39 -107 63l-13 7l-247 126q-149 75 -182 250q-13 67 -13 128q0 171 94.5 268t256.5 97q46 0 96 -8q98 -16 164.5 -75.5t89.5 -148.5q24 -93 24 -165q0 -117 -66 -201q-63 -79 -203 -149q-6 -3 -31 -13zM179 361q0 -153 57 -233
q54 -77 152 -77q30 0 64 8q156 35 156 302q0 308 -215 308q-214 0 -214 -308z" />
    <glyph glyph-name="R" unicode="R" horiz-adv-x="563" 
d="M60 719l235 1q20 0 45 -4q142 -23 173 -134q9 -32 9 -62q0 -77 -56 -126q-49 -42 -129 -57l221 -305q8 -10 19 -25l4 -4l4 -3h-168l-1 4l-1 3q-4 11 -13 25l-203 299v-299q0 -17 3 -25l1 -4l1 -3h-144l2 3l1 4q2 8 2 25v656q0 14 -2 24l-1 3zM198 375q4 0 12 -1h12
q77 1 119 37.5t42 102.5q0 19 -4 41q-19 105 -144 105h-37v-285z" />
    <glyph glyph-name="S" unicode="S" horiz-adv-x="504" 
d="M21 45l26 93q32 -35 79.5 -57t94.5 -22q59 0 95 34t35 87q-1 42 -24.5 67.5t-96.5 62.5l-33 15q-51 24 -88 49q-82 56 -82 155q0 93 75 153q64 50 169 50q92 0 173 -39l-24 -84q-74 59 -152 59q-51 0 -83 -29t-32 -74q0 -37 23.5 -60.5t96.5 -60.5q6 -3 29 -13
q179 -78 179 -213q0 -64 -35 -121q-66 -108 -216 -108q-114 0 -209 56z" />
    <glyph glyph-name="T" unicode="T" horiz-adv-x="458" 
d="M-36 647v73h530v-73l-7 2h-5q-9 2 -31 2h-155v-619q0 -21 2 -25l1 -4l2 -3h-145l2 3l1 4q2 8 2 25v619h-153q-7 0 -29 -2l-11 -1z" />
    <glyph glyph-name="U" unicode="U" horiz-adv-x="702" 
d="M60 720h146l-2 -4l-1 -3q-3 -9 -3 -25v-453q0 -81 48.5 -131t131.5 -50q28 0 58 6q144 29 144 184v444q0 15 -3 24l-1 3l-1 4l70 1l-1 -5l-2 -2q-2 -14 -2 -25v-443q0 -116 -73 -185q-77 -72 -211 -72q-34 0 -71 5q-103 14 -162.5 78t-59.5 157v460q0 19 -2 25l-1 2z" />
    <glyph glyph-name="V" unicode="V" horiz-adv-x="529" 
d="M-41 719h155l-1 -4v-3q-1 -5 5 -24l182 -552l189 552q6 18 6 24v7h75l-3 -4l-2 -3q-6 -9 -11 -24l-223 -656q-6 -18 -6 -25v-3l1 -4h-129l1 4v3q-1 6 -6 25l-218 656q-6 18 -10 24l-2 3z" />
    <glyph glyph-name="W" unicode="W" horiz-adv-x="853" 
d="M-24 719l147 1l-1 -5v-2q0 -8 4 -25l126 -520l144 520q5 18 5 24l-1 3v4h122l-1 -4v-3q0 -9 4 -24l141 -521l134 521q4 16 4 24l-1 3v4h74l-3 -4l-2 -3q-3 -4 -8 -24l-169 -656q-4 -16 -4 -25v-3l1 -4h-126v4l1 3q0 10 -4 25l-139 521l-141 -521q-5 -18 -5 -25l1 -3v-4
h-122v7q0 9 -4 25l-165 656q-3 11 -8 24l-2 3z" />
    <glyph glyph-name="X" unicode="X" horiz-adv-x="525" 
d="M-21 0l7 7q8 8 18 25l194 325l-179 331q-9 16 -15 24l-7 7h160l1 -4v-3q2 -6 11 -24l124 -226l134 226q9 15 12 24l1 3l1 4h79l-7 -7q-5 -5 -17 -24l-172 -286l201 -370q11 -19 15 -25l3 -3l3 -4h-160l-1 4v3q-1 8 -11 25l-145 260l-156 -260q-11 -18 -12 -25l-1 -3v-4
h-81z" />
    <glyph glyph-name="Y" unicode="Y" horiz-adv-x="455" 
d="M-43 720h157l1 -5v-2q2 -10 9 -25l141 -292l146 292q9 17 10 24l1 3l1 4h75l-3 -4l-2 -3q-4 -6 -14 -24l-186 -373v-283q0 -19 2 -25l1 -3l2 -4h-145l2 3l1 4q2 8 2 25v281l-182 375q-7 15 -14 25l-2 3z" />
    <glyph glyph-name="Z" unicode="Z" horiz-adv-x="541" 
d="M13 0v71l362 586h-315h-22q-10 -1 -11 -1l-5 -1l-9 -2v67h515v-69l-361 -586l351 -1q1 0 10 3v-67h-515z" />
    <glyph glyph-name="bracketleft" unicode="[" horiz-adv-x="243" 
d="M55 -80v880h184v-75h-77v-730h77v-75h-184z" />
    <glyph glyph-name="backslash" unicode="\" horiz-adv-x="302" 
d="M43 720h90l126 -720h-90z" />
    <glyph glyph-name="bracketright" unicode="]" horiz-adv-x="243" 
d="M4 -80v75h77v730h-77v75h184v-880h-184z" />
    <glyph glyph-name="asciicircum" unicode="^" horiz-adv-x="559" 
d="M43 166l237 421l236 -421h-102l-134 250l-135 -250h-102z" />
    <glyph glyph-name="underscore" unicode="_" horiz-adv-x="446" 
d="M43 -32v32h360v-32h-360z" />
    <glyph glyph-name="grave" unicode="`" horiz-adv-x="184" 
d="M-22 763h100l70 -151h-54z" />
    <glyph glyph-name="a" unicode="a" horiz-adv-x="533" 
d="M100 456l-20 78q25 11 40 17q94 35 169 35q86 0 135 -46q44 -42 44 -110v-296q0 -6 2 -30q3 -34 29 -34q9 0 25 8l13 9v-67q-4 -3 -16 -10q-38 -22 -75 -22q-39 0 -67 21q-33 24 -29 61q-33 -40 -77 -61.5t-90 -21.5q-68 0 -113 45.5t-45 115.5q0 126 144 180q19 7 99 30
q41 12 56 26.5t18 44.5q4 42 -27 66q-27 21 -70 21q-68 0 -145 -60zM343 336q-16 -13 -27 -18q-107 -41 -139.5 -71t-31.5 -81q0 -9 2 -23q17 -73 84 -73q26 0 52 14q60 33 60 110v142z" />
    <glyph glyph-name="b" unicode="b" horiz-adv-x="584" 
d="M55 760h135l-1 -5l-1 -3q-2 -4 -2 -24v-232q10 14 21 26q56 58 136 58q101 0 159 -86q50 -73 47 -207q-2 -122 -47 -198q-41 -70 -113 -90q-36 -10 -72 -10q-107 0 -162 79l-33 -68h-66l2 4l1 3q2 10 2 25v696q0 15 -3 24l-1 3zM185 285q0 -87 2 -106q8 -62 41 -95
q29 -29 69 -29q44 0 75 33q28 30 36 75q12 65 12 129q0 103 -24 151q-30 61 -93 61q-41 0 -71 -30.5t-38.5 -64t-8.5 -124.5z" />
    <glyph glyph-name="c" unicode="c" horiz-adv-x="471" 
d="M457 556v-89q-55 55 -128 55q-49 0 -87.5 -30t-55.5 -84q-18 -57 -18 -126t21 -131q16 -47 52 -73.5t82 -26.5q75 0 134 59v-84q-69 -39 -159 -39q-119 0 -192 75t-73 202q0 50 12 104q22 101 92.5 157t177.5 56q74 0 142 -25z" />
    <glyph glyph-name="d" unicode="d" horiz-adv-x="582" 
d="M397 513v215q0 14 -2 24l-1 3l-2 4h135l-1 -3l-1 -4q-2 -4 -2 -24v-696q0 -20 2 -25v-3l2 -4h-128v76q-48 -84 -155 -86q-92 -2 -149 67q-62 74 -62 207q0 50 9 107q28 171 148 201q35 9 66 9q94 0 141 -68zM166 285q-1 -113 25 -161q31 -58 92 -58q38 0 68 28
q45 42 48 115q1 38 1 70q0 134 -27 186q-25 49 -85 49q-108 1 -121 -193q-1 -17 -1 -36z" />
    <glyph glyph-name="e" unicode="e" horiz-adv-x="578" 
d="M550 297h-385v-20q1 -113 46.5 -171.5t124.5 -58.5q100 0 169 66l18 -78q-89 -48 -203 -48q-137 0 -212.5 80t-72.5 221q3 114 53 188t132 95q46 12 88 12q107 0 172.5 -72t69.5 -197v-17zM168 354h249q0 15 -6 50q-4 24 -15 50q-30 70 -101 70q-42 0 -73 -31
q-54 -54 -54 -139z" />
    <glyph glyph-name="f" unicode="f" horiz-adv-x="273" 
d="M8 509v59h57v77q0 129 176 129q72 0 137 -21l-23 -65q-38 22 -88 22q-76 0 -76 -72v-70h158v-59h-158v-477q0 -16 3 -25v-3l2 -4h-136l2 4l1 3q2 6 2 25v477h-57z" />
    <glyph glyph-name="g" unicode="g" horiz-adv-x="584" 
d="M341 578q54 32 52 95h114q-9 -61 -57 -98q-15 -12 -26 -16q7 -4 20 -11q84 -54 103 -151q7 -36 7 -68q0 -112 -83 -179q-77 -63 -192 -63q-11 0 -27 -9l-96 -55q55 16 91 22q70 11 138 6q90 -6 139 -34.5t49 -80.5q0 -38 -29 -64q-44 -39 -150 -51q-28 -3 -61 -3
q-144 0 -273 48l1 20q62 -19 128 -26q90 -9 145 2q31 6 49 17q30 17 30 41q0 16 -15 29q-39 33 -136 35q-55 1 -118 -14q-44 -10 -81 -27l-27 92l117 84q-119 54 -118 215q1 120 74.5 184.5t210.5 60.5q7 0 21 -1zM169 332q1 -88 33 -134.5t84 -46.5q23 0 49 9q83 30 83 165
q0 26 -4 54q-18 138 -118 138q-19 0 -40 -6q-89 -26 -87 -179z" />
    <glyph glyph-name="h" unicode="h" horiz-adv-x="588" 
d="M55 0l2 4l1 3q2 12 2 25v696q0 18 -2 24l-1 3l-1 4h134l-1 -4l-1 -3q-2 -6 -2 -24v-233q38 60 105 78q36 9 69 9q76 0 122 -45.5t46 -117.5v-387q0 -13 2 -25l1 -3l2 -4h-136l2 4l1 3q3 9 3 25v356q0 48 -25 75.5t-70 27.5q-18 0 -37 -4q-38 -8 -61.5 -37.5t-23.5 -67.5
v-350q0 -15 2 -25v-3l2 -4h-135z" />
    <glyph glyph-name="i" unicode="i" horiz-adv-x="245" 
d="M47 668q0 39 42 47q21 4 39 4q70 0 70 -51q0 -50 -76 -50q-75 0 -75 50zM55 0l1 3l2 4q2 10 2 25v504q0 14 -2 24l-1 3l-2 4h136l-2 -4l-1 -3q-2 -6 -2 -24v-504q0 -19 2 -25l1 -3l1 -4h-135z" />
    <glyph glyph-name="j" unicode="j" horiz-adv-x="244" 
d="M46 668q0 50 75 50q76 0 76 -50q0 -39 -42 -47q-21 -4 -39 -4q-70 0 -70 51zM-68 -144l29 68q24 -39 63 -39q16 0 27 9.5t11 22.5q0 5 -1 21l-1 16v582q0 14 -2 24l-1 3l-2 4h136l-2 -4l-1 -3q-3 -9 -3 -25v-585q0 -59 -33.5 -93.5t-94.5 -34.5q-68 0 -125 34z" />
    <glyph glyph-name="k" unicode="k" horiz-adv-x="508" 
d="M55 0l2 4v3q3 11 3 25v696q0 19 -2 25l-1 3l-2 4h135l-2 -4l-1 -3q-3 -9 -3 -25v-392l173 200q13 15 19 25l1 3l2 4h101l-5 -3l-4 -4q-4 -4 -24 -25l-161 -177l242 -327l20 -25l4 -3l4 -4h-159l-1 4l-1 3q-1 7 -15 25l-196 252v-252q0 -15 2 -25l2 -3l1 -4h-134z" />
    <glyph glyph-name="l" unicode="l" horiz-adv-x="246" 
d="M55 759h136l-2 -4l-1 -3q-2 -10 -2 -24v-696q0 -17 2 -25l2 -4l1 -3h-136l2 3l1 4q2 8 2 25v696q0 18 -2 24l-1 3z" />
    <glyph glyph-name="m" unicode="m" horiz-adv-x="889" 
d="M55 0l2 4l1 3q2 10 2 25v504q0 19 -2 25l-1 2l-1 5h126v-64q44 59 117 73q24 5 47 5q52 0 92 -22t57 -57q4 4 11 12q49 51 115 62q26 4 49 4q75 0 117 -41t42 -109v-399q0 -13 2 -25l1 -3l2 -4h-136l2 3l1 4q3 8 3 25v367q0 94 -83 94q-18 0 -40 -5q-75 -19 -75 -89v-367
q0 -19 3 -25l1 -4l1 -3h-135l2 4l1 3q2 10 2 25v366q0 96 -84 96q-17 0 -37 -5q-33 -8 -54 -33t-21 -55v-369q0 -15 2 -25l1 -3l2 -4h-135z" />
    <glyph glyph-name="n" unicode="n" horiz-adv-x="589" 
d="M55 0l2 4l1 3q2 10 2 25v504q0 13 -2 25l-1 3l-1 4h126v-77q41 72 134 86q22 3 42 3q77 0 123.5 -44t46.5 -115v-389q0 -14 3 -25l2 -3l1 -4h-135l1 4l1 3q2 10 2 25v362q0 45 -26 71.5t-70 26.5q-18 0 -37 -4q-63 -14 -81 -83q-4 -15 -4 -28v-345q0 -17 3 -25l1 -4l1 -3
h-135z" />
    <glyph glyph-name="o" unicode="o" horiz-adv-x="598" 
d="M35 285q0 138 73 218q71 77 191 77q95 0 161.5 -50t89.5 -140q15 -59 15 -115q0 -128 -75 -206.5t-191 -78.5q-119 0 -191.5 79t-72.5 216zM168 285q0 -21 3 -47q23 -196 123 -196q20 0 42 8q72 25 92 188q6 47 0 94q-13 106 -46 153q-30 42 -83 42q-105 0 -128 -194
q-3 -26 -3 -48z" />
    <glyph glyph-name="p" unicode="p" horiz-adv-x="584" 
d="M55 568h127v-79q10 16 22 29q57 62 138 62q106 0 164 -95q30 -50 39 -126q5 -40 5 -77q0 -117 -44 -192q-40 -70 -110 -92q-35 -11 -69 -11q-93 0 -141 70v-193q0 -14 2 -24l1 -3l2 -4h-135l2 4v3q3 7 3 24v672q0 16 -3 25l-1 3zM183 285q0 -84 2 -105q7 -60 37 -93
t75 -33t72 30q36 39 47 152q4 41 0 94q-6 77 -21 111q-28 63 -92 63q-39 0 -70 -29q-36 -34 -45 -88q-5 -26 -5 -102z" />
    <glyph glyph-name="q" unicode="q" horiz-adv-x="584" 
d="M429 500l32 68h67l-2 -4l-1 -3q-1 -3 -1 -25v-671q0 -19 2 -25l1 -3l2 -4h-136l2 5l1 2q3 9 3 25v209q-53 -86 -156 -86q-66 0 -117 42q-78 63 -89 182q-3 34 -3 66q0 124 47 202q44 73 119 92q34 9 67 9q107 0 162 -81zM164 285q0 -26 1 -41q8 -111 47 -152
q27 -28 67 -28q45 0 76 35q42 47 45 124q1 32 1 59q0 128 -30 182q-27 50 -86 50q-53 0 -80 -40q-30 -44 -39 -147q-2 -22 -2 -42z" />
    <glyph glyph-name="r" unicode="r" horiz-adv-x="308" 
d="M55 0l2 4l1 3q2 10 2 25v504q0 13 -2 25l-1 3l-2 4h126v-75q2 8 8 19q31 62 124 67h9v-96h-5q-4 1 -5 1q-127 5 -127 -119v-333q0 -13 2 -25l1 -3l2 -4h-135z" />
    <glyph glyph-name="s" unicode="s" horiz-adv-x="458" 
d="M17 37l21 83q10 -10 32 -25q65 -45 132 -45q43 0 71 22q33 24 33 65q0 25 -15 44.5t-106 59.5q-5 2 -17 7q-137 51 -137 159q0 30 12 63q19 50 69 80q54 32 128 32q69 0 171 -37l-20 -77q-9 7 -27 20q-56 35 -112 35q-40 0 -67 -19q-34 -24 -34 -62q0 -32 24 -51
q17 -14 97 -44q14 -5 34 -15q121 -59 121 -152q0 -27 -9 -61q-16 -60 -70 -95q-57 -36 -142 -36q-28 0 -59 4q-66 9 -130 45z" />
    <glyph glyph-name="t" unicode="t" horiz-adv-x="294" 
d="M-7 510v58h80v103l131 16l-2 -6l-1 -4q-2 -14 -2 -25v-84h90v-58h-90v-397q0 -13 1 -20q5 -30 40 -30q19 0 41 12q3 2 7 4v-64q-58 -23 -105 -23q-53 0 -81 28t-28 75v415h-81z" />
    <glyph glyph-name="u" unicode="u" horiz-adv-x="588" 
d="M55 567h134l-1 -4l-1 -3q-2 -10 -2 -24v-344q0 -54 26 -86t70 -32q18 0 38 6q84 24 84 124v331q0 16 -3 25v3l-2 4h134l-2 -5v-2q-2 -10 -2 -25v-503q0 -13 2 -25l1 -3l2 -4h-126v76q-27 -43 -74.5 -66.5t-99.5 -23.5q-68 0 -115 37q-50 40 -57 106q-1 15 -1 34v372
q0 16 -3 25l-1 3z" />
    <glyph glyph-name="v" unicode="v" horiz-adv-x="464" 
d="M-26 568h145v-4l-1 -3q0 -8 6 -25l140 -396l147 396q6 16 6 25v7h73l-3 -4l-3 -3q-5 -8 -11 -25l-186 -504q-4 -12 -7 -25v-7h-102v7q0 8 -6 25l-182 504q-6 17 -11 25l-3 4z" />
    <glyph glyph-name="w" unicode="w" horiz-adv-x="774" 
d="M-19 568h141l-1 -4v-3q0 -10 4 -24l109 -380l123 379q5 15 5 25v3l-1 4h125v-4l-1 -3q0 -7 5 -24l111 -380l118 379q5 18 4 25v3l-2 4h72l-3 -4l-2 -3q-4 -7 -10 -25l-153 -504q-5 -16 -5 -25v-7h-112v4l1 3q0 8 -5 25l-117 402l-130 -402q-5 -15 -5 -25v-7h-108v7
q0 11 -4 25l-145 505q-5 18 -9 24l-2 3z" />
    <glyph glyph-name="x" unicode="x" horiz-adv-x="460" 
d="M-19 0l5 4l3 3q8 11 18 25l162 245l-150 259q-10 18 -16 25l-7 7h153l1 -4v-3q4 -11 12 -25l99 -165l113 165q7 11 13 25v7h78l-5 -4l-2 -3q-5 -5 -18 -25l-147 -224l163 -280q11 -18 16 -25l7 -7h-155v4l-1 3q-2 10 -11 25l-111 189l-127 -189q-11 -17 -14 -25l-1 -3
l-1 -4h-77z" />
    <glyph glyph-name="y" unicode="y" horiz-adv-x="458" 
d="M-26 568h144v-7q2 -9 7 -25l126 -364l147 364q7 16 8 25v3l1 4h77l-4 -4l-2 -3q-4 -7 -12 -25l-277 -670q-8 -20 -8 -25v-7l-5 -1h-70l-5 1l4 4l2 3q7 10 13 24l61 135l-191 536q-4 10 -11 25l-2 3z" />
    <glyph glyph-name="z" unicode="z" horiz-adv-x="487" 
d="M12 0v63l318 447h-272q-10 0 -26 -2l-16 -2v62h459v-64l-314 -443h272q18 0 30 2l6 1l6 2v-66h-463z" />
    <glyph glyph-name="braceleft" unicode="{" horiz-adv-x="325" 
d="M43 360q28 2 46 21.5t18 50.5v326q0 77 84 77h91v-53h-12q-34 0 -45.5 -12t-11.5 -45v-282q0 -32 -21.5 -55.5t-53.5 -27.5q32 -4 53.5 -27.5t21.5 -55.5v-282q0 -33 11.5 -45t45.5 -12h12v-53h-91q-84 0 -84 77v326q0 31 -18 50.5t-46 21.5z" />
    <glyph glyph-name="bar" unicode="|" horiz-adv-x="176" 
d="M43 0v720h90v-720h-90z" />
    <glyph glyph-name="braceright" unicode="}" horiz-adv-x="325" 
d="M43 -115v53h12q34 0 46 12t12 45v282q0 32 21.5 55.5t53.5 27.5q-32 4 -53.5 27.5t-21.5 55.5v282q0 33 -12 45t-46 12h-12v53h91q85 0 85 -77v-326q0 -31 18 -50.5t45 -21.5q-27 -2 -45 -21.5t-18 -50.5v-326q0 -77 -85 -77h-91z" />
    <glyph glyph-name="asciitilde" unicode="~" horiz-adv-x="479" 
d="M43 283q0 60 22 100q28 50 83 50q28 0 61 -13l79 -32q4 -1 11 -4q22 -6 33 -6q19 0 30 27q3 7 4 19q1 5 1 10h69q0 -60 -22 -100q-28 -50 -84 -50q-28 0 -60 13l-86 34l-21 7q-8 3 -15 3q-28 0 -36 -48v-10h-69z" />
    <glyph glyph-name="euro" horiz-adv-x="498" 
d="M522 633l-23 -156l-48 6q0 157 -94 157q-103 0 -161 -211h172l-21 -48h-164q-6 -24 -16 -73h147l-21 -47h-134q-6 -41 -6 -74q0 -56 21 -91q26 -43 78 -43q58 0 101 68q24 38 51 119l55 -10l-54 -188q-77 -53 -159 -53q-111 0 -166 84q-47 71 -47 188h-74l21 47h56
q3 25 12 73h-66l21 48h59q41 112 108 183q83 88 187 88q94 0 165 -67z" />
    <glyph glyph-name="exclamdown" unicode="&#xa1;" horiz-adv-x="223" 
d="M42 0l2 3l1 4q3 7 4 24l19 493h99l20 -493q1 -20 3 -24l1 -4l2 -3h-151zM43 657q0 30 20.5 50t51.5 20q16 0 32 -6q44 -16 44 -63q0 -50 -44 -65q-16 -5 -31 -5q-31 0 -52 19.5t-21 49.5z" />
    <glyph glyph-name="cent" unicode="&#xa2;" horiz-adv-x="471" 
d="M307 576v65h41v-66q55 3 109 -19v-89q-45 47 -110 50v-462q63 8 110 55v-84q-52 -29 -112 -35v-77h-41v74q-12 -1 -23 -1q-56 0 -105 24q-66 33 -104 98q-39 69 -39 159q0 49 12 101q22 100 95 157.5t167 49.5zM307 517q-108 -22 -131 -163q-7 -44 -7 -83q0 -95 40 -153
q37 -53 98 -62v461z" />
    <glyph glyph-name="sterling" unicode="&#xa3;" horiz-adv-x="486" 
d="M30 318v49h66q-16 34 -32 85q-14 45 -14 86q0 88 59 141.5t160 52.5q68 -1 136 -21q12 -3 35 -12l-12 -80q-53 43 -123 43q-55 0 -91 -33.5t-37 -86.5q-1 -54 24 -132q8 -25 17 -43h174v-48h-160q3 -8 7 -24q9 -40 9 -75q0 -119 -87 -143q46 -6 93 -6q101 0 202 27v-96
q-101 -12 -204 -12q-94 0 -190 10l-16 102q17 -17 44 -17q66 0 66 79q0 52 -29 135q-1 3 -3.5 9.5t-4.5 9.5h-89z" />
    <glyph glyph-name="currency" unicode="&#xa4;" horiz-adv-x="457" 
d="M43 212l60 60q-29 38 -29 90q0 49 29 89l-59 57q14 20 33 37l62 -60q41 30 90 30q50 0 90 -29l60 60q3 -3 10 -8q14 -13 25 -30l-59 -56q29 -41 29 -90q0 -51 -30 -92l60 -60l-8 -8l-8 -9q-3 -4 -20 -18l-59 60q-41 -30 -90 -30q-50 0 -90 31l-62 -60l-9 8l-8 9l-9 9z
M126 360q0 -42 30 -72.5t73 -30.5t73 30t30 73t-30 73t-73 30t-73 -30t-30 -73z" />
    <glyph glyph-name="yen" unicode="&#xa5;" horiz-adv-x="579" 
d="M19 720h157l1 -5v-2q2 -10 9 -25l141 -292l146 292q9 17 10 24l1 3l1 4h75l-3 -4l-2 -3q-4 -6 -14 -24l-135 -279h114v-67h-149l-16 -27v-28h165v-68h-165v-187q0 -19 2 -25l1 -3l2 -4h-145l2 3l1 4q2 8 2 25v187h-157v71h157v23l-12 30h-143v68h112l-139 277
q-10 19 -14 25l-2 2z" />
    <glyph glyph-name="section" unicode="&#xa7;" horiz-adv-x="591" 
d="M138 480q-3 3 -11 9q-36 34 -36 85q0 83 82 129q42 24 105 29q18 1 35 1q172 0 210 -149q2 -7 5 -22l-105 2q-1 4 -2 13q-16 78 -110 78q-23 0 -41 -4q-65 -15 -65 -69q0 -18 11 -36t52 -36l182 -79q114 -49 106 -157q-5 -70 -77 -123q-5 -4 -16 -11q47 -35 44 -101
q-3 -67 -60 -113q-60 -47 -149 -47q-39 0 -81 10q-68 17 -108.5 64t-42.5 109l105 -2q0 -11 3 -20q8 -39 40.5 -61.5t80.5 -21.5q42 1 69 20q31 22 29 63q-2 46 -55 69l-191 84q-115 50 -115 134q0 26 11 56q18 49 79 88q6 3 16 9zM204 428q-2 -1 -7 -4q-35 -20 -46 -45
q-7 -17 -7 -33q0 -45 53 -68l195 -84q3 1 13 7q40 25 45 61q9 57 -50 82z" />
    <glyph glyph-name="dieresis" unicode="&#xa8;" horiz-adv-x="295" 
d="M-29 667q1 46 71 47q37 0 54.5 -12t17.5 -35q0 -24 -17.5 -36.5t-60.5 -12.5q-67 0 -65 49zM181 667q0 23 17.5 35t54.5 12q72 -1 72 -48q0 -35 -36 -43q-19 -4 -36 -4q-71 1 -72 48z" />
    <glyph glyph-name="copyright" unicode="&#xa9;" horiz-adv-x="862" 
d="M58 361q0 154 109.5 263.5t263.5 109.5t263.5 -109.5t109.5 -263.5t-109 -263.5t-264 -109.5t-264 109t-109 264zM112 361q0 -134 93.5 -229.5t225.5 -95.5t225.5 95t93.5 229q0 135 -93.5 229.5t-225.5 95.5q-132 0 -225.5 -95.5t-93.5 -228.5zM602 541l-33 -47
q-52 44 -119 44q-65 0 -114.5 -42t-59.5 -108q-3 -16 -3 -32q0 -75 50.5 -127t124.5 -52q68 0 120 44l33 -47q-64 -53 -151 -56q-103 -3 -173 66t-70 169q0 46 17 93q26 69 85 110t134 41q93 0 159 -56z" />
    <glyph glyph-name="ordfeminine" unicode="&#xaa;" horiz-adv-x="446" 
d="M53 336h350v-68h-350v68zM329 655v65h74v-335h-75v69l-3 -8l-4 -8q-31 -61 -115 -61q-32 0 -63 12q-49 20 -76 67q-25 43 -24 98q1 77 50 128q46 49 111 49q83 0 116 -60zM120 554q-1 -14 2 -23q13 -74 83 -87q51 -9 88 25t37 84q0 74 -62 103q-21 10 -44 10
q-37 0 -66 -25t-37 -67q-2 -10 -1 -20z" />
    <glyph glyph-name="guillemotleft" unicode="&#xab;" horiz-adv-x="423" 
d="M20 284l124 215h100l-126 -215l125 -212h-101zM178 284l125 215h100l-126 -215l124 -212h-101z" />
    <glyph glyph-name="logicalnot" unicode="&#xac;" horiz-adv-x="590" 
d="M43 360v90h504v-234h-72v144h-432z" />
    <glyph glyph-name="sfthyphen" unicode="&#xad;" horiz-adv-x="338" 
d="M8 174l33 122h246l-33 -122h-246z" />
    <glyph glyph-name="sfthyphen" unicode="&#x2212;" horiz-adv-x="338" 
d="M8 174l33 122h246l-33 -122h-246z" />
    <glyph glyph-name="macron" unicode="&#xaf;" horiz-adv-x="294" 
d="M-2 626v64h296v-64h-296z" />
    <glyph glyph-name="macron" unicode="&#x2c9;" horiz-adv-x="294" 
d="M-2 626v64h296v-64h-296z" />
    <glyph glyph-name="degree" unicode="&#xb0;" horiz-adv-x="360" 
d="M43 598q0 56 40 96t97 40q56 0 96.5 -40t40.5 -96q0 -57 -40.5 -97t-96.5 -40q-57 0 -97 40t-40 97zM89 598q0 -38 26.5 -65t64.5 -27q37 0 64 27t27 64q0 38 -27 65t-64 27q-38 0 -64.5 -26.5t-26.5 -64.5z" />
    <glyph glyph-name="acute" unicode="&#xb4;" horiz-adv-x="181" 
d="M43 612l74 152h99l-117 -152h-56z" />
    <glyph glyph-name="paragraph" unicode="&#xb6;" horiz-adv-x="600" 
d="M241 720h316v-58h-316q-59 0 -100 -42t-40 -102q1 -58 42 -99t98 -41h67v238h61v-616h-61v320h-67q-82 0 -140 58.5t-58 141.5t58 141.5t140 58.5zM434 0v616h61v-616h-61z" />
    <glyph glyph-name="ch270" unicode="&#xb7;" horiz-adv-x="249" 
d="M38 348q0 34 23 57t57 23t57.5 -23t23.5 -57t-23.5 -57.5t-57.5 -23.5t-57 23.5t-23 57.5z" />
    <glyph glyph-name="ch270" unicode="&#x2219;" horiz-adv-x="249" 
d="M38 348q0 34 23 57t57 23t57.5 -23t23.5 -57t-23.5 -57.5t-57.5 -23.5t-57 23.5t-23 57.5z" />
    <glyph glyph-name="cedilla" unicode="&#xb8;" horiz-adv-x="152" 
d="M37 -211l45 163h94l-80 -163h-59z" />
    <glyph glyph-name="ordmasculine" unicode="&#xba;" horiz-adv-x="446" 
d="M49 268v68h349v-68h-349zM43 554q0 75 51.5 128.5t126.5 53.5q19 0 38 -4q64 -13 104.5 -62.5t40.5 -114.5q0 -19 -4 -38q-13 -64 -62 -104t-114 -40q-18 0 -37 4q-64 13 -104 62.5t-40 114.5zM117 554q0 -46 30.5 -78.5t75.5 -32.5q46 0 76 33t30 79q0 59 -45 91
q-28 20 -62 20q-45 0 -75 -33t-30 -79z" />
    <glyph glyph-name="guillemotright" unicode="&#xbb;" horiz-adv-x="421" 
d="M20 499h103l120 -214l-121 -213h-102l124 213zM178 499h103l120 -214l-121 -213h-102l125 213z" />
    <glyph glyph-name="questiondown" unicode="&#xbf;" horiz-adv-x="332" 
d="M69 431v69q57 28 102 28q57 0 93.5 -35.5t36.5 -85.5q0 -21 -7 -41q-9 -25 -42 -75q-1 -2 -23 -31q-30 -40 -42 -61q-26 -42 -28 -68q-2 -30 14.5 -49.5t42.5 -19.5q32 0 76 32q10 7 18 15v-83q-57 -36 -128 -40q-69 -4 -112.5 33t-43.5 94q0 25 9.5 51.5t43.5 79.5
q15 22 46 66q50 73 49 102q-1 19 -18 32t-40 10q-18 -3 -40 -17q-1 -1 -3.5 -3t-3.5 -3zM114 656q0 30 21 50t52 20q15 0 31 -6q45 -16 45 -64q0 -49 -45 -64q-15 -5 -31 -5q-31 0 -52 19.5t-21 49.5z" />
    <glyph glyph-name="Agrave" unicode="&#xc0;" 
d="M-26 0l3 4l3 3q5 9 11 25l233 656q6 17 6 24v3l-1 4h118v-7q1 -5 8 -24l239 -656q6 -15 12 -25l2 -3l3 -4h-156v7q0 5 -7 25l-66 188h-260l-67 -188q-7 -20 -7 -25v-3l1 -4h-75zM143 279h218l-110 311zM143 921h100l70 -151h-54z" />
    <glyph glyph-name="Aacute" unicode="&#xc1;" 
d="M-26 0l3 4l3 3q5 9 11 25l233 656q6 17 6 24v3l-1 4h118v-7q1 -5 8 -24l239 -656q6 -15 12 -25l2 -3l3 -4h-156v7q0 5 -7 25l-66 188h-260l-67 -188q-7 -20 -7 -25v-3l1 -4h-75zM143 279h218l-110 311zM258 770l74 152h99l-117 -152h-56z" />
    <glyph glyph-name="Acircumflex" unicode="&#xc2;" 
d="M-26 0l3 4l3 3q5 9 11 25l233 656q6 17 6 24v3l-1 4h118v-7q1 -5 8 -24l239 -656q6 -15 12 -25l2 -3l3 -4h-156v7q0 5 -7 25l-66 188h-260l-67 -188q-7 -20 -7 -25v-3l1 -4h-75zM143 279h218l-110 311zM128 770l127 155h73l121 -155h-86l-72 113l-77 -113h-86z" />
    <glyph glyph-name="Atilde" unicode="&#xc3;" 
d="M-26 0l3 4l3 3q5 9 11 25l233 656q6 17 6 24v3l-1 4h118v-7q1 -5 8 -24l239 -656q6 -15 12 -25l2 -3l3 -4h-156v7q0 5 -7 25l-66 188h-260l-67 -188q-7 -20 -7 -25v-3l1 -4h-75zM143 279h218l-110 311zM150 827l12 4l13 4q36 11 121 4q7 0 24 -2l53 -7q5 -1 18 -1
q39 -1 61 14l2 -63q-8 -4 -19 -7q-27 -8 -77 -3l-11 1l-45 7q-6 1 -19 2q-67 6 -105 -6q-14 -4 -26 -11z" />
    <glyph glyph-name="Adieresis" unicode="&#xc4;" 
d="M-26 0l3 4l3 3q5 9 11 25l233 656q6 17 6 24v3l-1 4h118v-7q1 -5 8 -24l239 -656q6 -15 12 -25l2 -3l3 -4h-156v7q0 5 -7 25l-66 188h-260l-67 -188q-7 -20 -7 -25v-3l1 -4h-75zM143 279h218l-110 311zM86 814q0 24 19 40t53 16q38 0 59 -14.5t21 -41.5t-21 -40.5
t-55 -13.5q-76 0 -76 54zM325 814q0 24 19 40t52 16q38 0 59 -14.5t21 -41.5q0 -26 -20.5 -40t-55.5 -14q-75 0 -75 54z" />
    <glyph glyph-name="Aring" unicode="&#xc5;" 
d="M-26 0l3 4l3 3q5 9 11 25l233 656q6 17 6 24v3l-1 4h118v-7q1 -5 8 -24l239 -656q6 -15 12 -25l2 -3l3 -4h-156v7q0 5 -7 25l-66 188h-260l-67 -188q-7 -20 -7 -25v-3l1 -4h-75zM143 279h218l-110 311zM190 859q-1 41 27.5 69.5t68.5 28.5t68.5 -29t28.5 -69t-28 -68.5
t-69 -28.5q-39 0 -67 28t-29 69zM231 859q0 -22 16.5 -38t39.5 -15q23 0 39 15.5t16 37.5q0 23 -16 38.5t-39 15.5q-23 1 -39.5 -15t-16.5 -39z" />
    <glyph glyph-name="AE" unicode="&#xc6;" horiz-adv-x="823" 
d="M-40 0l7 7q6 8 16 25l372 656q9 16 12 25v2l1 5h419v-64l-6 2l-7 2h-230v-265h198q20 0 32 2l6 1l7 1v-65l-9 2l-7 2q-2 0 -11 1h-17h-199v-274h202q20 0 30 2l5 1l6 1v-69h-384l2 4l1 3q2 6 2 25v187h-246l-108 -187q-9 -16 -11 -25v-7h-83zM193 280h215v381z" />
    <glyph glyph-name="Ccedilla" unicode="&#xc7;" horiz-adv-x="608" 
d="M581 698v-104q-73 73 -172 73q-70 0 -126 -41.5t-79.5 -112t-23.5 -152.5q0 -88 28 -160q26 -68 83 -107q54 -38 120 -38q76 0 141 50q13 10 30 27v-101q-60 -30 -126 -38q-36 -4 -69 -4q-163 0 -258.5 96t-95.5 265q0 55 11 116q22 120 116.5 192.5t241.5 72.5
q101 0 179 -34zM297 -200l45 164h94l-80 -164h-59z" />
    <glyph glyph-name="Egrave" unicode="&#xc8;" horiz-adv-x="481" 
d="M60 0l2 3l1 4q2 5 2 25l1 656q0 19 -3 25l-1 2l-2 5h385l-1 -64l-6 1l-7 1q-14 2 -28 2h-202v-266h203q15 0 27 2l6 1l7 1v-64l-7 2l-6 1q-12 2 -27 2h-203v-274h201q23 0 29 1l6 1l7 2v-69h-384zM123 921h100l70 -151h-54z" />
    <glyph glyph-name="Eacute" unicode="&#xc9;" horiz-adv-x="481" 
d="M60 0l2 3l1 4q2 5 2 25l1 656q0 19 -3 25l-1 2l-2 5h385l-1 -64l-6 1l-7 1q-14 2 -28 2h-202v-266h203q15 0 27 2l6 1l7 1v-64l-7 2l-6 1q-12 2 -27 2h-203v-274h201q23 0 29 1l6 1l7 2v-69h-384zM251 770l74 152h99l-117 -152h-56z" />
    <glyph glyph-name="Ecircumflex" unicode="&#xca;" horiz-adv-x="481" 
d="M60 0l2 3l1 4q2 5 2 25l1 656q0 19 -3 25l-1 2l-2 5h385l-1 -64l-6 1l-7 1q-14 2 -28 2h-202v-266h203q15 0 27 2l6 1l7 1v-64l-7 2l-6 1q-12 2 -27 2h-203v-274h201q23 0 29 1l6 1l7 2v-69h-384zM97 770l127 155h73l121 -155h-86l-72 113l-77 -113h-86z" />
    <glyph glyph-name="Edieresis" unicode="&#xcb;" horiz-adv-x="481" 
d="M60 0l2 3l1 4q2 5 2 25l1 656q0 19 -3 25l-1 2l-2 5h385l-1 -64l-6 1l-7 1q-14 2 -28 2h-202v-266h203q15 0 27 2l6 1l7 1v-64l-7 2l-6 1q-12 2 -27 2h-203v-274h201q23 0 29 1l6 1l7 2v-69h-384zM64 822q1 46 71 47q37 0 54.5 -12t17.5 -35q0 -24 -17.5 -36.5
t-60.5 -12.5q-67 0 -65 49zM274 822q0 23 17.5 35t54.5 12q72 -1 72 -48q0 -35 -36 -43q-19 -4 -36 -4q-71 1 -72 48z" />
    <glyph glyph-name="Igrave" unicode="&#xcc;" horiz-adv-x="266" 
d="M60 719h146l-2 -4l-1 -3q-3 -9 -3 -24v-656q0 -19 3 -25l1 -4l1 -3h-144l1 4l1 3q3 9 3 25v656q0 15 -3 24l-1 3zM-8 921h100l70 -151h-54z" />
    <glyph glyph-name="Iacute" unicode="&#xcd;" horiz-adv-x="266" 
d="M60 719h146l-2 -4l-1 -3q-3 -9 -3 -24v-656q0 -19 3 -25l1 -4l1 -3h-144l1 4l1 3q3 9 3 25v656q0 15 -3 24l-1 3zM103 770l74 152h99l-117 -152h-56z" />
    <glyph glyph-name="Icircumflex" unicode="&#xce;" horiz-adv-x="266" 
d="M60 719h146l-2 -4l-1 -3q-3 -9 -3 -24v-656q0 -19 3 -25l1 -4l1 -3h-144l1 4l1 3q3 9 3 25v656q0 15 -3 24l-1 3zM-27 767l127 155h73l121 -155h-86l-72 113l-77 -113h-86z" />
    <glyph glyph-name="Idieresis" unicode="&#xcf;" horiz-adv-x="266" 
d="M60 719h146l-2 -4l-1 -3q-3 -9 -3 -24v-656q0 -19 3 -25l1 -4l1 -3h-144l1 4l1 3q3 9 3 25v656q0 15 -3 24l-1 3zM-43 822q1 46 71 47q37 0 54.5 -12t17.5 -35q0 -24 -17.5 -36.5t-60.5 -12.5q-67 0 -65 49zM167 822q0 23 17.5 35t54.5 12q72 -1 72 -48q0 -35 -36 -43
q-19 -4 -36 -4q-71 1 -72 48z" />
    <glyph glyph-name="Ntilde" unicode="&#xd1;" horiz-adv-x="707" 
d="M60 0l2 3l1 4q3 8 3 25v656q0 18 -2 24l-1 3l-2 4h123l2 -4l1 -3q1 -3 16 -24l378 -527v527q0 14 -2 24l-1 3l-2 4l70 1l-2 -5l-1 -2q-1 -5 -1 -25l-1 -656q0 -7 3 -25l2 -3l1 -4h-119l-1 5l-1 2q-2 5 -15 25l-386 535v-535q0 -20 2 -25v-3l2 -4h-69zM201 830l12 4l13 4
q36 11 121 4q7 0 24 -2l53 -7q5 -1 18 -1q39 -1 61 14l2 -63q-8 -4 -19 -7q-27 -8 -77 -3l-11 1l-45 7q-6 1 -19 2q-67 6 -105 -6q-14 -4 -26 -11z" />
    <glyph glyph-name="Ograve" unicode="&#xd2;" horiz-adv-x="787" 
d="M35 360q0 178 93.5 274t264.5 96q172 0 265.5 -96t93.5 -273q0 -178 -93.5 -274t-265.5 -96q-171 0 -264.5 96t-93.5 273zM179 361q0 -153 57 -233q54 -77 152 -77q30 0 64 8q156 35 156 302q0 308 -215 308q-214 0 -214 -308zM252 932h100l70 -151h-54z" />
    <glyph glyph-name="Oacute" unicode="&#xd3;" horiz-adv-x="787" 
d="M35 360q0 178 93.5 274t264.5 96q172 0 265.5 -96t93.5 -273q0 -178 -93.5 -274t-265.5 -96q-171 0 -264.5 96t-93.5 273zM179 361q0 -153 57 -233q54 -77 152 -77q30 0 64 8q156 35 156 302q0 308 -215 308q-214 0 -214 -308zM359 781l74 152h99l-117 -152h-56z" />
    <glyph glyph-name="Ocircumflex" unicode="&#xd4;" horiz-adv-x="787" 
d="M35 360q0 178 93.5 274t264.5 96q172 0 265.5 -96t93.5 -273q0 -178 -93.5 -274t-265.5 -96q-171 0 -264.5 96t-93.5 273zM179 361q0 -153 57 -233q54 -77 152 -77q30 0 64 8q156 35 156 302q0 308 -215 308q-214 0 -214 -308zM237 775l127 155h73l121 -155h-86l-72 113
l-77 -113h-86z" />
    <glyph glyph-name="Otilde" unicode="&#xd5;" horiz-adv-x="787" 
d="M35 360q0 178 93.5 274t264.5 96q172 0 265.5 -96t93.5 -273q0 -178 -93.5 -274t-265.5 -96q-171 0 -264.5 96t-93.5 273zM179 361q0 -153 57 -233q54 -77 152 -77q30 0 64 8q156 35 156 302q0 308 -215 308q-214 0 -214 -308zM259 836l12 4l13 4q36 11 121 4q7 0 24 -2
l53 -7q5 -1 18 -1q39 -1 61 14l2 -63q-8 -4 -19 -7q-27 -8 -77 -3l-11 1l-45 7q-6 1 -19 2q-67 6 -105 -6q-14 -4 -26 -11z" />
    <glyph glyph-name="Odieresis" unicode="&#xd6;" horiz-adv-x="787" 
d="M35 360q0 178 93.5 274t264.5 96q172 0 265.5 -96t93.5 -273q0 -178 -93.5 -274t-265.5 -96q-171 0 -264.5 96t-93.5 273zM179 361q0 -153 57 -233q54 -77 152 -77q30 0 64 8q156 35 156 302q0 308 -215 308q-214 0 -214 -308zM109 815q0 24 19 40t53 16q37 0 58.5 -14
t21.5 -41q0 -28 -21 -41.5t-55 -13.5q-76 0 -76 54zM524 815q0 24 18.5 40t52.5 16q38 0 59 -14t21 -41q0 -28 -20 -41.5t-55 -13.5q-76 0 -76 54z" />
    <glyph glyph-name="Oslash" unicode="&#xd8;" horiz-adv-x="798" 
d="M37 34l75 76q-74 85 -74 244q0 72 18 145q27 108 114 168q91 63 226 63q155 0 247 -82l72 72l46 -41l-73 -75l6 -9l3 -4q57 -93 58 -230q1 -173 -92 -272t-259 -99q-46 0 -97 8q-83 14 -151 66l-74 -77zM237 143q41 -92 153 -92q31 0 66 8q68 16 110 84q46 75 46 192
q0 51 -9 108q-4 27 -15 64zM563 571q-10 13 -20 23q-75 74 -168 65t-136 -74q-46 -69 -46 -214q0 -98 17 -165z" />
    <glyph glyph-name="Ugrave" unicode="&#xd9;" horiz-adv-x="702" 
d="M60 720h146l-2 -4l-1 -3q-3 -9 -3 -25v-453q0 -81 48.5 -131t131.5 -50q28 0 58 6q144 29 144 184v444q0 15 -3 24l-1 3l-1 4l70 1l-1 -5l-2 -2q-2 -14 -2 -25v-443q0 -116 -73 -185q-77 -72 -211 -72q-34 0 -71 5q-103 14 -162.5 78t-59.5 157v460q0 19 -2 25l-1 2z
M252 921h100l70 -151h-54z" />
    <glyph glyph-name="Uacute" unicode="&#xda;" horiz-adv-x="702" 
d="M60 720h146l-2 -4l-1 -3q-3 -9 -3 -25v-453q0 -81 48.5 -131t131.5 -50q28 0 58 6q144 29 144 184v444q0 15 -3 24l-1 3l-1 4l70 1l-1 -5l-2 -2q-2 -14 -2 -25v-443q0 -116 -73 -185q-77 -72 -211 -72q-34 0 -71 5q-103 14 -162.5 78t-59.5 157v460q0 19 -2 25l-1 2z
M358 770l74 152h99l-117 -152h-56z" />
    <glyph glyph-name="Ucircumflex" unicode="&#xdb;" horiz-adv-x="702" 
d="M60 720h146l-2 -4l-1 -3q-3 -9 -3 -25v-453q0 -81 48.5 -131t131.5 -50q28 0 58 6q144 29 144 184v444q0 15 -3 24l-1 3l-1 4l70 1l-1 -5l-2 -2q-2 -14 -2 -25v-443q0 -116 -73 -185q-77 -72 -211 -72q-34 0 -71 5q-103 14 -162.5 78t-59.5 157v460q0 19 -2 25l-1 2z
M191 767l127 155h73l121 -155h-86l-72 113l-77 -113h-86z" />
    <glyph glyph-name="Udieresis" unicode="&#xdc;" horiz-adv-x="702" 
d="M60 720h146l-2 -4l-1 -3q-3 -9 -3 -25v-453q0 -81 48.5 -131t131.5 -50q28 0 58 6q144 29 144 184v444q0 15 -3 24l-1 3l-1 4l70 1l-1 -5l-2 -2q-2 -14 -2 -25v-443q0 -116 -73 -185q-77 -72 -211 -72q-34 0 -71 5q-103 14 -162.5 78t-59.5 157v460q0 19 -2 25l-1 2z
M199 786q0 55 68 55q19 0 41 -6q42 -11 43 -50q1 -40 -42 -50q-22 -5 -40 -5q-70 0 -70 56zM386 785q1 53 76 55q15 0 35 -4q40 -9 40 -49q0 -57 -70 -57q-18 0 -39 5q-43 10 -42 50z" />
    <glyph glyph-name="Yacute" unicode="&#xdd;" horiz-adv-x="455" 
d="M-43 720h157l1 -5v-2q2 -10 9 -25l141 -292l146 292q9 17 10 24l1 3l1 4h75l-3 -4l-2 -3q-4 -6 -14 -24l-186 -373v-283q0 -19 2 -25l1 -3l2 -4h-145l2 3l1 4q2 8 2 25v281l-182 375q-7 15 -14 25l-2 3zM218 770l74 152h99l-117 -152h-56z" />
    <glyph glyph-name="germandbls" unicode="&#xdf;" horiz-adv-x="590" 
d="M55 0l1 4l1 3q2 6 2 24l1 537q0 95 53 150.5t154 55.5q27 0 56 -4q69 -10 107 -48t38 -93q0 -54 -35 -112q-4 -8 -14 -23l-5 -7l-9 -15q-6 -10 -6 -16q0 -17 85 -92q92 -81 90 -182q-2 -86 -58.5 -139.5t-145.5 -53.5q-45 0 -93 15q-6 3 -20 7v89q5 -5 17 -15
q39 -31 79 -31q67 0 93 76q7 19 7 38q0 43 -33 90q-31 37 -62 75q-53 65 -53 89q0 15 17 42l9 14l24 33q32 44 32 94q0 53 -29 83t-75 28q-98 -5 -98 -114v-602h-130z" />
    <glyph glyph-name="agrave" unicode="&#xe0;" horiz-adv-x="533" 
d="M100 456l-20 78q25 11 40 17q94 35 169 35q86 0 135 -46q44 -42 44 -110v-296q0 -6 2 -30q3 -34 29 -34q9 0 25 8l13 9v-67q-4 -3 -16 -10q-38 -22 -75 -22q-39 0 -67 21q-33 24 -29 61q-33 -40 -77 -61.5t-90 -21.5q-68 0 -113 45.5t-45 115.5q0 126 144 180q19 7 99 30
q41 12 56 26.5t18 44.5q4 42 -27 66q-27 21 -70 21q-68 0 -145 -60zM343 336q-16 -13 -27 -18q-107 -41 -139.5 -71t-31.5 -81q0 -9 2 -23q17 -73 84 -73q26 0 52 14q60 33 60 110v142zM134 787h100l70 -151h-54z" />
    <glyph glyph-name="aacute" unicode="&#xe1;" horiz-adv-x="533" 
d="M100 456l-20 78q25 11 40 17q94 35 169 35q86 0 135 -46q44 -42 44 -110v-296q0 -6 2 -30q3 -34 29 -34q9 0 25 8l13 9v-67q-4 -3 -16 -10q-38 -22 -75 -22q-39 0 -67 21q-33 24 -29 61q-33 -40 -77 -61.5t-90 -21.5q-68 0 -113 45.5t-45 115.5q0 126 144 180q19 7 99 30
q41 12 56 26.5t18 44.5q4 42 -27 66q-27 21 -70 21q-68 0 -145 -60zM343 336q-16 -13 -27 -18q-107 -41 -139.5 -71t-31.5 -81q0 -9 2 -23q17 -73 84 -73q26 0 52 14q60 33 60 110v142zM262 636l74 152h99l-117 -152h-56z" />
    <glyph glyph-name="acircumflex" unicode="&#xe2;" horiz-adv-x="533" 
d="M100 456l-20 78q25 11 40 17q94 35 169 35q86 0 135 -46q44 -42 44 -110v-296q0 -6 2 -30q3 -34 29 -34q9 0 25 8l13 9v-67q-4 -3 -16 -10q-38 -22 -75 -22q-39 0 -67 21q-33 24 -29 61q-33 -40 -77 -61.5t-90 -21.5q-68 0 -113 45.5t-45 115.5q0 126 144 180q19 7 99 30
q41 12 56 26.5t18 44.5q4 42 -27 66q-27 21 -70 21q-68 0 -145 -60zM343 336q-16 -13 -27 -18q-107 -41 -139.5 -71t-31.5 -81q0 -9 2 -23q17 -73 84 -73q26 0 52 14q60 33 60 110v142zM117 626l127 155h73l121 -155h-86l-72 113l-77 -113h-86z" />
    <glyph glyph-name="atilde" unicode="&#xe3;" horiz-adv-x="533" 
d="M100 456l-20 78q25 11 40 17q94 35 169 35q86 0 135 -46q44 -42 44 -110v-296q0 -6 2 -30q3 -34 29 -34q9 0 25 8l13 9v-67q-4 -3 -16 -10q-38 -22 -75 -22q-39 0 -67 21q-33 24 -29 61q-33 -40 -77 -61.5t-90 -21.5q-68 0 -113 45.5t-45 115.5q0 126 144 180q19 7 99 30
q41 12 56 26.5t18 44.5q4 42 -27 66q-27 21 -70 21q-68 0 -145 -60zM343 336q-16 -13 -27 -18q-107 -41 -139.5 -71t-31.5 -81q0 -9 2 -23q17 -73 84 -73q26 0 52 14q60 33 60 110v142zM128 691l12 4l13 4q36 11 121 4q7 0 24 -2l53 -7q5 -1 18 -1q39 -1 61 14l2 -63
q-8 -4 -19 -7q-27 -8 -77 -3l-11 1l-45 7q-6 1 -19 2q-67 6 -105 -6q-14 -4 -26 -11z" />
    <glyph glyph-name="adieresis" unicode="&#xe4;" horiz-adv-x="533" 
d="M100 456l-20 78q25 11 40 17q94 35 169 35q86 0 135 -46q44 -42 44 -110v-296q0 -6 2 -30q3 -34 29 -34q9 0 25 8l13 9v-67q-4 -3 -16 -10q-38 -22 -75 -22q-39 0 -67 21q-33 24 -29 61q-33 -40 -77 -61.5t-90 -21.5q-68 0 -113 45.5t-45 115.5q0 126 144 180q19 7 99 30
q41 12 56 26.5t18 44.5q4 42 -27 66q-27 21 -70 21q-68 0 -145 -60zM343 336q-16 -13 -27 -18q-107 -41 -139.5 -71t-31.5 -81q0 -9 2 -23q17 -73 84 -73q26 0 52 14q60 33 60 110v142zM100 668q1 49 71 49q37 0 54.5 -12.5t17.5 -36.5q0 -42 -38 -47q-22 -5 -40 -5
q-66 0 -65 52zM311 667q-1 51 66 51q19 0 41 -5q37 -9 37 -45q0 -52 -67 -52q-18 0 -39 5q-37 9 -38 46z" />
    <glyph glyph-name="aring" unicode="&#xe5;" horiz-adv-x="533" 
d="M100 456l-20 78q25 11 40 17q94 35 169 35q86 0 135 -46q44 -42 44 -110v-296q0 -6 2 -30q3 -34 29 -34q9 0 25 8l13 9v-67q-4 -3 -16 -10q-38 -22 -75 -22q-39 0 -67 21q-33 24 -29 61q-33 -40 -77 -61.5t-90 -21.5q-68 0 -113 45.5t-45 115.5q0 126 144 180q19 7 99 30
q41 12 56 26.5t18 44.5q4 42 -27 66q-27 21 -70 21q-68 0 -145 -60zM343 336q-16 -13 -27 -18q-107 -41 -139.5 -71t-31.5 -81q0 -9 2 -23q17 -73 84 -73q26 0 52 14q60 33 60 110v142zM187 719q-1 39 28.5 68.5t69.5 29.5t68 -28.5t28 -69.5t-28 -69t-69 -28q-40 0 -68 28
t-29 69zM229 719q0 -22 16.5 -38t39.5 -16q22 0 38.5 15.5t16.5 38.5q0 22 -16 38t-39 16q-24 0 -40 -16t-16 -38z" />
    <glyph glyph-name="ae" unicode="&#xe6;" horiz-adv-x="883" 
d="M99 459l-19 77q91 46 200 46q126 0 158 -70q67 71 177 70q106 0 171.5 -69.5t71.5 -193.5v-22h-383q-4 -32 3 -85q5 -38 24.5 -78.5t60.5 -64t91 -23.5q88 0 161 65l19 -77q-68 -33 -138 -42q-38 -5 -71 -5q-154 0 -228 107q-9 13 -13 21q-4 -9 -16 -25
q-75 -100 -185 -101q-68 0 -113 44.5t-45 114.5q0 25 6 51q14 57 63 91q53 37 181 73q69 20 69 70q0 11 -3 24q-6 27 -33 44t-66 17q-55 0 -113 -36q-14 -9 -30 -23zM345 334q-31 -24 -90.5 -45t-82 -46t-25.5 -68q-1 -19 2 -36q6 -31 29 -49.5t54 -18.5q26 0 52 14
q61 33 61 109v140zM477 354h249q0 65 -27 112q-32 58 -93 58q-103 1 -127 -145q-2 -12 -2 -25z" />
    <glyph glyph-name="ccedilla" unicode="&#xe7;" horiz-adv-x="472" 
d="M457 556v-89q-55 55 -128 55q-49 0 -87.5 -30t-55.5 -84q-18 -57 -18 -126t21 -131q16 -47 52 -73.5t82 -26.5q75 0 134 59v-84q-69 -39 -159 -39q-119 0 -192 75t-73 202q0 50 12 104q22 101 92.5 157t177.5 56q74 0 142 -25zM211 -194l45 163h93l-80 -163h-58z" />
    <glyph glyph-name="egrave" unicode="&#xe8;" horiz-adv-x="578" 
d="M550 297h-385v-20q1 -113 46.5 -171.5t124.5 -58.5q100 0 169 66l18 -78q-89 -48 -203 -48q-137 0 -212.5 80t-72.5 221q3 114 53 188t132 95q46 12 88 12q107 0 172.5 -72t69.5 -197v-17zM168 354h249q0 15 -6 50q-4 24 -15 50q-30 70 -101 70q-42 0 -73 -31
q-54 -54 -54 -139zM165 784h100l70 -151h-54z" />
    <glyph glyph-name="eacute" unicode="&#xe9;" horiz-adv-x="578" 
d="M550 297h-385v-20q1 -113 46.5 -171.5t124.5 -58.5q100 0 169 66l18 -78q-89 -48 -203 -48q-137 0 -212.5 80t-72.5 221q3 114 53 188t132 95q46 12 88 12q107 0 172.5 -72t69.5 -197v-17zM168 354h249q0 15 -6 50q-4 24 -15 50q-30 70 -101 70q-42 0 -73 -31
q-54 -54 -54 -139zM270 634l74 152h99l-117 -152h-56z" />
    <glyph glyph-name="ecircumflex" unicode="&#xea;" horiz-adv-x="578" 
d="M550 297h-385v-20q1 -113 46.5 -171.5t124.5 -58.5q100 0 169 66l18 -78q-89 -48 -203 -48q-137 0 -212.5 80t-72.5 221q3 114 53 188t132 95q46 12 88 12q107 0 172.5 -72t69.5 -197v-17zM168 354h249q0 15 -6 50q-4 24 -15 50q-30 70 -101 70q-42 0 -73 -31
q-54 -54 -54 -139zM146 626l127 155h73l121 -155h-86l-72 113l-77 -113h-86z" />
    <glyph glyph-name="edieresis" unicode="&#xeb;" horiz-adv-x="578" 
d="M550 297h-385v-20q1 -113 46.5 -171.5t124.5 -58.5q100 0 169 66l18 -78q-89 -48 -203 -48q-137 0 -212.5 80t-72.5 221q3 114 53 188t132 95q46 12 88 12q107 0 172.5 -72t69.5 -197v-17zM168 354h249q0 15 -6 50q-4 24 -15 50q-30 70 -101 70q-42 0 -73 -31
q-54 -54 -54 -139zM113 667q1 46 71 47q37 0 54.5 -12t17.5 -35q0 -24 -17.5 -36.5t-60.5 -12.5q-67 0 -65 49zM323 667q0 23 17.5 35t54.5 12q72 -1 72 -48q0 -35 -36 -43q-19 -4 -36 -4q-71 1 -72 48z" />
    <glyph glyph-name="igrave" unicode="&#xec;" horiz-adv-x="230" 
d="M47 0l2 3l1 4q2 5 2 25v504q0 18 -2 24l-1 3l-2 4h136l-2 -3l-1 -4q-2 -8 -2 -24v-504q0 -17 2 -25l1 -4l1 -3h-135zM-28 769h100l70 -151h-54z" />
    <glyph glyph-name="iacute" unicode="&#xed;" horiz-adv-x="230" 
d="M47 0l2 3l1 4q2 5 2 25v504q0 18 -2 24l-1 3l-2 4h136l-2 -3l-1 -4q-2 -8 -2 -24v-504q0 -17 2 -25l1 -4l1 -3h-135zM89 618l74 152h99l-117 -152h-56z" />
    <glyph glyph-name="icircumflex" unicode="&#xee;" horiz-adv-x="230" 
d="M47 0l2 3l1 4q2 5 2 25v504q0 18 -2 24l-1 3l-2 4h136l-2 -3l-1 -4q-2 -8 -2 -24v-504q0 -17 2 -25l1 -4l1 -3h-135zM-45 612l127 155h73l121 -155h-86l-72 113l-77 -113h-86z" />
    <glyph glyph-name="idieresis" unicode="&#xef;" horiz-adv-x="230" 
d="M47 0l2 3l1 4q2 5 2 25v504q0 18 -2 24l-1 3l-2 4h136l-2 -3l-1 -4q-2 -8 -2 -24v-504q0 -17 2 -25l1 -4l1 -3h-135zM-61 667q1 46 71 47q37 0 54.5 -12t17.5 -35q0 -24 -17.5 -36.5t-60.5 -12.5q-67 0 -65 49zM149 667q0 23 17.5 35t54.5 12q72 -1 72 -48q0 -35 -36 -43
q-19 -4 -36 -4q-71 1 -72 48z" />
    <glyph glyph-name="ntilde" unicode="&#xf1;" horiz-adv-x="589" 
d="M55 0l2 4l1 3q2 10 2 25v504q0 13 -2 25l-1 3l-1 4h126v-77q41 72 134 86q22 3 42 3q77 0 123.5 -44t46.5 -115v-389q0 -14 3 -25l2 -3l1 -4h-135l1 4l1 3q2 10 2 25v362q0 45 -26 71.5t-70 26.5q-18 0 -37 -4q-63 -14 -81 -83q-4 -15 -4 -28v-345q0 -17 3 -25l1 -4l1 -3
h-135zM142 675l12 4l13 4q36 11 121 4q7 0 24 -2l53 -7q5 -1 18 -1q39 -1 61 14l2 -63q-8 -4 -19 -7q-27 -8 -77 -3l-11 1l-45 7q-6 1 -19 2q-67 6 -105 -6q-14 -4 -26 -11z" />
    <glyph glyph-name="ograve" unicode="&#xf2;" horiz-adv-x="598" 
d="M35 285q0 138 73 218q71 77 191 77q95 0 161.5 -50t89.5 -140q15 -59 15 -115q0 -128 -75 -206.5t-191 -78.5q-119 0 -191.5 79t-72.5 216zM168 285q0 -21 3 -47q23 -196 123 -196q20 0 42 8q72 25 92 188q6 47 0 94q-13 106 -46 153q-30 42 -83 42q-105 0 -128 -194
q-3 -26 -3 -48zM159 781h100l70 -151h-54z" />
    <glyph glyph-name="oacute" unicode="&#xf3;" horiz-adv-x="598" 
d="M35 285q0 138 73 218q71 77 191 77q95 0 161.5 -50t89.5 -140q15 -59 15 -115q0 -128 -75 -206.5t-191 -78.5q-119 0 -191.5 79t-72.5 216zM168 285q0 -21 3 -47q23 -196 123 -196q20 0 42 8q72 25 92 188q6 47 0 94q-13 106 -46 153q-30 42 -83 42q-105 0 -128 -194
q-3 -26 -3 -48zM275 630l74 152h99l-117 -152h-56z" />
    <glyph glyph-name="ocircumflex" unicode="&#xf4;" horiz-adv-x="598" 
d="M35 285q0 138 73 218q71 77 191 77q95 0 161.5 -50t89.5 -140q15 -59 15 -115q0 -128 -75 -206.5t-191 -78.5q-119 0 -191.5 79t-72.5 216zM168 285q0 -21 3 -47q23 -196 123 -196q20 0 42 8q72 25 92 188q6 47 0 94q-13 106 -46 153q-30 42 -83 42q-105 0 -128 -194
q-3 -26 -3 -48zM143 623l127 155h73l121 -155h-86l-72 113l-77 -113h-86z" />
    <glyph glyph-name="otilde" unicode="&#xf5;" horiz-adv-x="598" 
d="M35 285q0 138 73 218q71 77 191 77q95 0 161.5 -50t89.5 -140q15 -59 15 -115q0 -128 -75 -206.5t-191 -78.5q-119 0 -191.5 79t-72.5 216zM168 285q0 -21 3 -47q23 -196 123 -196q20 0 42 8q72 25 92 188q6 47 0 94q-13 106 -46 153q-30 42 -83 42q-105 0 -128 -194
q-3 -26 -3 -48zM166 680l12 4l13 4q36 11 121 4q7 0 24 -2l53 -7q5 -1 18 -1q39 -1 61 14l2 -63q-8 -4 -19 -7q-27 -8 -77 -3l-11 1l-45 7q-6 1 -19 2q-67 6 -105 -6q-14 -4 -26 -11z" />
    <glyph glyph-name="odieresis" unicode="&#xf6;" horiz-adv-x="598" 
d="M35 285q0 138 73 218q71 77 191 77q95 0 161.5 -50t89.5 -140q15 -59 15 -115q0 -128 -75 -206.5t-191 -78.5q-119 0 -191.5 79t-72.5 216zM168 285q0 -21 3 -47q23 -196 123 -196q20 0 42 8q72 25 92 188q6 47 0 94q-13 106 -46 153q-30 42 -83 42q-105 0 -128 -194
q-3 -26 -3 -48zM121 668q0 49 72 49q20 0 36 -4q36 -9 36 -45q0 -52 -68 -52q-18 0 -38 5q-38 9 -38 47zM333 667q-1 51 65 51q40 0 60 -14q17 -12 17 -36q0 -28 -22 -41q-18 -10 -49 -10q-70 0 -71 50z" />
    <glyph glyph-name="oslash" unicode="&#xf8;" horiz-adv-x="602" 
d="M35 26l59 62q-59 73 -59 197q0 136 72 216t188 80q32 0 65 -6q66 -13 120 -60l54 60l33 -29l-58 -63l7 -11l5 -11q22 -48 30 -82q13 -55 13 -106q0 -128 -74.5 -205.5t-190.5 -77.5q-108 0 -176 64l-54 -61zM196 136q5 -40 34 -66t69 -26q106 0 129 190q9 74 -13 149z
M402 435q-19 46 -58 71q-24 15 -52 15q-69 0 -99 -74q-23 -56 -23 -133q0 -68 15 -124z" />
    <glyph glyph-name="ugrave" unicode="&#xf9;" horiz-adv-x="588" 
d="M55 567h134l-1 -4l-1 -3q-2 -10 -2 -24v-344q0 -54 26 -86t70 -32q18 0 38 6q84 24 84 124v331q0 16 -3 25v3l-2 4h134l-2 -5v-2q-2 -10 -2 -25v-503q0 -13 2 -25l1 -3l2 -4h-126v76q-27 -43 -74.5 -66.5t-99.5 -23.5q-68 0 -115 37q-50 40 -57 106q-1 15 -1 34v372
q0 16 -3 25l-1 3zM156 769h100l70 -151h-54z" />
    <glyph glyph-name="uacute" unicode="&#xfa;" horiz-adv-x="588" 
d="M55 567h134l-1 -4l-1 -3q-2 -10 -2 -24v-344q0 -54 26 -86t70 -32q18 0 38 6q84 24 84 124v331q0 16 -3 25v3l-2 4h134l-2 -5v-2q-2 -10 -2 -25v-503q0 -13 2 -25l1 -3l2 -4h-126v76q-27 -43 -74.5 -66.5t-99.5 -23.5q-68 0 -115 37q-50 40 -57 106q-1 15 -1 34v372
q0 16 -3 25l-1 3zM259 618l74 152h99l-117 -152h-56z" />
    <glyph glyph-name="ucircumflex" unicode="&#xfb;" horiz-adv-x="588" 
d="M55 567h134l-1 -4l-1 -3q-2 -10 -2 -24v-344q0 -54 26 -86t70 -32q18 0 38 6q84 24 84 124v331q0 16 -3 25v3l-2 4h134l-2 -5v-2q-2 -10 -2 -25v-503q0 -13 2 -25l1 -3l2 -4h-126v76q-27 -43 -74.5 -66.5t-99.5 -23.5q-68 0 -115 37q-50 40 -57 106q-1 15 -1 34v372
q0 16 -3 25l-1 3zM134 612l127 155h73l121 -155h-86l-72 113l-77 -113h-86z" />
    <glyph glyph-name="udieresis" unicode="&#xfc;" horiz-adv-x="588" 
d="M55 567h134l-1 -4l-1 -3q-2 -10 -2 -24v-344q0 -54 26 -86t70 -32q18 0 38 6q84 24 84 124v331q0 16 -3 25v3l-2 4h134l-2 -5v-2q-2 -10 -2 -25v-503q0 -13 2 -25l1 -3l2 -4h-126v76q-27 -43 -74.5 -66.5t-99.5 -23.5q-68 0 -115 37q-50 40 -57 106q-1 15 -1 34v372
q0 16 -3 25l-1 3zM117 667q1 51 67 51q18 0 39 -5q10 -3 18 -9q19 -13 19 -37q0 -25 -19 -38q-8 -6 -18 -9q-24 -5 -43 -5q-64 0 -63 52zM326 667q0 37 37 46q20 5 38 5q69 0 69 -54q0 -35 -36 -44q-18 -4 -36 -4q-72 1 -72 51z" />
    <glyph glyph-name="yacute" unicode="&#xfd;" horiz-adv-x="458" 
d="M-26 568h144v-7q2 -9 7 -25l126 -364l147 364q7 16 8 25v3l1 4h77l-4 -4l-2 -3q-4 -7 -12 -25l-277 -670q-8 -20 -8 -25v-7l-5 -1h-70l-5 1l4 4l2 3q7 10 13 24l61 135l-191 536q-4 10 -11 25l-2 3zM222 619l74 152h99l-117 -152h-56z" />
    <glyph glyph-name="ydieresis" unicode="&#xff;" horiz-adv-x="458" 
d="M-26 568h144v-7q2 -9 7 -25l126 -364l147 364q7 16 8 25v3l1 4h77l-4 -4l-2 -3q-4 -7 -12 -25l-277 -670q-8 -20 -8 -25v-7l-5 -1h-70l-5 1l4 4l2 3q7 10 13 24l61 135l-191 536q-4 10 -11 25l-2 3zM53 667q1 46 71 47q37 0 54.5 -12t17.5 -35q0 -24 -17.5 -36.5
t-60.5 -12.5q-67 0 -65 49zM263 667q0 23 17.5 35t54.5 12q72 -1 72 -48q0 -35 -36 -43q-19 -4 -36 -4q-71 1 -72 48z" />
    <glyph glyph-name="glyph271" unicode="&#x102;" 
d="M-26 0l3 4l3 3q5 9 11 25l233 656q6 17 6 24v3l-1 4h118v-7q1 -5 8 -24l239 -656q6 -15 12 -25l2 -3l3 -4h-156v7q0 5 -7 25l-66 188h-260l-67 -188q-7 -20 -7 -25v-3l1 -4h-75zM143 279h218l-110 311zM146 911h80q-11 -32 9.5 -59t53.5 -27q34 0 54 27t10 59h80
q-2 -59 -43.5 -100t-100.5 -41t-100.5 41.5t-42.5 99.5z" />
    <glyph glyph-name="glyph272" unicode="&#x103;" horiz-adv-x="533" 
d="M100 456l-20 78q25 11 40 17q94 35 169 35q86 0 135 -46q44 -42 44 -110v-296q0 -6 2 -30q3 -34 29 -34q9 0 25 8l13 9v-67q-4 -3 -16 -10q-38 -22 -75 -22q-39 0 -67 21q-33 24 -29 61q-33 -39 -77 -61t-90 -22q-68 0 -113 45.5t-45 115.5q0 126 144 180q19 7 99 30
q41 12 56 26.5t18 44.5q4 42 -27 66q-27 21 -70 21q-68 0 -145 -60zM343 336q-16 -13 -27 -18q-107 -41 -139.5 -71t-31.5 -81q0 -9 2 -23q17 -73 84 -73q26 0 52 14q60 33 60 110v142zM139 777h80q-11 -32 9.5 -59t53.5 -27q34 0 54 27t10 59h80q-2 -59 -43.5 -100
t-100.5 -41t-100.5 41.5t-42.5 99.5z" />
    <glyph glyph-name="Cacute" unicode="&#x106;" horiz-adv-x="711" 
d="M581 698v-104q-73 73 -172 73q-70 0 -126 -41.5t-79.5 -112t-23.5 -152.5q0 -88 28 -160q26 -68 83 -107q54 -38 120 -38q76 0 141 50q13 10 30 27v-101q-60 -30 -126 -38q-36 -4 -69 -4q-163 0 -258.5 96t-95.5 265q0 55 11 116q22 120 116.5 192.5t241.5 72.5
q101 0 179 -34zM220 867l74 152h99l-117 -152h-56z" />
    <glyph glyph-name="cacute" unicode="&#x107;" horiz-adv-x="441" 
d="M457 556v-89q-55 55 -128 55q-49 0 -87.5 -30t-55.5 -84q-18 -57 -18 -126t21 -131q16 -47 52 -73.5t82 -26.5q75 0 134 59v-84q-69 -39 -159 -39q-119 0 -192 75t-73 202q0 50 12 104q22 101 92.5 157t177.5 56q74 0 142 -25zM21 612l74 152h99l-117 -152h-56z" />
    <glyph glyph-name="Ccaron" unicode="&#x10c;" horiz-adv-x="711" 
d="M581 698v-104q-73 73 -172 73q-70 0 -126 -41.5t-79.5 -112t-23.5 -152.5q0 -88 28 -160q26 -68 83 -107q54 -38 120 -38q76 0 141 50q13 10 30 27v-101q-60 -30 -126 -38q-36 -4 -69 -4q-163 0 -258.5 96t-95.5 265q0 55 11 116q22 120 116.5 192.5t241.5 72.5
q101 0 179 -34zM177 1016h86l77 -110l72 110h86l-121 -149h-73z" />
    <glyph glyph-name="ccaron" unicode="&#x10d;" horiz-adv-x="441" 
d="M457 556v-89q-55 55 -128 55q-49 0 -87.5 -30t-55.5 -84q-18 -57 -18 -126t21 -131q16 -47 52 -73.5t82 -26.5q75 0 134 59v-84q-69 -39 -159 -39q-119 0 -192 75t-73 202q0 50 12 104q22 101 92.5 157t177.5 56q74 0 142 -25zM-22 761h86l77 -110l72 110h86l-121 -149
h-73z" />
    <glyph glyph-name="Dslash" unicode="&#x110;" horiz-adv-x="695" 
d="M201 421h145v-114h-145v-239h83q109 0 168 72q63 75 64 221q1 138 -66 217q-65 76 -178 76h-71v-233zM0 307v114h65v267q0 21 -2 25l-1 2l-1 5h238q165 0 264.5 -94.5t99.5 -250.5q0 -67 -20 -140q-29 -107 -115 -171t-205 -64h-263l2 4l1 3q2 10 2 25v275h-65z" />
    <glyph glyph-name="dcroat" unicode="&#x111;" horiz-adv-x="582" 
d="M166 285q-1 -113 25 -161q31 -58 92 -58q38 0 68 28q45 42 48 115q1 38 1 70q0 134 -27 186q-25 49 -85 49q-108 1 -121 -193q-1 -17 -1 -36zM266 636v64l131 12v16q0 14 -2 24l-1 3l-2 4h135l-1 -3l-1 -4q-2 -4 -2 -24v-4l59 6v-94h-59v-604q0 -20 2 -25v-3l2 -4h-128
v76q-48 -84 -155 -86q-92 -2 -149 67q-62 74 -62 207q0 50 9 107q28 171 148 201q35 9 66 9q94 0 141 -68v123h-131z" />
    <glyph glyph-name="Gbreve" unicode="&#x11e;" horiz-adv-x="767" 
d="M611 691v-97q-16 13 -38 26q-79 46 -156 46q-90 0 -153.5 -61t-78.5 -165q-8 -53 -8 -100q0 -138 62 -214q58 -72 155 -72q62 0 108 27v282q0 14 -2 24l-1 3l-2 4h140l-2 -4l-1 -3q-2 -10 -2 -24v-270q0 -36 7 -54q-19 -8 -47 -16q-105 -31 -199 -31q-165 0 -263 93
t-98 254q0 54 12 112q26 131 120 204.5t240 73.5q112 0 207 -38zM197 1007h80q-11 -32 9.5 -59t53.5 -27q34 0 54 27t10 59h80q-2 -59 -43.5 -100t-100.5 -41t-100.5 41.5t-42.5 99.5z" />
    <glyph glyph-name="gbreve" unicode="&#x11f;" horiz-adv-x="492" 
d="M341 578q54 32 52 95h114q-9 -61 -57 -98q-15 -12 -26 -16q7 -4 20 -11q84 -54 103 -151q7 -36 7 -68q0 -112 -83 -179q-77 -63 -192 -63q-11 0 -27 -9l-96 -55q55 16 91 22q70 11 138 6q90 -6 139 -34.5t49 -80.5q0 -38 -29 -64q-44 -39 -150 -51q-28 -3 -61 -3
q-144 0 -273 48l1 20q62 -19 128 -26q90 -9 145 2q31 6 49 17q30 17 30 41q0 16 -15 29q-39 33 -136 35q-55 1 -118 -14q-44 -10 -81 -27l-27 92l117 84q-119 54 -118 215q1 120 74.5 184.5t210.5 60.5q7 0 21 -1zM169 332q1 -88 33 -134.5t84 -46.5q23 0 49 9q83 30 83 165
q0 26 -4 54q-18 138 -118 138q-19 0 -40 -6q-89 -26 -87 -179zM-3 752h80q-11 -32 9.5 -59t53.5 -27q34 0 54 27t10 59h80q-2 -59 -43.5 -100t-100.5 -41t-100.5 41.5t-42.5 99.5z" />
    <glyph glyph-name="glyph273" unicode="&#x128;" horiz-adv-x="266" 
d="M60 719h146l-2 -4l-1 -3q-3 -9 -3 -24v-656q0 -19 3 -25l1 -4l1 -3h-144l1 4l1 3q3 9 3 25v656q0 15 -3 24l-1 3zM-15 829l12 4l13 4q36 11 121 4q7 0 24 -2l53 -7q5 -1 18 -1q39 -1 61 14l2 -63q-8 -4 -19 -7q-27 -8 -77 -3l-11 1l-45 7q-6 1 -19 2q-67 6 -105 -6
q-14 -4 -26 -11z" />
    <glyph glyph-name="glyph274" unicode="&#x129;" horiz-adv-x="245" 
d="M55 0l1 3l2 4q2 10 2 25v504q0 14 -2 24l-1 3l-2 4h136l-2 -4l-1 -3q-2 -6 -2 -24v-504q0 -19 2 -25l1 -3l1 -4h-135zM-29 679l12 4l13 4q36 11 121 4q7 0 24 -2l53 -7q5 -1 18 -1q39 -1 61 14l2 -63q-8 -4 -19 -7q-27 -8 -77 -3l-11 1l-45 7q-6 1 -19 2q-67 6 -105 -6
q-14 -4 -26 -11z" />
    <glyph glyph-name="Idotaccent" unicode="&#x130;" horiz-adv-x="429" 
d="M60 719h146l-2 -4l-1 -3q-3 -9 -3 -24v-656q0 -19 3 -25l1 -4l1 -3h-144l1 4l1 3q3 9 3 25v656q0 15 -3 24l-1 3z" />
    <glyph glyph-name="dotlessi" unicode="&#x131;" horiz-adv-x="230" 
d="M47 0l2 3l1 4q2 5 2 25v504q0 18 -2 24l-1 3l-2 4h136l-2 -3l-1 -4q-2 -8 -2 -24v-504q0 -17 2 -25l1 -4l1 -3h-135z" />
    <glyph glyph-name="OE" unicode="&#x152;" horiz-adv-x="945" 
d="M561 720h348v-64l-9 2l-6 1q-6 1 -31 1h-198v-265h200q27 0 32 1l5 1l6 3v-65l-7 1l-6 1q-6 1 -30 1h-201v-273h203q8 0 17 1h11l5 2l8 1v-69h-366q-13 0 -59 -4q-34 -3 -66 -3q-181 0 -281.5 89.5t-100.5 247.5q0 60 15 128q62 271 373 271q31 0 64 -3zM529 561
q0 45 -34 75.5t-91 30.5q-33 0 -70 -11q-153 -45 -154 -295q-1 -258 151 -301q39 -11 73 -11q59 0 92 30t33 75v407z" />
    <glyph glyph-name="oe" unicode="&#x153;" horiz-adv-x="972" 
d="M499 486q66 92 197 94q111 1 179 -68t72 -196v-19h-384q-5 -37 5 -93q13 -75 57 -117.5t108 -42.5q90 0 169 66l17 -76q-65 -33 -132 -42q-38 -5 -72 -5q-151 0 -218 100q-69 -99 -196 -99q-63 0 -118 27q-149 73 -148 270q1 114 56 192q53 75 140 95q37 8 72 8
q128 0 196 -94zM169 285q0 -30 4 -66q20 -183 136 -175q52 3 80.5 44.5t38.5 140.5q6 60 1 114q-9 95 -44 142q-31 42 -86 42q-43 0 -72 -28q-58 -57 -58 -214zM564 354h249q0 53 -22 102q-30 66 -99 66q-43 0 -75 -32q-39 -40 -51 -114q-2 -12 -2 -22z" />
    <glyph glyph-name="Scedilla" unicode="&#x15e;" horiz-adv-x="656" 
d="M21 45l26 93q32 -35 79.5 -57t94.5 -22q59 0 95 34t35 87q-1 42 -24.5 67.5t-96.5 62.5l-33 15q-51 24 -88 49q-82 56 -82 155q0 93 75 153q64 50 169 50q92 0 173 -39l-24 -84q-74 59 -152 59q-51 0 -83 -29t-32 -74q0 -37 23.5 -60.5t96.5 -60.5q6 -3 29 -13
q179 -78 179 -213q0 -64 -35 -121q-66 -108 -216 -108q-114 0 -209 56zM76 -211l45 163h94l-80 -163h-59z" />
    <glyph glyph-name="scedilla" unicode="&#x15f;" horiz-adv-x="383" 
d="M17 37l21 83q10 -10 32 -25q65 -45 132 -45q43 0 71 22q33 24 33 65q0 25 -15 44.5t-106 59.5q-5 2 -17 7q-137 51 -137 159q0 30 12 63q19 50 69 80q54 32 128 32q69 0 171 -37l-20 -77q-9 7 -27 20q-56 35 -112 35q-40 0 -67 -19q-34 -24 -34 -62q0 -32 24 -51
q17 -14 97 -44q14 -5 34 -15q121 -59 121 -152q0 -27 -9 -61q-16 -60 -70 -95q-57 -36 -142 -36q-28 0 -59 4q-66 9 -130 45zM-21 -211l45 163h94l-80 -163h-59z" />
    <glyph glyph-name="ch903" unicode="&#x168;" horiz-adv-x="702" 
d="M60 720h146l-2 -4l-1 -3q-3 -9 -3 -25v-453q0 -81 48.5 -131t131.5 -50q28 0 58 6q144 29 144 184v444q0 15 -3 24l-1 3l-1 4l70 1l-1 -5l-2 -2q-2 -14 -2 -25v-443q0 -116 -73 -185q-77 -72 -211 -72q-34 0 -71 5q-103 14 -162.5 78t-59.5 157v460q0 19 -2 25l-1 2z
M245 827l12 4l13 4q36 11 121 4q7 0 24 -2l53 -7q5 -1 18 -1q39 -1 61 14l2 -63q-8 -4 -19 -7q-27 -8 -77 -3l-11 1l-45 7q-6 1 -19 2q-67 6 -105 -6q-14 -4 -26 -11z" />
    <glyph glyph-name="ch904" unicode="&#x169;" horiz-adv-x="588" 
d="M55 567h134l-1 -4l-1 -3q-2 -10 -2 -24v-344q0 -54 26 -86t70 -32q18 0 38 6q84 24 84 124v331q0 16 -3 25v3l-2 4h134l-2 -5v-2q-2 -10 -2 -25v-503q0 -13 2 -25l1 -3l2 -4h-126v76q-27 -43 -74.5 -66.5t-99.5 -23.5q-68 0 -115 37q-50 40 -57 106q-1 15 -1 34v372
q0 16 -3 25l-1 3zM137 681l12 4l13 4q36 11 121 4q7 0 24 -2l53 -7q5 -1 18 -1q39 -1 61 14l2 -63q-8 -4 -19 -7q-27 -8 -77 -3l-11 1l-45 7q-6 1 -19 2q-67 6 -105 -6q-14 -4 -26 -11z" />
    <glyph glyph-name="Ydieresis" unicode="&#x178;" horiz-adv-x="455" 
d="M-43 720h157l1 -5v-2q2 -10 9 -25l141 -292l146 292q9 17 10 24l1 3l1 4h75l-3 -4l-2 -3q-4 -6 -14 -24l-186 -373v-283q0 -19 2 -25l1 -3l2 -4h-145l2 3l1 4q2 8 2 25v281l-182 375q-7 15 -14 25l-2 3zM51 822q1 46 71 47q37 0 54.5 -12t17.5 -35q0 -24 -17.5 -36.5
t-60.5 -12.5q-67 0 -65 49zM261 822q0 23 17.5 35t54.5 12q72 -1 72 -48q0 -35 -36 -43q-19 -4 -36 -4q-71 1 -72 48z" />
    <glyph glyph-name="florin" unicode="&#x192;" horiz-adv-x="415" 
d="M-133 -156l30 65q36 -20 86 -20q76 0 84 73l59 548h-57l6 58l57 -1l8 75q14 130 188 130q72 0 137 -23l-30 -62q-37 21 -90 21q-70 0 -79 -74l-8 -66l161 -1l-9 -58l-157 1l-59 -555q-14 -132 -189 -132q-72 0 -138 21z" />
    <glyph glyph-name="glyph277" unicode="&#x1a0;" horiz-adv-x="787" 
d="M179 361q0 -153 57 -233q54 -77 152 -77q30 0 64 8q156 35 156 302q0 308 -215 308q-214 0 -214 -308zM638 653l30 83l101 -44l-65 -119q48 -86 48 -212q0 -178 -93.5 -274t-265.5 -96q-171 0 -264.5 96t-93.5 273q0 178 93.5 274t264.5 96q154 0 245 -77z" />
    <glyph glyph-name="glyph278" unicode="&#x1a1;" horiz-adv-x="598" 
d="M168 285q0 -21 3 -47q23 -196 123 -196q20 0 42 8q72 25 92 188q6 47 0 94q-13 106 -46 153q-30 42 -83 42q-105 0 -128 -194q-3 -26 -3 -48zM464 527l30 63l101 -44l-64 -103q34 -72 34 -168q0 -128 -75 -206.5t-191 -78.5q-119 0 -191.5 79t-72.5 216q0 138 73 218
q71 77 191 77q98 0 165 -53z" />
    <glyph glyph-name="glyph279" unicode="&#x1af;" horiz-adv-x="702" 
d="M612 720l27 52h91l-88 -133v-394q0 -116 -73 -185q-77 -72 -211 -72q-34 0 -71 5q-103 14 -162.5 78t-59.5 157v460q0 19 -2 25l-1 2l-2 5h146l-2 -4l-1 -3q-3 -9 -3 -25v-453q0 -81 48.5 -131t131.5 -50q28 0 58 6q144 29 144 184v444q0 15 -3 24l-1 3l-1 4z" />
    <glyph glyph-name="glyph280" unicode="&#x1b0;" horiz-adv-x="588" 
d="M469 567l18 44h123l-82 -107v-472q0 -13 2 -25l1 -3l2 -4h-126v76q-27 -43 -74.5 -66.5t-99.5 -23.5q-68 0 -115 37q-50 40 -57 106q-1 15 -1 34v372q0 16 -3 25l-1 3l-1 4h134l-1 -4l-1 -3q-2 -10 -2 -24v-344q0 -54 26 -86t70 -32q18 0 38 6q84 24 84 124v331
q0 16 -3 25v3l-2 4h71z" />
    <glyph glyph-name="circumflex" unicode="&#x2c6;" horiz-adv-x="321" 
d="M0 612l127 155h73l121 -155h-86l-72 113l-77 -113h-86z" />
    <glyph glyph-name="caron" unicode="&#x2c7;" horiz-adv-x="321" 
d="M0 761h86l77 -110l72 110h86l-121 -149h-73z" />
    <glyph glyph-name="breve" unicode="&#x2d8;" horiz-adv-x="288" 
d="M1 752h80q-11 -32 9.5 -59t53.5 -27q34 0 54 27t10 59h80q-2 -59 -43.5 -100t-100.5 -41t-100.5 41.5t-42.5 99.5z" />
    <glyph glyph-name="dotaccent" unicode="&#x2d9;" horiz-adv-x="1000" 
 />
    <glyph glyph-name="ring" unicode="&#x2da;" horiz-adv-x="232" 
d="M19 709q0 40 29 69t69 29t68 -28.5t28 -68.5q0 -41 -28.5 -69.5t-68.5 -28.5t-68.5 28.5t-28.5 68.5zM60 709q0 -23 16.5 -38.5t39.5 -15.5q22 0 39 16t17 38t-17 38t-39 16q-23 0 -39.5 -16t-16.5 -38z" />
    <glyph glyph-name="tilde" unicode="&#x2dc;" horiz-adv-x="304" 
d="M0 675l12 4l13 4q36 11 121 4q7 0 24 -2l53 -7q5 -1 18 -1q39 -1 61 14l2 -63q-8 -4 -19 -7q-27 -8 -77 -3l-11 1l-45 7q-6 1 -19 2q-67 6 -105 -6q-14 -4 -26 -11z" />
    <glyph glyph-name="glyph281" unicode="&#x1ea0;" 
d="M-26 0l3 4l3 3q5 9 11 25l233 656q6 17 6 24v3l-1 4h118v-7q1 -5 8 -24l239 -656q6 -15 12 -25l2 -3l3 -4h-156v7q0 5 -7 25l-66 188h-260l-67 -188q-7 -20 -7 -25v-3l1 -4h-75zM143 279h218l-110 311zM208 -119q0 30 20.5 49.5t53.5 19.5t53.5 -19.5t20.5 -49.5
t-20.5 -50t-51.5 -20q-16 0 -32 6q-44 15 -44 64z" />
    <glyph glyph-name="glyph282" unicode="&#x1ea1;" horiz-adv-x="533" 
d="M100 456l-20 78q25 11 40 17q94 35 169 35q86 0 135 -46q44 -42 44 -110v-296q0 -6 2 -30q3 -34 29 -34q9 0 25 8l13 9v-67q-4 -3 -16 -10q-38 -22 -75 -22q-39 0 -67 21q-33 24 -29 61q-33 -39 -77 -61t-90 -22q-68 0 -113 45.5t-45 115.5q0 126 144 180q19 7 99 30
q41 12 56 26.5t18 44.5q4 42 -27 66q-27 21 -70 21q-68 0 -145 -60zM343 336q-16 -13 -27 -18q-107 -41 -139.5 -71t-31.5 -81q0 -9 2 -23q17 -73 84 -73q26 0 52 14q60 33 60 110v142zM202 -130q0 30 20.5 49.5t53.5 19.5t53.5 -19.5t20.5 -49.5t-20.5 -50t-51.5 -20
q-16 0 -32 6q-44 15 -44 64z" />
    <glyph glyph-name="glyph283" unicode="&#x1ea2;" 
d="M-26 0l3 4l3 3q5 9 11 25l233 656q6 17 6 24v3l-1 4h118v-7q1 -5 8 -24l239 -656q6 -15 12 -25l2 -3l3 -4h-156v7q0 5 -7 25l-66 188h-260l-67 -188q-7 -20 -7 -25v-3l1 -4h-75zM143 279h218l-110 311zM269 853q9 14 25 40q22 37 21 41q-2 29 -33 29q-14 0 -34 -11.5
t-29 -23.5l-17 34q32 39 72 55q22 9 42 9q31 0 51 -20.5t24 -51.5q2 -21 -14 -50q-5 -9 -17 -21q-36 -35 -57 -61q-17 -20 -9 -52v0l-26 1q0 2 -4 16.5t-4 26.5q0 20 9 39z" />
    <glyph glyph-name="glyph284" unicode="&#x1ea3;" horiz-adv-x="533" 
d="M100 456l-20 78q25 11 40 17q94 35 169 35q86 0 135 -46q44 -42 44 -110v-296q0 -6 2 -30q3 -34 29 -34q9 0 25 8l13 9v-67q-4 -3 -16 -10q-38 -22 -75 -22q-39 0 -67 21q-33 24 -29 61q-33 -40 -77 -61.5t-90 -21.5q-68 0 -113 45.5t-45 115.5q0 126 144 180q19 7 99 30
q41 12 56 26.5t18 44.5q4 42 -27 66q-27 21 -70 21q-68 0 -145 -60zM343 336q-16 -13 -27 -18q-107 -41 -139.5 -71t-31.5 -81q0 -9 2 -23q17 -73 84 -73q26 0 52 14q60 33 60 110v142zM274 720q9 14 25 40q22 37 21 41q-2 29 -33 29q-14 0 -34 -11.5t-29 -23.5l-17 34
q32 39 72 55q22 9 42 9q31 0 51 -20.5t24 -51.5q2 -21 -14 -50q-5 -9 -17 -21q-36 -35 -57 -61q-17 -20 -9 -52v0l-26 1q0 2 -4 16.5t-4 26.5q0 20 9 39z" />
    <glyph glyph-name="glyph285" unicode="&#x1ea4;" 
d="M-26 0l3 4l3 3q5 9 11 25l233 656q6 17 6 24v3l-1 4h118v-7q1 -5 8 -24l239 -656q6 -15 12 -25l2 -3l3 -4h-156v7q0 5 -7 25l-66 188h-260l-67 -188q-7 -20 -7 -25v-3l1 -4h-75zM143 279h218l-110 311zM128 770l127 155h73l121 -155h-86l-72 113l-77 -113h-86zM354 925
l74 152h99l-117 -152h-56z" />
    <glyph glyph-name="glyph286" unicode="&#x1ea5;" horiz-adv-x="533" 
d="M100 456l-20 78q25 11 40 17q94 35 169 35q86 0 135 -46q44 -42 44 -110v-296q0 -6 2 -30q3 -34 29 -34q9 0 25 8l13 9v-67q-4 -3 -16 -10q-38 -22 -75 -22q-39 0 -67 21q-33 24 -29 61q-33 -39 -77 -61t-90 -22q-68 0 -113 45.5t-45 115.5q0 126 144 180q19 7 99 30
q41 12 56 26.5t18 44.5q4 42 -27 66q-27 21 -70 21q-68 0 -145 -60zM343 336q-16 -13 -27 -18q-107 -41 -139.5 -71t-31.5 -81q0 -9 2 -23q17 -73 84 -73q26 0 52 14q60 33 60 110v142zM117 626l127 155h73l121 -155h-86l-72 113l-77 -113h-86zM347 781l74 152h99l-117 -152
h-56z" />
    <glyph glyph-name="glyph287" unicode="&#x1ea6;" 
d="M-26 0l3 4l3 3q5 9 11 25l233 656q6 17 6 24v3l-1 4h118v-7q1 -5 8 -24l239 -656q6 -15 12 -25l2 -3l3 -4h-156v7q0 5 -7 25l-66 188h-260l-67 -188q-7 -20 -7 -25v-3l1 -4h-75zM143 279h218l-110 311zM128 770l127 155h73l121 -155h-86l-72 113l-77 -113h-86zM45 1076
h100l70 -151h-54z" />
    <glyph glyph-name="glyph288" unicode="&#x1ea7;" horiz-adv-x="533" 
d="M100 456l-20 78q25 11 40 17q94 35 169 35q86 0 135 -46q44 -42 44 -110v-296q0 -6 2 -30q3 -34 29 -34q9 0 25 8l13 9v-67q-4 -3 -16 -10q-38 -22 -75 -22q-39 0 -67 21q-33 24 -29 61q-33 -39 -77 -61t-90 -22q-68 0 -113 45.5t-45 115.5q0 126 144 180q19 7 99 30
q41 12 56 26.5t18 44.5q4 42 -27 66q-27 21 -70 21q-68 0 -145 -60zM343 336q-16 -13 -27 -18q-107 -41 -139.5 -71t-31.5 -81q0 -9 2 -23q17 -73 84 -73q26 0 52 14q60 33 60 110v142zM117 626l127 155h73l121 -155h-86l-72 113l-77 -113h-86zM43 932h100l70 -151h-54z" />
    <glyph glyph-name="glyph289" unicode="&#x1ea8;" 
d="M-26 0l3 4l3 3q5 9 11 25l233 656q6 17 6 24v3l-1 4h118v-7q1 -5 8 -24l239 -656q6 -15 12 -25l2 -3l3 -4h-156v7q0 5 -7 25l-66 188h-260l-67 -188q-7 -20 -7 -25v-3l1 -4h-75zM143 279h218l-110 311zM128 770l127 155h73l121 -155h-86l-72 113l-77 -113h-86zM414 930
q9 14 25 40q22 37 21 41q-2 29 -33 29q-14 0 -34 -11.5t-29 -23.5l-17 34q32 39 72 55q22 9 42 9q31 0 51 -20.5t24 -51.5q2 -21 -14 -50q-5 -9 -17 -21q-36 -35 -57 -61q-17 -20 -9 -52v0l-26 1q0 2 -4 16.5t-4 26.5q0 20 9 39z" />
    <glyph glyph-name="glyph290" unicode="&#x1ea9;" horiz-adv-x="533" 
d="M100 456l-20 78q25 11 40 17q94 35 169 35q86 0 135 -46q44 -42 44 -110v-296q0 -6 2 -30q3 -34 29 -34q9 0 25 8l13 9v-67q-4 -3 -16 -10q-38 -22 -75 -22q-39 0 -67 21q-33 24 -29 61q-33 -39 -77 -61t-90 -22q-68 0 -113 45.5t-45 115.5q0 126 144 180q19 7 99 30
q41 12 56 26.5t18 44.5q4 42 -27 66q-27 21 -70 21q-68 0 -145 -60zM343 336q-16 -13 -27 -18q-107 -41 -139.5 -71t-31.5 -81q0 -9 2 -23q17 -73 84 -73q26 0 52 14q60 33 60 110v142zM117 626l127 155h73l121 -155h-86l-72 113l-77 -113h-86zM399 783q9 14 25 40
q22 37 21 41q-2 29 -33 29q-14 0 -34 -11.5t-29 -23.5l-17 34q32 39 72 55q22 9 42 9q31 0 51 -20.5t24 -51.5q2 -21 -14 -50q-5 -9 -17 -21q-36 -35 -57 -61q-17 -20 -9 -52v0l-26 1q0 2 -4 16.5t-4 26.5q0 20 9 39z" />
    <glyph glyph-name="glyph291" unicode="&#x1eaa;" 
d="M-26 0l3 4l3 3q5 9 11 25l233 656q6 17 6 24v3l-1 4h118v-7q1 -5 8 -24l239 -656q6 -15 12 -25l2 -3l3 -4h-156v7q0 5 -7 25l-66 188h-260l-67 -188q-7 -20 -7 -25v-3l1 -4h-75zM143 279h218l-110 311zM128 770l127 155h73l121 -155h-86l-72 113l-77 -113h-86zM147 995
l12 4l13 4q36 11 121 4q7 0 24 -2l53 -7q5 -1 18 -1q39 -1 61 14l2 -63q-8 -4 -19 -7q-27 -8 -77 -3l-11 1l-45 7q-6 1 -19 2q-67 6 -105 -6q-14 -4 -26 -11z" />
    <glyph glyph-name="glyph292" unicode="&#x1eab;" horiz-adv-x="533" 
d="M100 456l-20 78q25 11 40 17q94 35 169 35q86 0 135 -46q44 -42 44 -110v-296q0 -6 2 -30q3 -34 29 -34q9 0 25 8l13 9v-67q-4 -3 -16 -10q-38 -22 -75 -22q-39 0 -67 21q-33 24 -29 61q-33 -39 -77 -61t-90 -22q-68 0 -113 45.5t-45 115.5q0 126 144 180q19 7 99 30
q41 12 56 26.5t18 44.5q4 42 -27 66q-27 21 -70 21q-68 0 -145 -60zM343 336q-16 -13 -27 -18q-107 -41 -139.5 -71t-31.5 -81q0 -9 2 -23q17 -73 84 -73q26 0 52 14q60 33 60 110v142zM117 626l127 155h73l121 -155h-86l-72 113l-77 -113h-86zM129 848l12 4l13 4
q36 11 121 4q7 0 24 -2l53 -7q5 -1 18 -1q39 -1 61 14l2 -63q-8 -4 -19 -7q-27 -8 -77 -3l-11 1l-45 7q-6 1 -19 2q-67 6 -105 -6q-14 -4 -26 -11z" />
    <glyph glyph-name="glyph293" unicode="&#x1eac;" 
d="M-26 0l3 4l3 3q5 9 11 25l233 656q6 17 6 24v3l-1 4h118v-7q1 -5 8 -24l239 -656q6 -15 12 -25l2 -3l3 -4h-156v7q0 5 -7 25l-66 188h-260l-67 -188q-7 -20 -7 -25v-3l1 -4h-75zM143 279h218l-110 311zM128 770l127 155h73l121 -155h-86l-72 113l-77 -113h-86zM222 -119
q0 30 20.5 49.5t53.5 19.5t53.5 -19.5t20.5 -49.5t-20.5 -50t-51.5 -20q-16 0 -32 6q-44 15 -44 64z" />
    <glyph glyph-name="glyph294" unicode="&#x1ead;" horiz-adv-x="533" 
d="M100 456l-20 78q25 11 40 17q94 35 169 35q86 0 135 -46q44 -42 44 -110v-296q0 -6 2 -30q3 -34 29 -34q9 0 25 8l13 9v-67q-4 -3 -16 -10q-38 -22 -75 -22q-39 0 -67 21q-33 24 -29 61q-33 -39 -77 -61t-90 -22q-68 0 -113 45.5t-45 115.5q0 126 144 180q19 7 99 30
q41 12 56 26.5t18 44.5q4 42 -27 66q-27 21 -70 21q-68 0 -145 -60zM343 336q-16 -13 -27 -18q-107 -41 -139.5 -71t-31.5 -81q0 -9 2 -23q17 -73 84 -73q26 0 52 14q60 33 60 110v142zM117 626l127 155h73l121 -155h-86l-72 113l-77 -113h-86zM202 -130q0 30 20.5 49.5
t53.5 19.5t53.5 -19.5t20.5 -49.5t-20.5 -50t-51.5 -20q-16 0 -32 6q-44 15 -44 64z" />
    <glyph glyph-name="glyph295" unicode="&#x1eae;" 
d="M-26 0l3 4l3 3q5 9 11 25l233 656q6 17 6 24v3l-1 4h118v-7q1 -5 8 -24l239 -656q6 -15 12 -25l2 -3l3 -4h-156v7q0 5 -7 25l-66 188h-260l-67 -188q-7 -20 -7 -25v-3l1 -4h-75zM143 279h218l-110 311zM146 911h80q-11 -32 9.5 -59t53.5 -27q34 0 54 27t10 59h80
q-2 -59 -43.5 -100t-100.5 -41t-100.5 41.5t-42.5 99.5zM262 884l74 152h99l-117 -152h-56z" />
    <glyph glyph-name="glyph296" unicode="&#x1eaf;" horiz-adv-x="533" 
d="M100 456l-20 78q25 11 40 17q94 35 169 35q86 0 135 -46q44 -42 44 -110v-296q0 -6 2 -30q3 -34 29 -34q9 0 25 8l13 9v-67q-4 -3 -16 -10q-38 -22 -75 -22q-39 0 -67 21q-33 24 -29 61q-33 -40 -77 -61.5t-90 -21.5q-68 0 -113 45.5t-45 115.5q0 126 144 180q19 7 99 30
q41 12 56 26.5t18 44.5q4 42 -27 66q-27 21 -70 21q-68 0 -145 -60zM343 336q-16 -13 -27 -18q-107 -41 -139.5 -71t-31.5 -81q0 -9 2 -23q17 -73 84 -73q26 0 52 14q60 33 60 110v142zM139 777h80q-11 -32 9.5 -59t53.5 -27q34 0 54 27t10 59h80q-2 -59 -43.5 -100
t-100.5 -41t-100.5 41.5t-42.5 99.5zM252 745l74 152h99l-117 -152h-56z" />
    <glyph glyph-name="glyph297" unicode="&#x1eb0;" 
d="M-26 0l3 4l3 3q5 9 11 25l233 656q6 17 6 24v3l-1 4h118v-7q1 -5 8 -24l239 -656q6 -15 12 -25l2 -3l3 -4h-156v7q0 5 -7 25l-66 188h-260l-67 -188q-7 -20 -7 -25v-3l1 -4h-75zM143 279h218l-110 311zM146 911h80q-11 -32 9.5 -59t53.5 -27q34 0 54 27t10 59h80
q-2 -59 -43.5 -100t-100.5 -41t-100.5 41.5t-42.5 99.5zM147 1032h100l70 -151h-54z" />
    <glyph glyph-name="glyph298" unicode="&#x1eb1;" horiz-adv-x="533" 
d="M100 456l-20 78q25 11 40 17q94 35 169 35q86 0 135 -46q44 -42 44 -110v-296q0 -6 2 -30q3 -34 29 -34q9 0 25 8l13 9v-67q-4 -3 -16 -10q-38 -22 -75 -22q-39 0 -67 21q-33 24 -29 61q-33 -40 -77 -61.5t-90 -21.5q-68 0 -113 45.5t-45 115.5q0 126 144 180q19 7 99 30
q41 12 56 26.5t18 44.5q4 42 -27 66q-27 21 -70 21q-68 0 -145 -60zM343 336q-16 -13 -27 -18q-107 -41 -139.5 -71t-31.5 -81q0 -9 2 -23q17 -73 84 -73q26 0 52 14q60 33 60 110v142zM139 777h80q-11 -32 9.5 -59t53.5 -27q34 0 54 27t10 59h80q-2 -59 -43.5 -100
t-100.5 -41t-100.5 41.5t-42.5 99.5zM139 902h100l70 -151h-54z" />
    <glyph glyph-name="glyph299" unicode="&#x1eb2;" 
d="M-26 0l3 4l3 3q5 9 11 25l233 656q6 17 6 24v3l-1 4h118v-7q1 -5 8 -24l239 -656q6 -15 12 -25l2 -3l3 -4h-156v7q0 5 -7 25l-66 188h-260l-67 -188q-7 -20 -7 -25v-3l1 -4h-75zM143 279h218l-110 311zM146 911h80q-11 -32 9.5 -59t53.5 -27q34 0 54 27t10 59h80
q-2 -59 -43.5 -100t-100.5 -41t-100.5 41.5t-42.5 99.5zM276 935q9 14 25 40q22 37 21 41q-2 29 -33 29q-14 0 -34 -11.5t-29 -23.5l-17 34q32 39 72 55q22 9 42 9q31 0 51 -20.5t24 -51.5q2 -21 -14 -50q-5 -9 -17 -21q-36 -35 -57 -61q-17 -20 -9 -52v0l-26 1q0 2 -4 16.5
t-4 26.5q0 20 9 39z" />
    <glyph glyph-name="glyph300" unicode="&#x1eb3;" horiz-adv-x="533" 
d="M100 456l-20 78q25 11 40 17q94 35 169 35q86 0 135 -46q44 -42 44 -110v-296q0 -6 2 -30q3 -34 29 -34q9 0 25 8l13 9v-67q-4 -3 -16 -10q-38 -22 -75 -22q-39 0 -67 21q-33 24 -29 61q-33 -40 -77 -61.5t-90 -21.5q-68 0 -113 45.5t-45 115.5q0 126 144 180q19 7 99 30
q41 12 56 26.5t18 44.5q4 42 -27 66q-27 21 -70 21q-68 0 -145 -60zM343 336q-16 -13 -27 -18q-107 -41 -139.5 -71t-31.5 -81q0 -9 2 -23q17 -73 84 -73q26 0 52 14q60 33 60 110v142zM139 777h80q-11 -32 9.5 -59t53.5 -27q34 0 54 27t10 59h80q-2 -59 -43.5 -100
t-100.5 -41t-100.5 41.5t-42.5 99.5zM265 803q9 14 25 40q22 37 21 41q-2 29 -33 29q-14 0 -34 -11.5t-29 -23.5l-17 34q32 39 72 55q22 9 42 9q31 0 51 -20.5t24 -51.5q2 -21 -14 -50q-5 -9 -17 -21q-36 -35 -57 -61q-17 -20 -9 -52v0l-26 1q0 2 -4 16.5t-4 26.5q0 20 9 39
z" />
    <glyph glyph-name="glyph301" unicode="&#x1eb4;" 
d="M-26 0l3 4l3 3q5 9 11 25l233 656q6 17 6 24v3l-1 4h118v-7q1 -5 8 -24l239 -656q6 -15 12 -25l2 -3l3 -4h-156v7q0 5 -7 25l-66 188h-260l-67 -188q-7 -20 -7 -25v-3l1 -4h-75zM143 279h218l-110 311zM146 911h80q-11 -32 9.5 -59t53.5 -27q34 0 54 27t10 59h80
q-2 -59 -43.5 -100t-100.5 -41t-100.5 41.5t-42.5 99.5zM136 987l12 4l13 4q36 11 121 4q7 0 24 -2l53 -7q5 -1 18 -1q39 -1 61 14l2 -63q-8 -4 -19 -7q-27 -8 -77 -3l-11 1l-45 7q-6 1 -19 2q-67 6 -105 -6q-14 -4 -26 -11z" />
    <glyph glyph-name="glyph302" unicode="&#x1eb5;" horiz-adv-x="533" 
d="M100 456l-20 78q25 11 40 17q94 35 169 35q86 0 135 -46q44 -42 44 -110v-296q0 -6 2 -30q3 -34 29 -34q9 0 25 8l13 9v-67q-4 -3 -16 -10q-38 -22 -75 -22q-39 0 -67 21q-33 24 -29 61q-33 -40 -77 -61.5t-90 -21.5q-68 0 -113 45.5t-45 115.5q0 126 144 180q19 7 99 30
q41 12 56 26.5t18 44.5q4 42 -27 66q-27 21 -70 21q-68 0 -145 -60zM343 336q-16 -13 -27 -18q-107 -41 -139.5 -71t-31.5 -81q0 -9 2 -23q17 -73 84 -73q26 0 52 14q60 33 60 110v142zM139 777h80q-11 -32 9.5 -59t53.5 -27q34 0 54 27t10 59h80q-2 -59 -43.5 -100
t-100.5 -41t-100.5 41.5t-42.5 99.5zM129 848l12 4l13 4q36 11 121 4q7 0 24 -2l53 -7q5 -1 18 -1q39 -1 61 14l2 -63q-8 -4 -19 -7q-27 -8 -77 -3l-11 1l-45 7q-6 1 -19 2q-67 6 -105 -6q-14 -4 -26 -11z" />
    <glyph glyph-name="glyph303" unicode="&#x1eb6;" 
d="M-26 0l3 4l3 3q5 9 11 25l233 656q6 17 6 24v3l-1 4h118v-7q1 -5 8 -24l239 -656q6 -15 12 -25l2 -3l3 -4h-156v7q0 5 -7 25l-66 188h-260l-67 -188q-7 -20 -7 -25v-3l1 -4h-75zM143 279h218l-110 311zM146 911h80q-11 -32 9.5 -59t53.5 -27q34 0 54 27t10 59h80
q-2 -59 -43.5 -100t-100.5 -41t-100.5 41.5t-42.5 99.5zM208 -119q0 30 20.5 49.5t53.5 19.5t53.5 -19.5t20.5 -49.5t-20.5 -50t-51.5 -20q-16 0 -32 6q-44 15 -44 64z" />
    <glyph glyph-name="glyph304" unicode="&#x1eb7;" horiz-adv-x="533" 
d="M100 456l-20 78q25 11 40 17q94 35 169 35q86 0 135 -46q44 -42 44 -110v-296q0 -6 2 -30q3 -34 29 -34q9 0 25 8l13 9v-67q-4 -3 -16 -10q-38 -22 -75 -22q-39 0 -67 21q-33 24 -29 61q-33 -40 -77 -61.5t-90 -21.5q-68 0 -113 45.5t-45 115.5q0 126 144 180q19 7 99 30
q41 12 56 26.5t18 44.5q4 42 -27 66q-27 21 -70 21q-68 0 -145 -60zM343 336q-16 -13 -27 -18q-107 -41 -139.5 -71t-31.5 -81q0 -9 2 -23q17 -73 84 -73q26 0 52 14q60 33 60 110v142zM139 777h80q-11 -32 9.5 -59t53.5 -27q34 0 54 27t10 59h80q-2 -59 -43.5 -100
t-100.5 -41t-100.5 41.5t-42.5 99.5zM202 -130q0 30 20.5 49.5t53.5 19.5t53.5 -19.5t20.5 -49.5t-20.5 -50t-51.5 -20q-16 0 -32 6q-44 15 -44 64z" />
    <glyph glyph-name="glyph305" unicode="&#x1eb8;" horiz-adv-x="481" 
d="M60 0l2 3l1 4q2 5 2 25l1 656q0 19 -3 25l-1 2l-2 5h385l-1 -64l-6 1l-7 1q-14 2 -28 2h-202v-266h203q15 0 27 2l6 1l7 1v-64l-7 2l-6 1q-12 2 -27 2h-203v-274h201q23 0 29 1l6 1l7 2v-69h-384zM179 -119q0 30 20.5 49.5t53.5 19.5t53.5 -19.5t20.5 -49.5t-20.5 -50
t-51.5 -20q-16 0 -32 6q-44 15 -44 64z" />
    <glyph glyph-name="glyph306" unicode="&#x1eb9;" horiz-adv-x="578" 
d="M550 297h-385v-20q1 -113 46.5 -171.5t124.5 -58.5q100 0 169 66l18 -78q-89 -48 -203 -48q-137 0 -212.5 80t-72.5 221q3 114 53 188t132 95q46 12 88 12q107 0 172.5 -72t69.5 -197v-17zM168 354h249q0 15 -6 50q-4 24 -15 50q-30 70 -101 70q-42 0 -73 -31
q-54 -54 -54 -139zM227 -132q0 30 20.5 49.5t53.5 19.5t53.5 -19.5t20.5 -49.5t-20.5 -50t-51.5 -20q-16 0 -32 6q-44 15 -44 64z" />
    <glyph glyph-name="glyph307" unicode="&#x1eba;" horiz-adv-x="481" 
d="M60 0l2 3l1 4q2 5 2 25l1 656q0 19 -3 25l-1 2l-2 5h385l-1 -64l-6 1l-7 1q-14 2 -28 2h-202v-266h203q15 0 27 2l6 1l7 1v-64l-7 2l-6 1q-12 2 -27 2h-203v-274h201q23 0 29 1l6 1l7 2v-69h-384zM254 853q9 14 25 40q22 37 21 41q-2 29 -33 29q-14 0 -34 -11.5
t-29 -23.5l-17 34q32 39 72 55q22 9 42 9q31 0 51 -20.5t24 -51.5q2 -21 -14 -50q-5 -9 -17 -21q-36 -35 -57 -61q-17 -20 -9 -52v0l-26 1q0 2 -4 16.5t-4 26.5q0 20 9 39z" />
    <glyph glyph-name="glyph308" unicode="&#x1ebb;" horiz-adv-x="578" 
d="M550 297h-385v-20q1 -113 46.5 -171.5t124.5 -58.5q100 0 169 66l18 -78q-89 -48 -203 -48q-137 0 -212.5 80t-72.5 221q3 114 53 188t132 95q46 12 88 12q107 0 172.5 -72t69.5 -197v-17zM168 354h249q0 15 -6 50q-4 24 -15 50q-30 70 -101 70q-42 0 -73 -31
q-54 -54 -54 -139zM283 715q9 14 25 40q22 37 21 41q-2 29 -33 29q-14 0 -34 -11.5t-29 -23.5l-17 34q32 39 72 55q22 9 42 9q31 0 51 -20.5t24 -51.5q2 -21 -14 -50q-5 -9 -17 -21q-36 -35 -57 -61q-17 -20 -9 -52v0l-26 1q0 2 -4 16.5t-4 26.5q0 20 9 39z" />
    <glyph glyph-name="glyph309" unicode="&#x1ebc;" horiz-adv-x="481" 
d="M60 0l2 3l1 4q2 5 2 25l1 656q0 19 -3 25l-1 2l-2 5h385l-1 -64l-6 1l-7 1q-14 2 -28 2h-202v-266h203q15 0 27 2l6 1l7 1v-64l-7 2l-6 1q-12 2 -27 2h-203v-274h201q23 0 29 1l6 1l7 2v-69h-384zM99 833l12 4l13 4q36 11 121 4q7 0 24 -2l53 -7q5 -1 18 -1q39 -1 61 14
l2 -63q-8 -4 -19 -7q-27 -8 -77 -3l-11 1l-45 7q-6 1 -19 2q-67 6 -105 -6q-14 -4 -26 -11z" />
    <glyph glyph-name="glyph310" unicode="&#x1ebd;" horiz-adv-x="578" 
d="M550 297h-385v-20q1 -113 46.5 -171.5t124.5 -58.5q100 0 169 66l18 -78q-89 -48 -203 -48q-137 0 -212.5 80t-72.5 221q3 114 53 188t132 95q46 12 88 12q107 0 172.5 -72t69.5 -197v-17zM168 354h249q0 15 -6 50q-4 24 -15 50q-30 70 -101 70q-42 0 -73 -31
q-54 -54 -54 -139zM149 688l12 4l13 4q36 11 121 4q7 0 24 -2l53 -7q5 -1 18 -1q39 -1 61 14l2 -63q-8 -4 -19 -7q-27 -8 -77 -3l-11 1l-45 7q-6 1 -19 2q-67 6 -105 -6q-14 -4 -26 -11z" />
    <glyph glyph-name="glyph311" unicode="&#x1ebe;" horiz-adv-x="481" 
d="M60 0l2 3l1 4q2 5 2 25l1 656q0 19 -3 25l-1 2l-2 5h385l-1 -64l-6 1l-7 1q-14 2 -28 2h-202v-266h203q15 0 27 2l6 1l7 1v-64l-7 2l-6 1q-12 2 -27 2h-203v-274h201q23 0 29 1l6 1l7 2v-69h-384zM97 770l127 155h73l121 -155h-86l-72 113l-77 -113h-86zM328 924l74 152
h99l-117 -152h-56z" />
    <glyph glyph-name="glyph312" unicode="&#x1ebf;" horiz-adv-x="578" 
d="M550 297h-385v-20q1 -113 46.5 -171.5t124.5 -58.5q100 0 169 66l18 -78q-89 -48 -203 -48q-137 0 -212.5 80t-72.5 221q3 114 53 188t132 95q46 12 88 12q107 0 172.5 -72t69.5 -197v-17zM168 354h249q0 15 -6 50q-4 24 -15 50q-30 70 -101 70q-42 0 -73 -31
q-54 -54 -54 -139zM146 626l127 155h73l121 -155h-86l-72 113l-77 -113h-86zM381 781l74 152h99l-117 -152h-56z" />
    <glyph glyph-name="glyph313" unicode="&#x1ec0;" horiz-adv-x="481" 
d="M60 0l2 3l1 4q2 5 2 25l1 656q0 19 -3 25l-1 2l-2 5h385l-1 -64l-6 1l-7 1q-14 2 -28 2h-202v-266h203q15 0 27 2l6 1l7 1v-64l-7 2l-6 1q-12 2 -27 2h-203v-274h201q23 0 29 1l6 1l7 2v-69h-384zM97 770l127 155h73l121 -155h-86l-72 113l-77 -113h-86zM19 1077h100
l70 -151h-54z" />
    <glyph glyph-name="glyph314" unicode="&#x1ec1;" horiz-adv-x="578" 
d="M550 297h-385v-20q1 -113 46.5 -171.5t124.5 -58.5q100 0 169 66l18 -78q-89 -48 -203 -48q-137 0 -212.5 80t-72.5 221q3 114 53 188t132 95q46 12 88 12q107 0 172.5 -72t69.5 -197v-17zM168 354h249q0 15 -6 50q-4 24 -15 50q-30 70 -101 70q-42 0 -73 -31
q-54 -54 -54 -139zM146 626l127 155h73l121 -155h-86l-72 113l-77 -113h-86zM75 932h100l70 -151h-54z" />
    <glyph glyph-name="glyph315" unicode="&#x1ec2;" horiz-adv-x="481" 
d="M60 0l2 3l1 4q2 5 2 25l1 656q0 19 -3 25l-1 2l-2 5h385l-1 -64l-6 1l-7 1q-14 2 -28 2h-202v-266h203q15 0 27 2l6 1l7 1v-64l-7 2l-6 1q-12 2 -27 2h-203v-274h201q23 0 29 1l6 1l7 2v-69h-384zM97 770l127 155h73l121 -155h-86l-72 113l-77 -113h-86zM376 928
q9 14 25 40q22 37 21 41q-2 29 -33 29q-14 0 -34 -11.5t-29 -23.5l-17 34q32 39 72 55q22 9 42 9q31 0 51 -20.5t24 -51.5q2 -21 -14 -50q-5 -9 -17 -21q-36 -35 -57 -61q-17 -20 -9 -52v0l-26 1q0 2 -4 16.5t-4 26.5q0 20 9 39z" />
    <glyph glyph-name="glyph316" unicode="&#x1ec3;" horiz-adv-x="578" 
d="M550 297h-385v-20q1 -113 46.5 -171.5t124.5 -58.5q100 0 169 66l18 -78q-89 -48 -203 -48q-137 0 -212.5 80t-72.5 221q3 114 53 188t132 95q46 12 88 12q107 0 172.5 -72t69.5 -197v-17zM168 354h249q0 15 -6 50q-4 24 -15 50q-30 70 -101 70q-42 0 -73 -31
q-54 -54 -54 -139zM146 626l127 155h73l121 -155h-86l-72 113l-77 -113h-86zM430 781q9 14 25 40q22 37 21 41q-2 29 -33 29q-14 0 -34 -11.5t-29 -23.5l-17 34q32 39 72 55q22 9 42 9q31 0 51 -20.5t24 -51.5q2 -21 -14 -50q-5 -9 -17 -21q-36 -35 -57 -61q-17 -20 -9 -52
v0l-26 1q0 2 -4 16.5t-4 26.5q0 20 9 39z" />
    <glyph glyph-name="glyph317" unicode="&#x1ec4;" horiz-adv-x="481" 
d="M60 0l2 3l1 4q2 5 2 25l1 656q0 19 -3 25l-1 2l-2 5h385l-1 -64l-6 1l-7 1q-14 2 -28 2h-202v-266h203q15 0 27 2l6 1l7 1v-64l-7 2l-6 1q-12 2 -27 2h-203v-274h201q23 0 29 1l6 1l7 2v-69h-384zM97 770l127 155h73l121 -155h-86l-72 113l-77 -113h-86zM105 992l12 4
l13 4q36 11 121 4q7 0 24 -2l53 -7q5 -1 18 -1q39 -1 61 14l2 -63q-8 -4 -19 -7q-27 -8 -77 -3l-11 1l-45 7q-6 1 -19 2q-67 6 -105 -6q-14 -4 -26 -11z" />
    <glyph glyph-name="glyph318" unicode="&#x1ec5;" horiz-adv-x="578" 
d="M550 297h-385v-20q1 -113 46.5 -171.5t124.5 -58.5q100 0 169 66l18 -78q-89 -48 -203 -48q-137 0 -212.5 80t-72.5 221q3 114 53 188t132 95q46 12 88 12q107 0 172.5 -72t69.5 -197v-17zM168 354h249q0 15 -6 50q-4 24 -15 50q-30 70 -101 70q-42 0 -73 -31
q-54 -54 -54 -139zM146 626l127 155h73l121 -155h-86l-72 113l-77 -113h-86zM152 848l12 4l13 4q36 11 121 4q7 0 24 -2l53 -7q5 -1 18 -1q39 -1 61 14l2 -63q-8 -4 -19 -7q-27 -8 -77 -3l-11 1l-45 7q-6 1 -19 2q-67 6 -105 -6q-14 -4 -26 -11z" />
    <glyph glyph-name="glyph319" unicode="&#x1ec6;" horiz-adv-x="481" 
d="M60 0l2 3l1 4q2 5 2 25l1 656q0 19 -3 25l-1 2l-2 5h385l-1 -64l-6 1l-7 1q-14 2 -28 2h-202v-266h203q15 0 27 2l6 1l7 1v-64l-7 2l-6 1q-12 2 -27 2h-203v-274h201q23 0 29 1l6 1l7 2v-69h-384zM97 770l127 155h73l121 -155h-86l-72 113l-77 -113h-86zM179 -119
q0 30 20.5 49.5t53.5 19.5t53.5 -19.5t20.5 -49.5t-20.5 -50t-51.5 -20q-16 0 -32 6q-44 15 -44 64z" />
    <glyph glyph-name="glyph320" unicode="&#x1ec7;" horiz-adv-x="578" 
d="M550 297h-385v-20q1 -113 46.5 -171.5t124.5 -58.5q100 0 169 66l18 -78q-89 -48 -203 -48q-137 0 -212.5 80t-72.5 221q3 114 53 188t132 95q46 12 88 12q107 0 172.5 -72t69.5 -197v-17zM168 354h249q0 15 -6 50q-4 24 -15 50q-30 70 -101 70q-42 0 -73 -31
q-54 -54 -54 -139zM146 626l127 155h73l121 -155h-86l-72 113l-77 -113h-86zM227 -132q0 30 20.5 49.5t53.5 19.5t53.5 -19.5t20.5 -49.5t-20.5 -50t-51.5 -20q-16 0 -32 6q-44 15 -44 64z" />
    <glyph glyph-name="glyph321" unicode="&#x1ec8;" horiz-adv-x="266" 
d="M60 719h146l-2 -4l-1 -3q-3 -9 -3 -24v-656q0 -19 3 -25l1 -4l1 -3h-144l1 4l1 3q3 9 3 25v656q0 15 -3 24l-1 3zM115 853q9 14 25 40q22 37 21 41q-2 29 -33 29q-14 0 -34 -11.5t-29 -23.5l-17 34q32 39 72 55q22 9 42 9q31 0 51 -20.5t24 -51.5q2 -21 -14 -50
q-5 -9 -17 -21q-36 -35 -57 -61q-17 -20 -9 -52v0l-26 1q0 2 -4 16.5t-4 26.5q0 20 9 39z" />
    <glyph glyph-name="glyph322" unicode="&#x1ec9;" horiz-adv-x="245" 
d="M55 0l1 3l2 4q2 10 2 25v504q0 14 -2 24l-1 3l-2 4h136l-2 -4l-1 -3q-2 -6 -2 -24v-504q0 -19 2 -25l1 -3l1 -4h-135zM100 701q9 14 25 40q22 37 21 41q-2 29 -33 29q-14 0 -34 -11.5t-29 -23.5l-17 34q32 39 72 55q22 9 42 9q31 0 51 -20.5t24 -51.5q2 -21 -14 -50
q-5 -9 -17 -21q-36 -35 -57 -61q-17 -20 -9 -52v0l-26 1q0 2 -4 16.5t-4 26.5q0 20 9 39z" />
    <glyph glyph-name="glyph323" unicode="&#x1eca;" horiz-adv-x="266" 
d="M60 719h146l-2 -4l-1 -3q-3 -9 -3 -24v-656q0 -19 3 -25l1 -4l1 -3h-144l1 4l1 3q3 9 3 25v656q0 15 -3 24l-1 3zM60 -119q0 30 20.5 49.5t53.5 19.5t53.5 -19.5t20.5 -49.5t-20.5 -50t-51.5 -20q-16 0 -32 6q-44 15 -44 64z" />
    <glyph glyph-name="glyph324" unicode="&#x1ecb;" horiz-adv-x="245" 
d="M47 668q0 39 42 47q21 4 39 4q70 0 70 -51q0 -50 -76 -50q-75 0 -75 50zM55 0l1 3l2 4q2 10 2 25v504q0 14 -2 24l-1 3l-2 4h136l-2 -4l-1 -3q-2 -6 -2 -24v-504q0 -19 2 -25l1 -3l1 -4h-135zM52 -119q0 30 20.5 49.5t53.5 19.5t53.5 -19.5t20.5 -49.5t-20.5 -50
t-51.5 -20q-16 0 -32 6q-44 15 -44 64z" />
    <glyph glyph-name="glyph325" unicode="&#x1ecc;" horiz-adv-x="787" 
d="M35 360q0 178 93.5 274t264.5 96q172 0 265.5 -96t93.5 -273q0 -178 -93.5 -274t-265.5 -96q-171 0 -264.5 96t-93.5 273zM179 361q0 -153 57 -233q54 -77 152 -77q30 0 64 8q156 35 156 302q0 308 -215 308q-214 0 -214 -308zM319 -128q0 30 20.5 49.5t53.5 19.5
t53.5 -19.5t20.5 -49.5t-20.5 -50t-51.5 -20q-16 0 -32 6q-44 15 -44 64z" />
    <glyph glyph-name="glyph326" unicode="&#x1ecd;" horiz-adv-x="598" 
d="M35 285q0 138 73 218q71 77 191 77q95 0 161.5 -50t89.5 -140q15 -59 15 -115q0 -128 -75 -206.5t-191 -78.5q-119 0 -191.5 79t-72.5 216zM168 285q0 -21 3 -47q23 -196 123 -196q20 0 42 8q72 25 92 188q6 47 0 94q-13 106 -46 153q-30 42 -83 42q-105 0 -128 -194
q-3 -26 -3 -48zM225 -129q0 30 20.5 49.5t53.5 19.5t53.5 -19.5t20.5 -49.5t-20.5 -50t-51.5 -20q-16 0 -32 6q-44 15 -44 64z" />
    <glyph glyph-name="glyph327" unicode="&#x1ece;" horiz-adv-x="787" 
d="M35 360q0 178 93.5 274t264.5 96q172 0 265.5 -96t93.5 -273q0 -178 -93.5 -274t-265.5 -96q-171 0 -264.5 96t-93.5 273zM179 361q0 -153 57 -233q54 -77 152 -77q30 0 64 8q156 35 156 302q0 308 -215 308q-214 0 -214 -308zM368 863q9 14 25 40q22 37 21 41
q-2 29 -33 29q-14 0 -34 -11.5t-29 -23.5l-17 34q32 39 72 55q22 9 42 9q31 0 51 -20.5t24 -51.5q2 -21 -14 -50q-5 -9 -17 -21q-36 -35 -57 -61q-17 -20 -9 -52v0l-26 1q0 2 -4 16.5t-4 26.5q0 20 9 39z" />
    <glyph glyph-name="glyph328" unicode="&#x1ecf;" horiz-adv-x="598" 
d="M35 285q0 138 73 218q71 77 191 77q95 0 161.5 -50t89.5 -140q15 -59 15 -115q0 -128 -75 -206.5t-191 -78.5q-119 0 -191.5 79t-72.5 216zM168 285q0 -21 3 -47q23 -196 123 -196q20 0 42 8q72 25 92 188q6 47 0 94q-13 106 -46 153q-30 42 -83 42q-105 0 -128 -194
q-3 -26 -3 -48zM283 713q9 14 25 40q22 37 21 41q-2 29 -33 29q-14 0 -34 -11.5t-29 -23.5l-17 34q32 39 72 55q22 9 42 9q31 0 51 -20.5t24 -51.5q2 -21 -14 -50q-5 -9 -17 -21q-36 -35 -57 -61q-17 -20 -9 -52v0l-26 1q0 2 -4 16.5t-4 26.5q0 20 9 39z" />
    <glyph glyph-name="glyph329" unicode="&#x1ed0;" horiz-adv-x="787" 
d="M35 360q0 178 93.5 274t264.5 96q172 0 265.5 -96t93.5 -273q0 -178 -93.5 -274t-265.5 -96q-171 0 -264.5 96t-93.5 273zM179 361q0 -153 57 -233q54 -77 152 -77q30 0 64 8q156 35 156 302q0 308 -215 308q-214 0 -214 -308zM237 775l127 155h73l121 -155h-86l-72 113
l-77 -113h-86zM479 929l74 152h99l-117 -152h-56z" />
    <glyph glyph-name="glyph330" unicode="&#x1ed1;" horiz-adv-x="598" 
d="M35 285q0 138 73 218q71 77 191 77q95 0 161.5 -50t89.5 -140q15 -59 15 -115q0 -128 -75 -206.5t-191 -78.5q-119 0 -191.5 79t-72.5 216zM168 285q0 -21 3 -47q23 -196 123 -196q20 0 42 8q72 25 92 188q6 47 0 94q-13 106 -46 153q-30 42 -83 42q-105 0 -128 -194
q-3 -26 -3 -48zM143 623l127 155h73l121 -155h-86l-72 113l-77 -113h-86zM367 775l74 152h99l-117 -152h-56z" />
    <glyph glyph-name="glyph331" unicode="&#x1ed2;" horiz-adv-x="787" 
d="M35 360q0 178 93.5 274t264.5 96q172 0 265.5 -96t93.5 -273q0 -178 -93.5 -274t-265.5 -96q-171 0 -264.5 96t-93.5 273zM179 361q0 -153 57 -233q54 -77 152 -77q30 0 64 8q156 35 156 302q0 308 -215 308q-214 0 -214 -308zM237 775l127 155h73l121 -155h-86l-72 113
l-77 -113h-86zM152 1080h100l70 -151h-54z" />
    <glyph glyph-name="glyph332" unicode="&#x1ed3;" horiz-adv-x="598" 
d="M35 285q0 138 73 218q71 77 191 77q95 0 161.5 -50t89.5 -140q15 -59 15 -115q0 -128 -75 -206.5t-191 -78.5q-119 0 -191.5 79t-72.5 216zM168 285q0 -21 3 -47q23 -196 123 -196q20 0 42 8q72 25 92 188q6 47 0 94q-13 106 -46 153q-30 42 -83 42q-105 0 -128 -194
q-3 -26 -3 -48zM143 623l127 155h73l121 -155h-86l-72 113l-77 -113h-86zM68 928h100l70 -151h-54z" />
    <glyph glyph-name="glyph333" unicode="&#x1ed4;" horiz-adv-x="787" 
d="M35 360q0 178 93.5 274t264.5 96q172 0 265.5 -96t93.5 -273q0 -178 -93.5 -274t-265.5 -96q-171 0 -264.5 96t-93.5 273zM179 361q0 -153 57 -233q54 -77 152 -77q30 0 64 8q156 35 156 302q0 308 -215 308q-214 0 -214 -308zM237 775l127 155h73l121 -155h-86l-72 113
l-77 -113h-86zM512 939q9 14 25 40q22 37 21 41q-2 29 -33 29q-14 0 -34 -11.5t-29 -23.5l-17 34q32 39 72 55q22 9 42 9q31 0 51 -20.5t24 -51.5q2 -21 -14 -50q-5 -9 -17 -21q-36 -35 -57 -61q-17 -20 -9 -52v0l-26 1q0 2 -4 16.5t-4 26.5q0 20 9 39z" />
    <glyph glyph-name="glyph334" unicode="&#x1ed5;" horiz-adv-x="598" 
d="M35 285q0 138 73 218q71 77 191 77q95 0 161.5 -50t89.5 -140q15 -59 15 -115q0 -128 -75 -206.5t-191 -78.5q-119 0 -191.5 79t-72.5 216zM168 285q0 -21 3 -47q23 -196 123 -196q20 0 42 8q72 25 92 188q6 47 0 94q-13 106 -46 153q-30 42 -83 42q-105 0 -128 -194
q-3 -26 -3 -48zM143 623l127 155h73l121 -155h-86l-72 113l-77 -113h-86zM417 785q9 14 25 40q22 37 21 41q-2 29 -33 29q-14 0 -34 -11.5t-29 -23.5l-17 34q32 39 72 55q22 9 42 9q31 0 51 -20.5t24 -51.5q2 -21 -14 -50q-5 -9 -17 -21q-36 -35 -57 -61q-17 -20 -9 -52v0
l-26 1q0 2 -4 16.5t-4 26.5q0 20 9 39z" />
    <glyph glyph-name="glyph335" unicode="&#x1ed6;" horiz-adv-x="787" 
d="M35 360q0 178 93.5 274t264.5 96q172 0 265.5 -96t93.5 -273q0 -178 -93.5 -274t-265.5 -96q-171 0 -264.5 96t-93.5 273zM179 361q0 -153 57 -233q54 -77 152 -77q30 0 64 8q156 35 156 302q0 308 -215 308q-214 0 -214 -308zM237 775l127 155h73l121 -155h-86l-72 113
l-77 -113h-86zM242 1008l12 4l13 4q36 11 121 4q7 0 24 -2l53 -7q5 -1 18 -1q39 -1 61 14l2 -63q-8 -4 -19 -7q-27 -8 -77 -3l-11 1l-45 7q-6 1 -19 2q-67 6 -105 -6q-14 -4 -26 -11z" />
    <glyph glyph-name="glyph336" unicode="&#x1ed7;" horiz-adv-x="598" 
d="M35 285q0 138 73 218q71 77 191 77q95 0 161.5 -50t89.5 -140q15 -59 15 -115q0 -128 -75 -206.5t-191 -78.5q-119 0 -191.5 79t-72.5 216zM168 285q0 -21 3 -47q23 -196 123 -196q20 0 42 8q72 25 92 188q6 47 0 94q-13 106 -46 153q-30 42 -83 42q-105 0 -128 -194
q-3 -26 -3 -48zM143 623l127 155h73l121 -155h-86l-72 113l-77 -113h-86zM151 848l12 4l13 4q36 11 121 4q7 0 24 -2l53 -7q5 -1 18 -1q39 -1 61 14l2 -63q-8 -4 -19 -7q-27 -8 -77 -3l-11 1l-45 7q-6 1 -19 2q-67 6 -105 -6q-14 -4 -26 -11z" />
    <glyph glyph-name="glyph337" unicode="&#x1ed8;" horiz-adv-x="787" 
d="M35 360q0 178 93.5 274t264.5 96q172 0 265.5 -96t93.5 -273q0 -178 -93.5 -274t-265.5 -96q-171 0 -264.5 96t-93.5 273zM179 361q0 -153 57 -233q54 -77 152 -77q30 0 64 8q156 35 156 302q0 308 -215 308q-214 0 -214 -308zM237 775l127 155h73l121 -155h-86l-72 113
l-77 -113h-86zM319 -128q0 30 20.5 49.5t53.5 19.5t53.5 -19.5t20.5 -49.5t-20.5 -50t-51.5 -20q-16 0 -32 6q-44 15 -44 64z" />
    <glyph glyph-name="glyph338" unicode="&#x1ed9;" horiz-adv-x="598" 
d="M35 285q0 138 73 218q71 77 191 77q95 0 161.5 -50t89.5 -140q15 -59 15 -115q0 -128 -75 -206.5t-191 -78.5q-119 0 -191.5 79t-72.5 216zM168 285q0 -21 3 -47q23 -196 123 -196q20 0 42 8q72 25 92 188q6 47 0 94q-13 106 -46 153q-30 42 -83 42q-105 0 -128 -194
q-3 -26 -3 -48zM143 623l127 155h73l121 -155h-86l-72 113l-77 -113h-86zM225 -129q0 30 20.5 49.5t53.5 19.5t53.5 -19.5t20.5 -49.5t-20.5 -50t-51.5 -20q-16 0 -32 6q-44 15 -44 64z" />
    <glyph glyph-name="glyph339" unicode="&#x1eda;" horiz-adv-x="787" 
d="M179 361q0 -153 57 -233q54 -77 152 -77q30 0 64 8q156 35 156 302q0 308 -215 308q-214 0 -214 -308zM638 653l30 83l101 -44l-65 -119q48 -86 48 -212q0 -178 -93.5 -274t-265.5 -96q-171 0 -264.5 96t-93.5 273q0 178 93.5 274t264.5 96q154 0 245 -77zM359 781
l74 152h99l-117 -152h-56z" />
    <glyph glyph-name="glyph340" unicode="&#x1edb;" horiz-adv-x="598" 
d="M168 285q0 -21 3 -47q23 -196 123 -196q20 0 42 8q72 25 92 188q6 47 0 94q-13 106 -46 153q-30 42 -83 42q-105 0 -128 -194q-3 -26 -3 -48zM464 527l30 63l101 -44l-64 -103q34 -72 34 -168q0 -128 -75 -206.5t-191 -78.5q-119 0 -191.5 79t-72.5 216q0 138 73 218
q71 77 191 77q98 0 165 -53zM275 630l74 152h99l-117 -152h-56z" />
    <glyph glyph-name="glyph341" unicode="&#x1edc;" horiz-adv-x="787" 
d="M179 361q0 -153 57 -233q54 -77 152 -77q30 0 64 8q156 35 156 302q0 308 -215 308q-214 0 -214 -308zM638 653l30 83l101 -44l-65 -119q48 -86 48 -212q0 -178 -93.5 -274t-265.5 -96q-171 0 -264.5 96t-93.5 273q0 178 93.5 274t264.5 96q154 0 245 -77zM252 932h100
l70 -151h-54z" />
    <glyph glyph-name="glyph342" unicode="&#x1edd;" horiz-adv-x="598" 
d="M168 285q0 -21 3 -47q23 -196 123 -196q20 0 42 8q72 25 92 188q6 47 0 94q-13 106 -46 153q-30 42 -83 42q-105 0 -128 -194q-3 -26 -3 -48zM464 527l30 63l101 -44l-64 -103q34 -72 34 -168q0 -128 -75 -206.5t-191 -78.5q-119 0 -191.5 79t-72.5 216q0 138 73 218
q71 77 191 77q98 0 165 -53zM159 781h100l70 -151h-54z" />
    <glyph glyph-name="glyph343" unicode="&#x1ede;" horiz-adv-x="787" 
d="M179 361q0 -153 57 -233q54 -77 152 -77q30 0 64 8q156 35 156 302q0 308 -215 308q-214 0 -214 -308zM638 653l30 83l101 -44l-65 -119q48 -86 48 -212q0 -178 -93.5 -274t-265.5 -96q-171 0 -264.5 96t-93.5 273q0 178 93.5 274t264.5 96q154 0 245 -77zM368 863
q9 14 25 40q22 37 21 41q-2 29 -33 29q-14 0 -34 -11.5t-29 -23.5l-17 34q32 39 72 55q22 9 42 9q31 0 51 -20.5t24 -51.5q2 -21 -14 -50q-5 -9 -17 -21q-36 -35 -57 -61q-17 -20 -9 -52v0l-26 1q0 2 -4 16.5t-4 26.5q0 20 9 39z" />
    <glyph glyph-name="glyph344" unicode="&#x1edf;" horiz-adv-x="598" 
d="M168 285q0 -21 3 -47q23 -196 123 -196q20 0 42 8q72 25 92 188q6 47 0 94q-13 106 -46 153q-30 42 -83 42q-105 0 -128 -194q-3 -26 -3 -48zM464 527l30 63l101 -44l-64 -103q34 -72 34 -168q0 -128 -75 -206.5t-191 -78.5q-119 0 -191.5 79t-72.5 216q0 138 73 218
q71 77 191 77q98 0 165 -53zM283 713q9 14 25 40q22 37 21 41q-2 29 -33 29q-14 0 -34 -11.5t-29 -23.5l-17 34q32 39 72 55q22 9 42 9q31 0 51 -20.5t24 -51.5q2 -21 -14 -50q-5 -9 -17 -21q-36 -35 -57 -61q-17 -20 -9 -52v0l-26 1q0 2 -4 16.5t-4 26.5q0 20 9 39z" />
    <glyph glyph-name="glyph345" unicode="&#x1ee0;" horiz-adv-x="787" 
d="M179 361q0 -153 57 -233q54 -77 152 -77q30 0 64 8q156 35 156 302q0 308 -215 308q-214 0 -214 -308zM638 653l30 83l101 -44l-65 -119q48 -86 48 -212q0 -178 -93.5 -274t-265.5 -96q-171 0 -264.5 96t-93.5 273q0 178 93.5 274t264.5 96q154 0 245 -77zM259 836l12 4
l13 4q36 11 121 4q7 0 24 -2l53 -7q5 -1 18 -1q39 -1 61 14l2 -63q-8 -4 -19 -7q-27 -8 -77 -3l-11 1l-45 7q-6 1 -19 2q-67 6 -105 -6q-14 -4 -26 -11z" />
    <glyph glyph-name="glyph346" unicode="&#x1ee1;" horiz-adv-x="598" 
d="M168 285q0 -21 3 -47q23 -196 123 -196q20 0 42 8q72 25 92 188q6 47 0 94q-13 106 -46 153q-30 42 -83 42q-105 0 -128 -194q-3 -26 -3 -48zM464 527l30 63l101 -44l-64 -103q34 -72 34 -168q0 -128 -75 -206.5t-191 -78.5q-119 0 -191.5 79t-72.5 216q0 138 73 218
q71 77 191 77q98 0 165 -53zM166 680l12 4l13 4q36 11 121 4q7 0 24 -2l53 -7q5 -1 18 -1q39 -1 61 14l2 -63q-8 -4 -19 -7q-27 -8 -77 -3l-11 1l-45 7q-6 1 -19 2q-67 6 -105 -6q-14 -4 -26 -11z" />
    <glyph glyph-name="glyph347" unicode="&#x1ee2;" horiz-adv-x="787" 
d="M179 361q0 -153 57 -233q54 -77 152 -77q30 0 64 8q156 35 156 302q0 308 -215 308q-214 0 -214 -308zM638 653l30 83l101 -44l-65 -119q48 -86 48 -212q0 -178 -93.5 -274t-265.5 -96q-171 0 -264.5 96t-93.5 273q0 178 93.5 274t264.5 96q154 0 245 -77zM319 -128
q0 30 20.5 49.5t53.5 19.5t53.5 -19.5t20.5 -49.5t-20.5 -50t-51.5 -20q-16 0 -32 6q-44 15 -44 64z" />
    <glyph glyph-name="glyph348" unicode="&#x1ee3;" horiz-adv-x="598" 
d="M168 285q0 -21 3 -47q23 -196 123 -196q20 0 42 8q72 25 92 188q6 47 0 94q-13 106 -46 153q-30 42 -83 42q-105 0 -128 -194q-3 -26 -3 -48zM464 527l30 63l101 -44l-64 -103q34 -72 34 -168q0 -128 -75 -206.5t-191 -78.5q-119 0 -191.5 79t-72.5 216q0 138 73 218
q71 77 191 77q98 0 165 -53zM225 -129q0 30 20.5 49.5t53.5 19.5t53.5 -19.5t20.5 -49.5t-20.5 -50t-51.5 -20q-16 0 -32 6q-44 15 -44 64z" />
    <glyph glyph-name="glyph349" unicode="&#x1ee4;" horiz-adv-x="702" 
d="M60 720h146l-2 -4l-1 -3q-3 -9 -3 -25v-453q0 -81 48.5 -131t131.5 -50q28 0 58 6q144 29 144 184v444q0 15 -3 24l-1 3l-1 4l70 1l-1 -5l-2 -2q-2 -14 -2 -25v-443q0 -116 -73 -185q-77 -72 -211 -72q-34 0 -71 5q-103 14 -162.5 78t-59.5 157v460q0 19 -2 25l-1 2z
M267 -131q0 30 20.5 49.5t53.5 19.5t53.5 -19.5t20.5 -49.5t-20.5 -50t-51.5 -20q-16 0 -32 6q-44 15 -44 64z" />
    <glyph glyph-name="glyph350" unicode="&#x1ee5;" horiz-adv-x="588" 
d="M55 567h134l-1 -4l-1 -3q-2 -10 -2 -24v-344q0 -54 26 -86t70 -32q18 0 38 6q84 24 84 124v331q0 16 -3 25v3l-2 4h134l-2 -5v-2q-2 -10 -2 -25v-503q0 -13 2 -25l1 -3l2 -4h-126v76q-27 -43 -74.5 -66.5t-99.5 -23.5q-68 0 -115 37q-50 40 -57 106q-1 15 -1 34v372
q0 16 -3 25l-1 3zM212 -132q0 30 20.5 49.5t53.5 19.5t53.5 -19.5t20.5 -49.5t-20.5 -50t-51.5 -20q-16 0 -32 6q-44 15 -44 64z" />
    <glyph glyph-name="glyph351" unicode="&#x1ee6;" horiz-adv-x="702" 
d="M60 720h146l-2 -4l-1 -3q-3 -9 -3 -25v-453q0 -81 48.5 -131t131.5 -50q28 0 58 6q144 29 144 184v444q0 15 -3 24l-1 3l-1 4l70 1l-1 -5l-2 -2q-2 -14 -2 -25v-443q0 -116 -73 -185q-77 -72 -211 -72q-34 0 -71 5q-103 14 -162.5 78t-59.5 157v460q0 19 -2 25l-1 2z
M343 853q9 14 25 40q22 37 21 41q-2 29 -33 29q-14 0 -34 -11.5t-29 -23.5l-17 34q32 39 72 55q22 9 42 9q31 0 51 -20.5t24 -51.5q2 -21 -14 -50q-5 -9 -17 -21q-36 -35 -57 -61q-17 -20 -9 -52v0l-26 1q0 2 -4 16.5t-4 26.5q0 20 9 39z" />
    <glyph glyph-name="glyph352" unicode="&#x1ee7;" horiz-adv-x="588" 
d="M55 567h134l-1 -4l-1 -3q-2 -10 -2 -24v-344q0 -54 26 -86t70 -32q18 0 38 6q84 24 84 124v331q0 16 -3 25v3l-2 4h134l-2 -5v-2q-2 -10 -2 -25v-503q0 -13 2 -25l1 -3l2 -4h-126v76q-27 -43 -74.5 -66.5t-99.5 -23.5q-68 0 -115 37q-50 40 -57 106q-1 15 -1 34v372
q0 16 -3 25l-1 3zM269 701q9 14 25 40q22 37 21 41q-2 29 -33 29q-14 0 -34 -11.5t-29 -23.5l-17 34q32 39 72 55q22 9 42 9q31 0 51 -20.5t24 -51.5q2 -21 -14 -50q-5 -9 -17 -21q-36 -35 -57 -61q-17 -20 -9 -52v0l-26 1q0 2 -4 16.5t-4 26.5q0 20 9 39z" />
    <glyph glyph-name="glyph353" unicode="&#x1ee8;" horiz-adv-x="702" 
d="M612 720l27 52h91l-88 -133v-394q0 -116 -73 -185q-77 -72 -211 -72q-34 0 -71 5q-103 14 -162.5 78t-59.5 157v460q0 19 -2 25l-1 2l-2 5h146l-2 -4l-1 -3q-3 -9 -3 -25v-453q0 -81 48.5 -131t131.5 -50q28 0 58 6q144 29 144 184v444q0 15 -3 24l-1 3l-1 4zM358 770
l74 152h99l-117 -152h-56z" />
    <glyph glyph-name="glyph354" unicode="&#x1ee9;" horiz-adv-x="588" 
d="M469 567l18 44h123l-82 -107v-472q0 -13 2 -25l1 -3l2 -4h-126v76q-27 -43 -74.5 -66.5t-99.5 -23.5q-68 0 -115 37q-50 40 -57 106q-1 15 -1 34v372q0 16 -3 25l-1 3l-1 4h134l-1 -4l-1 -3q-2 -10 -2 -24v-344q0 -54 26 -86t70 -32q18 0 38 6q84 24 84 124v331
q0 16 -3 25v3l-2 4h71zM259 618l74 152h99l-117 -152h-56z" />
    <glyph glyph-name="glyph355" unicode="&#x1eea;" horiz-adv-x="702" 
d="M612 720l27 52h91l-88 -133v-394q0 -116 -73 -185q-77 -72 -211 -72q-34 0 -71 5q-103 14 -162.5 78t-59.5 157v460q0 19 -2 25l-1 2l-2 5h146l-2 -4l-1 -3q-3 -9 -3 -25v-453q0 -81 48.5 -131t131.5 -50q28 0 58 6q144 29 144 184v444q0 15 -3 24l-1 3l-1 4zM252 921
h100l70 -151h-54z" />
    <glyph glyph-name="glyph356" unicode="&#x1eeb;" horiz-adv-x="588" 
d="M469 567l18 44h123l-82 -107v-472q0 -13 2 -25l1 -3l2 -4h-126v76q-27 -43 -74.5 -66.5t-99.5 -23.5q-68 0 -115 37q-50 40 -57 106q-1 15 -1 34v372q0 16 -3 25l-1 3l-1 4h134l-1 -4l-1 -3q-2 -10 -2 -24v-344q0 -54 26 -86t70 -32q18 0 38 6q84 24 84 124v331
q0 16 -3 25v3l-2 4h71zM156 769h100l70 -151h-54z" />
    <glyph glyph-name="glyph357" unicode="&#x1eec;" horiz-adv-x="702" 
d="M612 720l27 52h91l-88 -133v-394q0 -116 -73 -185q-77 -72 -211 -72q-34 0 -71 5q-103 14 -162.5 78t-59.5 157v460q0 19 -2 25l-1 2l-2 5h146l-2 -4l-1 -3q-3 -9 -3 -25v-453q0 -81 48.5 -131t131.5 -50q28 0 58 6q144 29 144 184v444q0 15 -3 24l-1 3l-1 4zM343 853
q9 14 25 40q22 37 21 41q-2 29 -33 29q-14 0 -34 -11.5t-29 -23.5l-17 34q32 39 72 55q22 9 42 9q31 0 51 -20.5t24 -51.5q2 -21 -14 -50q-5 -9 -17 -21q-36 -35 -57 -61q-17 -20 -9 -52v0l-26 1q0 2 -4 16.5t-4 26.5q0 20 9 39z" />
    <glyph glyph-name="glyph358" unicode="&#x1eed;" horiz-adv-x="588" 
d="M469 567l18 44h123l-82 -107v-472q0 -13 2 -25l1 -3l2 -4h-126v76q-27 -43 -74.5 -66.5t-99.5 -23.5q-68 0 -115 37q-50 40 -57 106q-1 15 -1 34v372q0 16 -3 25l-1 3l-1 4h134l-1 -4l-1 -3q-2 -10 -2 -24v-344q0 -54 26 -86t70 -32q18 0 38 6q84 24 84 124v331
q0 16 -3 25v3l-2 4h71zM269 701q9 14 25 40q22 37 21 41q-2 29 -33 29q-14 0 -34 -11.5t-29 -23.5l-17 34q32 39 72 55q22 9 42 9q31 0 51 -20.5t24 -51.5q2 -21 -14 -50q-5 -9 -17 -21q-36 -35 -57 -61q-17 -20 -9 -52v0l-26 1q0 2 -4 16.5t-4 26.5q0 20 9 39z" />
    <glyph glyph-name="glyph359" unicode="&#x1eee;" horiz-adv-x="702" 
d="M612 720l27 52h91l-88 -133v-394q0 -116 -73 -185q-77 -72 -211 -72q-34 0 -71 5q-103 14 -162.5 78t-59.5 157v460q0 19 -2 25l-1 2l-2 5h146l-2 -4l-1 -3q-3 -9 -3 -25v-453q0 -81 48.5 -131t131.5 -50q28 0 58 6q144 29 144 184v444q0 15 -3 24l-1 3l-1 4zM245 827
l12 4l13 4q36 11 121 4q7 0 24 -2l53 -7q5 -1 18 -1q39 -1 61 14l2 -63q-8 -4 -19 -7q-27 -8 -77 -3l-11 1l-45 7q-6 1 -19 2q-67 6 -105 -6q-14 -4 -26 -11z" />
    <glyph glyph-name="glyph360" unicode="&#x1eef;" horiz-adv-x="588" 
d="M469 567l18 44h123l-82 -107v-472q0 -13 2 -25l1 -3l2 -4h-126v76q-27 -43 -74.5 -66.5t-99.5 -23.5q-68 0 -115 37q-50 40 -57 106q-1 15 -1 34v372q0 16 -3 25l-1 3l-1 4h134l-1 -4l-1 -3q-2 -10 -2 -24v-344q0 -54 26 -86t70 -32q18 0 38 6q84 24 84 124v331
q0 16 -3 25v3l-2 4h71zM137 681l12 4l13 4q36 11 121 4q7 0 24 -2l53 -7q5 -1 18 -1q39 -1 61 14l2 -63q-8 -4 -19 -7q-27 -8 -77 -3l-11 1l-45 7q-6 1 -19 2q-67 6 -105 -6q-14 -4 -26 -11z" />
    <glyph glyph-name="glyph361" unicode="&#x1ef0;" horiz-adv-x="702" 
d="M612 720l27 52h91l-88 -133v-394q0 -116 -73 -185q-77 -72 -211 -72q-34 0 -71 5q-103 14 -162.5 78t-59.5 157v460q0 19 -2 25l-1 2l-2 5h146l-2 -4l-1 -3q-3 -9 -3 -25v-453q0 -81 48.5 -131t131.5 -50q28 0 58 6q144 29 144 184v444q0 15 -3 24l-1 3l-1 4zM267 -131
q0 30 20.5 49.5t53.5 19.5t53.5 -19.5t20.5 -49.5t-20.5 -50t-51.5 -20q-16 0 -32 6q-44 15 -44 64z" />
    <glyph glyph-name="glyph362" unicode="&#x1ef1;" horiz-adv-x="588" 
d="M469 567l18 44h123l-82 -107v-472q0 -13 2 -25l1 -3l2 -4h-126v76q-27 -43 -74.5 -66.5t-99.5 -23.5q-68 0 -115 37q-50 40 -57 106q-1 15 -1 34v372q0 16 -3 25l-1 3l-1 4h134l-1 -4l-1 -3q-2 -10 -2 -24v-344q0 -54 26 -86t70 -32q18 0 38 6q84 24 84 124v331
q0 16 -3 25v3l-2 4h71zM212 -132q0 30 20.5 49.5t53.5 19.5t53.5 -19.5t20.5 -49.5t-20.5 -50t-51.5 -20q-16 0 -32 6q-44 15 -44 64z" />
    <glyph glyph-name="glyph363" unicode="&#x1ef2;" horiz-adv-x="455" 
d="M-43 720h157l1 -5v-2q2 -10 9 -25l141 -292l146 292q9 17 10 24l1 3l1 4h75l-3 -4l-2 -3q-4 -6 -14 -24l-186 -373v-283q0 -19 2 -25l1 -3l2 -4h-145l2 3l1 4q2 8 2 25v281l-182 375q-7 15 -14 25l-2 3zM114 921h100l70 -151h-54z" />
    <glyph glyph-name="glyph364" unicode="&#x1ef3;" horiz-adv-x="458" 
d="M-26 568h144v-7q2 -9 7 -25l126 -364l147 364q7 16 8 25v3l1 4h77l-4 -4l-2 -3q-4 -7 -12 -25l-277 -670q-8 -20 -8 -25v-7l-5 -1h-70l-5 1l4 4l2 3q7 10 13 24l61 135l-191 536q-4 10 -11 25l-2 3zM124 769h100l70 -151h-54z" />
    <glyph glyph-name="glyph365" unicode="&#x1ef4;" horiz-adv-x="455" 
d="M-43 720h157l1 -5v-2q2 -10 9 -25l141 -292l146 292q9 17 10 24l1 3l1 4h75l-3 -4l-2 -3q-4 -6 -14 -24l-186 -373v-283q0 -19 2 -25l1 -3l2 -4h-145l2 3l1 4q2 8 2 25v281l-182 375q-7 15 -14 25l-2 3zM153 -119q0 30 20.5 49.5t53.5 19.5t53.5 -19.5t20.5 -49.5
t-20.5 -50t-51.5 -20q-16 0 -32 6q-44 15 -44 64z" />
    <glyph glyph-name="glyph366" unicode="&#x1ef5;" horiz-adv-x="458" 
d="M-26 568h144v-7q2 -9 7 -25l126 -364l147 364q7 16 8 25v3l1 4h77l-4 -4l-2 -3q-4 -7 -12 -25l-277 -670q-8 -20 -8 -25v-7l-5 -1h-70l-5 1l4 4l2 3q7 10 13 24l61 135l-191 536q-4 10 -11 25l-2 3zM246 -105q0 30 20.5 49.5t53.5 19.5t53.5 -19.5t20.5 -49.5t-20.5 -50
t-51.5 -20q-16 0 -32 6q-44 15 -44 64z" />
    <glyph glyph-name="glyph367" unicode="&#x1ef6;" horiz-adv-x="455" 
d="M-43 720h157l1 -5v-2q2 -10 9 -25l141 -292l146 292q9 17 10 24l1 3l1 4h75l-3 -4l-2 -3q-4 -6 -14 -24l-186 -373v-283q0 -19 2 -25l1 -3l2 -4h-145l2 3l1 4q2 8 2 25v281l-182 375q-7 15 -14 25l-2 3zM232 853q9 14 25 40q22 37 21 41q-2 29 -33 29q-14 0 -34 -11.5
t-29 -23.5l-17 34q32 39 72 55q22 9 42 9q31 0 51 -20.5t24 -51.5q2 -21 -14 -50q-5 -9 -17 -21q-36 -35 -57 -61q-17 -20 -9 -52v0l-26 1q0 2 -4 16.5t-4 26.5q0 20 9 39z" />
    <glyph glyph-name="glyph368" unicode="&#x1ef7;" horiz-adv-x="458" 
d="M-26 568h144v-7q2 -9 7 -25l126 -364l147 364q7 16 8 25v3l1 4h77l-4 -4l-2 -3q-4 -7 -12 -25l-277 -670q-8 -20 -8 -25v-7l-5 -1h-70l-5 1l4 4l2 3q7 10 13 24l61 135l-191 536q-4 10 -11 25l-2 3zM223 701q9 14 25 40q22 37 21 41q-2 29 -33 29q-14 0 -34 -11.5
t-29 -23.5l-17 34q32 39 72 55q22 9 42 9q31 0 51 -20.5t24 -51.5q2 -21 -14 -50q-5 -9 -17 -21q-36 -35 -57 -61q-17 -20 -9 -52v0l-26 1q0 2 -4 16.5t-4 26.5q0 20 9 39z" />
    <glyph glyph-name="glyph369" unicode="&#x1ef8;" horiz-adv-x="455" 
d="M-43 720h157l1 -5v-2q2 -10 9 -25l141 -292l146 292q9 17 10 24l1 3l1 4h75l-3 -4l-2 -3q-4 -6 -14 -24l-186 -373v-283q0 -19 2 -25l1 -3l2 -4h-145l2 3l1 4q2 8 2 25v281l-182 375q-7 15 -14 25l-2 3zM96 834l12 4l13 4q36 11 121 4q7 0 24 -2l53 -7q5 -1 18 -1
q39 -1 61 14l2 -63q-8 -4 -19 -7q-27 -8 -77 -3l-11 1l-45 7q-6 1 -19 2q-67 6 -105 -6q-14 -4 -26 -11z" />
    <glyph glyph-name="glyph370" unicode="&#x1ef9;" horiz-adv-x="458" 
d="M-26 568h144v-7q2 -9 7 -25l126 -364l147 364q7 16 8 25v3l1 4h77l-4 -4l-2 -3q-4 -7 -12 -25l-277 -670q-8 -20 -8 -25v-7l-5 -1h-70l-5 1l4 4l2 3q7 10 13 24l61 135l-191 536q-4 10 -11 25l-2 3zM80 683l12 4l13 4q36 11 121 4q7 0 24 -2l53 -7q5 -1 18 -1
q39 -1 61 14l2 -63q-8 -4 -19 -7q-27 -8 -77 -3l-11 1l-45 7q-6 1 -19 2q-67 6 -105 -6q-14 -4 -26 -11z" />
    <glyph glyph-name="endash" unicode="&#x2013;" horiz-adv-x="530" 
d="M32 291v74h466v-74h-466z" />
    <glyph glyph-name="emdash" unicode="&#x2014;" horiz-adv-x="382" 
d="M30 165v108h322v-108h-322z" />
    <glyph glyph-name="quoteleft" unicode="&#x2018;" horiz-adv-x="227" 
d="M0 521l120 223l77 -34l-96 -233z" />
    <glyph glyph-name="quoteright" unicode="&#x2019;" horiz-adv-x="227" 
d="M0 511l96 233l101 -44l-121 -223z" />
    <glyph glyph-name="quotesinglbase" unicode="&#x201a;" horiz-adv-x="226" 
d="M-1 -98l96 233l101 -44l-121 -223z" />
    <glyph glyph-name="quotedblleft" unicode="&#x201c;" horiz-adv-x="380" 
d="M0 521l120 223l77 -34l-96 -233zM153 521l120 223l77 -34l-96 -233z" />
    <glyph glyph-name="quotedblright" unicode="&#x201d;" horiz-adv-x="380" 
d="M0 511l96 233l101 -44l-121 -223zM153 511l96 233l101 -44l-121 -223z" />
    <glyph glyph-name="quotedblbase" unicode="&#x201e;" horiz-adv-x="379" 
d="M-1 -98l96 233l101 -44l-121 -223zM152 -98l96 233l101 -44l-121 -223z" />
    <glyph glyph-name="dagger" unicode="&#x2020;" horiz-adv-x="588" 
d="M19 381v115h216v225h118v-225h216v-115h-216v-454h-118v454h-216z" />
    <glyph glyph-name="daggerdbl" unicode="&#x2021;" horiz-adv-x="595" 
d="M22 120v115l217 1l1 143h-217l1 115h216l-1 222h118l1 -222l216 -1v-115l-215 1v-146l215 -1l-1 -115l-215 2v-227l-119 1v228z" />
    <glyph glyph-name="bullet" unicode="&#x2022;" horiz-adv-x="360" 
d="M43 360q0 57 40 97t97 40q56 0 96.5 -40t40.5 -97t-40.5 -97t-96.5 -40q-57 0 -97 40t-40 97z" />
    <glyph glyph-name="ellipsis" unicode="&#x2026;" horiz-adv-x="670" 
d="M40 61q0 30 21 51t51 21t51 -21t21 -51t-21 -51t-51 -21t-51 21t-21 51zM263 61q0 30 21 51t51 21t51 -21t21 -51t-21 -51t-51 -21t-51 21t-21 51zM486 61q0 30 21.5 51t50.5 21q30 0 51 -21t21 -51t-21 -51t-51 -21q-29 0 -50.5 21t-21.5 51z" />
    <glyph glyph-name="perthousand" unicode="&#x2030;" horiz-adv-x="1002" 
d="M172 0l276 720h55l-276 -720h-55zM23 539q0 80 47 147q39 55 102 55t101 -54q47 -67 47 -147t-47 -147q-38 -54 -101 -54t-102 55q-47 67 -47 145zM111 459q14 -44 30 -58q13 -11 30 -11q30 0 44 27q11 21 18 42q12 38 12 79q0 67 -30 125q-14 27 -44 27q-17 0 -30 -11
q-41 -34 -41 -149q0 -36 11 -71zM355 180q0 80 47 147q38 54 101 54q65 0 103 -55q46 -66 46 -146t-46 -146q-38 -55 -103 -55q-63 0 -101 54q-47 67 -47 147zM460 57q14 -27 44 -27q45 0 61 69q10 43 10 85q0 102 -41 135q-13 11 -30 11q-30 0 -44 -27q-30 -57 -30 -123
q0 -67 30 -123zM682 180q0 80 47 147q38 54 101 54q65 0 103 -55q46 -66 46 -146t-46 -146q-38 -55 -103 -55q-63 0 -101 54q-47 67 -47 147zM770 99q7 -23 17 -42q14 -27 44 -27q17 0 31 11.5t27 48.5q15 43 15 90q0 66 -30 123q-14 27 -43 27q-17 0 -31 -11
q-41 -32 -41 -149q0 -34 11 -71z" />
    <glyph glyph-name="guilsinglleft" unicode="&#x2039;" horiz-adv-x="242" 
d="M19 284l115 215h89l-116 -215l115 -212h-90z" />
    <glyph glyph-name="guilsinglright" unicode="&#x203a;" horiz-adv-x="241" 
d="M19 499h91l112 -214l-113 -213h-90l115 213z" />
    <glyph glyph-name="fraction" unicode="&#x2044;" horiz-adv-x="218" 
d="M-83 0l321 720h66l-321 -720h-66z" />
    <glyph glyph-name="franc" unicode="&#x20a3;" horiz-adv-x="1035" 
d="M60 0l2 4l1 3q3 9 3 25l-1 656q0 16 -2 24l-1 4l-2 3l377 1v-64l-7 2l-6 1q-3 0 -12 1h-17h-195v-267h165q17 0 29 2l12 2v-63l-14 2q-14 2 -25 2h-167v-306q0 -15 2 -25l2 -4l1 -3h-145zM707 0l2 4l1 3q2 10 2 25v504q0 13 -2 25l-1 3l-2 4h126v-75q2 8 8 19
q31 62 124 67h9v-96h-5q-4 1 -5 1q-127 5 -127 -119v-333q0 -13 2 -25l1 -3l2 -4h-135z" />
    <glyph glyph-name="u20AB" unicode="&#x20ab;" horiz-adv-x="393" 
d="M197 501q-48 0 -84 -88q-20 -49 -20 -90q0 -51 39 -51q41 0 74 71q28 60 28 107q0 51 -37 51zM200 267q-53 -62 -106 -62q-45 0 -68 28t-23 74q0 80 55 153q59 78 136 78q34 0 61 -24l20 75h-100l10 36h100l2 16q0 31 -48 32l7 33q67 2 128 14l15 3q6 0 6 -9l-3 -12
l-19 -77h65l-10 -36h-65l-69 -280q-5 -20 -5 -27q0 -15 12 -15q6 0 49 42l20 -18q-70 -86 -117 -86q-43 0 -53 62zM9 160h221v-56h-221v56z" />
    <glyph glyph-name="trademark" unicode="&#x2122;" horiz-adv-x="723" 
d="M43 666v54h218v-54h-80v-306h-60v306h-78zM249 360l67 367h39l92 -217q16 -37 17 -68q1 32 17 68l93 217h39l67 -367h-60l-37 227q-2 17 0 38q-3 -11 -10 -37l-4 -15l-2 -5l-90 -214h-25l-97 234q-3 9 -10 37q2 -26 1 -38l-1 -10l-2 -11l-35 -206h-59z" />
    <glyph glyph-name="SF370000" unicode="&#x255f;" horiz-adv-x="718" 
d="M-26 0l3 4l3 3q5 9 11 25l233 656q6 17 6 24v3l-1 4h118v-7q1 -5 8 -24l239 -656q6 -15 12 -25l2 -3l3 -4h-156v7q0 5 -7 25l-66 188h-260l-67 -188q-7 -20 -7 -25v-3l1 -4h-75zM143 279h218l-110 311z" />
    <glyph glyph-name="SF420000" unicode="&#x2560;" horiz-adv-x="681" 
d="M60 0l2 3l1 4q2 5 2 25l1 656q0 19 -3 25l-1 2l-2 5h385l-1 -64l-6 1l-7 1q-14 2 -28 2h-202v-266h203q15 0 27 2l6 1l7 1v-64l-7 2l-6 1q-12 2 -27 2h-203v-274h201q23 0 29 1l6 1l7 2v-69h-384z" />
    <glyph glyph-name="SF190000" unicode="&#x2561;" horiz-adv-x="429" 
d="M60 719h146l-2 -4l-1 -3q-3 -9 -3 -24v-656q0 -19 3 -25l1 -4l1 -3h-144l1 4l1 3q3 9 3 25v656q0 15 -3 24l-1 3z" />
    <glyph glyph-name="SF200000" unicode="&#x2562;" horiz-adv-x="773" 
d="M35 360q0 178 93.5 274t264.5 96q172 0 265.5 -96t93.5 -273q0 -178 -93.5 -274t-265.5 -96q-171 0 -264.5 96t-93.5 273zM179 361q0 -153 57 -233q54 -77 152 -77q30 0 64 8q156 35 156 302q0 308 -215 308q-214 0 -214 -308z" />
    <glyph glyph-name="SF230000" unicode="&#x2563;" horiz-adv-x="811" 
d="M60 720h146l-2 -4l-1 -3q-3 -9 -3 -25v-453q0 -81 48.5 -131t131.5 -50q28 0 58 6q144 29 144 184v444q0 15 -3 24l-1 3l-1 4l70 1l-1 -5l-2 -2q-2 -14 -2 -25v-443q0 -116 -73 -185q-77 -72 -211 -72q-34 0 -71 5q-103 14 -162.5 78t-59.5 157v460q0 19 -2 25l-1 2z" />
    <glyph glyph-name="SF470000" unicode="&#x2564;" horiz-adv-x="699" 
d="M-43 720h157l1 -5v-2q2 -10 9 -25l141 -292l146 292q9 17 10 24l1 3l1 4h75l-3 -4l-2 -3q-4 -6 -14 -24l-186 -373v-283q0 -19 2 -25l1 -3l2 -4h-145l2 3l1 4q2 8 2 25v281l-182 375q-7 15 -14 25l-2 3z" />
    <glyph glyph-name="SF480000" unicode="&#x2565;" horiz-adv-x="541" 
d="M100 456l-20 78q25 11 40 17q94 35 169 35q86 0 135 -46q44 -42 44 -110v-296q0 -6 2 -30q3 -34 29 -34q9 0 25 8l13 9v-67q-4 -3 -16 -10q-38 -22 -75 -22q-39 0 -67 21q-33 24 -29 61q-33 -40 -77 -61.5t-90 -21.5q-68 0 -113 45.5t-45 115.5q0 126 144 180q19 7 99 30
q41 12 56 26.5t18 44.5q4 42 -27 66q-27 21 -70 21q-68 0 -145 -60zM343 336q-16 -13 -27 -18q-107 -41 -139.5 -71t-31.5 -81q0 -9 2 -23q17 -73 84 -73q26 0 52 14q60 33 60 110v142z" />
    <glyph glyph-name="SF410000" unicode="&#x2566;" horiz-adv-x="431" 
d="M550 297h-385v-20q1 -113 46.5 -171.5t124.5 -58.5q100 0 169 66l18 -78q-89 -48 -203 -48q-137 0 -212.5 80t-72.5 221q3 114 53 188t132 95q46 12 88 12q107 0 172.5 -72t69.5 -197v-17zM168 354h249q0 15 -6 50q-4 24 -15 50q-30 70 -101 70q-42 0 -73 -31
q-54 -54 -54 -139z" />
    <glyph glyph-name="SF450000" unicode="&#x2567;" horiz-adv-x="314" 
d="M47 668q0 39 42 47q21 4 39 4q70 0 70 -51q0 -50 -76 -50q-75 0 -75 50zM55 0l1 3l2 4q2 10 2 25v504q0 14 -2 24l-1 3l-2 4h136l-2 -4l-1 -3q-2 -6 -2 -24v-504q0 -19 2 -25l1 -3l1 -4h-135z" />
    <glyph glyph-name="SF460000" unicode="&#x2568;" horiz-adv-x="314" 
d="M47 0l2 3l1 4q2 5 2 25v504q0 18 -2 24l-1 3l-2 4h136l-2 -3l-1 -4q-2 -8 -2 -24v-504q0 -17 2 -25l1 -4l1 -3h-135z" />
    <glyph glyph-name="SF400000" unicode="&#x2569;" horiz-adv-x="498" 
d="M35 285q0 138 73 218q71 77 191 77q95 0 161.5 -50t89.5 -140q15 -59 15 -115q0 -128 -75 -206.5t-191 -78.5q-119 0 -191.5 79t-72.5 216zM168 285q0 -21 3 -47q23 -196 123 -196q20 0 42 8q72 25 92 188q6 47 0 94q-13 106 -46 153q-30 42 -83 42q-105 0 -128 -194
q-3 -26 -3 -48z" />
    <glyph glyph-name="SF540000" unicode="&#x256a;" horiz-adv-x="557" 
d="M55 567h134l-1 -4l-1 -3q-2 -10 -2 -24v-344q0 -54 26 -86t70 -32q18 0 38 6q84 24 84 124v331q0 16 -3 25v3l-2 4h134l-2 -5v-2q-2 -10 -2 -25v-503q0 -13 2 -25l1 -3l2 -4h-126v76q-27 -43 -74.5 -66.5t-99.5 -23.5q-68 0 -115 37q-50 40 -57 106q-1 15 -1 34v372
q0 16 -3 25l-1 3z" />
    <glyph glyph-name="SF530000" unicode="&#x256b;" horiz-adv-x="497" 
d="M-26 568h144v-7q2 -9 7 -25l126 -364l147 364q7 16 8 25v3l1 4h77l-4 -4l-2 -3q-4 -7 -12 -25l-277 -670q-8 -20 -8 -25v-7l-5 -1h-70l-5 1l4 4l2 3q7 10 13 24l61 135l-191 536q-4 10 -11 25l-2 3z" />
    <glyph glyph-name="circle" unicode="&#x25cb;" horiz-adv-x="718" 
d="M228 844l127 155h73l121 -155h-86l-72 113l-77 -113h-86zM245 1032l74 152h99l-117 -152h-56z" />
    <glyph glyph-name="H18533" unicode="&#x25cf;" horiz-adv-x="718" 
d="M228 844l127 155h73l121 -155h-86l-72 113l-77 -113h-86zM289 1184h100l70 -151h-54z" />
    <glyph glyph-name="invbullet" unicode="&#x25d8;" horiz-adv-x="718" 
d="M228 844l127 155h73l121 -155h-86l-72 113l-77 -113h-86zM614 903q9 29 11 64q1 11 8 13q3 0 8 1q67 11 67 54q0 35 -28 35q-5 0 -14 -1t-14 -1q-21 0 -21 18q0 28 32 28q46 0 76 -25.5t26 -70.5q-6 -59 -87 -81q-25 -7 -31 -34h-33z" />
    <glyph glyph-name="invcircle" unicode="&#x25d9;" horiz-adv-x="718" 
d="M228 844l127 155h73l121 -155h-86l-72 113l-77 -113h-86zM275 1095l12 4l13 4q36 11 121 4q7 0 24 -2l53 -7q5 -1 18 -1q39 -1 61 14l2 -63q-8 -4 -19 -7q-27 -8 -77 -3l-11 1l-45 7q-6 1 -19 2q-67 6 -105 -6q-14 -4 -26 -11z" />
    <glyph glyph-name="fi" unicode="&#xf001;" horiz-adv-x="530" 
d="M74 179l138 138l-138 138l53 52l138 -137l138 138l53 -53l-138 -139l138 -138l-53 -53l-138 139l-138 -138z" />
    <glyph glyph-name="fl" unicode="&#xf002;" horiz-adv-x="422" 
d="M29 635l268 97l-1 -5l-2 -5q-2 -16 -2 -25v-665q0 -15 2 -25l1 -3l2 -4h-143l2 4l1 3q2 10 2 25v581l-125 -58v51q0 18 -2 24l-1 2z" />
    <glyph glyph-name="periodcentered" horiz-adv-x="208" 
d="M30 293q0 30 20.5 49.5t53.5 19.5t53.5 -19.5t20.5 -49.5t-20.5 -50t-51.5 -20q-16 0 -32 6q-44 15 -44 64z" />
    <glyph glyph-name="glyph206" horiz-adv-x="290" 
 />
    <glyph glyph-name="glyph207" horiz-adv-x="862" 
d="M58 361q0 154 109.5 263.5t263.5 109.5t263.5 -109.5t109.5 -263.5t-109 -263.5t-264 -109.5t-264 109t-109 264zM112 361q0 -134 93.5 -229.5t225.5 -95.5t225.5 95t93.5 229q0 135 -93.5 229.5t-225.5 95.5q-132 0 -225.5 -95.5t-93.5 -228.5zM311 135v460h114
q72 0 105 -27q45 -37 45 -103q0 -51 -33.5 -86t-83.5 -35l141 -209h-77l-146 223v-223h-65zM376 381h38q92 0 94 79q2 81 -89 81h-43v-160z" />
    <glyph glyph-name="glyph275" horiz-adv-x="249" 
 />
    <glyph glyph-name="glyph276" horiz-adv-x="249" 
 />
    <glyph glyph-name="glyph261" horiz-adv-x="500" 
d="M253 522q9 29 11 64q1 11 8 13q3 0 8 1q67 11 67 54q0 35 -28 35q-5 0 -14 -1t-14 -1q-21 0 -21 18q0 28 32 28q46 0 76 -25.5t26 -70.5q-6 -59 -87 -81q-25 -7 -31 -34h-33z" />
    <glyph glyph-name="glyph262" horiz-adv-x="541" 
d="M25 612l127 155h73l121 -155h-86l-72 113l-77 -113h-86zM41 801l74 152h99l-117 -152h-56z" />
    <glyph glyph-name="glyph263" horiz-adv-x="541" 
d="M25 612l127 155h73l121 -155h-86l-72 113l-77 -113h-86zM86 952h100l70 -151h-54z" />
    <glyph glyph-name="glyph264" horiz-adv-x="541" 
d="M25 612l127 155h73l121 -155h-86l-72 113l-77 -113h-86zM411 671q9 29 11 64q1 11 8 13q3 0 8 1q67 11 67 54q0 35 -28 35q-5 0 -14 -1t-14 -1q-21 0 -21 18q0 28 32 28q46 0 76 -25.5t26 -70.5q-6 -59 -87 -81q-25 -7 -31 -34h-33z" />
    <glyph glyph-name="glyph265" horiz-adv-x="541" 
d="M25 612l127 155h73l121 -155h-86l-72 113l-77 -113h-86zM72 863l12 4l13 4q36 11 121 4q7 0 24 -2l53 -7q5 -1 18 -1q39 -1 61 14l2 -63q-8 -4 -19 -7q-27 -8 -77 -3l-11 1l-45 7q-6 1 -19 2q-67 6 -105 -6q-14 -4 -26 -11z" />
    <glyph glyph-name="glyph266" horiz-adv-x="541" 
d="M31 751h80q-11 -32 9.5 -59t53.5 -27q34 0 54 27t10 59h80q-2 -59 -43.5 -100t-100.5 -41t-100.5 41.5t-42.5 99.5zM120 801l74 152h99l-117 -152h-56z" />
    <glyph glyph-name="glyph267" horiz-adv-x="541" 
d="M31 751h80q-11 -32 9.5 -59t53.5 -27q34 0 54 27t10 59h80q-2 -59 -43.5 -100t-100.5 -41t-100.5 41.5t-42.5 99.5zM33 952h100l70 -151h-54z" />
    <glyph glyph-name="glyph268" horiz-adv-x="541" 
d="M31 751h80q-11 -32 9.5 -59t53.5 -27q34 0 54 27t10 59h80q-2 -59 -43.5 -100t-100.5 -41t-100.5 41.5t-42.5 99.5zM306 671q9 29 11 64q1 11 8 13q3 0 8 1q67 11 67 54q0 35 -28 35q-5 0 -14 -1t-14 -1q-21 0 -21 18q0 28 32 28q46 0 76 -25.5t26 -70.5q-6 -59 -87 -81
q-25 -7 -31 -34h-33z" />
    <glyph glyph-name="glyph269" horiz-adv-x="541" 
d="M31 751h80q-11 -32 9.5 -59t53.5 -27q34 0 54 27t10 59h80q-2 -59 -43.5 -100t-100.5 -41t-100.5 41.5t-42.5 99.5zM72 863l12 4l13 4q36 11 121 4q7 0 24 -2l53 -7q5 -1 18 -1q39 -1 61 14l2 -63q-8 -4 -19 -7q-27 -8 -77 -3l-11 1l-45 7q-6 1 -19 2q-67 6 -105 -6
q-14 -4 -26 -11z" />
    <glyph glyph-name="glyph270" horiz-adv-x="249" 
 />
  </font>
</defs>
</svg>
